<?xml version="1.0" encoding="utf-8"?>
<!-- Generator: Adobe Illustrator 23.0.3, SVG Export Plug-In . SVG Version: 6.00 Build 0)  -->
<svg version="1.1" id="sitelock" xmlns="http://www.w3.org/2000/svg" xmlns:xlink="http://www.w3.org/1999/xlink" x="0px" y="0px"
	 viewBox="0 0 446 310" style="enable-background:new 0 0 446 310;" xml:space="preserve">
<style type="text/css">
	.st0{fill:#FFFFFF;}
	.st1{fill-rule:evenodd;clip-rule:evenodd;fill:#A4E0FF;}
	.st2{fill:#009AFF;}
	.st3{fill:none;stroke:#F3F5F9;}
	.st4{fill:#A4E0FF;}
	.st5{fill-rule:evenodd;clip-rule:evenodd;fill:#FFFFFF;}
	.st6{fill-rule:evenodd;clip-rule:evenodd;fill:#E3EFFC;}
	.st7{fill:#E3EFFC;}
	.st8{fill-rule:evenodd;clip-rule:evenodd;fill:#F3F5F9;stroke:#F3F5F9;}
	.st9{fill:none;stroke:#FFFFFF;}
	.st10{fill:none;stroke:#A4E0FF;}
	.st11{fill:#EEF0F4;}
	.st12{fill:none;stroke:#393D45;stroke-width:2;}
</style>
<rect id="Prostokąt_1237" x="71" class="st0" width="375" height="310"/>
<path id="Kształt_1718" class="st1" d="M0,310V0h79v310H0z"/>
<rect id="Prostokąt_726" y="19" class="st2" width="79" height="18"/>
<g id="Grupa_23">
	<path id="Kształt_1718_kopia" class="st3" d="M93,284V125h338v159H93z"/>
	<g id="Grupa_13">
		<circle id="Elipsa_698" class="st4" cx="155.4" cy="170.3" r="25.4"/>
		<path id="Kształt_1231" class="st5" d="M156.6,170l6.2-6.2c0.2-0.2,0.2-0.6,0-0.8l-0.8-0.8c-0.2-0.2-0.6-0.2-0.8,0c0,0,0,0,0,0
			l-6.2,6.2l-6.2-6.2c-0.2-0.2-0.6-0.2-0.8,0c0,0,0,0,0,0l-0.8,0.8c-0.2,0.2-0.2,0.6,0,0.8c0,0,0,0,0,0l6.2,6.2l-6.2,6.2
			c-0.2,0.2-0.2,0.6,0,0.8c0,0,0,0,0,0l0.8,0.8c0.1,0.1,0.3,0.2,0.4,0.2c0.2,0,0.3-0.1,0.4-0.2l6.2-6.2l6.2,6.2
			c0.1,0.1,0.2,0.2,0.4,0.2c0.2,0,0.3-0.1,0.4-0.2l0.8-0.8c0.2-0.2,0.2-0.6,0-0.8L156.6,170z"/>
	</g>
	<g id="Grupa_19">
		<path id="Elipsa_698_kopia_4" class="st1" d="M297.5,212.3c14,0,25.4,11.4,25.4,25.4c0,14-11.4,25.4-25.4,25.4
			c-14,0-25.4-11.4-25.4-25.4c0,0,0,0,0,0C272.1,223.7,283.5,212.3,297.5,212.3z"/>
		<path id="Kształt_1231_kopia_4" class="st5" d="M299.6,238l6.2-6.2c0.2-0.2,0.2-0.6,0-0.8l-0.8-0.8c-0.2-0.2-0.6-0.2-0.8,0
			c0,0,0,0,0,0l-6.2,6.2l-6.2-6.2c-0.2-0.2-0.6-0.2-0.8,0c0,0,0,0,0,0l-0.8,0.8c-0.2,0.2-0.2,0.6,0,0.8c0,0,0,0,0,0l6.2,6.2
			l-6.2,6.2c-0.2,0.2-0.2,0.6,0,0.8c0,0,0,0,0,0l0.8,0.8c0.1,0.1,0.3,0.2,0.4,0.2c0.2,0,0.3-0.1,0.4-0.2l6.2-6.2l6.2,6.2
			c0.1,0.1,0.2,0.2,0.4,0.2c0.2,0,0.3-0.1,0.4-0.2l0.8-0.8c0.2-0.2,0.2-0.6,0-0.8L299.6,238z"/>
	</g>
	<g id="Grupa_14">
		<path id="Elipsa_698_kopia" class="st6" d="M226.5,144.9c14,0,25.4,11.4,25.4,25.4s-11.4,25.4-25.4,25.4
			c-14,0-25.4-11.4-25.4-25.4C201,156.2,212.4,144.9,226.5,144.9C226.5,144.9,226.5,144.9,226.5,144.9z"/>
		<path id="Kształt_1231-2" class="st1" d="M235.8,163.9l-0.8-0.8c-0.2-0.2-0.6-0.2-0.8,0c0,0,0,0,0,0v0l-12.7,13.1l-3.8-3.9
			c-0.2-0.2-0.6-0.2-0.8,0c0,0,0,0,0,0l0,0l-0.8,0.8c-0.2,0.2-0.2,0.6,0,0.8v0l4.8,4.9c0.1,0.1,0.2,0.2,0.4,0.2h0.5
			c0.1,0,0.3-0.1,0.4-0.2l13.7-14.1C236,164.5,236,164.2,235.8,163.9L235.8,163.9L235.8,163.9z"/>
	</g>
	<g id="Grupa_15">
		<path id="Elipsa_698_kopia_2" class="st6" d="M297.5,144.9c14,0,25.4,11.4,25.4,25.4c0,14-11.4,25.4-25.4,25.4
			c-14,0-25.4-11.4-25.4-25.4C272.1,156.2,283.5,144.9,297.5,144.9z"/>
		<path id="Kształt_1231_kopia" class="st1" d="M307.8,163.9l-0.8-0.8c-0.2-0.2-0.6-0.2-0.8,0c0,0,0,0,0,0v0l-12.7,13.1l-3.8-3.9
			c-0.2-0.2-0.6-0.2-0.8,0c0,0,0,0,0,0l0,0l-0.8,0.8c-0.2,0.2-0.2,0.6,0,0.8v0l4.8,4.9c0.1,0.1,0.2,0.2,0.4,0.2h0.5
			c0.1,0,0.3-0.1,0.4-0.2l13.7-14.1C308,164.5,308,164.2,307.8,163.9L307.8,163.9L307.8,163.9z"/>
	</g>
	<g id="Grupa_20">
		<circle id="Elipsa_698_kopia_4-2" class="st7" cx="368.6" cy="237.7" r="25.4"/>
		<path id="Kształt_1231_kopia_3" class="st1" d="M378.8,230.9l-0.8-0.8c-0.2-0.2-0.6-0.2-0.8,0c0,0,0,0,0,0v0l-12.7,13.1l-3.8-3.9
			c-0.2-0.2-0.6-0.2-0.8,0c0,0,0,0,0,0l0,0l-0.8,0.8c-0.2,0.2-0.2,0.6,0,0.8v0l4.8,4.9c0.1,0.1,0.2,0.2,0.4,0.2h0.5
			c0.1,0,0.3-0.1,0.4-0.2l13.7-14.1C379,231.5,379,231.2,378.8,230.9L378.8,230.9L378.8,230.9z"/>
	</g>
	<g id="Grupa_18">
		<path id="Elipsa_698_kopia_4-3" class="st6" d="M226.5,212.3c14,0,25.4,11.4,25.4,25.4s-11.4,25.4-25.4,25.4
			c-14,0-25.4-11.4-25.4-25.4C201,223.7,212.4,212.3,226.5,212.3C226.5,212.3,226.5,212.3,226.5,212.3z"/>
		<path id="Kształt_1231_kopia_5" class="st1" d="M236.8,230.9l-0.8-0.8c-0.2-0.2-0.6-0.2-0.8,0c0,0,0,0,0,0v0l-12.7,13.1l-3.8-3.9
			c-0.2-0.2-0.6-0.2-0.8,0c0,0,0,0,0,0l0,0l-0.8,0.8c-0.2,0.2-0.2,0.6,0,0.8v0l4.8,4.9c0.1,0.1,0.2,0.2,0.4,0.2h0.5
			c0.1,0,0.3-0.1,0.4-0.2l13.7-14.1C237,231.5,237,231.2,236.8,230.9L236.8,230.9L236.8,230.9z"/>
	</g>
	<g id="Grupa_17">
		<circle id="Elipsa_698_kopia_4-4" class="st7" cx="155.4" cy="237.7" r="25.4"/>
		<path id="Kształt_1231_kopia_6" class="st1" d="M165.8,230.9l-0.8-0.8c-0.2-0.2-0.6-0.2-0.8,0c0,0,0,0,0,0v0l-12.7,13.1l-3.8-3.9
			c-0.2-0.2-0.6-0.2-0.8,0c0,0,0,0,0,0l0,0l-0.8,0.8c-0.2,0.2-0.2,0.6,0,0.8v0l4.8,4.9c0.1,0.1,0.2,0.2,0.4,0.2h0.5
			c0.1,0,0.3-0.1,0.4-0.2l13.7-14.1C166,231.5,166,231.2,165.8,230.9L165.8,230.9L165.8,230.9z"/>
	</g>
	<g id="Grupa_16">
		<circle id="Elipsa_698_kopia_3" class="st7" cx="368.6" cy="170.3" r="25.4"/>
		<path id="Kształt_1231_kopia_2" class="st1" d="M378.8,163.9l-0.8-0.8c-0.2-0.2-0.6-0.2-0.8,0c0,0,0,0,0,0v0l-12.7,13.1l-3.8-3.9
			c-0.2-0.2-0.6-0.2-0.8,0c0,0,0,0,0,0l0,0l-0.8,0.8c-0.2,0.2-0.2,0.6,0,0.8v0l4.8,4.9c0.1,0.1,0.2,0.2,0.4,0.2h0.5
			c0.1,0,0.3-0.1,0.4-0.2l13.7-14.1C379,164.5,379,164.2,378.8,163.9L378.8,163.9L378.8,163.9z"/>
	</g>
</g>
<g id="Grupa_21">
	<path id="Kształt_1718-2" class="st8" d="M93,110V19h338v91H93z"/>
	<path id="Kształt_685" class="st9" d="M103,47v-1h318v1H103z"/>
	<path id="Kształt_685_kopia_5" class="st9" d="M103,36v-1h318v1H103z"/>
	<path id="Kształt_685_kopia" class="st9" d="M103,58v-1h318v1H103z"/>
	<path id="Kształt_685_kopia_2" class="st9" d="M103,69v-1h318v1H103z"/>
	<path id="Kształt_685_kopia_3" class="st9" d="M103,80v-1h318v1H103z"/>
	<path id="Kształt_685_kopia_3-2" class="st9" d="M104,91v-1h317v1H104z"/>
</g>
<g id="Grupa_26">
	<rect id="Prostokąt_720" x="9" y="24" class="st0" width="7" height="7"/>
	<rect id="Prostokąt_720_kopia" x="9" y="43" class="st0" width="7" height="7"/>
	<rect id="Prostokąt_720_kopia_2" x="9" y="62" class="st0" width="7" height="7"/>
	<rect id="Prostokąt_720_kopia_3" x="9" y="81" class="st0" width="7" height="7"/>
	<rect id="Prostokąt_720_kopia_4" x="9" y="100" class="st0" width="7" height="7"/>
	<rect id="Prostokąt_720_kopia_5" x="9" y="119" class="st0" width="7" height="7"/>
	<rect id="Prostokąt_714" x="23" y="26" class="st0" width="46" height="3"/>
	<rect id="Prostokąt_714_kopia" x="23" y="45" class="st0" width="46" height="3"/>
	<rect id="Prostokąt_714_kopia_2" x="23" y="64" class="st0" width="46" height="3"/>
	<rect id="Prostokąt_714_kopia_3" x="23" y="83" class="st0" width="46" height="3"/>
	<rect id="Prostokąt_714_kopia_4" x="23" y="102" class="st0" width="46" height="3"/>
	<rect id="Prostokąt_714_kopia_5" x="23" y="121" class="st0" width="46" height="3"/>
</g>
<g id="Grupa_27">
	<path id="Kształt_1104" class="st10" d="M218,91l38-34l52,33.5h112"/>
	<path id="Kształt_1104-2" class="st10" d="M104,90.5h115"/>
	<circle id="Elipsa_692" class="st2" cx="105" cy="90" r="2"/>
	<circle id="Elipsa_692_kopia" class="st2" cx="164" cy="91" r="2"/>
	<circle id="Elipsa_692_kopia-2" class="st2" cx="219" cy="91" r="2"/>
	<circle id="Elipsa_692_kopia-3" class="st7" cx="256" cy="57" r="9"/>
	<circle id="Elipsa_692_kopia-4" class="st4" cx="256" cy="57" r="6"/>
	<circle id="Elipsa_692_kopia-5" class="st2" cx="256" cy="57" r="2"/>
	<circle id="Elipsa_692_kopia-6" class="st2" cx="343" cy="90" r="2"/>
	<circle id="Elipsa_692_kopia-7" class="st2" cx="419" cy="90" r="2"/>
</g>
<g id="tooltip">
	<path id="Prostokąt_534_kopia_7" class="st0" d="M289,36h60c1.7,0,3,1.3,3,3v35c0,1.7-1.3,3-3,3h-60c-1.7,0-3-1.3-3-3V39
		C286,37.3,287.3,36,289,36z"/>
	<rect id="Prostokąt_714-2" x="296" y="61" class="st11" width="47" height="2"/>
	<rect id="Prostokąt_714_kopia_8" x="296" y="56" class="st11" width="47" height="2"/>
	<rect id="Prostokąt_714-3" x="296" y="51" class="st11" width="47" height="2"/>
	<rect id="Prostokąt_714_kopia_10" x="296" y="46" class="st11" width="47" height="2"/>
	<rect id="Prostokąt_714_kopia_9" x="296" y="66" class="st2" width="47" height="2"/>
</g>
<g id="scan_2">
	<path id="Prostokąt_1110" class="st12" d="M240,48.5V41h7.4 M264.5,41h7.4v7.4 M272,65.5V73h-7.4 M247.5,73H240v-7.4"/>
</g>
</svg>
