<?xml version="1.0" encoding="utf-8"?>
<!-- Generator: Adobe Illustrator 22.1.0, SVG Export Plug-In . SVG Version: 6.00 Build 0)  -->
<svg version="1.1" id="Warstwa_1" xmlns="http://www.w3.org/2000/svg" xmlns:xlink="http://www.w3.org/1999/xlink" x="0px" y="0px"
	 width="376px" height="324px" viewBox="0 0 376 324" style="enable-background:new 0 0 376 324;" xml:space="preserve">
<style type="text/css">
	.st0{fill:#FFFFFF;}
	.st1{fill:#056CEA;}
	.st2{fill:#A4E0FF;}
</style>
<g>
	<g>
		<path class="st0" d="M261.68,161v97L376,324v-97L261.68,161z"/>
		<g>
			<polygon class="st1" points="376,228 261.68,162 261.68,150 376,216 			"/>
		</g>
		<path class="st0" d="M268.61,160c0,1.1-0.78,1.55-1.73,1c-0.96-0.55-1.73-1.9-1.73-3s0.78-1.55,1.73-1
			C267.84,157.55,268.61,158.9,268.61,160z"/>
		<path class="st0" d="M275.54,164c0,1.1-0.78,1.55-1.73,1c-0.96-0.55-1.73-1.9-1.73-3s0.78-1.55,1.73-1
			C274.77,161.55,275.54,162.9,275.54,164z"/>
		<path class="st0" d="M282.47,168c0,1.1-0.78,1.55-1.73,1c-0.96-0.55-1.73-1.9-1.73-3s0.78-1.55,1.73-1S282.47,166.9,282.47,168z"
			/>
	</g>
	<g>
		<path class="st2" d="M337.89,246c0.48,0.28,0.87,0.05,0.87-0.5s-0.39-1.22-0.87-1.5l-3.46-2c-0.48-0.28-0.87-0.05-0.87,0.5
			s0.39,1.22,0.87,1.5L337.89,246z"/>
		<path class="st2" d="M329.23,241c0.48,0.28,0.87,0.05,0.87-0.5s-0.39-1.22-0.87-1.5l-3.46-2c-0.48-0.28-0.87-0.05-0.87,0.5
			s0.39,1.22,0.87,1.5L329.23,241z"/>
		<path class="st2" d="M320.57,236c0.48,0.28,0.87,0.05,0.87-0.5s-0.39-1.22-0.87-1.5l-3.46-2c-0.48-0.28-0.87-0.05-0.87,0.5
			s0.39,1.22,0.87,1.5L320.57,236z"/>
		<path class="st2" d="M311.91,231c0.48,0.28,0.87,0.05,0.87-0.5s-0.39-1.22-0.87-1.5l-3.46-2c-0.48-0.28-0.87-0.05-0.87,0.5
			s0.39,1.22,0.87,1.5L311.91,231z"/>
		<path class="st2" d="M303.25,226c0.48,0.28,0.87,0.05,0.87-0.5s-0.39-1.22-0.87-1.5l-3.46-2c-0.48-0.28-0.87-0.05-0.87,0.5
			s0.39,1.22,0.87,1.5L303.25,226z"/>
		<path class="st2" d="M364.74,267.5l-25.98-15c-0.48-0.28-0.87-0.05-0.87,0.5v36c0,0.55,0.39,1.22,0.87,1.5l25.98,15
			c0.48,0.28,0.87,0.05,0.87-0.5v-36C365.61,268.45,365.22,267.78,364.74,267.5z"/>
		<path class="st2" d="M331.83,248.5l-58.89-34c-0.48-0.28-0.87-0.05-0.87,0.5v36c0,0.55,0.39,1.22,0.87,1.5l58.89,34
			c0.48,0.28,0.87,0.05,0.87-0.5v-36C332.7,249.45,332.31,248.78,331.83,248.5z"/>
		<g>
			<path class="st2" d="M326.64,221.5c0,4.97-3.49,6.99-7.79,4.5c-4.3-2.49-7.79-8.53-7.79-13.5s3.49-6.99,7.79-4.5
				C323.15,210.49,326.64,216.53,326.64,221.5z"/>
			<path class="st0" d="M321.44,216.5c0,1.66-1.16,2.33-2.6,1.5c-1.43-0.83-2.6-2.84-2.6-4.5s1.16-2.33,2.6-1.5
				S321.44,214.84,321.44,216.5z"/>
			<path class="st0" d="M323.17,225.5c0-1.66-1.16-3.67-2.6-4.5l-3.46-2c-1.43-0.83-2.6-0.16-2.6,1.5v3l8.66,5V225.5z"/>
			<path class="st2" d="M318.84,207c-4.78-2.76-8.66-0.52-8.66,5s3.88,12.24,8.66,15s8.66,0.52,8.66-5S323.63,209.76,318.84,207z
				 M318.84,225c-3.83-2.21-6.93-7.58-6.93-12s3.1-6.21,6.93-4s6.93,7.58,6.93,12S322.67,227.21,318.84,225z"/>
		</g>
	</g>
</g>
<g>
	<g>
		<polygon class="st1" points="275.54,298 233.97,274 233.97,240 275.54,264 		"/>
	</g>
	<g>
		<polygon class="st0" points="241.77,263.5 241.77,259.5 239.17,258 239.17,262 		"/>
		<path class="st0" d="M241.77,258.5v-2l-1.73-1c-0.48-0.28-0.87-0.05-0.87,0.5v1L241.77,258.5z"/>
		<path class="st0" d="M239.17,263v1c0,0.55,0.39,1.22,0.87,1.5l1.73,1v-2L239.17,263z"/>
		<path class="st0" d="M246.1,266l3.46,2v-6c0-0.55-0.39-1.22-0.87-1.5l-6.06-3.5v10l3.46,2L246.1,266L246.1,266z"/>
		<path class="st0" d="M246.96,267.5v2l1.73,1c0.48,0.28,0.87,0.05,0.87-0.5v-1L246.96,267.5z"/>
		<path class="st0" d="M257.35,271.5c0.48,0.28,0.87,0.05,0.87-0.5s-0.39-1.22-0.87-1.5l-3.46-2c-0.48-0.28-0.87-0.05-0.87,0.5
			s0.39,1.22,0.87,1.5L257.35,271.5z"/>
		<path class="st0" d="M263.42,275c0.48,0.28,0.87,0.05,0.87-0.5s-0.39-1.22-0.87-1.5l-3.46-2c-0.48-0.28-0.87-0.05-0.87,0.5
			s0.39,1.22,0.87,1.5L263.42,275z"/>
		<path class="st0" d="M269.48,278.5c0.48,0.28,0.87,0.05,0.87-0.5s-0.39-1.22-0.87-1.5l-3.46-2c-0.48-0.28-0.87-0.05-0.87,0.5
			s0.39,1.22,0.87,1.5L269.48,278.5z"/>
		<path class="st0" d="M269.48,268.5c0.48,0.28,0.87,0.05,0.87-0.5s-0.39-1.22-0.87-1.5l-5.2-3c-0.48-0.28-0.87-0.05-0.87,0.5
			s0.39,1.22,0.87,1.5L269.48,268.5z"/>
		<path class="st0" d="M269.48,288.5c0.48,0.28,0.87,0.05,0.87-0.5s-0.39-1.22-0.87-1.5l-5.2-3c-0.48-0.28-0.87-0.05-0.87,0.5
			s0.39,1.22,0.87,1.5L269.48,288.5z"/>
	</g>
</g>
</svg>
