<?xml version="1.0" encoding="utf-8"?>
<!-- Generator: Adobe Illustrator 22.1.0, SVG Export Plug-In . SVG Version: 6.00 Build 0)  -->
<svg version="1.1" id="Warstwa_1" xmlns="http://www.w3.org/2000/svg" xmlns:xlink="http://www.w3.org/1999/xlink" x="0px" y="0px"
	 width="376px" height="324px" viewBox="0 0 376 324" style="enable-background:new 0 0 376 324;" xml:space="preserve">
<style type="text/css">
	.st0{opacity:0.48;fill:#056CEA;enable-background:new    ;}
	.st1{opacity:0.48;fill:#3192E7;enable-background:new    ;}
	.st2{fill:#3192E7;}
	.st3{fill:#88D3FF;}
	.st4{fill:#056CEA;}
	.st5{fill:#FFFFFF;}
</style>
<g>
	<path class="st0" d="M202.63,255.25c0.54,0.73,1.2,1.34,1.9,1.75c0.7,0.4,1.35,0.54,1.9,0.44l45.03-8c0.2-0.04,0.39-0.1,0.55-0.2
		c0.63-0.36,1.01-1.14,1.01-2.24V147c0-1.1-0.39-2.33-1.01-3.42c-0.45-0.78-1.03-1.49-1.67-2.03l-45.03-38
		c-0.25-0.21-0.51-0.4-0.78-0.55c-0.27-0.16-0.53-0.27-0.78-0.35l-45.03-14c-0.64-0.2-1.22-0.16-1.67,0.11
		c-0.63,0.36-1.01,1.14-1.01,2.24v100c0,1.1,0.39,2.33,1.01,3.41c0.17,0.29,0.35,0.57,0.55,0.84L202.63,255.25z"/>
	<path class="st1" d="M252.01,143.59c-0.45-0.78-1.03-1.49-1.67-2.03l-45.03-38c-0.25-0.21-0.51-0.4-0.78-0.55
		c-0.27-0.16-0.53-0.27-0.78-0.35l-45.03-14c-0.64-0.2-1.22-0.16-1.67,0.11c-0.63,0.36-22.07,12.74-22.52,13
		c-0.63,0.36-1.01,1.14-1.01,2.24v100c0,1.1,0.39,2.33,1.01,3.41c0.17,0.29,0.35,0.57,0.55,0.84l45.03,60
		c0.54,0.73,1.2,1.34,1.9,1.75c0.7,0.4,1.35,0.54,1.9,0.44l45.03-8c0.2-0.04,0.39-0.1,0.55-0.2c0.63-0.36,22.35-12.9,22.52-13
		c0.63-0.36,1.01-1.14,1.01-2.24V147C253.02,145.9,252.64,144.67,252.01,143.59z"/>
	<path class="st2" d="M229.49,156.59c0.63,1.09,1.01,2.31,1.01,3.42v100c0,1.1-0.39,1.88-1.01,2.24l-6.93,4V160.59l-1.67-2.03
		l6.93-4L229.49,156.59z"/>
	<path class="st3" d="M222.56,160.59l6.93-4c-0.45-0.78-1.03-1.49-1.67-2.03l-45.03-38c-0.25-0.21-0.51-0.4-0.78-0.55
		c-0.27-0.16-0.53-0.27-0.78-0.35l-45.03-14c-0.64-0.2-1.22-0.16-1.67,0.11c-0.63,0.36-6.93,4-6.93,4L222.56,160.59z"/>
	<path class="st4" d="M173.19,272.25c0.54,0.73,1.2,1.34,1.9,1.75s1.35,0.54,1.9,0.44l45.03-8c0.2-0.04,0.38-0.1,0.55-0.2
		c0.63-0.36,1.01-1.14,1.01-2.24V164c0-1.1-0.39-2.33-1.01-3.42c-0.45-0.78-1.03-1.49-1.67-2.03l-45.03-38
		c-0.25-0.21-0.51-0.4-0.78-0.55c-0.27-0.16-0.53-0.27-0.78-0.35l-45.03-14c-0.64-0.2-1.22-0.16-1.67,0.11
		c-0.63,0.36-1.01,1.14-1.01,2.24v100c0,1.1,0.39,2.33,1.01,3.41c0.17,0.29,0.35,0.57,0.55,0.84L173.19,272.25z"/>
	<path class="st5" d="M192.4,183l-2.6-1.5v-1c0-9.37-6.6-20.81-14.72-25.5s-14.72-0.87-14.72,8.5v1l-2.6-1.5
		c-1.44-0.83-2.6-0.16-2.6,1.5v38c0,1.66,1.16,3.67,2.6,4.5l34.64,20c1.44,0.83,2.6,0.16,2.6-1.5v-38
		C195,185.84,193.84,183.83,192.4,183z M165.56,166.5c0-6.07,4.27-8.53,9.53-5.5s9.53,10.43,9.53,16.5v1l-19.05-11L165.56,166.5
		L165.56,166.5z M160.36,202.5v-32l28.22,16.29l-13.5,7.79l-5.58-9.66c-0.17-0.29-0.44-0.45-0.61-0.35l-3.21,1.85
		c-0.17,0.1-0.17,0.41,0,0.71l8.91,15.44c0.08,0.14,0.19,0.26,0.31,0.32l0.36,0.21c0.12,0.07,0.22,0.08,0.31,0.03l14.24-8.22v24.59
		L160.36,202.5z"/>
</g>
</svg>
