<?xml version="1.0" encoding="utf-8"?>
<!-- Generator: Adobe Illustrator 22.1.0, SVG Export Plug-In . SVG Version: 6.00 Build 0)  -->
<svg version="1.1" id="Warstwa_1" xmlns="http://www.w3.org/2000/svg" xmlns:xlink="http://www.w3.org/1999/xlink" x="0px" y="0px"
	 width="376px" height="324px" viewBox="0 0 376 324" style="enable-background:new 0 0 376 324;" xml:space="preserve">
<style type="text/css">
	.st0{fill:#FFFFFF;}
	.st1{fill:#A4E0FF;}
	.st2{fill:#3192E7;}
	.st3{fill:#056CEA;}
</style>
<g>
	<polygon class="st0" points="143.91,190 1.88,108 1.88,0 143.91,82 	"/>
	<g>
		<path class="st1" d="M52.97,43.5c0.48,0.28,0.87,0.05,0.87-0.5s-0.39-1.22-0.87-1.5l-25.98-15c-0.48-0.28-0.87-0.05-0.87,0.5
			s0.39,1.22,0.87,1.5L52.97,43.5z"/>
		<path class="st1" d="M39.12,41.5c0.48,0.28,0.87,0.05,0.87-0.5s-0.39-1.22-0.87-1.5l-25.98-15c-0.48-0.28-0.87-0.05-0.87,0.5
			s0.39,1.22,0.87,1.5L39.12,41.5z"/>
		<path class="st2" d="M77.22,63.5c0.48,0.28,0.87,0.05,0.87-0.5s-0.39-1.22-0.87-1.5l-32.91-19c-0.48-0.28-0.87-0.05-0.87,0.5
			s0.39,1.22,0.87,1.5L77.22,63.5z"/>
		<path class="st2" d="M21.8,25.5c0.48,0.28,0.87,0.05,0.87-0.5s-0.39-1.22-0.87-1.5l-8.66-5c-0.48-0.28-0.87-0.05-0.87,0.5
			s0.39,1.22,0.87,1.5L21.8,25.5z"/>
		<path class="st1" d="M132.65,89.5c0.48,0.28,0.87,0.05,0.87-0.5s-0.39-1.22-0.87-1.5l-74.48-43c-0.48-0.28-0.87-0.05-0.87,0.5
			s0.39,1.22,0.87,1.5L132.65,89.5z"/>
		<path class="st2" d="M13.14,32.5c-0.48-0.28-0.87-0.95-0.87-1.5s0.39-0.78,0.87-0.5l8.66,5c0.48,0.28,0.87,0.95,0.87,1.5
			s-0.39,0.78-0.87,0.5L13.14,32.5z"/>
		<path class="st1" d="M82.42,66.5c-0.48-0.28-0.87-0.95-0.87-1.5s0.39-0.78,0.87-0.5l8.66,5c0.48,0.28,0.87,0.95,0.87,1.5
			s-0.39,0.78-0.87,0.5L82.42,66.5z"/>
		<path class="st2" d="M120.52,94.5c-0.48-0.28-0.87-0.95-0.87-1.5s0.39-0.78,0.87-0.5l5.2,3c0.48,0.28,0.87,0.95,0.87,1.5
			s-0.39,0.78-0.87,0.5L120.52,94.5z"/>
		<path class="st2" d="M120.52,146.5c-0.48-0.28-0.87-0.95-0.87-1.5s0.39-0.78,0.87-0.5l5.2,3c0.48,0.28,0.87,0.95,0.87,1.5
			s-0.39,0.78-0.87,0.5L120.52,146.5z"/>
		<path class="st1" d="M110.13,140.5c-0.48-0.28-0.87-0.95-0.87-1.5s0.39-0.78,0.87-0.5l5.2,3c0.48,0.28,0.87,0.95,0.87,1.5
			s-0.39,0.78-0.87,0.5L110.13,140.5z"/>
		<path class="st1" d="M96.27,80.5c-0.48-0.28-0.87-0.95-0.87-1.5s0.39-0.78,0.87-0.5l19.05,11c0.48,0.28,0.87,0.95,0.87,1.5
			s-0.39,0.78-0.87,0.5L96.27,80.5z"/>
		<path class="st1" d="M23.53,56.5c-0.48-0.28-0.87-0.95-0.87-1.5s0.39-0.78,0.87-0.5l15.59,9c0.48,0.28,0.87,0.95,0.87,1.5
			s-0.39,0.78-0.87,0.5L23.53,56.5z"/>
		<path class="st1" d="M120.52,152.5c-0.48-0.28-0.87-0.95-0.87-1.5s0.39-0.78,0.87-0.5l12.12,7c0.48,0.28,0.87,0.95,0.87,1.5
			s-0.39,0.78-0.87,0.5L120.52,152.5z"/>
		<path class="st2" d="M33.92,90.5c-0.48-0.28-0.87-0.95-0.87-1.5s0.39-0.78,0.87-0.5l5.2,3c0.48,0.28,0.87,0.95,0.87,1.5
			s-0.39,0.78-0.87,0.5L33.92,90.5z"/>
		<path class="st1" d="M26.99,40.5c-0.48-0.28-0.87-0.95-0.87-1.5s0.39-0.78,0.87-0.5l64.09,37c0.48,0.28,0.87,0.95,0.87,1.5
			s-0.39,0.78-0.87,0.5L26.99,40.5z"/>
		<path class="st1" d="M44.31,108.5c-0.48-0.28-0.87-0.95-0.87-1.5s0.39-0.78,0.87-0.5l71.01,41c0.48,0.28,0.87,0.95,0.87,1.5
			s-0.39,0.78-0.87,0.5L44.31,108.5z"/>
		<path class="st1" d="M39.12,53.5c0.48,0.28,0.87,0.05,0.87-0.5s-0.39-1.22-0.87-1.5l-25.98-15c-0.48-0.28-0.87-0.05-0.87,0.5
			s0.39,1.22,0.87,1.5L39.12,53.5z"/>
		<path class="st1" d="M77.22,75.5c0.48,0.28,0.87,0.05,0.87-0.5s-0.39-1.22-0.87-1.5l-32.91-19c-0.48-0.28-0.87-0.05-0.87,0.5
			s0.39,1.22,0.87,1.5L77.22,75.5z"/>
		<path class="st1" d="M52.97,67.5c0.48,0.28,0.87,0.05,0.87-0.5s-0.39-1.22-0.87-1.5l-29.44-17c-0.48-0.28-0.87-0.05-0.87,0.5
			s0.39,1.22,0.87,1.5L52.97,67.5z"/>
		<path class="st1" d="M52.97,119.5c0.48,0.28,0.87,0.05,0.87-0.5s-0.39-1.22-0.87-1.5l-29.44-17c-0.48-0.28-0.87-0.05-0.87,0.5
			s0.39,1.22,0.87,1.5L52.97,119.5z"/>
		<path class="st2" d="M52.97,73.5c0.48,0.28,0.87,0.05,0.87-0.5s-0.39-1.22-0.87-1.5l-8.66-5c-0.48-0.28-0.87-0.05-0.87,0.5
			s0.39,1.22,0.87,1.5L52.97,73.5z"/>
		<path class="st1" d="M33.92,78.5c-0.48-0.28-0.87-0.95-0.87-1.5s0.39-0.78,0.87-0.5l19.05,11c0.48,0.28,0.87,0.95,0.87,1.5
			s-0.39,0.78-0.87,0.5L33.92,78.5z"/>
		<path class="st2" d="M13.14,96.5c-0.48-0.28-0.87-0.95-0.87-1.5s0.39-0.78,0.87-0.5l5.2,3c0.48,0.28,0.87,0.95,0.87,1.5
			s-0.39,0.78-0.87,0.5L13.14,96.5z"/>
		<path class="st1" d="M23.53,96.5c-0.48-0.28-0.87-0.95-0.87-1.5s0.39-0.78,0.87-0.5l15.59,9c0.48,0.28,0.87,0.95,0.87,1.5
			s-0.39,0.78-0.87,0.5L23.53,96.5z"/>
		<path class="st1" d="M77.22,109.5c0.48,0.28,0.87,0.05,0.87-0.5s-0.39-1.22-0.87-1.5l-32.91-19c-0.48-0.28-0.87-0.05-0.87,0.5
			s0.39,1.22,0.87,1.5L77.22,109.5z"/>
		<path class="st1" d="M104.93,137.5c0.48,0.28,0.87,0.05,0.87-0.5s-0.39-1.22-0.87-1.5l-22.52-13c-0.48-0.28-0.87-0.05-0.87,0.5
			s0.39,1.22,0.87,1.5L104.93,137.5z"/>
		<path class="st1" d="M77.22,121.5c0.48,0.28,0.87,0.05,0.87-0.5s-0.39-1.22-0.87-1.5l-43.3-25c-0.48-0.28-0.87-0.05-0.87,0.5
			s0.39,1.22,0.87,1.5L77.22,121.5z"/>
		<path class="st1" d="M52.97,101.5c0.48,0.28,0.87,0.05,0.87-0.5s-0.39-1.22-0.87-1.5l-8.66-5c-0.48-0.28-0.87-0.05-0.87,0.5
			s0.39,1.22,0.87,1.5L52.97,101.5z"/>
		<path class="st2" d="M77.22,139.5c0.48,0.28,0.87,0.05,0.87-0.5s-0.39-1.22-0.87-1.5l-32.91-19c-0.48-0.28-0.87-0.05-0.87,0.5
			s0.39,1.22,0.87,1.5L77.22,139.5z"/>
		<path class="st1" d="M39.12,117.5c0.48,0.28,0.87,0.05,0.87-0.5s-0.39-1.22-0.87-1.5l-25.98-15c-0.48-0.28-0.87-0.05-0.87,0.5
			s0.39,1.22,0.87,1.5L39.12,117.5z"/>
	</g>
</g>
<g>
	<g>
		<polygon class="st3" points="116.19,206 83.28,187 83.28,161 116.19,180 		"/>
	</g>
	<g>
		<path class="st0" d="M104.93,191.5c-0.22-0.13-0.44-0.35-0.61-0.65c-0.34-0.59-0.34-1.22,0-1.41l2.85-1.65l-2.85-4.94
			c-0.34-0.59-0.34-1.22,0-1.41c0.34-0.2,0.89,0.12,1.22,0.71l3.46,6c0.34,0.59,0.34,1.22,0,1.41l-3.46,2
			C105.38,191.66,105.16,191.63,104.93,191.5z"/>
		<path class="st0" d="M98.01,187.5c-0.13-0.07-0.26-0.19-0.39-0.33c-0.43-0.49-0.6-1.19-0.39-1.57l3.46-6
			c0.21-0.37,0.73-0.27,1.16,0.22s0.6,1.19,0.39,1.57l-3.46,6C98.63,187.66,98.32,187.68,98.01,187.5z"/>
		<path class="st0" d="M94.54,185.5c-0.22-0.13-0.44-0.35-0.61-0.65l-3.46-6c-0.34-0.59-0.34-1.22,0-1.41l3.46-2
			c0.34-0.2,0.89,0.12,1.22,0.71c0.34,0.59,0.34,1.22,0,1.41l-2.85,1.65l2.85,4.94c0.34,0.59,0.34,1.22,0,1.41
			C94.99,185.66,94.76,185.63,94.54,185.5z"/>
	</g>
</g>
</svg>
