<?xml version="1.0" encoding="utf-8"?>
<!-- Generator: Adobe Illustrator 22.1.0, SVG Export Plug-In . SVG Version: 6.00 Build 0)  -->
<svg version="1.1" id="Warstwa_1" xmlns="http://www.w3.org/2000/svg" xmlns:xlink="http://www.w3.org/1999/xlink" x="0px" y="0px"
	 width="376px" height="324px" viewBox="0 0 376 324" style="enable-background:new 0 0 376 324;" xml:space="preserve">
<style type="text/css">
	.st0{fill:#056CEA;}
	.st1{fill:#FFFFFF;}
	.st2{fill:#73C8FF;}
	.st3{opacity:0.48;fill:#3192E7;enable-background:new    ;}
	.st4{fill:#88D3FF;}
	.st5{fill:#A4E0FF;}
</style>
<g>
	<path class="st0" d="M375.35,272.06c0.4,0.59,0.65,1.31,0.65,1.94c0,1.11,0,50,0,50l-51.96-30c0,0,0-48.89,0-50
		c0-0.63,0.25-1.05,0.65-1.19l24.25-8.4c0.3-0.1,0.67-0.05,1.08,0.19c0.41,0.24,0.79,0.62,1.08,1.06L375.35,272.06z"/>
	<path class="st1" d="M372.28,274.15c-0.17-0.29-0.39-0.52-0.61-0.65l-43.3-25c-0.22-0.13-0.44-0.16-0.61-0.06
		c-0.17,0.1-0.25,0.3-0.25,0.56v42c0,0.26,0.08,0.56,0.25,0.85s0.39,0.52,0.61,0.65l43.3,25c0.22,0.13,0.44,0.16,0.61,0.06
		c0.17-0.1,0.25-0.3,0.25-0.56v-42C372.54,274.74,372.45,274.44,372.28,274.15z"/>
	<polygon class="st2" points="324.04,294 376,324 376,276 	"/>
	<polygon class="st3" points="351.95,284.33 376,324 346.24,286.31 	"/>
	<polygon class="st4" points="376,324 324.04,294 324.04,246 	"/>
</g>
<g>
	<polygon class="st2" points="313.65,288 261.68,258 261.68,210 313.65,240 	"/>
	<polygon class="st3" points="289.6,248.33 313.65,288 283.89,250.31 	"/>
	<polygon class="st4" points="313.65,288 261.68,258 261.68,210 	"/>
	<path class="st5" d="M313,243.19c0.4-0.14,0.65-0.55,0.65-1.19c0-1.1,0-2,0-2l-51.96-30c0,0,0,0.9,0,2c0,0.63,0.25,1.34,0.65,1.94
		l24.25,36.4c0.3,0.45,0.67,0.83,1.08,1.06c0.41,0.24,0.79,0.29,1.08,0.19L313,243.19z"/>
</g>
<g>
	<polygon class="st2" points="313.65,228 261.68,198 261.68,150 313.65,180 	"/>
	<polygon class="st3" points="289.6,188.33 313.65,228 283.89,190.31 	"/>
	<polygon class="st4" points="313.65,228 261.68,198 261.68,150 	"/>
	<path class="st5" d="M313,183.19c0.4-0.14,0.65-0.55,0.65-1.19c0-1.1,0-2,0-2l-51.96-30c0,0,0,0.9,0,2c0,0.63,0.25,1.34,0.65,1.94
		l24.25,36.4c0.3,0.45,0.67,0.83,1.08,1.06c0.41,0.24,0.79,0.29,1.08,0.19L313,183.19z"/>
</g>
</svg>
