<?xml version="1.0" encoding="utf-8"?>
<!-- Generator: Adobe Illustrator 22.1.0, SVG Export Plug-In . SVG Version: 6.00 Build 0)  -->
<svg version="1.1" id="Warstwa_1" xmlns="http://www.w3.org/2000/svg" xmlns:xlink="http://www.w3.org/1999/xlink" x="0px" y="0px"
	 width="376px" height="324px" viewBox="0 0 376 324" style="enable-background:new 0 0 376 324;" xml:space="preserve">
<style type="text/css">
	.st0{fill:#3192E7;}
	.st1{fill:#88D3FF;}
	.st2{opacity:0.48;fill:#3192E7;enable-background:new    ;}
	.st3{fill:#73C8FF;}
	.st4{opacity:0.48;}
	.st5{fill:#B4E8FE;}
	.st6{fill:#A4E0FF;}
	.st7{fill:#056CEA;}
	.st8{fill:#FFFFFF;}
</style>
<g>
	<g>
		<path class="st0" d="M35.08,234c0,0,0,1.22,0,2s0.55,1.49,1.43,2l117.78,68c0.89,0.51,2.11,0.83,3.46,0.83s2.58-0.32,3.46-0.83
			l90.07-52v-2L35.08,234z"/>
		<path class="st1" d="M36.52,232c-0.89,0.51-1.43,1.22-1.43,2s0.55,1.49,1.43,2l117.78,68c0.89,0.51,2.11,0.83,3.46,0.83
			s2.58-0.32,3.46-0.83l90.07-52l-5.2-9l-114.31-66l-5.2,3L36.52,232z"/>
	</g>
	<g>
		<path class="st2" d="M83.28,251c-0.44-0.26-0.72-0.61-0.72-1s0.27-0.74,0.72-1l31.18-18c0.44-0.26,1.06-0.41,1.73-0.41
			c0.68,0,1.29,0.16,1.73,0.41l46.77,27c0.44,0.26,0.72,0.61,0.72,1s-0.27,0.74-0.72,1l-31.18,18c-0.44,0.26-1.06,0.41-1.73,0.41
			c-0.68,0-1.29-0.16-1.73-0.41L83.28,251z"/>
		<path class="st3" d="M83.28,252c-0.44-0.26-0.72-0.61-0.72-1s0.27-0.74,0.72-1l31.18-18c0.44-0.26,1.06-0.41,1.73-0.41
			c0.68,0,1.29,0.16,1.73,0.41l46.77,27c0.44,0.26,0.72,0.61,0.72,1s-0.27,0.74-0.72,1l-31.18,18c-0.44,0.26-1.06,0.41-1.73,0.41
			c-0.68,0-1.29-0.16-1.73-0.41L83.28,252z"/>
	</g>
	<g class="st4">
		<path class="st0" d="M121.9,226c0,0,0,0.8,0,1s0.14,0.37,0.36,0.5l48.5,28c0.22,0.13,0.53,0.21,0.87,0.21s0.64-0.08,0.87-0.21
			l5.2-3c0.22-0.13,0.36-0.3,0.36-0.5s0-1,0-1L121.9,226z"/>
		<path class="st0" d="M104.58,216c0,0,0,0.8,0,1s0.14,0.37,0.36,0.5l5.2,3c0.22,0.13,0.53,0.21,0.87,0.21
			c0.34,0,0.64-0.08,0.87-0.21l5.2-3c0.22-0.13,0.36-0.3,0.36-0.5s0-1,0-1H104.58z"/>
		<path class="st0" d="M113.24,211c0,0,0,0.8,0,1s0.14,0.37,0.36,0.5l5.2,3c0.22,0.13,0.53,0.21,0.87,0.21
			c0.34,0,0.64-0.08,0.87-0.21l5.2-3c0.22-0.13,0.36-0.3,0.36-0.5s0-1,0-1H113.24z"/>
		<path class="st0" d="M121.9,216c0,0,0,0.8,0,1s0.14,0.37,0.36,0.5l5.2,3c0.22,0.13,0.53,0.21,0.87,0.21
			c0.34,0,0.64-0.08,0.87-0.21l5.2-3c0.22-0.13,0.36-0.3,0.36-0.5s0-1,0-1H121.9z"/>
		<path class="st0" d="M130.56,221c0,0,0,0.8,0,1s0.14,0.37,0.36,0.5l5.2,3c0.22,0.13,0.53,0.21,0.87,0.21s0.64-0.08,0.87-0.21
			l5.2-3c0.22-0.13,0.36-0.3,0.36-0.5s0-1,0-1H130.56z"/>
		<path class="st0" d="M142.68,218c0,0,0,0.8,0,1s0.14,0.37,0.36,0.5l5.2,3c0.22,0.13,0.53,0.21,0.87,0.21s0.64-0.08,0.87-0.21
			l5.2-3c0.22-0.13,0.36-0.3,0.36-0.5s0-1,0-1H142.68z"/>
		<path class="st0" d="M139.22,226c0,0,0,0.8,0,1s0.14,0.37,0.36,0.5l5.2,3c0.22,0.13,0.53,0.21,0.87,0.21s0.64-0.08,0.87-0.21
			l5.2-3c0.22-0.13,0.36-0.3,0.36-0.5s0-1,0-1H139.22z"/>
		<path class="st0" d="M147.88,231c0,0,0,0.8,0,1s0.14,0.37,0.36,0.5l5.2,3c0.22,0.13,0.53,0.21,0.87,0.21s0.64-0.08,0.87-0.21
			l5.2-3c0.22-0.13,0.36-0.3,0.36-0.5s0-1,0-1H147.88z"/>
		<path class="st0" d="M151.34,223c0,0,0,0.8,0,1s0.14,0.37,0.36,0.5l5.2,3c0.22,0.13,0.53,0.21,0.87,0.21s0.64-0.08,0.87-0.21
			l5.2-3c0.22-0.13,0.36-0.3,0.36-0.5s0-1,0-1H151.34z"/>
		<path class="st0" d="M160,228c0,0,0,0.8,0,1s0.14,0.37,0.36,0.5l5.2,3c0.22,0.13,0.53,0.21,0.87,0.21s0.64-0.08,0.87-0.21l5.2-3
			c0.22-0.13,0.36-0.3,0.36-0.5s0-1,0-1H160z"/>
		<path class="st0" d="M168.66,233c0,0,0,0.8,0,1s0.14,0.37,0.36,0.5l5.2,3c0.22,0.13,0.53,0.21,0.87,0.21s0.64-0.08,0.87-0.21
			l5.2-3c0.22-0.13,0.36-0.3,0.36-0.5s0-1,0-1H168.66z"/>
		<path class="st0" d="M173.86,226c0,0,0,0.8,0,1s0.14,0.37,0.36,0.5l5.2,3c0.22,0.13,0.53,0.21,0.87,0.21s0.64-0.08,0.87-0.21
			l5.2-3c0.22-0.13,0.36-0.3,0.36-0.5s0-1,0-1H173.86z"/>
		<path class="st0" d="M156.54,236c0,0,0,0.8,0,1s0.14,0.37,0.36,0.5l5.2,3c0.22,0.13,0.53,0.21,0.87,0.21s0.64-0.08,0.87-0.21
			l5.2-3c0.22-0.13,0.36-0.3,0.36-0.5s0-1,0-1H156.54z"/>
		<path class="st0" d="M165.2,241c0,0,0,0.8,0,1s0.14,0.37,0.36,0.5l5.2,3c0.22,0.13,0.53,0.21,0.87,0.21s0.64-0.08,0.87-0.21l5.2-3
			c0.22-0.13,0.36-0.3,0.36-0.5s0-1,0-1H165.2z"/>
		<path class="st0" d="M177.32,238c0,0,0,0.8,0,1s0.14,0.37,0.36,0.5l5.2,3c0.22,0.13,0.53,0.21,0.87,0.21s0.64-0.08,0.87-0.21
			l5.2-3c0.22-0.13,0.36-0.3,0.36-0.5s0-1,0-1H177.32z"/>
		<path class="st0" d="M182.52,231c0,0,0,0.8,0,1s0.14,0.37,0.36,0.5l5.2,3c0.22,0.13,0.53,0.21,0.87,0.21s0.64-0.08,0.87-0.21
			l5.2-3c0.22-0.13,0.36-0.3,0.36-0.5s0-1,0-1H182.52z"/>
		<path class="st0" d="M191.18,236c0,0,0,0.8,0,1s0.14,0.37,0.36,0.5l5.2,3c0.22,0.13,0.53,0.21,0.87,0.21s0.64-0.08,0.87-0.21
			l5.2-3c0.22-0.13,0.36-0.3,0.36-0.5s0-1,0-1H191.18z"/>
		<path class="st0" d="M185.98,243c0,0,0,0.8,0,1s0.14,0.37,0.36,0.5l5.2,3c0.22,0.13,0.53,0.21,0.87,0.21s0.64-0.08,0.87-0.21
			l5.2-3c0.22-0.13,0.36-0.3,0.36-0.5s0-1,0-1H185.98z"/>
		<path class="st0" d="M182.52,251c0,0,0,0.8,0,1s0.14,0.37,0.36,0.5l5.2,3c0.22,0.13,0.53,0.21,0.87,0.21s0.64-0.08,0.87-0.21
			l5.2-3c0.22-0.13,0.36-0.3,0.36-0.5s0-1,0-1H182.52z"/>
		<path class="st0" d="M194.64,248c0,0,0,0.8,0,1s0.14,0.37,0.36,0.5l5.2,3c0.22,0.13,0.53,0.21,0.87,0.21s0.64-0.08,0.87-0.21
			l5.2-3c0.22-0.13,0.36-0.3,0.36-0.5s0-1,0-1H194.64z"/>
		<path class="st0" d="M199.84,241c0,0,0,0.8,0,1s0.14,0.37,0.36,0.5l5.2,3c0.22,0.13,0.53,0.21,0.87,0.21s0.64-0.08,0.87-0.21
			l5.2-3c0.22-0.13,0.36-0.3,0.36-0.5s0-1,0-1H199.84z"/>
		<path class="st0" d="M208.5,246c0,0,0,0.8,0,1s0.14,0.37,0.36,0.5l5.2,3c0.22,0.13,0.53,0.21,0.87,0.21s0.64-0.08,0.87-0.21l5.2-3
			c0.22-0.13,0.36-0.3,0.36-0.5s0-1,0-1H208.5z"/>
		<path class="st0" d="M217.16,251c0,0,0,0.8,0,1s0.14,0.37,0.36,0.5l5.2,3c0.22,0.13,0.53,0.21,0.87,0.21s0.64-0.08,0.87-0.21
			l5.2-3c0.22-0.13,0.36-0.3,0.36-0.5s0-1,0-1H217.16z"/>
		<path class="st0" d="M191.18,256c0,0,0,0.8,0,1s0.14,0.37,0.36,0.5l5.2,3c0.22,0.13,0.53,0.21,0.87,0.21s0.64-0.08,0.87-0.21
			l5.2-3c0.22-0.13,0.36-0.3,0.36-0.5s0-1,0-1H191.18z"/>
		<path class="st0" d="M191.18,266c0,0,0,0.8,0,1s0.14,0.37,0.36,0.5l5.2,3c0.22,0.13,0.53,0.21,0.87,0.21s0.64-0.08,0.87-0.21
			l5.2-3c0.22-0.13,0.36-0.3,0.36-0.5s0-1,0-1H191.18z"/>
		<path class="st0" d="M173.86,256c0,0,0,0.8,0,1s0.14,0.37,0.36,0.5l5.2,3c0.22,0.13,0.53,0.21,0.87,0.21s0.64-0.08,0.87-0.21
			l5.2-3c0.22-0.13,0.36-0.3,0.36-0.5s0-1,0-1H173.86z"/>
		<path class="st0" d="M182.52,261c0,0,0,0.8,0,1s0.14,0.37,0.36,0.5l5.2,3c0.22,0.13,0.53,0.21,0.87,0.21s0.64-0.08,0.87-0.21
			l5.2-3c0.22-0.13,0.36-0.3,0.36-0.5s0-1,0-1H182.52z"/>
		<path class="st0" d="M173.86,246c0,0,0,0.8,0,1s0.14,0.37,0.36,0.5l5.2,3c0.22,0.13,0.53,0.21,0.87,0.21s0.64-0.08,0.87-0.21
			l5.2-3c0.22-0.13,0.36-0.3,0.36-0.5s0-1,0-1H173.86z"/>
		<path class="st0" d="M156.54,216c0,0,0,0.8,0,1s0.14,0.37,0.36,0.5l5.2,3c0.22,0.13,0.53,0.21,0.87,0.21s0.64-0.08,0.87-0.21
			l5.2-3c0.22-0.13,0.36-0.3,0.36-0.5s0-1,0-1H156.54z"/>
		<path class="st0" d="M165.2,221c0,0,0,0.8,0,1s0.14,0.37,0.36,0.5l5.2,3c0.22,0.13,0.53,0.21,0.87,0.21s0.64-0.08,0.87-0.21l5.2-3
			c0.22-0.13,0.36-0.3,0.36-0.5s0-1,0-1H165.2z"/>
		<path class="st0" d="M147.88,211c0,0,0,0.8,0,1s0.14,0.37,0.36,0.5l5.2,3c0.22,0.13,0.53,0.21,0.87,0.21s0.64-0.08,0.87-0.21
			l5.2-3c0.22-0.13,0.36-0.3,0.36-0.5s0-1,0-1H147.88z"/>
		<path class="st0" d="M113.24,221c0,0,0,0.8,0,1s0.14,0.37,0.36,0.5l5.2,3c0.22,0.13,0.53,0.21,0.87,0.21
			c0.34,0,0.64-0.08,0.87-0.21l5.2-3c0.22-0.13,0.36-0.3,0.36-0.5s0-1,0-1H113.24z"/>
		<path class="st0" d="M125.36,208c0,0,0,0.8,0,1s0.14,0.37,0.36,0.5l5.2,3c0.22,0.13,0.53,0.21,0.87,0.21s0.64-0.08,0.87-0.21
			l5.2-3c0.22-0.13,0.36-0.3,0.36-0.5s0-1,0-1H125.36z"/>
		<path class="st0" d="M130.56,201c0,0,0,0.8,0,1s0.14,0.37,0.36,0.5l5.2,3c0.22,0.13,0.53,0.21,0.87,0.21s0.64-0.08,0.87-0.21
			l5.2-3c0.22-0.13,0.36-0.3,0.36-0.5s0-1,0-1H130.56z"/>
		<path class="st0" d="M139.22,206c0,0,0,0.8,0,1s0.14,0.37,0.36,0.5l5.2,3c0.22,0.13,0.53,0.21,0.87,0.21s0.64-0.08,0.87-0.21
			l5.2-3c0.22-0.13,0.36-0.3,0.36-0.5s0-1,0-1H139.22z"/>
		<path class="st0" d="M134.02,213c0,0,0,0.8,0,1s0.14,0.37,0.36,0.5l5.2,3c0.22,0.13,0.53,0.21,0.87,0.21s0.64-0.08,0.87-0.21
			l5.2-3c0.22-0.13,0.36-0.3,0.36-0.5s0-1,0-1H134.02z"/>
		<path class="st0" d="M94.18,210c0,0,0,0.8,0,1s0.14,0.37,0.36,0.5l6.93,4c0.22,0.13,0.53,0.21,0.87,0.21
			c0.34,0,0.64-0.08,0.87-0.21l5.2-3c0.22-0.13,0.36-0.3,0.36-0.5s0-1,0-1L94.18,210z"/>
		<path class="st0" d="M102.84,205c0,0,0,0.8,0,1s0.14,0.37,0.36,0.5l6.93,4c0.22,0.13,0.53,0.21,0.87,0.21
			c0.34,0,0.64-0.08,0.87-0.21l5.2-3c0.22-0.13,0.36-0.3,0.36-0.5s0-1,0-1L102.84,205z"/>
		<path class="st0" d="M221.34,257c0-0.2,0-1,0-1l-18.04-3c0,0,0,0.8,0,1s0.14,0.37,0.36,0.5l4.33,2.5l-8.15,4c0,0,0,0.8,0,1
			s0.14,0.37,0.36,0.5l5.2,3c0.22,0.13,0.53,0.21,0.87,0.21s0.64-0.08,0.87-0.21l13.86-8C221.2,257.37,221.34,257.2,221.34,257z"/>
		<path class="st0" d="M111.5,200c0,0,0,0.8,0,1s0.14,0.37,0.36,0.5l10.39,6c0.22,0.13,0.53,0.21,0.87,0.21
			c0.34,0,0.64-0.08,0.87-0.21l5.2-3c0.22-0.13,0.36-0.3,0.36-0.5s0-1,0-1L111.5,200z"/>
		<path class="st0" d="M120.16,195c0,0,0,0.8,0,1s0.14,0.37,0.36,0.5l6.93,4c0.22,0.13,0.53,0.21,0.87,0.21
			c0.34,0,0.64-0.08,0.87-0.21l5.2-3c0.22-0.13,0.36-0.3,0.36-0.5s0-1,0-1L120.16,195z"/>
	</g>
	<g>
		<path class="st5" d="M191.54,265.5c-0.22,0.13-0.36,0.3-0.36,0.5s0.14,0.37,0.36,0.5l5.2,3c0.22,0.13,0.53,0.21,0.87,0.21
			s0.64-0.08,0.87-0.21l5.2-3c0.22-0.13,0.36-0.3,0.36-0.5s-0.14-0.37-0.36-0.5l-5.2-3c-0.22-0.13-0.53-0.21-0.87-0.21
			s-0.64,0.08-0.87,0.21L191.54,265.5z"/>
		<path class="st5" d="M182.88,260.5c-0.22,0.13-0.36,0.3-0.36,0.5s0.14,0.37,0.36,0.5l5.2,3c0.22,0.13,0.53,0.21,0.87,0.21
			s0.64-0.08,0.87-0.21l5.2-3c0.22-0.13,0.36-0.3,0.36-0.5s-0.14-0.37-0.36-0.5l-5.2-3c-0.22-0.13-0.53-0.21-0.87-0.21
			s-0.64,0.08-0.87,0.21L182.88,260.5z"/>
		<path class="st5" d="M174.22,255.5c-0.22,0.13-0.36,0.3-0.36,0.5c0,0.2,0.14,0.37,0.36,0.5l5.2,3c0.22,0.13,0.53,0.21,0.87,0.21
			s0.64-0.08,0.87-0.21l5.2-3c0.22-0.13,0.36-0.3,0.36-0.5c0-0.2-0.14-0.37-0.36-0.5l-5.2-3c-0.22-0.13-0.53-0.21-0.87-0.21
			s-0.64,0.08-0.87,0.21L174.22,255.5z"/>
		<path class="st5" d="M122.25,225.5c-0.22,0.13-0.36,0.3-0.36,0.5s0.14,0.37,0.36,0.5l48.5,28c0.22,0.13,0.53,0.21,0.87,0.21
			s0.64-0.08,0.87-0.21l5.2-3c0.22-0.13,0.36-0.3,0.36-0.5s-0.14-0.37-0.36-0.5l-48.5-28c-0.22-0.13-0.53-0.21-0.87-0.21
			s-0.64,0.08-0.87,0.21L122.25,225.5z"/>
		<path class="st5" d="M113.59,220.5c-0.22,0.13-0.36,0.3-0.36,0.5s0.14,0.37,0.36,0.5l5.2,3c0.22,0.13,0.53,0.21,0.87,0.21
			c0.34,0,0.64-0.08,0.87-0.21l5.2-3c0.22-0.13,0.36-0.3,0.36-0.5s-0.14-0.37-0.36-0.5l-5.2-3c-0.22-0.13-0.53-0.21-0.87-0.21
			c-0.34,0-0.64,0.08-0.87,0.21L113.59,220.5z"/>
		<path class="st5" d="M104.93,215.5c-0.22,0.13-0.36,0.3-0.36,0.5s0.14,0.37,0.36,0.5l5.2,3c0.22,0.13,0.53,0.21,0.87,0.21
			c0.34,0,0.64-0.08,0.87-0.21l5.2-3c0.22-0.13,0.36-0.3,0.36-0.5s-0.14-0.37-0.36-0.5l-5.2-3c-0.22-0.13-0.53-0.21-0.87-0.21
			c-0.34,0-0.64,0.08-0.87,0.21L104.93,215.5z"/>
		<path class="st5" d="M94.54,209.5c-0.22,0.13-0.36,0.3-0.36,0.5s0.14,0.37,0.36,0.5l6.93,4c0.22,0.13,0.53,0.21,0.87,0.21
			c0.34,0,0.64-0.08,0.87-0.21l5.2-3c0.22-0.13,0.36-0.3,0.36-0.5s-0.14-0.37-0.36-0.5l-6.93-4c-0.22-0.13-0.53-0.21-0.87-0.21
			c-0.34,0-0.64,0.08-0.87,0.21L94.54,209.5z"/>
		<path class="st5" d="M191.54,255.5c-0.22,0.13-0.36,0.3-0.36,0.5c0,0.2,0.14,0.37,0.36,0.5l5.2,3c0.22,0.13,0.53,0.21,0.87,0.21
			s0.64-0.08,0.87-0.21l5.2-3c0.22-0.13,0.36-0.3,0.36-0.5c0-0.2-0.14-0.37-0.36-0.5l-5.2-3c-0.22-0.13-0.53-0.21-0.87-0.21
			s-0.64,0.08-0.87,0.21L191.54,255.5z"/>
		<path class="st5" d="M182.88,250.5c-0.22,0.13-0.36,0.3-0.36,0.5s0.14,0.37,0.36,0.5l5.2,3c0.22,0.13,0.53,0.21,0.87,0.21
			s0.64-0.08,0.87-0.21l5.2-3c0.22-0.13,0.36-0.3,0.36-0.5s-0.14-0.37-0.36-0.5l-5.2-3c-0.22-0.13-0.53-0.21-0.87-0.21
			s-0.64,0.08-0.87,0.21L182.88,250.5z"/>
		<path class="st5" d="M174.22,245.5c-0.22,0.13-0.36,0.3-0.36,0.5s0.14,0.37,0.36,0.5l5.2,3c0.22,0.13,0.53,0.21,0.87,0.21
			s0.64-0.08,0.87-0.21l5.2-3c0.22-0.13,0.36-0.3,0.36-0.5s-0.14-0.37-0.36-0.5l-5.2-3c-0.22-0.13-0.53-0.21-0.87-0.21
			s-0.64,0.08-0.87,0.21L174.22,245.5z"/>
		<path class="st5" d="M165.56,240.5c-0.22,0.13-0.36,0.3-0.36,0.5s0.14,0.37,0.36,0.5l5.2,3c0.22,0.13,0.53,0.21,0.87,0.21
			s0.64-0.08,0.87-0.21l5.2-3c0.22-0.13,0.36-0.3,0.36-0.5s-0.14-0.37-0.36-0.5l-5.2-3c-0.22-0.13-0.53-0.21-0.87-0.21
			s-0.64,0.08-0.87,0.21L165.56,240.5z"/>
		<path class="st5" d="M156.9,235.5c-0.22,0.13-0.36,0.3-0.36,0.5s0.14,0.37,0.36,0.5l5.2,3c0.22,0.13,0.53,0.21,0.87,0.21
			s0.64-0.08,0.87-0.21l5.2-3c0.22-0.13,0.36-0.3,0.36-0.5s-0.14-0.37-0.36-0.5l-5.2-3c-0.22-0.13-0.53-0.21-0.87-0.21
			s-0.64,0.08-0.87,0.21L156.9,235.5z"/>
		<path class="st5" d="M148.24,230.5c-0.22,0.13-0.36,0.3-0.36,0.5s0.14,0.37,0.36,0.5l5.2,3c0.22,0.13,0.53,0.21,0.87,0.21
			s0.64-0.08,0.87-0.21l5.2-3c0.22-0.13,0.36-0.3,0.36-0.5s-0.14-0.37-0.36-0.5l-5.2-3c-0.22-0.13-0.53-0.21-0.87-0.21
			s-0.64,0.08-0.87,0.21L148.24,230.5z"/>
		<path class="st5" d="M139.58,225.5c-0.22,0.13-0.36,0.3-0.36,0.5s0.14,0.37,0.36,0.5l5.2,3c0.22,0.13,0.53,0.21,0.87,0.21
			s0.64-0.08,0.87-0.21l5.2-3c0.22-0.13,0.36-0.3,0.36-0.5s-0.14-0.37-0.36-0.5l-5.2-3c-0.22-0.13-0.53-0.21-0.87-0.21
			s-0.64,0.08-0.87,0.21L139.58,225.5z"/>
		<path class="st5" d="M130.91,220.5c-0.22,0.13-0.36,0.3-0.36,0.5s0.14,0.37,0.36,0.5l5.2,3c0.22,0.13,0.53,0.21,0.87,0.21
			s0.64-0.08,0.87-0.21l5.2-3c0.22-0.13,0.36-0.3,0.36-0.5s-0.14-0.37-0.36-0.5l-5.2-3c-0.22-0.13-0.53-0.21-0.87-0.21
			s-0.64,0.08-0.87,0.21L130.91,220.5z"/>
		<path class="st5" d="M122.25,215.5c-0.22,0.13-0.36,0.3-0.36,0.5s0.14,0.37,0.36,0.5l5.2,3c0.22,0.13,0.53,0.21,0.87,0.21
			s0.64-0.08,0.87-0.21l5.2-3c0.22-0.13,0.36-0.3,0.36-0.5s-0.14-0.37-0.36-0.5l-5.2-3c-0.22-0.13-0.53-0.21-0.87-0.21
			s-0.64,0.08-0.87,0.21L122.25,215.5z"/>
		<path class="st5" d="M113.59,210.5c-0.22,0.13-0.36,0.3-0.36,0.5s0.14,0.37,0.36,0.5l5.2,3c0.22,0.13,0.53,0.21,0.87,0.21
			c0.34,0,0.64-0.08,0.87-0.21l5.2-3c0.22-0.13,0.36-0.3,0.36-0.5s-0.14-0.37-0.36-0.5l-5.2-3c-0.22-0.13-0.53-0.21-0.87-0.21
			c-0.34,0-0.64,0.08-0.87,0.21L113.59,210.5z"/>
		<path class="st5" d="M103.2,204.5c-0.22,0.13-0.36,0.3-0.36,0.5s0.14,0.37,0.36,0.5l6.93,4c0.22,0.13,0.53,0.21,0.87,0.21
			c0.34,0,0.64-0.08,0.87-0.21l5.2-3c0.22-0.13,0.36-0.3,0.36-0.5s-0.14-0.37-0.36-0.5l-6.93-4c-0.22-0.13-0.53-0.21-0.87-0.21
			c-0.34,0-0.64,0.08-0.87,0.21L103.2,204.5z"/>
		<path class="st5" d="M195,247.5c-0.22,0.13-0.36,0.3-0.36,0.5s0.14,0.37,0.36,0.5l5.2,3c0.22,0.13,0.53,0.21,0.87,0.21
			s0.64-0.08,0.87-0.21l5.2-3c0.22-0.13,0.36-0.3,0.36-0.5s-0.14-0.37-0.36-0.5l-5.2-3c-0.22-0.13-0.53-0.21-0.87-0.21
			s-0.64,0.08-0.87,0.21L195,247.5z"/>
		<path class="st5" d="M221.34,256c0-0.2-0.14-0.37-0.36-0.5l-10.39-6c-0.22-0.13-0.53-0.21-0.87-0.21s-0.64,0.08-0.87,0.21l-5.2,3
			c-0.22,0.13-0.36,0.3-0.36,0.5s0.14,0.37,0.36,0.5l4.33,2.5l-7.79,4.5c-0.22,0.13-0.36,0.3-0.36,0.5s0.14,0.37,0.36,0.5l5.2,3
			c0.22,0.13,0.53,0.21,0.87,0.21s0.64-0.08,0.87-0.21l13.86-8C221.2,256.37,221.34,256.2,221.34,256z"/>
		<path class="st5" d="M186.34,242.5c-0.22,0.13-0.36,0.3-0.36,0.5s0.14,0.37,0.36,0.5l5.2,3c0.22,0.13,0.53,0.21,0.87,0.21
			s0.64-0.08,0.87-0.21l5.2-3c0.22-0.13,0.36-0.3,0.36-0.5s-0.14-0.37-0.36-0.5l-5.2-3c-0.22-0.13-0.53-0.21-0.87-0.21
			s-0.64,0.08-0.87,0.21L186.34,242.5z"/>
		<path class="st5" d="M177.68,237.5c-0.22,0.13-0.36,0.3-0.36,0.5s0.14,0.37,0.36,0.5l5.2,3c0.22,0.13,0.53,0.21,0.87,0.21
			s0.64-0.08,0.87-0.21l5.2-3c0.22-0.13,0.36-0.3,0.36-0.5s-0.14-0.37-0.36-0.5l-5.2-3c-0.22-0.13-0.53-0.21-0.87-0.21
			s-0.64,0.08-0.87,0.21L177.68,237.5z"/>
		<path class="st5" d="M169.02,232.5c-0.22,0.13-0.36,0.3-0.36,0.5s0.14,0.37,0.36,0.5l5.2,3c0.22,0.13,0.53,0.21,0.87,0.21
			s0.64-0.08,0.87-0.21l5.2-3c0.22-0.13,0.36-0.3,0.36-0.5s-0.14-0.37-0.36-0.5l-5.2-3c-0.22-0.13-0.53-0.21-0.87-0.21
			s-0.64,0.08-0.87,0.21L169.02,232.5z"/>
		<path class="st5" d="M160.36,227.5c-0.22,0.13-0.36,0.3-0.36,0.5s0.14,0.37,0.36,0.5l5.2,3c0.22,0.13,0.53,0.21,0.87,0.21
			s0.64-0.08,0.87-0.21l5.2-3c0.22-0.13,0.36-0.3,0.36-0.5s-0.14-0.37-0.36-0.5l-5.2-3c-0.22-0.13-0.53-0.21-0.87-0.21
			s-0.64,0.08-0.87,0.21L160.36,227.5z"/>
		<path class="st5" d="M151.7,222.5c-0.22,0.13-0.36,0.3-0.36,0.5s0.14,0.37,0.36,0.5l5.2,3c0.22,0.13,0.53,0.21,0.87,0.21
			s0.64-0.08,0.87-0.21l5.2-3c0.22-0.13,0.36-0.3,0.36-0.5s-0.14-0.37-0.36-0.5l-5.2-3c-0.22-0.13-0.53-0.21-0.87-0.21
			s-0.64,0.08-0.87,0.21L151.7,222.5z"/>
		<path class="st5" d="M143.04,217.5c-0.22,0.13-0.36,0.3-0.36,0.5s0.14,0.37,0.36,0.5l5.2,3c0.22,0.13,0.53,0.21,0.87,0.21
			s0.64-0.08,0.87-0.21l5.2-3c0.22-0.13,0.36-0.3,0.36-0.5s-0.14-0.37-0.36-0.5l-5.2-3c-0.22-0.13-0.53-0.21-0.87-0.21
			s-0.64,0.08-0.87,0.21L143.04,217.5z"/>
		<path class="st5" d="M134.38,212.5c-0.22,0.13-0.36,0.3-0.36,0.5s0.14,0.37,0.36,0.5l5.2,3c0.22,0.13,0.53,0.21,0.87,0.21
			s0.64-0.08,0.87-0.21l5.2-3c0.22-0.13,0.36-0.3,0.36-0.5s-0.14-0.37-0.36-0.5l-5.2-3c-0.22-0.13-0.53-0.21-0.87-0.21
			s-0.64,0.08-0.87,0.21L134.38,212.5z"/>
		<path class="st5" d="M125.72,207.5c-0.22,0.13-0.36,0.3-0.36,0.5s0.14,0.37,0.36,0.5l5.2,3c0.22,0.13,0.53,0.21,0.87,0.21
			s0.64-0.08,0.87-0.21l5.2-3c0.22-0.13,0.36-0.3,0.36-0.5s-0.14-0.37-0.36-0.5l-5.2-3c-0.22-0.13-0.53-0.21-0.87-0.21
			s-0.64,0.08-0.87,0.21L125.72,207.5z"/>
		<path class="st5" d="M111.86,199.5c-0.22,0.13-0.36,0.3-0.36,0.5s0.14,0.37,0.36,0.5l10.39,6c0.22,0.13,0.53,0.21,0.87,0.21
			c0.34,0,0.64-0.08,0.87-0.21l5.2-3c0.22-0.13,0.36-0.3,0.36-0.5s-0.14-0.37-0.36-0.5l-10.39-6c-0.22-0.13-0.53-0.21-0.87-0.21
			c-0.34,0-0.64,0.08-0.87,0.21L111.86,199.5z"/>
		<path class="st5" d="M217.52,250.5c-0.22,0.13-0.36,0.3-0.36,0.5s0.14,0.37,0.36,0.5l5.2,3c0.22,0.13,0.53,0.21,0.87,0.21
			s0.64-0.08,0.87-0.21l5.2-3c0.22-0.13,0.36-0.3,0.36-0.5s-0.14-0.37-0.36-0.5l-5.2-3c-0.22-0.13-0.53-0.21-0.87-0.21
			s-0.64,0.08-0.87,0.21L217.52,250.5z"/>
		<path class="st5" d="M208.86,245.5c-0.22,0.13-0.36,0.3-0.36,0.5s0.14,0.37,0.36,0.5l5.2,3c0.22,0.13,0.53,0.21,0.87,0.21
			s0.64-0.08,0.87-0.21l5.2-3c0.22-0.13,0.36-0.3,0.36-0.5s-0.14-0.37-0.36-0.5l-5.2-3c-0.22-0.13-0.53-0.21-0.87-0.21
			s-0.64,0.08-0.87,0.21L208.86,245.5z"/>
		<path class="st5" d="M200.2,240.5c-0.22,0.13-0.36,0.3-0.36,0.5s0.14,0.37,0.36,0.5l5.2,3c0.22,0.13,0.53,0.21,0.87,0.21
			s0.64-0.08,0.87-0.21l5.2-3c0.22-0.13,0.36-0.3,0.36-0.5s-0.14-0.37-0.36-0.5l-5.2-3c-0.22-0.13-0.53-0.21-0.87-0.21
			s-0.64,0.08-0.87,0.21L200.2,240.5z"/>
		<path class="st5" d="M191.54,235.5c-0.22,0.13-0.36,0.3-0.36,0.5s0.14,0.37,0.36,0.5l5.2,3c0.22,0.13,0.53,0.21,0.87,0.21
			s0.64-0.08,0.87-0.21l5.2-3c0.22-0.13,0.36-0.3,0.36-0.5s-0.14-0.37-0.36-0.5l-5.2-3c-0.22-0.13-0.53-0.21-0.87-0.21
			s-0.64,0.08-0.87,0.21L191.54,235.5z"/>
		<path class="st5" d="M182.88,230.5c-0.22,0.13-0.36,0.3-0.36,0.5s0.14,0.37,0.36,0.5l5.2,3c0.22,0.13,0.53,0.21,0.87,0.21
			s0.64-0.08,0.87-0.21l5.2-3c0.22-0.13,0.36-0.3,0.36-0.5s-0.14-0.37-0.36-0.5l-5.2-3c-0.22-0.13-0.53-0.21-0.87-0.21
			s-0.64,0.08-0.87,0.21L182.88,230.5z"/>
		<path class="st5" d="M174.22,225.5c-0.22,0.13-0.36,0.3-0.36,0.5s0.14,0.37,0.36,0.5l5.2,3c0.22,0.13,0.53,0.21,0.87,0.21
			s0.64-0.08,0.87-0.21l5.2-3c0.22-0.13,0.36-0.3,0.36-0.5s-0.14-0.37-0.36-0.5l-5.2-3c-0.22-0.13-0.53-0.21-0.87-0.21
			s-0.64,0.08-0.87,0.21L174.22,225.5z"/>
		<path class="st5" d="M165.56,220.5c-0.22,0.13-0.36,0.3-0.36,0.5s0.14,0.37,0.36,0.5l5.2,3c0.22,0.13,0.53,0.21,0.87,0.21
			s0.64-0.08,0.87-0.21l5.2-3c0.22-0.13,0.36-0.3,0.36-0.5s-0.14-0.37-0.36-0.5l-5.2-3c-0.22-0.13-0.53-0.21-0.87-0.21
			s-0.64,0.08-0.87,0.21L165.56,220.5z"/>
		<path class="st5" d="M156.9,215.5c-0.22,0.13-0.36,0.3-0.36,0.5s0.14,0.37,0.36,0.5l5.2,3c0.22,0.13,0.53,0.21,0.87,0.21
			s0.64-0.08,0.87-0.21l5.2-3c0.22-0.13,0.36-0.3,0.36-0.5s-0.14-0.37-0.36-0.5l-5.2-3c-0.22-0.13-0.53-0.21-0.87-0.21
			s-0.64,0.08-0.87,0.21L156.9,215.5z"/>
		<path class="st5" d="M148.24,210.5c-0.22,0.13-0.36,0.3-0.36,0.5s0.14,0.37,0.36,0.5l5.2,3c0.22,0.13,0.53,0.21,0.87,0.21
			s0.64-0.08,0.87-0.21l5.2-3c0.22-0.13,0.36-0.3,0.36-0.5s-0.14-0.37-0.36-0.5l-5.2-3c-0.22-0.13-0.53-0.21-0.87-0.21
			s-0.64,0.08-0.87,0.21L148.24,210.5z"/>
		<path class="st5" d="M139.58,205.5c-0.22,0.13-0.36,0.3-0.36,0.5s0.14,0.37,0.36,0.5l5.2,3c0.22,0.13,0.53,0.21,0.87,0.21
			s0.64-0.08,0.87-0.21l5.2-3c0.22-0.13,0.36-0.3,0.36-0.5s-0.14-0.37-0.36-0.5l-5.2-3c-0.22-0.13-0.53-0.21-0.87-0.21
			s-0.64,0.08-0.87,0.21L139.58,205.5z"/>
		<path class="st5" d="M130.91,200.5c-0.22,0.13-0.36,0.3-0.36,0.5s0.14,0.37,0.36,0.5l5.2,3c0.22,0.13,0.53,0.21,0.87,0.21
			s0.64-0.08,0.87-0.21l5.2-3c0.22-0.13,0.36-0.3,0.36-0.5s-0.14-0.37-0.36-0.5l-5.2-3c-0.22-0.13-0.53-0.21-0.87-0.21
			s-0.64,0.08-0.87,0.21L130.91,200.5z"/>
		<path class="st5" d="M120.52,194.5c-0.22,0.13-0.36,0.3-0.36,0.5s0.14,0.37,0.36,0.5l6.93,4c0.22,0.13,0.53,0.21,0.87,0.21
			s0.64-0.08,0.87-0.21l5.2-3c0.22-0.13,0.36-0.3,0.36-0.5s-0.14-0.37-0.36-0.5l-6.93-4c-0.22-0.13-0.53-0.21-0.87-0.21
			c-0.34,0-0.64,0.08-0.87,0.21L120.52,194.5z"/>
	</g>
</g>
<g>
	<path class="st0" d="M127.6,73.76c0,0,1.06-0.61,1.73-1c0.68-0.39,1.56-0.27,2.45,0.24l117.78,68c0.89,0.51,1.77,1.41,2.45,2.59
		c0.68,1.17,1.01,2.39,1.01,3.41v104l-1.73,1L127.6,73.76z"/>
	<path class="st6" d="M126.58,76c0-1.02,0.34-1.85,1.01-2.24c0.68-0.39,1.56-0.27,2.45,0.24l117.78,68
		c0.89,0.51,1.77,1.41,2.45,2.59c0.68,1.17,1.01,2.39,1.01,3.41v104l-124.71-72V76H126.58z"/>
	<polygon class="st7" points="246.1,243 131.78,177 131.78,81 246.1,147 	"/>
	<path class="st8" d="M188.94,133c-13.85-8-25.11-1.49-25.11,14.5S175.1,183,188.94,191s25.11,1.49,25.11-14.5
		S202.79,141,188.94,133z M206.58,182.85l-7.8-15.76l7.46-6.46c1.66,4.32,2.61,8.75,2.61,12.88
		C208.86,177.35,208.03,180.5,206.58,182.85z M202.99,153.83L188.94,166l-14.05-28.4c3.6-2.07,8.57-1.77,14.05,1.4
		S199.39,147.6,202.99,153.83z M171.63,140.64l7.46,15.08l-7.8,6.76c-1.45-4.03-2.28-8.13-2.28-11.98
		C169.02,146.37,169.97,143.04,171.63,140.64z M188.94,185c-5.71-3.3-10.87-9.07-14.5-15.64l7.99-6.92l2.46,4.96
		c0.99,2,2.47,3.68,4.06,4.59s3.06,0.95,4.06,0.09l2.46-2.13l7.99,16.15C199.81,188.48,194.65,188.3,188.94,185z"/>
</g>
</svg>
