<?xml version="1.0" encoding="utf-8"?>
<!-- Generator: Adobe Illustrator 22.1.0, SVG Export Plug-In . SVG Version: 6.00 Build 0)  -->
<svg version="1.1" id="Warstwa_1" xmlns="http://www.w3.org/2000/svg" xmlns:xlink="http://www.w3.org/1999/xlink" x="0px" y="0px"
	 width="376px" height="324px" viewBox="0 0 376 324" style="enable-background:new 0 0 376 324;" xml:space="preserve">
<style type="text/css">
	.st0{fill:#FFFFFF;}
	.st1{fill:#056CEA;}
	.st2{fill:#A4E0FF;}
</style>
<g>
	<g>
		<path class="st0" d="M1.88,11v97l114.32,66V77L1.88,11z"/>
		<g>
			<polygon class="st1" points="116.19,78 1.88,12 1.88,0 116.19,66 			"/>
		</g>
		<path class="st0" d="M8.81,10c0,1.1-0.78,1.55-1.73,1c-0.96-0.55-1.73-1.9-1.73-3s0.78-1.55,1.73-1C8.03,7.55,8.81,8.9,8.81,10z"
			/>
		<path class="st0" d="M15.73,14c0,1.1-0.78,1.55-1.73,1c-0.96-0.55-1.73-1.9-1.73-3s0.78-1.55,1.73-1
			C14.96,11.55,15.73,12.9,15.73,14z"/>
		<path class="st0" d="M22.66,18c0,1.1-0.78,1.55-1.73,1c-0.96-0.55-1.73-1.9-1.73-3s0.78-1.55,1.73-1
			C21.89,15.55,22.66,16.9,22.66,18z"/>
	</g>
	<g>
		<g>
			<path class="st2" d="M55.57,66c0,0.55-0.39,0.78-0.87,0.5l-8.66-5c-0.48-0.28-0.87-0.95-0.87-1.5V50c0-0.55,0.39-0.78,0.87-0.5
				l8.66,5c0.48,0.28,0.87,0.95,0.87,1.5V66z"/>
			<path class="st2" d="M105.8,155c0,0.55-0.39,0.78-0.87,0.5l-58.89-34c-0.48-0.28-0.87-0.95-0.87-1.5v-18
				c0-0.55,0.39-0.78,0.87-0.5l58.89,34c0.48,0.28,0.87,0.95,0.87,1.5V155z"/>
			<path class="st2" d="M39.98,57c0,0.55-0.39,0.78-0.87,0.5l-25.98-15c-0.48-0.28-0.87-0.95-0.87-1.5V31c0-0.55,0.39-0.78,0.87-0.5
				l25.98,15c0.48,0.28,0.87,0.95,0.87,1.5V57z"/>
			<path class="st2" d="M72.03,88.5c0.48,0.28,0.87,0.05,0.87-0.5s-0.39-1.22-0.87-1.5l-25.98-15c-0.48-0.28-0.87-0.05-0.87,0.5
				s0.39,1.22,0.87,1.5L72.03,88.5z"/>
			<path class="st2" d="M72.03,112.5c0.48,0.28,0.87,0.05,0.87-0.5s-0.39-1.22-0.87-1.5l-25.98-15c-0.48-0.28-0.87-0.05-0.87,0.5
				s0.39,1.22,0.87,1.5L72.03,112.5z"/>
			<path class="st2" d="M104.93,101.5c0.48,0.28,0.87,0.05,0.87-0.5s-0.39-1.22-0.87-1.5l-58.89-34c-0.48-0.28-0.87-0.05-0.87,0.5
				s0.39,1.22,0.87,1.5L104.93,101.5z"/>
			<path class="st0" d="M52.11,57c0,1.1-0.78,1.55-1.73,1c-0.96-0.55-1.73-1.9-1.73-3s0.78-1.55,1.73-1S52.11,55.9,52.11,57z"/>
			<path class="st0" d="M47.78,60.5c0-1.1,0.78-1.55,1.73-1c0.32,0.18,1.41,0.82,1.73,1c0.96,0.55,1.73,1.9,1.73,3v3l-5.2-3v-3
				H47.78z"/>
			<path class="st2" d="M20.93,65c0.48,0.28,0.87,0.05,0.87-0.5c0-0.55-0.39-1.22-0.87-1.5l-7.79-4.5c-0.48-0.28-0.87-0.05-0.87,0.5
				s0.39,1.22,0.87,1.5L20.93,65z"/>
			<path class="st2" d="M25.26,73.5c0.48,0.28,0.87,0.05,0.87-0.5s-0.39-1.22-0.87-1.5l-12.12-7c-0.48-0.28-0.87-0.05-0.87,0.5
				s0.39,1.22,0.87,1.5L25.26,73.5z"/>
			<path class="st2" d="M33.92,84.5c0.48,0.28,0.87,0.05,0.87-0.5s-0.39-1.22-0.87-1.5l-20.78-12c-0.48-0.28-0.87-0.05-0.87,0.5
				s0.39,1.22,0.87,1.5L33.92,84.5z"/>
			<path class="st2" d="M29.59,88c0.48,0.28,0.87,0.05,0.87-0.5s-0.39-1.22-0.87-1.5l-16.45-9.5c-0.48-0.28-0.87-0.05-0.87,0.5
				s0.39,1.22,0.87,1.5L29.59,88z"/>
			<path class="st2" d="M20.93,59c0.48,0.28,0.87,0.05,0.87-0.5s-0.39-1.22-0.87-1.5l-7.79-4.5c-0.48-0.28-0.87-0.05-0.87,0.5
				s0.39,1.22,0.87,1.5L20.93,59z"/>
			<path class="st2" d="M29.59,58c0.48,0.28,0.87,0.05,0.87-0.5s-0.39-1.22-0.87-1.5l-16.45-9.5c-0.48-0.28-0.87-0.05-0.87,0.5
				s0.39,1.22,0.87,1.5L29.59,58z"/>
		</g>
	</g>
</g>
</svg>
