<?xml version="1.0" encoding="utf-8"?>
<!-- Generator: Adobe Illustrator 22.1.0, SVG Export Plug-In . SVG Version: 6.00 Build 0)  -->
<svg version="1.1" id="Warstwa_1" xmlns="http://www.w3.org/2000/svg" xmlns:xlink="http://www.w3.org/1999/xlink" x="0px" y="0px"
	 width="376px" height="324px" viewBox="0 0 376 324" style="enable-background:new 0 0 376 324;" xml:space="preserve">
<style type="text/css">
	.st0{fill:#3192E7;}
	.st1{fill:#73C8FF;}
	.st2{fill:#88D3FF;}
	.st3{fill:#A4E0FF;}
	.st4{opacity:0.48;fill:#3192E7;enable-background:new    ;}
	.st5{fill:#056CEA;}
	.st6{fill:#FFFFFF;}
	.st7{opacity:0.48;}
	.st8{fill:#B4E8FE;}
</style>
<g>
	<path class="st0" d="M227.61,249.5c0-0.78-0.55-1.49-1.43-2l-29.45-17c-0.89-0.51-2.11-0.83-3.46-0.83c-1.15,0-2.2,0.23-3.04,0.61
		l-21.75,9.91l-1.33,5.21c0,0-11.69,1.31-11.69,2.09c0,0.35,0,1.65,0,2c0,0.78,0.55,1.49,1.43,2l36.37,21
		c0.89,0.51,2.11,0.83,3.46,0.83s2.58-0.32,3.46-0.83c0.13-0.08,0.26-0.16,0.38-0.25l25.98-19c0.66-0.48,1.05-1.09,1.05-1.75
		C227.61,251.15,227.61,249.85,227.61,249.5z"/>
	<path class="st1" d="M200.58,270.25l8.81-6.44l-40.9-23.62l-11.16,5.09c-0.15,0.07-0.29,0.14-0.43,0.22
		c-0.89,0.51-1.43,1.22-1.43,2s0.55,1.49,1.43,2l36.37,21c0.89,0.51,2.11,0.83,3.46,0.83s2.58-0.32,3.46-0.83
		C200.33,270.42,200.46,270.34,200.58,270.25z"/>
</g>
<g>
	<path class="st0" d="M252.01,143.59c-0.68-1.17-1.56-2.07-2.45-2.59L131.78,73c-0.89-0.51-1.77-0.63-2.45-0.24s-1.73,1-1.73,1
		l122.68,200.48c0,0,1.06-0.61,1.73-1c0.68-0.39,1.01-1.22,1.01-2.24V147C253.02,145.98,252.69,144.76,252.01,143.59z"/>
	<g>
		<g>
			<polygon class="st2" points="126.58,204 251.29,276 251.29,251 126.58,179 			"/>
		</g>
		<g>
			<polygon class="st3" points="126.58,72 251.29,144 251.29,252 126.58,180 			"/>
		</g>
	</g>
	<path class="st4" d="M192.4,230c0,2.21-1.55,3.1-3.46,2s-3.46-3.79-3.46-6s1.55-3.1,3.46-2C190.85,225.1,192.4,227.79,192.4,230z"
		/>
	<g>
		<g>
			<polygon class="st5" points="246.1,243 131.78,177 131.78,81 246.1,147 			"/>
		</g>
		<path class="st6" d="M171.62,133c1.45,0.84,2.81,2.68,3.29,4.63l5.37,21.72l5.37-15.51c0.47-1.36,1.8-1.7,3.29-0.84
			c1.49,0.86,2.81,2.73,3.29,4.63l5.37,21.72l5.37-15.51c0.48-1.4,1.84-1.67,3.29-0.84c0.36,0.21,0.73,0.49,1.09,0.84
			c1.82,1.75,2.8,4.58,2.19,6.33l-8.66,25c-0.47,1.36-1.8,1.7-3.29,0.84c-1.49-0.86-2.81-2.73-3.29-4.63l-5.37-21.72l-5.37,15.51
			c-0.47,1.36-1.8,1.7-3.29,0.84c-1.49-0.86-2.81-2.73-3.29-4.63l-8.66-35c-0.6-2.45,0.38-4.14,2.19-3.79
			C170.89,132.64,171.25,132.79,171.62,133 M171.62,127c-0.93-0.54-1.85-0.9-2.73-1.07c-4.53-0.87-6.99,3.38-5.48,9.49l8.66,35
			c1.18,4.77,4.48,9.43,8.22,11.58c3.73,2.15,7.03,1.31,8.22-2.09l0.44-1.28l0.44,1.8c1.18,4.77,4.48,9.43,8.22,11.58
			c3.73,2.15,7.03,1.31,8.22-2.09l8.66-25c1.51-4.36-0.95-11.45-5.48-15.81c-0.89-0.85-1.81-1.56-2.73-2.09
			c-3.74-2.16-7.04-1.32-8.22,2.09l-0.44,1.28l-0.44-1.8c-1.18-4.77-4.48-9.43-8.22-11.58c-3.73-2.15-7.03-1.31-8.22,2.09
			l-0.44,1.28l-0.44-1.8C178.65,133.81,175.35,129.16,171.62,127L171.62,127z"/>
	</g>
</g>
<g>
	<path class="st0" d="M208.71,296c0-0.39,0-2,0-2L80.83,261c0,0,0,1.61,0,2s0.27,0.74,0.72,1l2.88,1.66L171.62,316
		c0.44,0.26,1.06,0.41,1.73,0.41c0.68,0,1.29-0.16,1.73-0.41l32.91-19C208.43,296.74,208.71,296.39,208.71,296z"/>
	<path class="st2" d="M208.71,294c0-0.39-0.27-0.74-0.72-1l-90.07-52c-0.44-0.26-1.06-0.41-1.73-0.41c-0.68,0-1.29,0.16-1.73,0.41
		l-32.91,19c-0.44,0.26-0.72,0.61-0.72,1s0.27,0.74,0.72,1l90.07,52c0.44,0.26,1.06,0.41,1.73,0.41c0.68,0,1.29-0.16,1.73-0.41
		l32.91-19C208.43,294.74,208.71,294.39,208.71,294z"/>
	<g class="st7">
		<path class="st0" d="M113.24,273c0,0,0,0.8,0,1s0.14,0.37,0.36,0.5l38.11,22c0.22,0.13,0.53,0.21,0.87,0.21s0.64-0.08,0.87-0.21
			l3.46-2c0.22-0.13,0.36-0.3,0.36-0.5s0-1,0-1L113.24,273z"/>
		<path class="st0" d="M99.38,265c0,0,0,0.8,0,1s0.14,0.37,0.36,0.5l3.46,2c0.22,0.13,0.53,0.21,0.87,0.21
			c0.34,0,0.64-0.08,0.87-0.21l3.46-2c0.22-0.13,0.36-0.3,0.36-0.5s0-1,0-1H99.38z"/>
		<path class="st0" d="M106.31,261c0,0,0,0.8,0,1s0.14,0.37,0.36,0.5l3.46,2c0.22,0.13,0.53,0.21,0.87,0.21
			c0.34,0,0.64-0.08,0.87-0.21l3.46-2c0.22-0.13,0.36-0.3,0.36-0.5c0-0.19,0-1,0-1H106.31z"/>
		<path class="st0" d="M116.7,259c0,0,0,0.81,0,1c0,0.2,0.14,0.37,0.36,0.5l3.46,2c0.22,0.13,0.53,0.21,0.87,0.21
			c0.34,0,0.64-0.08,0.87-0.21l3.46-2c0.22-0.13,0.36-0.3,0.36-0.5c0-0.19,0-1,0-1H116.7z"/>
		<path class="st0" d="M120.16,253c0,0,0,0.81,0,1c0,0.2,0.14,0.37,0.36,0.5l3.46,2c0.22,0.13,0.53,0.21,0.87,0.21
			c0.34,0,0.64-0.08,0.87-0.21l3.46-2c0.22-0.13,0.36-0.3,0.36-0.5c0-0.19,0-1,0-1H120.16z"/>
		<path class="st0" d="M127.09,257c0,0,0,0.81,0,1c0,0.2,0.14,0.37,0.36,0.5l3.46,2c0.22,0.13,0.53,0.21,0.87,0.21
			s0.64-0.08,0.87-0.21l3.46-2c0.22-0.13,0.36-0.3,0.36-0.5c0-0.19,0-1,0-1H127.09z"/>
		<path class="st0" d="M134.02,261c0,0,0,0.81,0,1c0,0.2,0.14,0.37,0.36,0.5l3.46,2c0.22,0.13,0.53,0.21,0.87,0.21
			s0.64-0.08,0.87-0.21l3.46-2c0.22-0.13,0.36-0.3,0.36-0.5c0-0.19,0-1,0-1H134.02z"/>
		<path class="st0" d="M140.95,265c0,0,0,0.81,0,1c0,0.2,0.14,0.37,0.36,0.5l3.46,2c0.22,0.13,0.53,0.21,0.87,0.21
			s0.64-0.08,0.87-0.21l3.46-2c0.22-0.13,0.36-0.3,0.36-0.5c0-0.19,0-1,0-1H140.95z"/>
		<path class="st0" d="M137.48,271c0,0,0,0.81,0,1c0,0.2,0.14,0.37,0.36,0.5l3.46,2c0.22,0.13,0.53,0.21,0.87,0.21
			s0.64-0.08,0.87-0.21l3.46-2c0.22-0.13,0.36-0.3,0.36-0.5c0-0.19,0-1,0-1H137.48z"/>
		<path class="st0" d="M144.41,275c0,0,0,0.81,0,1c0,0.2,0.14,0.37,0.36,0.5l3.46,2c0.22,0.13,0.53,0.21,0.87,0.21
			s0.64-0.08,0.87-0.21l3.46-2c0.22-0.13,0.36-0.3,0.36-0.5c0-0.19,0-1,0-1H144.41z"/>
		<path class="st0" d="M147.88,269c0,0,0,0.81,0,1c0,0.2,0.14,0.37,0.36,0.5l3.46,2c0.22,0.13,0.53,0.21,0.87,0.21
			s0.64-0.08,0.87-0.21l3.46-2c0.22-0.13,0.36-0.3,0.36-0.5c0-0.19,0-1,0-1H147.88z"/>
		<path class="st0" d="M154.8,273c0,0,0,0.81,0,1c0,0.2,0.14,0.37,0.36,0.5l3.46,2c0.22,0.13,0.53,0.21,0.87,0.21
			s0.64-0.08,0.87-0.21l3.46-2c0.22-0.13,0.36-0.3,0.36-0.5c0-0.19,0-1,0-1H154.8z"/>
		<path class="st0" d="M140.95,281c0,0,0,0.8,0,1s0.14,0.37,0.36,0.5l3.46,2c0.22,0.13,0.53,0.21,0.87,0.21s0.64-0.08,0.87-0.21
			l3.46-2c0.22-0.13,0.36-0.3,0.36-0.5c0-0.19,0-1,0-1H140.95z"/>
		<path class="st0" d="M151.34,279c0,0,0,0.81,0,1c0,0.2,0.14,0.37,0.36,0.5l3.46,2c0.22,0.13,0.53,0.21,0.87,0.21
			s0.64-0.08,0.87-0.21l3.46-2c0.22-0.13,0.36-0.3,0.36-0.5c0-0.19,0-1,0-1H151.34z"/>
		<path class="st0" d="M147.88,285c0,0,0,0.8,0,1s0.14,0.37,0.36,0.5l3.46,2c0.22,0.13,0.53,0.21,0.87,0.21s0.64-0.08,0.87-0.21
			l3.46-2c0.22-0.13,0.36-0.3,0.36-0.5c0-0.19,0-1,0-1H147.88z"/>
		<path class="st0" d="M154.8,289c0,0,0,0.8,0,1s0.14,0.37,0.36,0.5l3.46,2c0.22,0.13,0.53,0.21,0.87,0.21s0.64-0.08,0.87-0.21
			l3.46-2c0.22-0.13,0.36-0.3,0.36-0.5c0-0.19,0-1,0-1H154.8z"/>
		<path class="st0" d="M158.27,283c0,0,0,0.81,0,1c0,0.2,0.14,0.37,0.36,0.5l3.46,2c0.22,0.13,0.53,0.21,0.87,0.21
			s0.64-0.08,0.87-0.21l3.46-2c0.22-0.13,0.36-0.3,0.36-0.5c0-0.19,0-1,0-1H158.27z"/>
		<path class="st0" d="M161.73,277c0,0,0,0.81,0,1c0,0.2,0.14,0.37,0.36,0.5l3.46,2c0.22,0.13,0.53,0.21,0.87,0.21
			s0.64-0.08,0.87-0.21l3.46-2c0.22-0.13,0.36-0.3,0.36-0.5c0-0.19,0-1,0-1H161.73z"/>
		<path class="st0" d="M168.66,281c0,0,0,0.81,0,1c0,0.2,0.14,0.37,0.36,0.5l3.46,2c0.22,0.13,0.53,0.21,0.87,0.21
			s0.64-0.08,0.87-0.21l3.46-2c0.22-0.13,0.36-0.3,0.36-0.5c0-0.19,0-1,0-1H168.66z"/>
		<path class="st0" d="M165.2,287c0,0,0,0.81,0,1c0,0.2,0.14,0.37,0.36,0.5l3.46,2c0.22,0.13,0.53,0.21,0.87,0.21
			s0.64-0.08,0.87-0.21l3.46-2c0.22-0.13,0.36-0.3,0.36-0.5c0-0.19,0-1,0-1H165.2z"/>
		<path class="st0" d="M175.59,285c0,0,0,0.81,0,1c0,0.2,0.14,0.37,0.36,0.5l3.46,2c0.22,0.13,0.53,0.21,0.87,0.21
			s0.64-0.08,0.87-0.21l3.46-2c0.22-0.13,0.36-0.3,0.36-0.5c0-0.19,0-1,0-1H175.59z"/>
		<path class="st0" d="M172.13,291c0,0,0,0.81,0,1c0,0.2,0.14,0.37,0.36,0.5l3.46,2c0.22,0.13,0.53,0.21,0.87,0.21
			s0.64-0.08,0.87-0.21l3.46-2c0.22-0.13,0.36-0.3,0.36-0.5c0-0.19,0-1,0-1H172.13z"/>
		<path class="st0" d="M182.52,289c0,0,0,0.81,0,1c0,0.2,0.14,0.37,0.36,0.5l3.46,2c0.22,0.13,0.53,0.21,0.87,0.21
			s0.64-0.08,0.87-0.21l3.46-2c0.22-0.13,0.36-0.3,0.36-0.5c0-0.19,0-1,0-1H182.52z"/>
		<path class="st0" d="M189.45,293c0,0,0,0.81,0,1c0,0.2,0.14,0.37,0.36,0.5l3.46,2c0.22,0.13,0.53,0.21,0.87,0.21
			s0.64-0.08,0.87-0.21l3.46-2c0.22-0.13,0.36-0.3,0.36-0.5c0-0.19,0-1,0-1H189.45z"/>
		<path class="st0" d="M168.66,297c0,0,0,0.8,0,1s0.14,0.37,0.36,0.5l3.46,2c0.22,0.13,0.53,0.21,0.87,0.21s0.64-0.08,0.87-0.21
			l3.46-2c0.22-0.13,0.36-0.3,0.36-0.5c0-0.19,0-1,0-1H168.66z"/>
		<path class="st0" d="M161.73,301c0,0,0,0.8,0,1s0.14,0.37,0.36,0.5l3.46,2c0.22,0.13,0.53,0.21,0.87,0.21s0.64-0.08,0.87-0.21
			l3.46-2c0.22-0.13,0.36-0.3,0.36-0.5s0-1,0-1H161.73z"/>
		<path class="st0" d="M168.66,305c0,0,0,0.8,0,1s0.14,0.37,0.36,0.5l3.46,2c0.22,0.13,0.53,0.21,0.87,0.21s0.64-0.08,0.87-0.21
			l3.46-2c0.22-0.13,0.36-0.3,0.36-0.5s0-1,0-1H168.66z"/>
		<path class="st0" d="M161.73,293c0,0,0,0.8,0,1s0.14,0.37,0.36,0.5l3.46,2c0.22,0.13,0.53,0.21,0.87,0.21s0.64-0.08,0.87-0.21
			l3.46-2c0.22-0.13,0.36-0.3,0.36-0.5c0-0.19,0-1,0-1H161.73z"/>
		<path class="st0" d="M154.8,297c0,0,0,0.8,0,1s0.14,0.37,0.36,0.5l3.46,2c0.22,0.13,0.53,0.21,0.87,0.21s0.64-0.08,0.87-0.21
			l3.46-2c0.22-0.13,0.36-0.3,0.36-0.5s0-1,0-1H154.8z"/>
		<path class="st0" d="M134.02,277c0,0,0,0.8,0,1s0.14,0.37,0.36,0.5l3.46,2c0.22,0.13,0.53,0.21,0.87,0.21s0.64-0.08,0.87-0.21
			l3.46-2c0.22-0.13,0.36-0.3,0.36-0.5c0-0.19,0-1,0-1H134.02z"/>
		<path class="st0" d="M130.56,267c0,0,0,0.81,0,1c0,0.2,0.14,0.37,0.36,0.5l3.46,2c0.22,0.13,0.53,0.21,0.87,0.21
			s0.64-0.08,0.87-0.21l3.46-2c0.22-0.13,0.36-0.3,0.36-0.5c0-0.19,0-1,0-1H130.56z"/>
		<path class="st0" d="M127.09,273c0,0,0,0.8,0,1s0.14,0.37,0.36,0.5l3.46,2c0.22,0.13,0.53,0.21,0.87,0.21s0.64-0.08,0.87-0.21
			l3.46-2c0.22-0.13,0.36-0.3,0.36-0.5c0-0.19,0-1,0-1H127.09z"/>
		<path class="st0" d="M123.63,263c0,0,0,0.81,0,1c0,0.2,0.14,0.37,0.36,0.5l3.46,2c0.22,0.13,0.53,0.21,0.87,0.21
			s0.64-0.08,0.87-0.21l3.46-2c0.22-0.13,0.36-0.3,0.36-0.5c0-0.19,0-1,0-1H123.63z"/>
		<path class="st0" d="M120.16,269c0,0,0,0.8,0,1s0.14,0.37,0.36,0.5l3.46,2c0.22,0.13,0.53,0.21,0.87,0.21
			c0.34,0,0.64-0.08,0.87-0.21l3.46-2c0.22-0.13,0.36-0.3,0.36-0.5c0-0.19,0-1,0-1H120.16z"/>
		<path class="st0" d="M113.24,265c0,0,0,0.8,0,1s0.14,0.37,0.36,0.5l3.46,2c0.22,0.13,0.53,0.21,0.87,0.21
			c0.34,0,0.64-0.08,0.87-0.21l3.46-2c0.22-0.13,0.36-0.3,0.36-0.5c0-0.19,0-1,0-1H113.24z"/>
		<path class="st0" d="M106.31,269c0,0,0,0.8,0,1s0.14,0.37,0.36,0.5l3.46,2c0.22,0.13,0.53,0.21,0.87,0.21
			c0.34,0,0.64-0.08,0.87-0.21l3.46-2c0.22-0.13,0.36-0.3,0.36-0.5s0-1,0-1H106.31z"/>
		<path class="st0" d="M90.72,260c0,0,0,0.8,0,1s0.14,0.37,0.36,0.5l5.2,3c0.22,0.13,0.53,0.21,0.87,0.21
			c0.34,0,0.64-0.08,0.87-0.21l3.46-2c0.22-0.13,0.36-0.3,0.36-0.5s0-1,0-1L90.72,260z"/>
		<path class="st0" d="M97.65,256c0,0,0,0.8,0,1s0.14,0.37,0.36,0.5l5.2,3c0.22,0.13,0.53,0.21,0.87,0.21
			c0.34,0,0.64-0.08,0.87-0.21l3.46-2c0.22-0.13,0.36-0.3,0.36-0.5c0-0.19,0-1,0-1L97.65,256z"/>
		<path class="st0" d="M191.9,298c0-0.19,0-1.04,0-1.04L179.05,295c0,0,0,0.81,0,1c0,0.2,0.14,0.37,0.36,0.5l2.6,1.5l-6.42,3
			c0,0,0,0.81,0,1c0,0.2,0.14,0.37,0.36,0.5l3.46,2c0.22,0.13,0.53,0.21,0.87,0.21s0.64-0.08,0.87-0.21l10.39-6
			C191.76,298.37,191.9,298.19,191.9,298z"/>
		<path class="st0" d="M104.58,252c0,0,0,0.81,0,1c0,0.2,0.14,0.37,0.36,0.5l8.66,5c0.22,0.13,0.53,0.21,0.87,0.21
			c0.34,0,0.64-0.08,0.87-0.21l3.46-2c0.22-0.13,0.36-0.3,0.36-0.5c0-0.19,0-1,0-1L104.58,252z"/>
		<path class="st0" d="M111.5,248c0,0,0,0.81,0,1c0,0.2,0.14,0.37,0.36,0.5l5.2,3c0.22,0.13,0.53,0.21,0.87,0.21
			c0.34,0,0.64-0.08,0.87-0.21l3.46-2c0.22-0.13,0.36-0.3,0.36-0.5c0-0.19,0-1,0-1L111.5,248z"/>
	</g>
	<g>
		<path class="st8" d="M169.02,304.5c-0.22,0.13-0.36,0.3-0.36,0.5s0.14,0.37,0.36,0.5l3.46,2c0.22,0.13,0.53,0.21,0.87,0.21
			s0.64-0.08,0.87-0.21l3.46-2c0.22-0.13,0.36-0.3,0.36-0.5s-0.14-0.37-0.36-0.5l-3.46-2c-0.22-0.13-0.53-0.21-0.87-0.21
			s-0.64,0.08-0.87,0.21L169.02,304.5z"/>
		<path class="st8" d="M162.09,300.5c-0.22,0.13-0.36,0.3-0.36,0.5s0.14,0.37,0.36,0.5l3.46,2c0.22,0.13,0.53,0.21,0.87,0.21
			s0.64-0.08,0.87-0.21l3.46-2c0.22-0.13,0.36-0.3,0.36-0.5s-0.14-0.37-0.36-0.5l-3.46-2c-0.22-0.13-0.53-0.21-0.87-0.21
			s-0.64,0.08-0.87,0.21L162.09,300.5z"/>
		<path class="st8" d="M155.16,296.5c-0.22,0.13-0.36,0.3-0.36,0.5s0.14,0.37,0.36,0.5l3.46,2c0.22,0.13,0.53,0.21,0.87,0.21
			s0.64-0.08,0.87-0.21l3.46-2c0.22-0.13,0.36-0.3,0.36-0.5s-0.14-0.37-0.36-0.5l-3.46-2c-0.22-0.13-0.53-0.21-0.87-0.21
			s-0.64,0.08-0.87,0.21L155.16,296.5z"/>
		<path class="st8" d="M113.59,272.5c-0.22,0.13-0.36,0.3-0.36,0.5s0.14,0.37,0.36,0.5l38.11,22c0.22,0.13,0.53,0.21,0.87,0.21
			s0.64-0.08,0.87-0.21l3.46-2c0.22-0.13,0.36-0.3,0.36-0.5s-0.14-0.37-0.36-0.5l-38.1-22c-0.22-0.13-0.53-0.21-0.87-0.21
			c-0.34,0-0.64,0.08-0.87,0.21L113.59,272.5z"/>
		<path class="st8" d="M106.67,268.5c-0.22,0.13-0.36,0.3-0.36,0.5s0.14,0.37,0.36,0.5l3.46,2c0.22,0.13,0.53,0.21,0.87,0.21
			c0.34,0,0.64-0.08,0.87-0.21l3.46-2c0.22-0.13,0.36-0.3,0.36-0.5s-0.14-0.37-0.36-0.5l-3.46-2c-0.22-0.13-0.53-0.21-0.87-0.21
			c-0.34,0-0.64,0.08-0.87,0.21L106.67,268.5z"/>
		<path class="st8" d="M99.74,264.5c-0.22,0.13-0.36,0.3-0.36,0.5s0.14,0.37,0.36,0.5l3.46,2c0.22,0.13,0.53,0.21,0.87,0.21
			c0.34,0,0.64-0.08,0.87-0.21l3.46-2c0.22-0.13,0.36-0.3,0.36-0.5s-0.14-0.37-0.36-0.5l-3.46-2c-0.22-0.13-0.53-0.21-0.87-0.21
			c-0.34,0-0.64,0.08-0.87,0.21L99.74,264.5z"/>
		<path class="st8" d="M91.08,259.5c-0.22,0.13-0.36,0.3-0.36,0.5s0.14,0.37,0.36,0.5l5.2,3c0.22,0.13,0.53,0.21,0.87,0.21
			c0.34,0,0.64-0.08,0.87-0.21l3.46-2c0.22-0.13,0.36-0.3,0.36-0.5s-0.14-0.37-0.36-0.5l-5.2-3c-0.22-0.13-0.53-0.21-0.87-0.21
			c-0.34,0-0.64,0.08-0.87,0.21L91.08,259.5z"/>
		<path class="st8" d="M169.02,296.5c-0.22,0.13-0.36,0.3-0.36,0.5s0.14,0.37,0.36,0.5l3.46,2c0.22,0.13,0.53,0.21,0.87,0.21
			s0.64-0.08,0.87-0.21l3.46-2c0.22-0.13,0.36-0.3,0.36-0.5c0-0.19-0.14-0.37-0.36-0.5l-3.46-2c-0.22-0.13-0.53-0.21-0.87-0.21
			s-0.64,0.08-0.87,0.21L169.02,296.5z"/>
		<path class="st8" d="M162.09,292.5c-0.22,0.13-0.36,0.3-0.36,0.5s0.14,0.37,0.36,0.5l3.46,2c0.22,0.13,0.53,0.21,0.87,0.21
			s0.64-0.08,0.87-0.21l3.46-2c0.22-0.13,0.36-0.3,0.36-0.5c0-0.19-0.14-0.37-0.36-0.5l-3.46-2c-0.22-0.13-0.53-0.21-0.87-0.21
			s-0.64,0.08-0.87,0.21L162.09,292.5z"/>
		<path class="st8" d="M155.16,288.5c-0.22,0.13-0.36,0.3-0.36,0.5s0.14,0.37,0.36,0.5l3.46,2c0.22,0.13,0.53,0.21,0.87,0.21
			s0.64-0.08,0.87-0.21l3.46-2c0.22-0.13,0.36-0.3,0.36-0.5c0-0.19-0.14-0.37-0.36-0.5l-3.46-2c-0.22-0.13-0.53-0.21-0.87-0.21
			s-0.64,0.08-0.87,0.21L155.16,288.5z"/>
		<path class="st8" d="M148.24,284.5c-0.22,0.13-0.36,0.3-0.36,0.5s0.14,0.37,0.36,0.5l3.46,2c0.22,0.13,0.53,0.21,0.87,0.21
			s0.64-0.08,0.87-0.21l3.46-2c0.22-0.13,0.36-0.3,0.36-0.5c0-0.19-0.14-0.37-0.36-0.5l-3.46-2c-0.22-0.13-0.53-0.21-0.87-0.21
			s-0.64,0.08-0.87,0.21L148.24,284.5z"/>
		<path class="st8" d="M141.31,280.5c-0.22,0.13-0.36,0.3-0.36,0.5s0.14,0.37,0.36,0.5l3.46,2c0.22,0.13,0.53,0.21,0.87,0.21
			s0.64-0.08,0.87-0.21l3.46-2c0.22-0.13,0.36-0.3,0.36-0.5c0-0.19-0.14-0.37-0.36-0.5l-3.46-2c-0.22-0.13-0.53-0.21-0.87-0.21
			s-0.64,0.08-0.87,0.21L141.31,280.5z"/>
		<path class="st8" d="M134.38,276.5c-0.22,0.13-0.36,0.3-0.36,0.5s0.14,0.37,0.36,0.5l3.46,2c0.22,0.13,0.53,0.21,0.87,0.21
			s0.64-0.08,0.87-0.21l3.46-2c0.22-0.13,0.36-0.3,0.36-0.5c0-0.19-0.14-0.37-0.36-0.5l-3.46-2c-0.22-0.13-0.53-0.21-0.87-0.21
			s-0.64,0.08-0.87,0.21L134.38,276.5z"/>
		<path class="st8" d="M127.45,272.5c-0.22,0.13-0.36,0.3-0.36,0.5s0.14,0.37,0.36,0.5l3.46,2c0.22,0.13,0.53,0.21,0.87,0.21
			s0.64-0.08,0.87-0.21l3.46-2c0.22-0.13,0.36-0.3,0.36-0.5c0-0.19-0.14-0.37-0.36-0.5l-3.46-2c-0.22-0.13-0.53-0.21-0.87-0.21
			s-0.64,0.08-0.87,0.21L127.45,272.5z"/>
		<path class="st8" d="M120.52,268.5c-0.22,0.13-0.36,0.3-0.36,0.5s0.14,0.37,0.36,0.5l3.46,2c0.22,0.13,0.53,0.21,0.87,0.21
			c0.34,0,0.64-0.08,0.87-0.21l3.46-2c0.22-0.13,0.36-0.3,0.36-0.5c0-0.19-0.14-0.37-0.36-0.5l-3.46-2
			c-0.22-0.13-0.53-0.21-0.87-0.21c-0.34,0-0.64,0.08-0.87,0.21L120.52,268.5z"/>
		<path class="st8" d="M113.59,264.5c-0.22,0.13-0.36,0.3-0.36,0.5s0.14,0.37,0.36,0.5l3.46,2c0.22,0.13,0.53,0.21,0.87,0.21
			c0.34,0,0.64-0.08,0.87-0.21l3.46-2c0.22-0.13,0.36-0.3,0.36-0.5c0-0.19-0.14-0.37-0.36-0.5l-3.46-2
			c-0.22-0.13-0.53-0.21-0.87-0.21c-0.34,0-0.64,0.08-0.87,0.21L113.59,264.5z"/>
		<path class="st8" d="M106.67,260.5c-0.22,0.13-0.36,0.3-0.36,0.5s0.14,0.37,0.36,0.5l3.46,2c0.22,0.13,0.53,0.21,0.87,0.21
			c0.34,0,0.64-0.08,0.87-0.21l3.46-2c0.22-0.13,0.36-0.3,0.36-0.5c0-0.19-0.14-0.37-0.36-0.5l-3.46-2
			c-0.22-0.13-0.53-0.21-0.87-0.21c-0.34,0-0.64,0.08-0.87,0.21L106.67,260.5z"/>
		<path class="st8" d="M98.01,255.5c-0.22,0.13-0.36,0.3-0.36,0.5c0,0.2,0.14,0.37,0.36,0.5l5.2,3c0.22,0.13,0.53,0.21,0.87,0.21
			c0.34,0,0.64-0.08,0.87-0.21l3.46-2c0.22-0.13,0.36-0.3,0.36-0.5c0-0.19-0.14-0.37-0.36-0.5l-5.2-3
			c-0.22-0.13-0.53-0.21-0.87-0.21c-0.34,0-0.64,0.08-0.87,0.21L98.01,255.5z"/>
		<path class="st8" d="M172.48,290.5c-0.22,0.13-0.36,0.31-0.36,0.5c0,0.2,0.14,0.37,0.36,0.5l3.46,2c0.22,0.13,0.53,0.21,0.87,0.21
			s0.64-0.08,0.87-0.21l3.46-2c0.22-0.13,0.36-0.3,0.36-0.5c0-0.19-0.14-0.37-0.36-0.5l-3.46-2c-0.22-0.13-0.53-0.21-0.87-0.21
			s-0.64,0.08-0.87,0.21L172.48,290.5z"/>
		<path class="st8" d="M191.9,297c0-0.19-0.14-0.37-0.36-0.5l-6.93-4c-0.22-0.13-0.53-0.21-0.87-0.21s-0.64,0.08-0.87,0.21l-3.46,2
			c-0.22,0.13-0.36,0.31-0.36,0.5c0,0.2,0.14,0.37,0.36,0.5l2.6,1.5l-6.06,3.5c-0.22,0.13-0.36,0.31-0.36,0.5
			c0,0.2,0.14,0.37,0.36,0.5l3.46,2c0.22,0.13,0.53,0.21,0.87,0.21s0.64-0.08,0.87-0.21l10.39-6
			C191.76,297.37,191.9,297.19,191.9,297z"/>
		<path class="st8" d="M165.56,286.5c-0.22,0.13-0.36,0.31-0.36,0.5c0,0.2,0.14,0.37,0.36,0.5l3.46,2c0.22,0.13,0.53,0.21,0.87,0.21
			s0.64-0.08,0.87-0.21l3.46-2c0.22-0.13,0.36-0.3,0.36-0.5c0-0.19-0.14-0.37-0.36-0.5l-3.46-2c-0.22-0.13-0.53-0.21-0.87-0.21
			s-0.64,0.08-0.87,0.21L165.56,286.5z"/>
		<path class="st8" d="M158.63,282.5c-0.22,0.13-0.36,0.31-0.36,0.5c0,0.2,0.14,0.37,0.36,0.5l3.46,2c0.22,0.13,0.53,0.21,0.87,0.21
			s0.64-0.08,0.87-0.21l3.46-2c0.22-0.13,0.36-0.3,0.36-0.5c0-0.19-0.14-0.37-0.36-0.5l-3.46-2c-0.22-0.13-0.53-0.21-0.87-0.21
			s-0.64,0.08-0.87,0.21L158.63,282.5z"/>
		<path class="st8" d="M151.7,278.5c-0.22,0.13-0.36,0.31-0.36,0.5c0,0.2,0.14,0.37,0.36,0.5l3.46,2c0.22,0.13,0.53,0.21,0.87,0.21
			s0.64-0.08,0.87-0.21l3.46-2c0.22-0.13,0.36-0.3,0.36-0.5c0-0.19-0.14-0.37-0.36-0.5l-3.46-2c-0.22-0.13-0.53-0.21-0.87-0.21
			s-0.64,0.08-0.87,0.21L151.7,278.5z"/>
		<path class="st8" d="M144.77,274.5c-0.22,0.13-0.36,0.31-0.36,0.5c0,0.2,0.14,0.37,0.36,0.5l3.46,2c0.22,0.13,0.53,0.21,0.87,0.21
			s0.64-0.08,0.87-0.21l3.46-2c0.22-0.13,0.36-0.3,0.36-0.5c0-0.19-0.14-0.37-0.36-0.5l-3.46-2c-0.22-0.13-0.53-0.21-0.87-0.21
			s-0.64,0.08-0.87,0.21L144.77,274.5z"/>
		<path class="st8" d="M137.84,270.5c-0.22,0.13-0.36,0.31-0.36,0.5c0,0.2,0.14,0.37,0.36,0.5l3.46,2c0.22,0.13,0.53,0.21,0.87,0.21
			s0.64-0.08,0.87-0.21l3.46-2c0.22-0.13,0.36-0.3,0.36-0.5c0-0.19-0.14-0.37-0.36-0.5l-3.46-2c-0.22-0.13-0.53-0.21-0.87-0.21
			s-0.64,0.08-0.87,0.21L137.84,270.5z"/>
		<path class="st8" d="M130.91,266.5c-0.22,0.13-0.36,0.31-0.36,0.5c0,0.2,0.14,0.37,0.36,0.5l3.46,2c0.22,0.13,0.53,0.21,0.87,0.21
			s0.64-0.08,0.87-0.21l3.46-2c0.22-0.13,0.36-0.3,0.36-0.5c0-0.19-0.14-0.37-0.36-0.5l-3.46-2c-0.22-0.13-0.53-0.21-0.87-0.21
			s-0.64,0.08-0.87,0.21L130.91,266.5z"/>
		<path class="st8" d="M123.99,262.5c-0.22,0.13-0.36,0.31-0.36,0.5c0,0.2,0.14,0.37,0.36,0.5l3.46,2c0.22,0.13,0.53,0.21,0.87,0.21
			s0.64-0.08,0.87-0.21l3.46-2c0.22-0.13,0.36-0.3,0.36-0.5c0-0.19-0.14-0.37-0.36-0.5l-3.46-2c-0.22-0.13-0.53-0.21-0.87-0.21
			s-0.64,0.08-0.87,0.21L123.99,262.5z"/>
		<path class="st8" d="M117.06,258.5c-0.22,0.13-0.36,0.31-0.36,0.5c0,0.2,0.14,0.37,0.36,0.5l3.46,2c0.22,0.13,0.53,0.21,0.87,0.21
			c0.34,0,0.64-0.08,0.87-0.21l3.46-2c0.22-0.13,0.36-0.3,0.36-0.5c0-0.19-0.14-0.37-0.36-0.5l-3.46-2
			c-0.22-0.13-0.53-0.21-0.87-0.21c-0.34,0-0.64,0.08-0.87,0.21L117.06,258.5z"/>
		<path class="st8" d="M104.93,251.5c-0.22,0.13-0.36,0.31-0.36,0.5c0,0.2,0.14,0.37,0.36,0.5l8.66,5c0.22,0.13,0.53,0.21,0.87,0.21
			c0.34,0,0.64-0.08,0.87-0.21l3.46-2c0.22-0.13,0.36-0.3,0.36-0.5c0-0.19-0.14-0.37-0.36-0.5l-8.66-5
			c-0.22-0.13-0.53-0.21-0.87-0.21c-0.34,0-0.64,0.08-0.87,0.21L104.93,251.5z"/>
		<path class="st8" d="M189.8,292.5c-0.22,0.13-0.36,0.31-0.36,0.5c0,0.2,0.14,0.37,0.36,0.5l3.46,2c0.22,0.13,0.53,0.21,0.87,0.21
			s0.64-0.08,0.87-0.21l3.46-2c0.22-0.13,0.36-0.3,0.36-0.5c0-0.19-0.14-0.37-0.36-0.5l-3.46-2c-0.22-0.13-0.53-0.21-0.87-0.21
			s-0.64,0.08-0.87,0.21L189.8,292.5z"/>
		<path class="st8" d="M182.88,288.5c-0.22,0.13-0.36,0.31-0.36,0.5c0,0.2,0.14,0.37,0.36,0.5l3.46,2c0.22,0.13,0.53,0.21,0.87,0.21
			s0.64-0.08,0.87-0.21l3.46-2c0.22-0.13,0.36-0.3,0.36-0.5c0-0.19-0.14-0.37-0.36-0.5l-3.46-2c-0.22-0.13-0.53-0.21-0.87-0.21
			s-0.64,0.08-0.87,0.21L182.88,288.5z"/>
		<path class="st8" d="M175.95,284.5c-0.22,0.13-0.36,0.31-0.36,0.5c0,0.2,0.14,0.37,0.36,0.5l3.46,2c0.22,0.13,0.53,0.21,0.87,0.21
			s0.64-0.08,0.87-0.21l3.46-2c0.22-0.13,0.36-0.3,0.36-0.5c0-0.19-0.14-0.37-0.36-0.5l-3.46-2c-0.22-0.13-0.53-0.21-0.87-0.21
			s-0.64,0.08-0.87,0.21L175.95,284.5z"/>
		<path class="st8" d="M169.02,280.5c-0.22,0.13-0.36,0.31-0.36,0.5c0,0.2,0.14,0.37,0.36,0.5l3.46,2c0.22,0.13,0.53,0.21,0.87,0.21
			s0.64-0.08,0.87-0.21l3.46-2c0.22-0.13,0.36-0.3,0.36-0.5c0-0.19-0.14-0.37-0.36-0.5l-3.46-2c-0.22-0.13-0.53-0.21-0.87-0.21
			s-0.64,0.08-0.87,0.21L169.02,280.5z"/>
		<path class="st8" d="M162.09,276.5c-0.22,0.13-0.36,0.31-0.36,0.5c0,0.2,0.14,0.37,0.36,0.5l3.46,2c0.22,0.13,0.53,0.21,0.87,0.21
			s0.64-0.08,0.87-0.21l3.46-2c0.22-0.13,0.36-0.3,0.36-0.5c0-0.19-0.14-0.37-0.36-0.5l-3.46-2c-0.22-0.13-0.53-0.21-0.87-0.21
			s-0.64,0.08-0.87,0.21L162.09,276.5z"/>
		<path class="st8" d="M155.16,272.5c-0.22,0.13-0.36,0.31-0.36,0.5c0,0.2,0.14,0.37,0.36,0.5l3.46,2c0.22,0.13,0.53,0.21,0.87,0.21
			s0.64-0.08,0.87-0.21l3.46-2c0.22-0.13,0.36-0.3,0.36-0.5c0-0.19-0.14-0.37-0.36-0.5l-3.46-2c-0.22-0.13-0.53-0.21-0.87-0.21
			s-0.64,0.08-0.87,0.21L155.16,272.5z"/>
		<path class="st8" d="M148.24,268.5c-0.22,0.13-0.36,0.31-0.36,0.5c0,0.2,0.14,0.37,0.36,0.5l3.46,2c0.22,0.13,0.53,0.21,0.87,0.21
			s0.64-0.08,0.87-0.21l3.46-2c0.22-0.13,0.36-0.3,0.36-0.5c0-0.19-0.14-0.37-0.36-0.5l-3.46-2c-0.22-0.13-0.53-0.21-0.87-0.21
			s-0.64,0.08-0.87,0.21L148.24,268.5z"/>
		<path class="st8" d="M141.31,264.5c-0.22,0.13-0.36,0.31-0.36,0.5c0,0.2,0.14,0.37,0.36,0.5l3.46,2c0.22,0.13,0.53,0.21,0.87,0.21
			s0.64-0.08,0.87-0.21l3.46-2c0.22-0.13,0.36-0.3,0.36-0.5c0-0.19-0.14-0.37-0.36-0.5l-3.46-2c-0.22-0.13-0.53-0.21-0.87-0.21
			s-0.64,0.08-0.87,0.21L141.31,264.5z"/>
		<path class="st8" d="M134.38,260.5c-0.22,0.13-0.36,0.31-0.36,0.5c0,0.2,0.14,0.37,0.36,0.5l3.46,2c0.22,0.13,0.53,0.21,0.87,0.21
			s0.64-0.08,0.87-0.21l3.46-2c0.22-0.13,0.36-0.3,0.36-0.5c0-0.19-0.14-0.37-0.36-0.5l-3.46-2c-0.22-0.13-0.53-0.21-0.87-0.21
			s-0.64,0.08-0.87,0.21L134.38,260.5z"/>
		<path class="st8" d="M127.45,256.5c-0.22,0.13-0.36,0.31-0.36,0.5c0,0.2,0.14,0.37,0.36,0.5l3.46,2c0.22,0.13,0.53,0.21,0.87,0.21
			s0.64-0.08,0.87-0.21l3.46-2c0.22-0.13,0.36-0.3,0.36-0.5c0-0.19-0.14-0.37-0.36-0.5l-3.46-2c-0.22-0.13-0.53-0.21-0.87-0.21
			s-0.64,0.08-0.87,0.21L127.45,256.5z"/>
		<path class="st8" d="M120.52,252.5c-0.22,0.13-0.36,0.31-0.36,0.5c0,0.2,0.14,0.37,0.36,0.5l3.46,2c0.22,0.13,0.53,0.21,0.87,0.21
			c0.34,0,0.64-0.08,0.87-0.21l3.46-2c0.22-0.13,0.36-0.3,0.36-0.5c0-0.19-0.14-0.37-0.36-0.5l-3.46-2
			c-0.22-0.13-0.53-0.21-0.87-0.21c-0.34,0-0.64,0.08-0.87,0.21L120.52,252.5z"/>
		<path class="st8" d="M111.86,247.5c-0.22,0.13-0.36,0.31-0.36,0.5c0,0.2,0.14,0.37,0.36,0.5l5.2,3c0.22,0.13,0.53,0.21,0.87,0.21
			c0.34,0,0.64-0.08,0.87-0.21l3.46-2c0.22-0.13,0.36-0.3,0.36-0.5c0-0.19-0.14-0.37-0.36-0.5l-5.2-3
			c-0.22-0.13-0.53-0.21-0.87-0.21c-0.34,0-0.64,0.08-0.87,0.21L111.86,247.5z"/>
	</g>
</g>
<path class="st5" d="M106.25,232.35c0.09-0.39-0.09-0.76-0.47-1.05l-11.79-9.04c-0.38-0.29-0.95-0.5-1.62-0.55
	c-0.67-0.05-1.31,0.05-1.82,0.27L51.42,239c-0.5,0.22-0.86,0.55-0.95,0.93c-0.09,0.39,0.09,0.76,0.47,1.05l11.79,9.04
	c0.38,0.29,0.95,0.5,1.62,0.55c0.67,0.05,1.31-0.05,1.82-0.27l39.12-17.02C105.8,233.06,106.16,232.73,106.25,232.35z"/>
<g>
	<path class="st8" d="M43.45,242c-0.44-0.26-0.72-0.61-0.72-1s0.27-0.74,0.72-1l34.64-20c0.44-0.26,1.06-0.41,1.73-0.41
		c0.68,0,1.29,0.16,1.73,0.41l13.86,8c0.44,0.26,0.72,0.61,0.72,1s-0.27,0.74-0.72,1l-34.64,20c-0.44,0.26-1.06,0.41-1.73,0.41
		c-0.68,0-1.29-0.16-1.73-0.41L43.45,242z"/>
	<path class="st6" d="M70.29,226.5c-0.22,0.13-0.36,0.3-0.36,0.5s0.14,0.37,0.36,0.5l12.12,7c0.22,0.13,0.53,0.21,0.87,0.21
		c0.34,0,0.64-0.08,0.87-0.21l8.66-5c0.22-0.13,0.36-0.3,0.36-0.5s-0.14-0.37-0.36-0.5l-12.12-7c-0.22-0.13-0.53-0.21-0.87-0.21
		c-0.34,0-0.64,0.08-0.87,0.21L70.29,226.5z"/>
	<path class="st1" d="M58.17,233.5c-0.22,0.13-0.36,0.3-0.36,0.5s0.14,0.37,0.36,0.5l12.12,7c0.22,0.13,0.53,0.21,0.87,0.21
		c0.34,0,0.64-0.08,0.87-0.21l8.66-5c0.22-0.13,0.36-0.3,0.36-0.5s-0.14-0.37-0.36-0.5l-12.12-7c-0.22-0.13-0.53-0.21-0.87-0.21
		c-0.34,0-0.64,0.08-0.87,0.21L58.17,233.5z"/>
	<g>
		<path class="st5" d="M46.05,240.5c-0.22,0.13-0.36,0.3-0.36,0.5s0.14,0.37,0.36,0.5l12.12,7c0.22,0.13,0.53,0.21,0.87,0.21
			s0.64-0.08,0.87-0.21l8.66-5c0.22-0.13,0.36-0.3,0.36-0.5s-0.14-0.37-0.36-0.5l-12.12-7c-0.22-0.13-0.53-0.21-0.87-0.21
			s-0.64,0.08-0.87,0.21L46.05,240.5z"/>
	</g>
</g>
</svg>
