<?xml version="1.0" encoding="utf-8"?>
<!-- Generator: Adobe Illustrator 22.1.0, SVG Export Plug-In . SVG Version: 6.00 Build 0)  -->
<svg version="1.1" id="Warstwa_1" xmlns="http://www.w3.org/2000/svg" xmlns:xlink="http://www.w3.org/1999/xlink" x="0px" y="0px"
	 width="376px" height="324px" viewBox="0 0 376 324" style="enable-background:new 0 0 376 324;" xml:space="preserve">
<style type="text/css">
	.st0{fill:#FFFFFF;}
	.st1{fill:#056CEA;}
	.st2{fill:#A4E0FF;}
</style>
<g>
	<g>
		<path class="st0" d="M261.68,161v97L376,324v-97L261.68,161z"/>
		<g>
			<polygon class="st1" points="376,228 261.68,162 261.68,150 376,216 			"/>
		</g>
		<path class="st0" d="M268.61,160c0,1.1-0.78,1.55-1.73,1c-0.96-0.55-1.73-1.9-1.73-3s0.78-1.55,1.73-1
			C267.84,157.55,268.61,158.9,268.61,160z"/>
		<path class="st0" d="M275.54,164c0,1.1-0.78,1.55-1.73,1c-0.96-0.55-1.73-1.9-1.73-3s0.78-1.55,1.73-1
			C274.77,161.55,275.54,162.9,275.54,164z"/>
		<path class="st0" d="M282.47,168c0,1.1-0.78,1.55-1.73,1c-0.96-0.55-1.73-1.9-1.73-3s0.78-1.55,1.73-1S282.47,166.9,282.47,168z"
			/>
	</g>
	<g>
		<g>
			<path class="st2" d="M341.36,270c0.48,0.28,0.87,0.05,0.87-0.5s-0.39-1.22-0.87-1.5l-32.91-19c-0.48-0.28-0.87-0.05-0.87,0.5
				s0.39,1.22,0.87,1.5L341.36,270z"/>
			<path class="st2" d="M336.16,273c0.48,0.28,0.87,0.05,0.87-0.5s-0.39-1.22-0.87-1.5l-36.37-21c-0.48-0.28-0.87-0.05-0.87,0.5
				s0.39,1.22,0.87,1.5L336.16,273z"/>
			<path class="st2" d="M303.25,248c0.48,0.28,0.87,0.05,0.87-0.5s-0.39-1.22-0.87-1.5l-8.66-5c-0.48-0.28-0.87-0.05-0.87,0.5
				s0.39,1.22,0.87,1.5L303.25,248z"/>
			<path class="st2" d="M364.74,241.5l-91.8-53c-0.48-0.28-0.87-0.05-0.87,0.5v32c0,0.55,0.39,1.22,0.87,1.5l91.8,53
				c0.48,0.28,0.87,0.05,0.87-0.5v-32C365.61,242.45,365.22,241.78,364.74,241.5z"/>
			<g>
				<path class="st2" d="M330.1,275.5l-22.52-13c-0.48-0.28-0.87-0.05-0.87,0.5v8c0,0.55,0.39,1.22,0.87,1.5l22.52,13
					c0.48,0.28,0.87,0.05,0.87-0.5v-8C330.97,276.45,330.58,275.78,330.1,275.5z"/>
			</g>
			<path class="st2" d="M364.74,235.5c0.48,0.28,0.87,0.05,0.87-0.5s-0.39-1.22-0.87-1.5l-3.46-2c-0.48-0.28-0.87-0.05-0.87,0.5
				s0.39,1.22,0.87,1.5L364.74,235.5z"/>
			<path class="st2" d="M356.08,230.5c0.48,0.28,0.87,0.05,0.87-0.5s-0.39-1.22-0.87-1.5l-3.46-2c-0.48-0.28-0.87-0.05-0.87,0.5
				s0.39,1.22,0.87,1.5L356.08,230.5z"/>
			<path class="st2" d="M347.42,225.5c0.48,0.28,0.87,0.05,0.87-0.5s-0.39-1.22-0.87-1.5l-3.46-2c-0.48-0.28-0.87-0.05-0.87,0.5
				s0.39,1.22,0.87,1.5L347.42,225.5z"/>
			<path class="st2" d="M338.76,220.5c0.48,0.28,0.87,0.05,0.87-0.5s-0.39-1.22-0.87-1.5l-3.46-2c-0.48-0.28-0.87-0.05-0.87,0.5
				s0.39,1.22,0.87,1.5L338.76,220.5z"/>
			<path class="st2" d="M330.1,215.5c0.48,0.28,0.87,0.05,0.87-0.5s-0.39-1.22-0.87-1.5l-3.46-2c-0.48-0.28-0.87-0.05-0.87,0.5
				s0.39,1.22,0.87,1.5L330.1,215.5z"/>
			<path class="st2" d="M276.41,184.5c0.48,0.28,0.87,0.05,0.87-0.5s-0.39-1.22-0.87-1.5l-3.46-2c-0.48-0.28-0.87-0.05-0.87,0.5
				s0.39,1.22,0.87,1.5L276.41,184.5z"/>
		</g>
	</g>
</g>
</svg>
