<?xml version="1.0" encoding="utf-8"?>
<!-- Generator: Adobe Illustrator 22.1.0, SVG Export Plug-In . SVG Version: 6.00 Build 0)  -->
<svg version="1.1" id="Warstwa_1" xmlns="http://www.w3.org/2000/svg" xmlns:xlink="http://www.w3.org/1999/xlink" x="0px" y="0px"
	 width="376px" height="324px" viewBox="0 0 376 324" style="enable-background:new 0 0 376 324;" xml:space="preserve">
<style type="text/css">
	.st0{fill:#FFFFFF;}
	.st1{fill:#A4E0FF;}
</style>
<g>
	<g>
		<path class="st0" d="M70.29,161.5c-0.48-0.28-0.87-0.95-0.87-1.5s0.39-0.78,0.87-0.5l3.46,2c0.48,0.28,0.87,0.95,0.87,1.5
			s-0.39,0.78-0.87,0.5L70.29,161.5z"/>
		<path class="st1" d="M78.95,166.5c-0.48-0.28-0.87-0.95-0.87-1.5s0.39-0.78,0.87-0.5l31.18,18c0.48,0.28,0.87,0.95,0.87,1.5
			s-0.39,0.78-0.87,0.5L78.95,166.5z"/>
		<path class="st0" d="M94.54,181.5c0.48,0.28,0.87,0.05,0.87-0.5s-0.39-1.22-0.87-1.5l-3.46-2c-0.48-0.28-0.87-0.05-0.87,0.5
			s0.39,1.22,0.87,1.5L94.54,181.5z"/>
		<path class="st1" d="M85.88,176.5c0.48,0.28,0.87,0.05,0.87-0.5s-0.39-1.22-0.87-1.5l-15.59-9c-0.48-0.28-0.87-0.05-0.87,0.5
			s0.39,1.22,0.87,1.5L85.88,176.5z"/>
	</g>
	<g>
		<polygon class="st1" points="116.19,174 64.23,144 64.23,96 116.19,126 		"/>
		<path class="st0" d="M64.23,144v-10.41l11.51-6.65c0.17-0.1,0.39-0.07,0.61,0.06s0.44,0.35,0.61,0.65l20.53,35.56L64.23,144z"/>
		<polygon class="st1" points="84.15,140.09 72.53,148.79 87.99,142.57 		"/>
		<path class="st0" d="M116.19,174v-22.41l-11.51-19.94c-0.17-0.29-0.39-0.52-0.61-0.65c-0.22-0.13-0.44-0.16-0.61-0.06
			l-30.92,17.85L116.19,174z"/>
	</g>
	<g>
		<polygon class="st1" points="116.19,114 64.23,84 64.23,36 116.19,66 		"/>
		<path class="st0" d="M110.13,102.5c0.48,0.28,0.87,0.05,0.87-0.5s-0.39-1.22-0.87-1.5l-29.44-17c-0.48-0.28-0.87-0.05-0.87,0.5
			s0.39,1.22,0.87,1.5L110.13,102.5z"/>
		<path class="st0" d="M73.76,81.5c0.48,0.28,0.87,0.05,0.87-0.5s-0.39-1.22-0.87-1.5l-3.46-2c-0.48-0.28-0.87-0.05-0.87,0.5
			s0.39,1.22,0.87,1.5L73.76,81.5z"/>
		<path class="st0" d="M92.81,91.5c0,1.66-1.16,2.33-2.6,1.5c-1.44-0.83-2.6-2.84-2.6-4.5s1.16-2.33,2.6-1.5
			C91.65,87.83,92.81,89.84,92.81,91.5z"/>
		<path class="st0" d="M86.75,75c0,0.55,0.39,1.22,0.87,1.5c0.17,0.1,0.33,0.13,0.46,0.11l6.93-1c0.24-0.04,0.41-0.26,0.41-0.61
			c0-0.36-0.16-0.77-0.41-1.08l-6.93-9c-0.13-0.17-0.29-0.32-0.46-0.42c-0.48-0.28-0.87-0.05-0.87,0.5V75z"/>
	</g>
	<g>
		<polygon class="st1" points="53.84,78 1.88,48 1.88,0 53.84,30 		"/>
		<g>
			<path class="st0" d="M42.58,39.5c0.48,0.28,0.87,0.05,0.87-0.5s-0.39-1.22-0.87-1.5l-15.59-9c-0.48-0.28-0.87-0.05-0.87,0.5
				s0.39,1.22,0.87,1.5L42.58,39.5z"/>
			<path class="st0" d="M32.19,39.5c0.48,0.28,0.87,0.05,0.87-0.5s-0.39-1.22-0.87-1.5l-19.05-11c-0.48-0.28-0.87-0.05-0.87,0.5
				s0.39,1.22,0.87,1.5L32.19,39.5z"/>
			<path class="st0" d="M21.8,27.5c0.48,0.28,0.87,0.05,0.87-0.5s-0.39-1.22-0.87-1.5l-8.66-5c-0.48-0.28-0.87-0.05-0.87,0.5
				s0.39,1.22,0.87,1.5L21.8,27.5z"/>
			<path class="st0" d="M13.14,34.5c-0.48-0.28-0.87-0.95-0.87-1.5s0.39-0.78,0.87-0.5l3.46,2c0.48,0.28,0.87,0.95,0.87,1.5
				s-0.39,0.78-0.87,0.5L13.14,34.5z"/>
			<path class="st0" d="M21.8,39.5c-0.48-0.28-0.87-0.95-0.87-1.5s0.39-0.78,0.87-0.5l20.78,12c0.48,0.28,0.87,0.95,0.87,1.5
				s-0.39,0.78-0.87,0.5L21.8,39.5z"/>
			<path class="st0" d="M42.58,57.5c0.48,0.28,0.87,0.05,0.87-0.5s-0.39-1.22-0.87-1.5l-3.46-2c-0.48-0.28-0.87-0.05-0.87,0.5
				s0.39,1.22,0.87,1.5L42.58,57.5z"/>
			<path class="st0" d="M33.92,52.5c0.48,0.28,0.87,0.05,0.87-0.5s-0.39-1.22-0.87-1.5l-20.78-12c-0.48-0.28-0.87-0.05-0.87,0.5
				s0.39,1.22,0.87,1.5L33.92,52.5z"/>
		</g>
	</g>
</g>
</svg>
