<?xml version="1.0" encoding="utf-8"?>
<!-- Generator: Adobe Illustrator 22.1.0, SVG Export Plug-In . SVG Version: 6.00 Build 0)  -->
<svg version="1.1" xmlns="http://www.w3.org/2000/svg" xmlns:xlink="http://www.w3.org/1999/xlink" x="0px" y="0px"
	 viewBox="0 0 328 328" style="enable-background:new 0 0 328 328;" xml:space="preserve">
<style type="text/css">
	.st0{fill:#3192E7;}
	.st1{fill:#73C8FF;}
	.st2{fill:#88D3FF;}
	.st3{fill:#A4E0FF;}
	.st4{opacity:0.48;fill:#3192E7;enable-background:new    ;}
	.st5{fill:#056CEA;}
	.st6{opacity:0.48;}
	.st7{fill:#B4E8FE;}
	.st8{fill:#FFFFFF;}
	.st9{fill-rule:evenodd;clip-rule:evenodd;fill:#FFFFFF;}
	.st10{fill-rule:evenodd;clip-rule:evenodd;fill:#D6F1FF;}
	
		.st11{fill-rule:evenodd;clip-rule:evenodd;fill:none;stroke:#A4E0FF;stroke-width:2;stroke-linecap:round;stroke-linejoin:round;stroke-miterlimit:10;}
	
		.st12{fill-rule:evenodd;clip-rule:evenodd;fill:none;stroke:#A4E0FF;stroke-width:1.9899;stroke-linecap:round;stroke-linejoin:round;stroke-miterlimit:10;}
</style>
<g id="Warstwa_1">
	<path class="st0" d="M107.3,252.5c0.1,0.8,0.5,1.6,1.2,2l30.4,22.2c0.1,0.1,0.3,0.2,0.4,0.3c2.5,1.3,5.6,1.3,8.1,0l42.5-24.6
		c0.9-0.4,1.6-1.3,1.7-2.3v-2.3c0-0.9-13.7-2.4-13.7-2.4l-1.6-6.1L151,227.7c-1.1-0.5-2.3-0.7-3.5-0.7c-1.4,0-2.8,0.3-4,1L109,247.8
		c-0.9,0.4-1.6,1.3-1.7,2.3L107.3,252.5z"/>
	<path class="st1" d="M139.4,274.7c2.5,1.3,5.6,1.3,8.1,0l42.5-24.6c0.7-0.2,1.3-0.8,1.6-1.6c0.4-1.3-0.3-2.7-1.6-3.1
		c-0.2-0.1-0.3-0.2-0.5-0.3l-13.1-6l-47.8,27.6l10.3,7.5C139.1,274.5,139.3,274.6,139.4,274.7z"/>
	<path class="st0" d="M77.7,130.3v145c-0.1,1,0.3,2,1.2,2.6l2,1.2L224.3,44.6l-2-1.2c-0.9-0.4-2-0.3-2.9,0.3L81.7,123.2
		c-1.2,0.7-2.2,1.8-2.9,3C78.1,127.5,77.7,128.8,77.7,130.3z"/>
	<g>
		<path class="st2" d="M225.5,193.2l-0.1-24.8L80.9,251.2c-0.8,0.4-1.2,1.2-1.2,2.1v23.6c0,1.9,2,3,3.7,2.1l140-80.8
			C225.4,197,225.5,195.2,225.5,193.2z"/>
		<path class="st3" d="M225.6,46.7l-0.1,122.2L79.7,253.2v-4.3c0,0,0-114,0-116.7c0-2.7,1.6-5.6,3.5-6.8
			C85.2,124.2,222,44.6,222,44.6C223.6,43.7,225.6,44.8,225.6,46.7z"/>
	</g>
	<path class="st4" d="M152.6,220.3c2.2-1.3,4.1-0.2,4.1,2.3c-0.2,2.9-1.7,5.5-4.1,7c-2.2,1.3-4,0.2-4-2.3
		C148.7,224.5,150.2,221.9,152.6,220.3z"/>
	<polygon class="st5" points="85.7,130.3 219.5,53.1 219.5,165.3 85.7,242.5 	"/>
	<path class="st0" d="M130.3,305.7l38.5,22.2c1.3,0.6,2.8,0.6,4,0l102-58.9l3.4-1.9c0.5-0.2,0.8-0.7,0.8-1.2v-2.3l-149.6,38.6v2.3
		C129.5,305,129.8,305.5,130.3,305.7z"/>
	<path class="st2" d="M130.3,303.4l38.5,22.2c1.3,0.6,2.8,0.6,4,0l105.4-60.8c0.4-0.1,0.7-0.4,0.8-0.8c0.2-0.6-0.1-1.3-0.8-1.5
		l-38.5-22.2c-1.3-0.6-2.8-0.6-4,0L130.3,301c-0.5,0.2-0.8,0.7-0.8,1.2C129.5,302.7,129.8,303.2,130.3,303.4z"/>
	<g class="st6">
		<path class="st0" d="M189.7,301v1.2c0,0.3,0.2,0.5,0.4,0.6l4.1,2.3c0.6,0.3,1.4,0.3,2,0l44.6-25.7c0.2-0.1,0.4-0.3,0.4-0.6v-1.2
			L189.7,301z"/>
		<path class="st0" d="M246.4,268.3v1.2c0,0.3,0.2,0.5,0.4,0.6l4.1,2.3c0.3,0.2,0.7,0.3,1,0.2c0.4,0,0.7-0.1,1-0.2l4-2.3
			c0.2-0.1,0.4-0.3,0.4-0.6v-1.2H246.4z"/>
		<path class="st0" d="M238.3,263.6v1.2c0,0.3,0.2,0.5,0.4,0.6l4.1,2.3c0.6,0.3,1.4,0.3,2,0l4-2.3c0.2-0.1,0.4-0.3,0.4-0.6v-1.2
			H238.3z"/>
		<path class="st0" d="M226.1,261.3v1.2c0,0.3,0.2,0.5,0.4,0.6l4.1,2.3c0.3,0.2,0.7,0.3,1,0.2c0.4,0,0.7-0.1,1-0.2l4-2.3
			c0.2-0.1,0.4-0.3,0.4-0.6v-1.2H226.1z"/>
		<path class="st0" d="M222.1,254.2v1.2c0,0.3,0.2,0.5,0.4,0.6l4,2.3c0.3,0.2,0.7,0.3,1,0.2c0.4,0,0.7-0.1,1-0.2l4.1-2.3
			c0.2-0.1,0.4-0.3,0.4-0.6v-1.2H222.1z"/>
		<path class="st0" d="M214,258.9v1.2c0,0.3,0.2,0.5,0.4,0.6l4,2.3c0.3,0.2,0.7,0.3,1,0.2c0.4,0,0.7-0.1,1-0.2l4.1-2.3
			c0.2-0.1,0.4-0.3,0.4-0.6v-1.2H214z"/>
		<path class="st0" d="M205.9,263.6v1.2c0,0.3,0.2,0.5,0.4,0.6l4,2.3c0.3,0.2,0.7,0.3,1,0.2c0.4,0,0.7-0.1,1-0.2l4-2.3
			c0.2-0.1,0.4-0.3,0.4-0.6v-1.2H205.9z"/>
		<path class="st0" d="M197.7,268.3v1.2c0,0.3,0.2,0.5,0.4,0.6l4.1,2.3c0.3,0.2,0.7,0.3,1,0.2c0.4,0,0.7-0.1,1-0.2l4-2.3
			c0.2-0.1,0.4-0.3,0.4-0.6v-1.2H197.7z"/>
		<path class="st0" d="M201.8,275.3v1.2c0,0.3,0.2,0.5,0.4,0.6l4,2.3c0.3,0.2,0.7,0.3,1,0.2c0.4,0,0.7-0.1,1-0.2l4.1-2.3
			c0.2-0.1,0.4-0.3,0.4-0.6v-1.2H201.8z"/>
		<path class="st0" d="M193.7,280v1.2c0,0.3,0.2,0.5,0.4,0.6l4,2.3c0.3,0.2,0.7,0.3,1,0.2c0.4,0,0.7-0.1,1-0.2l4.1-2.3
			c0.2-0.1,0.4-0.3,0.4-0.6V280H193.7z"/>
		<path class="st0" d="M189.7,273v1.2c0,0.3,0.2,0.5,0.4,0.6l4.1,2.3c0.6,0.3,1.4,0.3,2,0l4-2.3c0.2-0.1,0.4-0.3,0.4-0.6V273H189.7z
			"/>
		<path class="st0" d="M181.6,277.6v1.2c0,0.3,0.2,0.5,0.4,0.6l4,2.3c0.6,0.3,1.4,0.3,2,0l4.1-2.3c0.2-0.1,0.4-0.3,0.4-0.6v-1.2
			H181.6z"/>
		<path class="st0" d="M197.7,287v1.2c0,0.3,0.2,0.5,0.4,0.6l4.1,2.3c0.3,0.2,0.7,0.3,1,0.2c0.4,0,0.7-0.1,1-0.2l4-2.3
			c0.2-0.1,0.4-0.3,0.4-0.6V287H197.7z"/>
		<path class="st0" d="M185.6,284.7v1.2c0,0.3,0.2,0.5,0.4,0.6l4,2.3c0.6,0.3,1.4,0.3,2,0l4-2.3c0.2-0.1,0.4-0.3,0.4-0.6v-1.2H185.6
			z"/>
		<path class="st0" d="M189.7,291.7v1.2c0,0.3,0.2,0.5,0.4,0.6l4.1,2.3c0.6,0.3,1.4,0.3,2,0l4-2.3c0.2-0.1,0.4-0.3,0.4-0.6v-1.2
			H189.7z"/>
		<path class="st0" d="M181.6,296.3v1.2c0,0.3,0.2,0.5,0.4,0.6l4,2.3c0.6,0.3,1.4,0.3,2,0l4.1-2.3c0.2-0.1,0.4-0.3,0.4-0.6v-1.2
			H181.6z"/>
		<path class="st0" d="M177.5,289.3v1.2c0,0.3,0.2,0.5,0.4,0.6l4.1,2.3c0.3,0.2,0.7,0.3,1,0.2c0.4,0,0.7-0.1,1-0.2l4-2.3
			c0.2-0.1,0.4-0.3,0.4-0.6v-1.2H177.5z"/>
		<path class="st0" d="M173.5,282.3v1.2c0,0.3,0.2,0.5,0.4,0.6l4,2.3c0.3,0.2,0.7,0.3,1,0.2c0.4,0,0.7-0.1,1-0.2l4.1-2.3
			c0.2-0.1,0.4-0.3,0.4-0.6v-1.2H173.5z"/>
		<path class="st0" d="M165.3,287v1.2c0,0.3,0.2,0.5,0.4,0.6l4,2.3c0.6,0.3,1.4,0.3,2,0l4-2.3c0.2-0.1,0.4-0.3,0.4-0.6V287H165.3z"
			/>
		<path class="st0" d="M169.4,294v1.2c0,0.3,0.2,0.5,0.4,0.6l4.1,2.3c0.6,0.3,1.4,0.3,2,0l4-2.3c0.2-0.1,0.4-0.3,0.4-0.6V294H169.4z
			"/>
		<path class="st0" d="M157.2,291.7v1.2c0,0.3,0.2,0.5,0.4,0.6l4.1,2.3c0.3,0.2,0.7,0.3,1,0.2c0.4,0,0.7-0.1,1-0.2l4-2.3
			c0.2-0.1,0.4-0.3,0.4-0.6v-1.2H157.2z"/>
		<path class="st0" d="M161.3,298.7v1.2c0,0.3,0.2,0.5,0.4,0.6l4,2.3c0.6,0.3,1.4,0.3,2,0l4.1-2.3c0.2-0.1,0.4-0.3,0.4-0.6v-1.2
			H161.3z"/>
		<path class="st0" d="M149.1,296.3v1.2c0,0.3,0.2,0.5,0.4,0.6l4.1,2.3c0.6,0.3,1.4,0.3,2,0l4-2.3c0.2-0.1,0.4-0.3,0.4-0.6v-1.2
			H149.1z"/>
		<path class="st0" d="M141,301v1.2c0,0.3,0.2,0.5,0.4,0.6l4,2.3c0.6,0.3,1.4,0.3,2,0l4.1-2.3c0.2-0.1,0.4-0.3,0.4-0.6V301H141z"/>
		<path class="st0" d="M165.3,305.7v1.2c0,0.3,0.2,0.5,0.4,0.6l4,2.3c0.3,0.2,0.7,0.3,1,0.2c0.4,0,0.7-0.1,1-0.2l4-2.3
			c0.2-0.1,0.4-0.3,0.4-0.6v-1.2H165.3z"/>
		<path class="st0" d="M173.5,310.4v1.2c0,0.3,0.2,0.5,0.4,0.6l4,2.3c0.3,0.2,0.7,0.3,1,0.2c0.4,0,0.7-0.1,1-0.2l4.1-2.3
			c0.2-0.1,0.4-0.3,0.4-0.6v-1.2H173.5z"/>
		<path class="st0" d="M165.3,315.1v1.2c0,0.3,0.2,0.5,0.4,0.6l4,2.3c0.3,0.2,0.7,0.3,1,0.2c0.4,0,0.7-0.1,1-0.2l4-2.3
			c0.2-0.1,0.4-0.3,0.4-0.6v-1.2H165.3z"/>
		<path class="st0" d="M173.5,301v1.2c0,0.3,0.2,0.5,0.4,0.6l4,2.3c0.3,0.2,0.7,0.3,1,0.2c0.4,0,0.7-0.1,1-0.2l4.1-2.3
			c0.2-0.1,0.4-0.3,0.4-0.6V301H173.5z"/>
		<path class="st0" d="M181.6,305.7v1.2c0,0.3,0.2,0.5,0.4,0.6l4,2.3c0.6,0.3,1.4,0.3,2,0l4.1-2.3c0.2-0.1,0.4-0.3,0.4-0.6v-1.2
			H181.6z"/>
		<path class="st0" d="M205.9,282.3v1.2c0,0.3,0.2,0.5,0.4,0.6l4,2.3c0.6,0.3,1.4,0.3,2,0l4-2.3c0.2-0.1,0.4-0.3,0.4-0.6v-1.2H205.9
			z"/>
		<path class="st0" d="M209.9,270.6v1.2c0,0.3,0.2,0.5,0.4,0.6l4.1,2.3c0.6,0.3,1.4,0.3,2,0l4-2.3c0.2-0.1,0.4-0.3,0.4-0.6v-1.2
			H209.9z"/>
		<path class="st0" d="M214,277.6v1.2c0,0.3,0.2,0.5,0.4,0.6l4,2.3c0.3,0.2,0.7,0.3,1,0.2c0.4,0,0.7-0.1,1-0.2l4.1-2.3
			c0.2-0.1,0.4-0.3,0.4-0.6v-1.2H214z"/>
		<path class="st0" d="M218,265.9v1.2c0,0.3,0.2,0.5,0.4,0.6l4.1,2.3c0.3,0.2,0.7,0.3,1,0.2c0.4,0,0.7-0.1,1-0.2l4-2.3
			c0.2-0.1,0.4-0.3,0.4-0.6v-1.2H218z"/>
		<path class="st0" d="M222.1,273v1.2c0,0.3,0.2,0.5,0.4,0.6l4,2.3c0.3,0.2,0.7,0.3,1,0.2c0.4,0,0.7-0.1,1-0.2l4.1-2.3
			c0.2-0.1,0.4-0.3,0.4-0.6V273H222.1z"/>
		<path class="st0" d="M230.2,268.3v1.2c0,0.3,0.2,0.5,0.4,0.6l4,2.3c0.6,0.3,1.4,0.3,2,0l4.1-2.3c0.2-0.1,0.4-0.3,0.4-0.6v-1.2
			H230.2z"/>
		<path class="st0" d="M238.3,273v1.2c0,0.3,0.2,0.5,0.4,0.6l4.1,2.3c0.6,0.3,1.4,0.3,2,0l4-2.3c0.2-0.1,0.4-0.3,0.4-0.6V273H238.3z
			"/>
		<path class="st0" d="M254.5,263.6v1.2c0,0.3,0.2,0.5,0.4,0.6l4,2.3c0.6,0.3,1.4,0.3,2,0l6.1-3.5c0.2-0.1,0.4-0.3,0.4-0.6v-1.2
			L254.5,263.6z"/>
		<path class="st0" d="M246.4,258.9v1.2c0,0.3,0.2,0.5,0.4,0.6l4.1,2.3c0.3,0.2,0.7,0.3,1,0.2c0.4,0,0.7-0.1,1-0.2l6.1-3.5
			c0.2-0.1,0.4-0.3,0.4-0.6v-1.2L246.4,258.9z"/>
		<path class="st0" d="M149.6,307.5l12.2,7c0.3,0.2,0.7,0.3,1,0.2c0.4,0,0.7-0.1,1-0.2l4-2.3c0.2-0.1,0.4-0.3,0.4-0.6v-1.2l-7.5-3.5
			l3-1.8c0.2-0.1,0.4-0.3,0.4-0.6v-1.2l-15,2.3v1.2C149.2,307.1,149.3,307.4,149.6,307.5z"/>
		<path class="st0" d="M234.2,256.6v1.2c0,0.3,0.2,0.5,0.4,0.6l4,2.3c0.3,0.2,0.7,0.3,1,0.2c0.4,0,0.7-0.1,1-0.2l10.1-5.8
			c0.2-0.1,0.4-0.3,0.4-0.6v-1.2L234.2,256.6z"/>
		<path class="st0" d="M230.2,249.6v1.2c0,0.3,0.2,0.5,0.4,0.6l4,2.3c0.6,0.3,1.4,0.3,2,0l6.1-3.5c0.2-0.1,0.4-0.3,0.4-0.6v-1.2
			L230.2,249.6z"/>
	</g>
	<path class="st7" d="M171.9,312.1c-0.3-0.2-0.7-0.3-1-0.2c-0.4,0-0.7,0.1-1,0.2l-4,2.3c-0.2,0.1-0.4,0.3-0.4,0.6
		c0,0.3,0.2,0.5,0.4,0.6l4,2.3c0.3,0.2,0.7,0.3,1,0.2c0.4,0,0.7-0.1,1-0.2l4-2.3c0.2-0.1,0.4-0.3,0.4-0.6c0-0.3-0.2-0.5-0.4-0.6
		L171.9,312.1z"/>
	<path class="st7" d="M179.9,307.5c-0.3-0.2-0.7-0.3-1-0.2c-0.4,0-0.7,0.1-1,0.2l-4,2.3c-0.2,0.1-0.4,0.3-0.4,0.6
		c0,0.3,0.2,0.5,0.4,0.6l4,2.3c0.3,0.2,0.7,0.3,1,0.2c0.4,0,0.7-0.1,1-0.2l4.1-2.3c0.2-0.1,0.4-0.3,0.4-0.6c0-0.3-0.2-0.5-0.4-0.6
		L179.9,307.5z"/>
	<path class="st7" d="M188,302.8c-0.6-0.3-1.4-0.3-2,0l-4,2.3c-0.2,0.1-0.4,0.3-0.4,0.6c0,0.3,0.2,0.5,0.4,0.6l4,2.3
		c0.6,0.3,1.4,0.3,2,0l4.1-2.3c0.2-0.1,0.4-0.3,0.4-0.6c0-0.3-0.2-0.5-0.4-0.6L188,302.8z"/>
	<path class="st7" d="M236.7,274.7c-0.6-0.3-1.4-0.3-2,0l-44.6,25.7c-0.2,0.1-0.4,0.3-0.4,0.6c0,0.3,0.2,0.5,0.4,0.6l4.1,2.3
		c0.6,0.3,1.4,0.3,2,0l44.6-25.7c0.2-0.1,0.4-0.3,0.4-0.6c0-0.3-0.2-0.5-0.4-0.6L236.7,274.7z"/>
	<path class="st7" d="M244.8,270c-0.6-0.3-1.4-0.3-2,0l-4.1,2.3c-0.2,0.1-0.4,0.3-0.4,0.6c0,0.3,0.2,0.5,0.4,0.6l4.1,2.3
		c0.6,0.3,1.4,0.3,2,0l4-2.3c0.2-0.1,0.4-0.3,0.4-0.6c0-0.3-0.2-0.5-0.4-0.6L244.8,270z"/>
	<path class="st7" d="M252.9,265.4c-0.3-0.2-0.7-0.3-1-0.2c-0.4,0-0.7,0.1-1,0.2l-4.1,2.3c-0.2,0.1-0.4,0.3-0.4,0.6
		c0,0.3,0.2,0.5,0.4,0.6l4.1,2.3c0.3,0.2,0.7,0.3,1,0.2c0.4,0,0.7-0.1,1-0.2l4-2.3c0.2-0.1,0.4-0.3,0.4-0.6c0-0.3-0.2-0.5-0.4-0.6
		L252.9,265.4z"/>
	<path class="st7" d="M263,259.5c-0.3-0.2-0.7-0.3-1-0.2c-0.4,0-0.7,0.1-1,0.2l-6.1,3.5c-0.2,0.1-0.4,0.3-0.4,0.6
		c0,0.3,0.2,0.5,0.4,0.6l4,2.3c0.6,0.3,1.4,0.3,2,0l6.1-3.5c0.2-0.1,0.4-0.3,0.4-0.6c0-0.3-0.2-0.5-0.4-0.6L263,259.5z"/>
	<path class="st7" d="M171.9,302.8c-0.3-0.2-0.7-0.3-1-0.2c-0.4,0-0.7,0.1-1,0.2l-4,2.3c-0.2,0.1-0.4,0.3-0.4,0.6
		c0,0.3,0.2,0.5,0.4,0.6l4,2.3c0.3,0.2,0.7,0.3,1,0.2c0.4,0,0.7-0.1,1-0.2l4-2.3c0.2-0.1,0.4-0.3,0.4-0.6c0-0.3-0.2-0.5-0.4-0.6
		L171.9,302.8z"/>
	<path class="st7" d="M179.9,298.1c-0.3-0.2-0.7-0.3-1-0.2c-0.4,0-0.7,0.1-1,0.2l-4,2.3c-0.2,0.1-0.4,0.3-0.4,0.6
		c0,0.3,0.2,0.5,0.4,0.6l4,2.3c0.3,0.2,0.7,0.3,1,0.2c0.4,0,0.7-0.1,1-0.2l4.1-2.3c0.2-0.1,0.4-0.3,0.4-0.6c0-0.3-0.2-0.5-0.4-0.6
		L179.9,298.1z"/>
	<path class="st7" d="M188,293.4c-0.6-0.3-1.4-0.3-2,0l-4,2.3c-0.2,0.1-0.4,0.3-0.4,0.6c0,0.3,0.2,0.5,0.4,0.6l4,2.3
		c0.6,0.3,1.4,0.3,2,0l4.1-2.3c0.2-0.1,0.4-0.3,0.4-0.6c0-0.3-0.2-0.5-0.4-0.6L188,293.4z"/>
	<path class="st7" d="M196.2,288.7c-0.6-0.3-1.4-0.3-2,0l-4.1,2.3c-0.2,0.1-0.4,0.3-0.4,0.6c0,0.3,0.2,0.5,0.4,0.6l4.1,2.3
		c0.6,0.3,1.4,0.3,2,0l4-2.3c0.2-0.1,0.4-0.3,0.4-0.6c0-0.3-0.2-0.5-0.4-0.6L196.2,288.7z"/>
	<path class="st7" d="M204.3,284.1c-0.3-0.2-0.7-0.3-1-0.2c-0.4,0-0.7,0.1-1,0.2l-4.1,2.3c-0.2,0.1-0.4,0.3-0.4,0.6
		c0,0.3,0.2,0.5,0.4,0.6l4.1,2.3c0.3,0.2,0.7,0.3,1,0.2c0.4,0,0.7-0.1,1-0.2l4-2.3c0.2-0.1,0.4-0.3,0.4-0.6c0-0.3-0.2-0.5-0.4-0.6
		L204.3,284.1z"/>
	<path class="st7" d="M212.4,279.4c-0.6-0.3-1.4-0.3-2,0l-4,2.3c-0.2,0.1-0.4,0.3-0.4,0.6c0,0.3,0.2,0.5,0.4,0.6l4,2.3
		c0.6,0.3,1.4,0.3,2,0l4-2.3c0.2-0.1,0.4-0.3,0.4-0.6c0-0.3-0.2-0.5-0.4-0.6L212.4,279.4z"/>
	<path class="st7" d="M220.5,274.7c-0.3-0.2-0.7-0.3-1-0.2c-0.4,0-0.7,0.1-1,0.2l-4,2.3c-0.2,0.1-0.4,0.3-0.4,0.6
		c0,0.3,0.2,0.5,0.4,0.6l4,2.3c0.3,0.2,0.7,0.3,1,0.2c0.4,0,0.7-0.1,1-0.2l4.1-2.3c0.2-0.1,0.4-0.3,0.4-0.6c0-0.3-0.2-0.5-0.4-0.6
		L220.5,274.7z"/>
	<path class="st7" d="M228.6,270c-0.3-0.2-0.7-0.3-1-0.2c-0.4,0-0.7,0.1-1,0.2l-4,2.3c-0.2,0.1-0.4,0.3-0.4,0.6
		c0,0.3,0.2,0.5,0.4,0.6l4,2.3c0.3,0.2,0.7,0.3,1,0.2c0.4,0,0.7-0.1,1-0.2l4.1-2.3c0.2-0.1,0.4-0.3,0.4-0.6c0-0.3-0.2-0.5-0.4-0.6
		L228.6,270z"/>
	<path class="st7" d="M236.7,265.4c-0.6-0.3-1.4-0.3-2,0l-4,2.3c-0.2,0.1-0.4,0.3-0.4,0.6c0,0.3,0.2,0.5,0.4,0.6l4,2.3
		c0.6,0.3,1.4,0.3,2,0l4.1-2.3c0.2-0.1,0.4-0.3,0.4-0.6c0-0.3-0.2-0.5-0.4-0.6L236.7,265.4z"/>
	<path class="st7" d="M244.8,260.7c-0.6-0.3-1.4-0.3-2,0l-4.1,2.3c-0.2,0.1-0.4,0.3-0.4,0.6c0,0.3,0.2,0.5,0.4,0.6l4.1,2.3
		c0.6,0.3,1.4,0.3,2,0l4-2.3c0.2-0.1,0.4-0.3,0.4-0.6c0-0.3-0.2-0.5-0.4-0.6L244.8,260.7z"/>
	<path class="st7" d="M254.9,254.8c-0.6-0.3-1.4-0.3-2,0l-6.1,3.5c-0.2,0.1-0.4,0.3-0.4,0.6c0,0.3,0.2,0.5,0.4,0.6l4.1,2.3
		c0.3,0.2,0.7,0.3,1,0.2c0.4,0,0.7-0.1,1-0.2l6.1-3.5c0.2-0.1,0.4-0.3,0.4-0.6c0-0.3-0.2-0.5-0.4-0.6L254.9,254.8z"/>
	<path class="st7" d="M167.8,295.8c-0.6-0.3-1.4-0.3-2,0l-4,2.3c-0.2,0.1-0.4,0.3-0.4,0.6c0,0.3,0.2,0.5,0.4,0.6l4,2.3
		c0.6,0.3,1.4,0.3,2,0l4.1-2.3c0.2-0.1,0.4-0.3,0.4-0.6c0-0.3-0.2-0.5-0.4-0.6L167.8,295.8z"/>
	<path class="st7" d="M149.5,306.3l12.2,7c0.3,0.2,0.7,0.3,1,0.2c0.4,0,0.7-0.1,1-0.2l4-2.3c0.2-0.1,0.4-0.3,0.4-0.6
		c0-0.3-0.2-0.5-0.4-0.6l-7-4.1l3-1.8c0.2-0.1,0.4-0.3,0.4-0.6c0-0.3-0.2-0.5-0.4-0.6l-4.1-2.3c-0.3-0.2-0.7-0.3-1-0.2
		c-0.4,0-0.7,0.1-1,0.2l-8.1,4.7c-0.2,0.1-0.4,0.3-0.4,0.6C149.1,305.9,149.3,306.2,149.5,306.3z"/>
	<path class="st7" d="M175.9,291.1c-0.6-0.3-1.4-0.3-2,0l-4.1,2.3c-0.2,0.1-0.4,0.3-0.4,0.6c0,0.3,0.2,0.5,0.4,0.6l4.1,2.3
		c0.6,0.3,1.4,0.3,2,0l4-2.3c0.2-0.1,0.4-0.3,0.4-0.6c0-0.3-0.2-0.5-0.4-0.6L175.9,291.1z"/>
	<path class="st7" d="M184,286.4c-0.3-0.2-0.7-0.3-1-0.2c-0.4,0-0.7,0.1-1,0.2l-4.1,2.3c-0.2,0.1-0.4,0.3-0.4,0.6
		c0,0.3,0.2,0.5,0.4,0.6l4.1,2.3c0.3,0.2,0.7,0.3,1,0.2c0.4,0,0.7-0.1,1-0.2l4-2.3c0.2-0.1,0.4-0.3,0.4-0.6c0-0.3-0.2-0.5-0.4-0.6
		L184,286.4z"/>
	<path class="st7" d="M192.1,281.7c-0.6-0.3-1.4-0.3-2,0l-4,2.3c-0.2,0.1-0.4,0.3-0.4,0.6c0,0.3,0.2,0.5,0.4,0.6l4,2.3
		c0.6,0.3,1.4,0.3,2,0l4-2.3c0.2-0.1,0.4-0.3,0.4-0.6c0-0.3-0.2-0.5-0.4-0.6L192.1,281.7z"/>
	<path class="st7" d="M200.2,277c-0.3-0.2-0.7-0.3-1-0.2c-0.4,0-0.7,0.1-1,0.2l-4,2.3c-0.2,0.1-0.4,0.3-0.4,0.6
		c0,0.3,0.2,0.5,0.4,0.6l4,2.3c0.3,0.2,0.7,0.3,1,0.2c0.4,0,0.7-0.1,1-0.2l4.1-2.3c0.2-0.1,0.4-0.3,0.4-0.6c0-0.3-0.2-0.5-0.4-0.6
		L200.2,277z"/>
	<path class="st7" d="M208.3,272.4c-0.3-0.2-0.7-0.3-1-0.2c-0.4,0-0.7,0.1-1,0.2l-4,2.3c-0.2,0.1-0.4,0.3-0.4,0.6
		c0,0.3,0.2,0.5,0.4,0.6l4,2.3c0.3,0.2,0.7,0.3,1,0.2c0.4,0,0.7-0.1,1-0.2l4.1-2.3c0.2-0.1,0.4-0.3,0.4-0.6c0-0.3-0.2-0.5-0.4-0.6
		L208.3,272.4z"/>
	<path class="st7" d="M216.4,267.7c-0.6-0.3-1.4-0.3-2,0l-4.1,2.3c-0.2,0.1-0.4,0.3-0.4,0.6c0,0.3,0.2,0.5,0.4,0.6l4.1,2.3
		c0.6,0.3,1.4,0.3,2,0l4-2.3c0.2-0.1,0.4-0.3,0.4-0.6c0-0.3-0.2-0.5-0.4-0.6L216.4,267.7z"/>
	<path class="st7" d="M224.5,263c-0.3-0.2-0.7-0.3-1-0.2c-0.4,0-0.7,0.1-1,0.2l-4.1,2.3c-0.2,0.1-0.4,0.3-0.4,0.6
		c0,0.3,0.2,0.5,0.4,0.6l4.1,2.3c0.3,0.2,0.7,0.3,1,0.2c0.4,0,0.7-0.1,1-0.2l4-2.3c0.2-0.1,0.4-0.3,0.4-0.6c0-0.3-0.2-0.5-0.4-0.6
		L224.5,263z"/>
	<path class="st7" d="M232.6,258.3c-0.3-0.2-0.7-0.3-1-0.2c-0.4,0-0.7,0.1-1,0.2l-4.1,2.3c-0.2,0.1-0.4,0.3-0.4,0.6
		c0,0.3,0.2,0.5,0.4,0.6l4.1,2.3c0.3,0.2,0.7,0.3,1,0.2c0.4,0,0.7-0.1,1-0.2l4-2.3c0.2-0.1,0.4-0.3,0.4-0.6c0-0.3-0.2-0.5-0.4-0.6
		L232.6,258.3z"/>
	<path class="st7" d="M246.8,250.1c-0.6-0.3-1.4-0.3-2,0l-10.1,5.8c-0.2,0.1-0.4,0.3-0.4,0.6c0,0.3,0.2,0.5,0.4,0.6l4,2.3
		c0.3,0.2,0.7,0.3,1,0.2c0.4,0,0.7-0.1,1-0.2l10.1-5.8c0.2-0.1,0.4-0.3,0.4-0.6c0-0.3-0.2-0.5-0.4-0.6L246.8,250.1z"/>
	<path class="st7" d="M147.5,298.1c-0.6-0.3-1.4-0.3-2,0l-4,2.3c-0.2,0.1-0.4,0.3-0.4,0.6c0,0.3,0.2,0.5,0.4,0.6l4,2.3
		c0.6,0.3,1.4,0.3,2,0l4.1-2.3c0.2-0.1,0.4-0.3,0.4-0.6c0-0.3-0.2-0.5-0.4-0.6L147.5,298.1z"/>
	<path class="st7" d="M155.6,293.4c-0.6-0.3-1.4-0.3-2,0l-4.1,2.3c-0.2,0.1-0.4,0.3-0.4,0.6c0,0.3,0.2,0.5,0.4,0.6l4.1,2.3
		c0.6,0.3,1.4,0.3,2,0l4-2.3c0.2-0.1,0.4-0.3,0.4-0.6c0-0.3-0.2-0.5-0.4-0.6L155.6,293.4z"/>
	<path class="st7" d="M163.7,288.7c-0.3-0.2-0.7-0.3-1-0.2c-0.4,0-0.7,0.1-1,0.2l-4.1,2.3c-0.2,0.1-0.4,0.3-0.4,0.6
		c0,0.3,0.2,0.5,0.4,0.6l4.1,2.3c0.3,0.2,0.7,0.3,1,0.2c0.4,0,0.7-0.1,1-0.2l4-2.3c0.2-0.1,0.4-0.3,0.4-0.6c0-0.3-0.2-0.5-0.4-0.6
		L163.7,288.7z"/>
	<path class="st7" d="M171.9,284.1c-0.6-0.3-1.4-0.3-2,0l-4,2.3c-0.2,0.1-0.4,0.3-0.4,0.6c0,0.3,0.2,0.5,0.4,0.6l4,2.3
		c0.6,0.3,1.4,0.3,2,0l4-2.3c0.2-0.1,0.4-0.3,0.4-0.6c0-0.3-0.2-0.5-0.4-0.6L171.9,284.1z"/>
	<path class="st7" d="M179.9,279.4c-0.3-0.2-0.7-0.3-1-0.2c-0.4,0-0.7,0.1-1,0.2l-4,2.3c-0.2,0.1-0.4,0.3-0.4,0.6
		c0,0.3,0.2,0.5,0.4,0.6l4,2.3c0.3,0.2,0.7,0.3,1,0.2c0.4,0,0.7-0.1,1-0.2l4.1-2.3c0.2-0.1,0.4-0.3,0.4-0.6c0-0.3-0.2-0.5-0.4-0.6
		L179.9,279.4z"/>
	<path class="st7" d="M188,274.7c-0.6-0.3-1.4-0.3-2,0l-4,2.3c-0.2,0.1-0.4,0.3-0.4,0.6c0,0.3,0.2,0.5,0.4,0.6l4,2.3
		c0.6,0.3,1.4,0.3,2,0l4.1-2.3c0.2-0.1,0.4-0.3,0.4-0.6c0-0.3-0.2-0.5-0.4-0.6L188,274.7z"/>
	<path class="st7" d="M196.2,270c-0.6-0.3-1.4-0.3-2,0l-4.1,2.3c-0.2,0.1-0.4,0.3-0.4,0.6c0,0.3,0.2,0.5,0.4,0.6l4.1,2.3
		c0.6,0.3,1.4,0.3,2,0l4-2.3c0.2-0.1,0.4-0.3,0.4-0.6c0-0.3-0.2-0.5-0.4-0.6L196.2,270z"/>
	<path class="st7" d="M204.3,265.4c-0.3-0.2-0.7-0.3-1-0.2c-0.4,0-0.7,0.1-1,0.2l-4.1,2.3c-0.2,0.1-0.4,0.3-0.4,0.6
		c0,0.3,0.2,0.5,0.4,0.6l4.1,2.3c0.3,0.2,0.7,0.3,1,0.2c0.4,0,0.7-0.1,1-0.2l4-2.3c0.2-0.1,0.4-0.3,0.4-0.6c0-0.3-0.2-0.5-0.4-0.6
		L204.3,265.4z"/>
	<path class="st7" d="M212.4,260.7c-0.3-0.2-0.7-0.3-1-0.2c-0.4,0-0.7,0.1-1,0.2l-4,2.3c-0.2,0.1-0.4,0.3-0.4,0.6
		c0,0.3,0.2,0.5,0.4,0.6l4,2.3c0.3,0.2,0.7,0.3,1,0.2c0.4,0,0.7-0.1,1-0.2l4-2.3c0.2-0.1,0.4-0.3,0.4-0.6c0-0.3-0.2-0.5-0.4-0.6
		L212.4,260.7z"/>
	<path class="st7" d="M220.5,256c-0.3-0.2-0.7-0.3-1-0.2c-0.4,0-0.7,0.1-1,0.2l-4,2.3c-0.2,0.1-0.4,0.3-0.4,0.6
		c0,0.3,0.2,0.5,0.4,0.6l4,2.3c0.3,0.2,0.7,0.3,1,0.2c0.4,0,0.7-0.1,1-0.2l4.1-2.3c0.2-0.1,0.4-0.3,0.4-0.6c0-0.3-0.2-0.5-0.4-0.6
		L220.5,256z"/>
	<path class="st7" d="M228.6,251.3c-0.3-0.2-0.7-0.3-1-0.2c-0.4,0-0.7,0.1-1,0.2l-4,2.3c-0.2,0.1-0.4,0.3-0.4,0.6
		c0,0.3,0.2,0.5,0.4,0.6l4,2.3c0.3,0.2,0.7,0.3,1,0.2c0.4,0,0.7-0.1,1-0.2l4.1-2.3c0.2-0.1,0.4-0.3,0.4-0.6c0-0.3-0.2-0.5-0.4-0.6
		L228.6,251.3z"/>
	<path class="st7" d="M238.7,245.5c-0.3-0.2-0.7-0.3-1-0.2c-0.4,0-0.7,0.1-1,0.2l-6.1,3.5c-0.2,0.1-0.4,0.3-0.4,0.6
		c0,0.3,0.2,0.5,0.4,0.6l4,2.3c0.6,0.3,1.4,0.3,2,0l6.1-3.5c0.2-0.1,0.4-0.3,0.4-0.6c0-0.3-0.2-0.5-0.4-0.6L238.7,245.5z"/>
	<path class="st5" d="M250.4,231.2l45.8,19.9c0.7,0.3,1.4,0.4,2.1,0.3c0.7,0,1.3-0.3,1.9-0.6l13.8-10.5c0.5-0.2,0.7-0.7,0.7-1.3
		c-0.2-0.5-0.6-0.9-1.2-1.1l-45.8-19.8c-0.7-0.3-1.4-0.4-2.1-0.3c-0.7,0-1.3,0.3-1.9,0.6l-13.8,10.5c-0.4,0.2-0.6,0.7-0.5,1.2
		C249.5,230.6,249.9,231,250.4,231.2z"/>
	<path class="st7" d="M306.6,250.7c-0.6,0.3-1.3,0.5-2,0.5c-0.7,0-1.4-0.1-2-0.5L262,227.3c-0.4-0.1-0.7-0.4-0.8-0.8
		c-0.2-0.6,0.1-1.3,0.8-1.5l16.2-9.4c1.3-0.6,2.8-0.6,4,0l40.5,23.4c0.4,0.1,0.7,0.4,0.8,0.8c0.2,0.6-0.1,1.3-0.8,1.5L306.6,250.7z"
		/>
	<path class="st8" d="M281.2,217.4c-0.6-0.3-1.4-0.3-2,0l-14.2,8.2c-0.2,0.1-0.4,0.3-0.4,0.6c0,0.3,0.2,0.5,0.4,0.6l10.1,5.8
		c0.6,0.3,1.4,0.3,2,0l14.2-8.2c0.2-0.1,0.4-0.3,0.4-0.6c0-0.3-0.2-0.5-0.4-0.6L281.2,217.4z"/>
	<path class="st1" d="M295.4,225.6c-0.6-0.3-1.4-0.3-2,0l-14.2,8.2c-0.2,0.1-0.4,0.3-0.4,0.6c0,0.3,0.2,0.5,0.4,0.6l10.1,5.8
		c0.6,0.3,1.4,0.3,2,0l14.2-8.2c0.2-0.1,0.4-0.3,0.4-0.6c0-0.3-0.2-0.5-0.4-0.6L295.4,225.6z"/>
	<path class="st5" d="M309.6,233.8c-0.3-0.2-0.7-0.3-1-0.2c-0.4,0-0.7,0.1-1,0.2l-14.2,8.2c-0.2,0.1-0.4,0.3-0.4,0.6
		c0,0.3,0.2,0.5,0.4,0.6l10.1,5.8c0.6,0.3,1.4,0.3,2,0l14.2-8.2c0.2-0.1,0.4-0.3,0.4-0.6c0-0.3-0.2-0.5-0.4-0.6L309.6,233.8z"/>
</g>
<g id="Warstwa_2">
	<path class="st9" d="M161.6,166.4c-4.8,2.8-9.3,3.7-13.1,3.1l-14.4,24.9c-0.7,1.2-1.7,2.2-2.6,2.7c-0.9,0.5-1.9,0.7-2.6,0.2
		c-1.4-0.8-1.4-3.5,0-6l14-24.3c-3.7-2.9-5.9-8-5.9-15c0-15.7,11-34.8,24.6-42.6c13.5-7.8,24.6-1.4,24.6,14.3
		C186.2,139.5,175.2,158.6,161.6,166.4z M161.6,118c-9.5,5.5-17.2,18.8-17.2,29.8s7.7,15.5,17.2,10c9.5-5.5,17.2-18.8,17.2-29.8
		C178.8,117.1,171.1,112.6,161.6,118z"/>
	<path class="st10" d="M3.7,171.2l50.1-28.9c1.2-0.7,2.1-0.3,2.1,0.9v120.4c0,1.2-1,2.7-2.1,3.4L3.7,295.9c-1.2,0.7-2.1,0.3-2.1-0.9
		V174.6C1.5,173.4,2.5,171.9,3.7,171.2z"/>
	<path class="st10" d="M247.5,28.9L297.7,0c1.2-0.7,2.1-0.3,2.1,0.9v120.4c0,1.2-1,2.7-2.1,3.4l-50.1,28.9c-1.2,0.7-2.1,0.3-2.1-0.9
		V32.3C245.4,31.1,246.3,29.6,247.5,28.9z"/>
	<line class="st11" x1="47.1" y1="169.2" x2="10.7" y2="191.2"/>
	<line class="st11" x1="47.1" y1="179.2" x2="10.7" y2="201.2"/>
	<line class="st12" x1="47" y1="189.7" x2="10.8" y2="211.5"/>
	<line class="st12" x1="47" y1="199.6" x2="10.8" y2="221.5"/>
	<line class="st12" x1="47" y1="209.6" x2="10.8" y2="231.4"/>
	<line class="st12" x1="47" y1="219.5" x2="10.8" y2="241.4"/>
	<line class="st12" x1="47" y1="229.5" x2="10.8" y2="251.3"/>
	<line class="st12" x1="47" y1="239.4" x2="10.8" y2="261.3"/>
	<line class="st12" x1="47" y1="249.4" x2="10.8" y2="271.2"/>
	<line class="st11" x1="290.8" y1="28.3" x2="254.4" y2="50.3"/>
	<line class="st11" x1="290.8" y1="38.3" x2="254.4" y2="60.3"/>
	<line class="st12" x1="290.7" y1="48.8" x2="254.5" y2="70.6"/>
	<line class="st12" x1="290.7" y1="58.7" x2="254.5" y2="80.6"/>
	<line class="st12" x1="290.7" y1="68.7" x2="254.5" y2="90.5"/>
	<line class="st12" x1="290.7" y1="78.6" x2="254.5" y2="100.5"/>
	<line class="st12" x1="290.7" y1="88.5" x2="254.5" y2="110.4"/>
	<line class="st12" x1="290.7" y1="98.5" x2="254.5" y2="120.4"/>
	<line class="st12" x1="290.7" y1="108.4" x2="254.5" y2="130.3"/>
</g>
</svg>
