<?xml version="1.0" encoding="utf-8"?>
<!-- Generator: Adobe Illustrator 23.0.3, SVG Export Plug-In . SVG Version: 6.00 Build 0)  -->
<svg version="1.1" id="ssl-2" xmlns="http://www.w3.org/2000/svg" xmlns:xlink="http://www.w3.org/1999/xlink" x="0px" y="0px"
	 viewBox="0 0 446 310" style="enable-background:new 0 0 446 310;" xml:space="preserve">
<style type="text/css">
	.st0{fill:#FFFFFF;}
	.st1{fill-rule:evenodd;clip-rule:evenodd;fill:#F3F5F9;}
	.st2{fill-rule:evenodd;clip-rule:evenodd;fill:#A4E0FF;}
	.st3{fill-rule:evenodd;clip-rule:evenodd;fill:#F2F4F8;}
	.st4{fill:#A4E0FF;}
	.st5{fill-rule:evenodd;clip-rule:evenodd;fill:#009AFF;}
	.st6{fill-rule:evenodd;clip-rule:evenodd;fill:#FFFFFF;}
	.st7{fill:#E3EFFC;}
	.st8{fill-rule:evenodd;clip-rule:evenodd;fill:#393D45;}
</style>
<rect id="Prostokąt_1237" class="st0" width="446" height="310"/>
<g id="search">
	<g id="Grupa_25">
		<path id="Kształt_1718_kopia_6" class="st1" d="M96,273v-8h311v8H96z"/>
		<path id="_4" class="st2" d="M52,259.5h-3.2l-8,12.5l0.1,1.9h8v4.1H52v-4.1h2.3v-2.5H52L52,259.5L52,259.5z M48.7,264.1l0.2-0.4
			v7.7h-4.8L48.7,264.1z"/>
	</g>
	<g id="Grupa_24">
		<path id="_3" class="st2" d="M45.1,215.8h1.8c0.9-0.1,1.8,0.2,2.6,0.8c0.6,0.6,0.9,1.4,0.9,2.3c0.1,0.8-0.2,1.6-0.8,2.2
			c-0.6,0.5-1.4,0.8-2.3,0.8c-0.8,0-1.6-0.2-2.2-0.8c-0.5-0.5-0.8-1.2-0.8-2h-3.1c-0.1,1.5,0.6,2.9,1.7,3.8c1.2,1,2.8,1.5,4.4,1.4
			c1.6,0.1,3.2-0.4,4.5-1.5c1.1-1,1.8-2.4,1.7-4c0.1-2-1.2-3.8-3.1-4.3c0.8-0.4,1.5-0.9,2-1.7c0.5-0.7,0.8-1.5,0.8-2.3
			c0.1-1.5-0.5-2.9-1.6-3.9c-1.2-1-2.8-1.5-4.3-1.4c-1,0-2.1,0.2-3,0.7c-0.9,0.4-1.6,1-2.1,1.8c-0.5,0.8-0.8,1.7-0.8,2.6h3.1
			c0-0.7,0.3-1.4,0.8-1.9c0.6-0.5,1.3-0.7,2-0.7c0.8-0.1,1.5,0.2,2.1,0.7c0.5,0.6,0.7,1.3,0.7,2.1c0.1,0.8-0.3,1.6-0.8,2.1
			c-0.6,0.5-1.4,0.8-2.3,0.7h-1.9L45.1,215.8L45.1,215.8z"/>
		<path id="Kształt_1718_kopia_5" class="st1" d="M96,218v-8h311v8H96z"/>
		<path id="Kształt_1258" class="st3" d="M13,242v-1h421v1H13z"/>
	</g>
	<g id="Grupa_23">
		<path id="_2" class="st2" d="M55,167.5h-8.6l4.5-4.8c1-1,1.9-2.2,2.6-3.4c0.5-0.9,0.8-1.9,0.8-2.9c0.1-1.4-0.5-2.8-1.6-3.7
			c-1.2-1-2.7-1.4-4.2-1.4c-1.1,0-2.3,0.2-3.3,0.8c-0.9,0.5-1.7,1.2-2.2,2.1c-0.5,0.9-0.8,2-0.8,3h3.1c-0.1-0.9,0.2-1.8,0.8-2.5
			c0.6-0.6,1.5-1,2.3-0.9c0.8,0,1.5,0.3,2,0.8c0.5,0.6,0.8,1.4,0.7,2.1c0,0.7-0.2,1.4-0.6,2c-0.5,0.9-1.2,1.7-1.9,2.5l-6.2,6.7v2.1
			H55L55,167.5L55,167.5z"/>
		<path id="Kształt_1718" class="st1" d="M96,164v-8h311v8H96z"/>
		<path id="Kształt_1258-2" class="st1" d="M13,188v-1h421v1H13z"/>
	</g>
	<g id="Grupa_22">
		<rect id="Prostokąt_zaokrąglony_1268" x="13" y="81" class="st4" width="421" height="52"/>
		<path id="_1" class="st5" d="M49.9,97.4h-0.4l-7.2,2.7v2.6l4.5-1.6V116h3.1V97.4z"/>
		<path id="Kształt_1718_kopia_7" class="st6" d="M96,111v-8h311v8H96z"/>
	</g>
	<g id="Grupa_14">
		<rect id="Prostokąt_zaokrąglony_1267" x="13" y="21" class="st7" width="421" height="39"/>
		<path id="Kształt_1729" class="st8" d="M419.8,49.1l-4.3-4.3c3.3-4.3,2.6-10.5-1.7-13.8c-4.3-3.3-10.5-2.6-13.8,1.7
			c-3.3,4.3-2.6,10.5,1.7,13.8c3.6,2.8,8.5,2.8,12.1,0l4.3,4.3c0.1,0.1,0.3,0.2,0.4,0.2c0.2,0,0.3-0.1,0.4-0.2l0.9-0.9
			C420,49.7,420,49.3,419.8,49.1C419.8,49.1,419.8,49.1,419.8,49.1C419.8,49.1,419.8,49.1,419.8,49.1z M407.8,31.4
			c4.1,0,7.3,3.3,7.3,7.3c0,4.1-3.3,7.3-7.3,7.3c-4.1,0-7.3-3.3-7.3-7.3c0,0,0,0,0,0C400.4,34.7,403.7,31.4,407.8,31.4L407.8,31.4z"
			/>
		<rect id="Prostokąt_1260_kopia_3" x="28" y="37" class="st0" width="156" height="8"/>
	</g>
</g>
</svg>
