<?xml version="1.0" encoding="utf-8"?>
<!-- Generator: Adobe Illustrator 22.0.1, SVG Export Plug-In . SVG Version: 6.00 Build 0)  -->
<svg version="1.1" id="Warstwa_1" xmlns="http://www.w3.org/2000/svg" xmlns:xlink="http://www.w3.org/1999/xlink" x="0px" y="0px"
	 viewBox="0 0 328 328" style="enable-background:new 0 0 328 328;" xml:space="preserve">
<style type="text/css">
	.st0{fill:#A4E0FF;}
	.st1{fill:#73C8FF;}
	.st2{fill:#056CEA;}
	.st3{fill:#88D3FF;}
	.st4{opacity:0.48;fill:#3192E7;enable-background:new    ;}
	.st5{fill:#FFFFFF;}
	.st6{fill:#3192E7;}
	.st7{fill:none;stroke:#A4E0FF;stroke-width:18;stroke-linecap:round;stroke-linejoin:round;}
</style>

<g>
	<polygon class="st0" points="28.4,19.6 95.9,63 95.9,171 28.4,127.6 	"/>
</g>
<path class="st1" d="M62.1,119.5c0.5,0.3,0.9,0.1,0.9-0.5s-0.4-1.2-0.9-1.5l-20.8-12c-0.5-0.3-0.9,0-0.9,0.5c0,0.6,0.4,1.2,0.9,1.5
	L62.1,119.5z"/>
<path class="st1" d="M84.6,90.5c0.5,0.3,0.9,0,0.9-0.5c0-0.6-0.4-1.2-0.9-1.5l-43.3-25c-0.5-0.3-0.9,0-0.9,0.5
	c0,0.6,0.4,1.2,0.9,1.5L84.6,90.5z"/>
<path class="st1" d="M84.6,108.5c0.5,0.3,0.9,0,0.9-0.5c0-0.6-0.4-1.2-0.9-1.5L50,86.5c-0.5-0.3-0.9,0-0.9,0.5
	c0,0.6,0.4,1.2,0.9,1.5L84.6,108.5z"/>
<path class="st1" d="M74.3,108.5c0.5,0.3,0.9,0,0.9-0.5c0-0.6-0.4-1.2-0.9-1.5l-32.9-19c-0.5-0.3-0.9,0-0.9,0.5
	c0,0.6,0.4,1.2,0.9,1.5L74.3,108.5z"/>
<path class="st1" d="M53.5,108.5c0.5,0.3,0.9,0,0.9-0.5c0-0.6-0.4-1.2-0.9-1.5l-12.1-7c-0.5-0.3-0.9,0-0.9,0.5
	c0,0.6,0.4,1.2,0.9,1.5L53.5,108.5z"/>
<path class="st1" d="M79.4,123.5c0.5,0.3,0.9,0.1,0.9-0.5s-0.4-1.2-0.9-1.5l-20.8-12c-0.5-0.3-0.9-0.1-0.9,0.5s0.4,1.2,0.9,1.5
	L79.4,123.5z"/>
<path class="st1" d="M53.5,78.5c0.5,0.3,0.9,0,0.9-0.5c0-0.6-0.4-1.2-0.9-1.5l-12.1-7c-0.5-0.3-0.9,0-0.9,0.5c0,0.6,0.4,1.2,0.9,1.5
	L53.5,78.5z"/>
<path class="st1" d="M79.4,93.5c0.5,0.3,0.9,0,0.9-0.5c0-0.6-0.4-1.2-0.9-1.5l-20.8-12c-0.5-0.3-0.9,0-0.9,0.5
	c0,0.6,0.4,1.2,0.9,1.5L79.4,93.5z"/>
<path class="st1" d="M65.6,91.5c0.5,0.3,0.9,0,0.9-0.5c0-0.6-0.4-1.2-0.9-1.5l-24.2-14c-0.5-0.3-0.9,0-0.9,0.5
	c0,0.6,0.4,1.2,0.9,1.5L65.6,91.5z"/>
<path class="st1" d="M74.3,96.5c0.5,0.3,0.9,0,0.9-0.5c0-0.6-0.4-1.2-0.9-1.5l-3.5-2c-0.5-0.3-0.9,0-0.9,0.5c0,0.6,0.4,1.2,0.9,1.5
	L74.3,96.5z"/>
<path class="st1" d="M67.3,110.5c-0.5-0.3-0.8-0.9-0.9-1.5c0-0.6,0.4-0.8,0.9-0.5l12.1,7c0.5,0.3,0.8,0.9,0.9,1.5
	c0,0.6-0.4,0.8-0.9,0.5L67.3,110.5z"/>
<path class="st1" d="M41.3,83.5c-0.5-0.3-0.8-0.9-0.9-1.5c0-0.6,0.4-0.8,0.9-0.5l3.5,2c0.5,0.3,0.8,0.9,0.9,1.5
	c0,0.6-0.4,0.8-0.9,0.5L41.3,83.5z"/>
<path class="st1" d="M41.3,95.5c-0.5-0.3-0.8-0.9-0.9-1.5c0-0.6,0.4-0.8,0.9-0.5l20.8,12c0.5,0.3,0.8,0.9,0.9,1.5
	c0,0.6-0.4,0.8-0.9,0.5L41.3,95.5z"/>
<path class="st0" d="M84.6,149.5c0.5,0.3,0.9,0.1,0.9-0.5s-0.4-1.2-0.9-1.5l-12.1-7c-0.5-0.3-0.9-0.1-0.9,0.5s0.4,1.2,0.9,1.5
	L84.6,149.5z"/>
<path class="st1" d="M53.5,55.5c0.5,0.3,0.9,0,0.9-0.5c0-0.6-0.4-1.2-0.9-1.5l-12.1-7c-0.5-0.3-0.9,0-0.9,0.5c0,0.6,0.4,1.2,0.9,1.5
	L53.5,55.5z"/>
<path class="st2" d="M43.9,134c-2.1-1.3-3.9-3.1-5.2-5.3V150l5.2-3l5.2,9v-21.3C47.7,135.4,45.8,135.1,43.9,134z"/>
<path class="st3" d="M47.4,135c0.6-0.3,1.1-0.8,1.4-1.4c-1.3,0.7-3.1,0.5-4.8-0.5c-4.1-2.7-6.7-7.1-6.9-12c0-2,0.7-3.6,2-4.4
	c-0.7,0-1.4,0.1-2,0.4c-1.4,0.8-2.1,2.6-2.1,4.7c0.3,5.1,3,9.9,7.3,12.7C44.1,135.5,46,135.8,47.4,135z"/>
<path class="st4" d="M47.4,135c0.6-0.3,1.1-0.8,1.4-1.4c-1.3,0.7-3.1,0.5-4.8-0.5c-4.1-2.7-6.7-7.1-6.9-12c0-2,0.7-3.6,2-4.4
	c-0.7,0-1.4,0.1-2,0.4c-1.4,0.8-2.1,2.6-2.1,4.7c0.3,5.1,3,9.9,7.3,12.7C44.1,135.5,46,135.8,47.4,135z"/>
<path class="st1" d="M48,134c-1.4,0.8-3.1,0.5-4.9-0.5c-4.1-2.7-6.7-7.1-6.9-12c0-2.1,0.7-3.7,2-4.5s3.1-0.5,4.9,0.5
	c4.1,2.7,6.7,7.1,6.9,12C50,131.6,49.3,133.2,48,134z"/>
<path class="st5" d="M42.2,128c0,0.6,0.4,1.2,0.9,1.5s0.9,0.1,0.9-0.5v-6c0-0.6-0.4-1.2-0.9-1.5s-0.9-0.1-0.9,0.5V128z"/>
<path class="st6" d="M50.1,121.5c-1.5-2.6-3.6-4.9-6.1-6.5c-2.2-1.3-4.4-1.6-6.1-0.6l-1.7,1l0.3,2.2c0.2-0.2,0.4-0.4,0.6-0.6
	c1.4-0.8,3.3-0.6,5.2,0.5c4.3,2.8,7,7.5,7.3,12.7c0,2.2-0.7,3.9-2.2,4.7c-0.7,0.4-1.5,0.5-2.3,0.5l3.2,1.2l1.7-1
	c1.7-1,2.5-3.1,2.5-5.6C52.5,127,51.6,124,50.1,121.5z"/>
<path class="st3" d="M48.3,122.5c-1.5-2.6-3.6-4.9-6.1-6.5c-2.2-1.3-4.4-1.6-6.1-0.6s-2.5,3.1-2.5,5.6c0.3,6.1,3.5,11.7,8.7,15
	c2.2,1.3,4.4,1.6,6.1,0.6s2.5-3.1,2.5-5.6C50.8,128,49.9,125,48.3,122.5z M47.1,134.5c-1.3,0.8-3.1,0.5-4.9-0.5
	c-4.1-2.7-6.7-7.1-6.9-12c0-2.1,0.7-3.7,2-4.5s3.1-0.5,4.9,0.5c4.1,2.7,6.7,7.1,6.9,12C49.1,132.1,48.5,133.7,47.1,134.5L47.1,134.5
	z"/>
<path class="st6" d="M201.6,122l-29.4,17l2.4,2.6v105.6l29.4-17c0.7-0.5,1.1-1.4,1-2.2v-14l-5.2-7.2L205,194v-6l-5.2-7.2L205,168v-6
	l-5.2-7.2L205,142v-14c0-1.2-0.4-2.4-1-3.4L201.6,122z"/>
<path class="st6" d="M111.5,94.5c-3.2,0.1-6.4-0.7-9.2-2.2c-2.4-1.4-3.8-3.2-3.8-5.3s1.5-4,3.8-5.3c5.8-2.9,12.6-2.9,18.4,0
	c2.4,1.4,3.8,3.2,3.8,5.3s-1.4,4-3.8,5.3C117.9,93.8,114.7,94.6,111.5,94.5z"/>
<path class="st6" d="M172.1,129.5c-3.2,0.1-6.4-0.7-9.2-2.2c-2.4-1.4-3.8-3.2-3.8-5.3s1.4-3.9,3.8-5.3c5.8-2.9,12.6-2.9,18.4,0
	c2.4,1.4,3.8,3.2,3.8,5.3s-1.5,3.9-3.8,5.3C178.5,128.8,175.3,129.6,172.1,129.5z"/>
<path class="st5" d="M111.5,92.2c-2.2,0-4.4-0.5-6.4-1.5c-1.6-0.9-2.6-2.2-2.6-3.7s1-2.7,2.6-3.7c4-2,8.7-2,12.7,0
	c1.6,0.9,2.6,2.2,2.6,3.7s-1,2.7-2.6,3.7C115.9,91.7,113.7,92.2,111.5,92.2z"/>
<path class="st0" d="M111.5,104.2c-2.2,0-4.4-0.5-6.4-1.5c-1.6-0.9-2.6-2.2-2.6-3.7V87h18v12c0,1.4-1,2.7-2.6,3.7
	C115.9,103.7,113.7,104.2,111.5,104.2z"/>
<path class="st5" d="M172.1,127.2c-2.2,0-4.4-0.5-6.4-1.5c-1.6-0.9-2.6-2.2-2.6-3.7s1-2.7,2.6-3.7c4-2,8.7-2,12.7,0
	c1.6,0.9,2.6,2.2,2.6,3.7s-1,2.7-2.6,3.7C176.5,126.7,174.3,127.2,172.1,127.2z"/>
<path class="st0" d="M172.1,139.2c-2.2,0-4.4-0.5-6.4-1.5c-1.6-0.9-2.6-2.2-2.6-3.7v-12h18v12c0,1.4-1,2.7-2.6,3.7
	C176.5,138.7,174.3,139.2,172.1,139.2z"/>
<path class="st3" d="M201.6,122l-90.1-52c-0.7-0.5-1.6-0.6-2.4-0.2l-29.4,17l95,54.8l29.4-17C203.5,123.5,202.6,122.6,201.6,122z
	 M120,91.9c-5.3,2.7-11.7,2.7-17,0c-2.2-1.3-3.5-3-3.5-4.9s1.4-3.6,3.5-4.9c5.3-2.7,11.7-2.7,17,0c2.2,1.3,3.5,3,3.5,4.9
	S122.1,90.7,120,91.9z M180.6,126.9c-5.3,2.7-11.7,2.7-17,0c-2.2-1.3-3.5-3-3.5-4.9s1.3-3.6,3.5-4.9c5.3-2.7,11.7-2.7,17,0
	c2.2,1.3,3.5,3,3.5,4.9S182.8,125.6,180.6,126.9L180.6,126.9z"/>
<path class="st0" d="M111.5,92.2c-2.2,0-4.4-0.5-6.4-1.5c-1.6-0.9-2.6-2.2-2.6-3.7V55h18v32c0,1.4-1,2.7-2.6,3.7
	C115.9,91.7,113.7,92.2,111.5,92.2z"/>
<path class="st5" d="M111.5,60.2c-2.2,0-4.4-0.5-6.4-1.5c-1.6-1-2.6-2.2-2.6-3.7s1-2.7,2.6-3.7c4-2,8.7-2,12.7,0
	c1.6,0.9,2.6,2.2,2.6,3.7s-1,2.7-2.6,3.7C115.9,59.7,113.7,60.2,111.5,60.2z"/>
<path class="st0" d="M172.1,127.2c-2.2,0-4.4-0.5-6.4-1.5c-1.6-0.9-2.6-2.2-2.6-3.7V90h18v32c0,1.4-1,2.7-2.6,3.7
	C176.5,126.7,174.3,127.2,172.1,127.2z"/>
<path class="st5" d="M172.1,95.2c-2.2,0-4.4-0.5-6.4-1.5c-1.6-0.9-2.6-2.2-2.6-3.7s1-2.7,2.6-3.7c4-2,8.7-2,12.7,0
	c1.6,0.9,2.6,2.2,2.6,3.7s-1,2.7-2.6,3.7C176.5,94.7,174.3,95.2,172.1,95.2z"/>
<path class="st7" d="M172.1,90c0-19.3-13.6-42.8-30.3-52.5s-30.3-1.8-30.3,17.5"/>
<path class="st6" d="M128.6,187.5c-0.9,0-1.8-0.3-2.6-0.7c-2.7-1.7-4.3-4.6-4.5-7.7V167c-0.9-1-1.7-2.2-2.4-3.4
	c-1.7-2.9-2.7-6.2-2.8-9.5c0-3.4,1.3-6,3.5-7.3c1-0.6,2.1-0.9,3.3-0.8c1.7,0,3.4,0.5,4.9,1.4c5.7,3.7,9.3,9.9,9.7,16.7
	c0,3.4-1.3,6-3.5,7.3c-0.5,0.3-1.1,0.5-1.7,0.7v11C132.6,185.6,130.9,187.5,128.6,187.5z"/>
<path class="st2" d="M175.6,145c-0.1-2.4-1.4-4.7-3.5-6L82,87c-0.9-0.8-2.2-0.7-3,0.2c-0.4,0.5-0.6,1.1-0.5,1.8v100
	c0.1,2.4,1.4,4.7,3.5,6l90.1,52c0.9,0.8,2.2,0.7,3-0.2c0.4-0.5,0.6-1.2,0.5-1.8V145z M133.2,169.6c-0.8,0.4-1.7,0.6-2.7,0.6V183
	c0,2.2-1.6,3.1-3.5,2c-2-1.3-3.3-3.6-3.5-6v-12.8c-1-1.1-1.9-2.3-2.7-3.6c-1.6-2.6-2.4-5.5-2.5-8.5c0-2.6,0.9-4.6,2.5-5.6
	s3.9-0.7,6.1,0.6c5.1,3.3,8.3,8.9,8.7,15C135.7,166.6,134.9,168.6,133.2,169.6z"/>
<path class="st2" d="M194.6,219c0,0.2,0.1,0.4,0.3,0.6c0.2,0.1,0.4,0.1,0.6-0.1l9.5-5.5v-20l-9.5,5.5c-0.3,0.2-0.5,0.4-0.6,0.6
	c-0.2,0.3-0.2,0.5-0.3,0.9V219z"/>
<path class="st2" d="M194.6,193c0,0.2,0.1,0.4,0.3,0.6c0.2,0.1,0.4,0.1,0.6-0.1l9.5-5.5v-20l-9.5,5.5c-0.3,0.2-0.5,0.4-0.6,0.6
	c-0.2,0.3-0.2,0.5-0.3,0.9V193z"/>
<path class="st2" d="M194.6,167c0,0.2,0.1,0.4,0.3,0.6c0.2,0.1,0.4,0.1,0.6-0.1l9.5-5.5v-20l-9.5,5.5c-0.3,0.2-0.5,0.4-0.6,0.6
	c-0.2,0.3-0.2,0.5-0.3,0.9V167z"/>
<g>
	<path class="st0" d="M213.7,142v97L328,305v-97L213.7,142z"/>
	<polygon class="st2" points="328,209 213.7,143 213.7,131 328,197 	"/>
	<path class="st5" d="M220.6,141c0,1.1-0.8,1.6-1.7,1c-1-0.7-1.7-1.8-1.7-3c0-1.1,0.8-1.6,1.7-1C219.9,138.7,220.5,139.8,220.6,141z
		"/>
	<path class="st5" d="M227.5,145c0,1.1-0.8,1.6-1.7,1c-1-0.7-1.7-1.8-1.7-3c0-1.1,0.8-1.6,1.7-1C226.8,142.7,227.5,143.8,227.5,145z
		"/>
	<path class="st5" d="M234.5,149c0,1.1-0.8,1.6-1.7,1c-1-0.7-1.7-1.8-1.7-3c0-1.1,0.8-1.6,1.7-1C233.8,146.7,234.4,147.8,234.5,149z
		"/>
</g>
<path class="st1" d="M232.7,180c0.5,0.3,0.9,0.1,0.9-0.5s-0.4-1.2-0.9-1.5l-7.8-4.5c-0.5-0.3-0.9-0.1-0.9,0.5s0.4,1.2,0.9,1.5
	L232.7,180z"/>
<path class="st1" d="M232.7,210c0.5,0.3,0.9,0.1,0.9-0.5s-0.4-1.2-0.9-1.5l-7.8-4.5c-0.5-0.3-0.9-0.1-0.9,0.5s0.4,1.2,0.9,1.5
	L232.7,210z"/>
<path class="st1" d="M232.7,238c0.5,0.3,0.9,0,0.9-0.5c0-0.6-0.4-1.2-0.9-1.5l-7.8-4.5c-0.5-0.3-0.9-0.1-0.9,0.5s0.4,1.2,0.9,1.5
	L232.7,238z"/>
<path class="st1" d="M237.1,188.5c0.5,0.3,0.9,0.1,0.9-0.5s-0.4-1.2-0.9-1.5l-12.1-7c-0.5-0.3-0.9-0.1-0.9,0.5s0.4,1.2,0.9,1.5
	L237.1,188.5z"/>
<path class="st1" d="M245.7,199.5c0.5,0.3,0.9,0.1,0.9-0.5s-0.4-1.2-0.9-1.5l-20.8-12c-0.5-0.3-0.9-0.1-0.9,0.5s0.4,1.2,0.9,1.5
	L245.7,199.5z"/>
<path class="st1" d="M241.4,203c0.5,0.3,0.9,0.1,0.9-0.5s-0.4-1.2-0.9-1.5l-16.5-9.5c-0.5-0.3-0.9-0.1-0.9,0.5s0.4,1.2,0.9,1.5
	L241.4,203z"/>
<path class="st1" d="M241.4,209c0.5,0.3,0.9,0.1,0.9-0.5s-0.4-1.2-0.9-1.5l-16.5-9.5c-0.5-0.3-0.9-0.1-0.9,0.5s0.4,1.2,0.9,1.5
	L241.4,209z"/>
<path class="st1" d="M232.7,174c0.5,0.3,0.9,0.1,0.9-0.5s-0.4-1.2-0.9-1.5l-7.8-4.5c-0.5-0.3-0.9-0.1-0.9,0.5s0.4,1.2,0.9,1.5
	L232.7,174z"/>
<path class="st1" d="M241.4,173c0.5,0.3,0.9,0.1,0.9-0.5s-0.4-1.2-0.9-1.5l-16.5-9.5c-0.5-0.3-0.9-0.1-0.9,0.5s0.4,1.2,0.9,1.5
	L241.4,173z"/>
<path class="st1" d="M316.7,214.5l-26-15c-0.5-0.3-0.9-0.1-0.9,0.5v31c0,0.6,0.4,1.2,0.9,1.5l26,15c0.5,0.3,0.9,0,0.9-0.5v-31
	C317.6,215.4,317.3,214.8,316.7,214.5z"/>
<path class="st1" d="M283.8,195.5l-26-15c-0.5-0.3-0.9-0.1-0.9,0.5v31c0,0.6,0.4,1.2,0.9,1.5l26,15c0.5,0.3,0.9,0.1,0.9-0.5v-31
	C284.7,196.4,284.3,195.8,283.8,195.5z"/>
<path class="st1" d="M316.7,253.5l-26-15c-0.5-0.3-0.9,0-0.9,0.5v31c0,0.6,0.4,1.2,0.9,1.5l26,15c0.5,0.3,0.9,0,0.9-0.5v-31
	C317.6,254.4,317.3,253.8,316.7,253.5z"/>
<path class="st1" d="M283.8,234.5l-26-15c-0.5-0.3-0.9-0.1-0.9,0.5v31c0,0.6,0.4,1.2,0.9,1.5l26,15c0.5,0.3,0.9,0,0.9-0.5v-31
	C284.7,235.4,284.3,234.8,283.8,234.5z"/>
<path class="st6" d="M144.1,261v-6c0,0-6.9-6.2-10-8c-6.2-3.6-14.8-5.8-24.3-5.8c-6.3-0.1-12.6,1-18.5,3.1L7.2,200v6
	c0.1,1.3,0.9,2.5,2.2,3L81,250.3c-1.1,1-5.4,4.7-5.4,4.7v6c0,5.5,3.8,10.4,10,14s14.8,5.8,24.3,5.8s18.1-2.2,24.3-5.8
	C140.4,271.4,144.1,266.5,144.1,261z M109.8,272.3c-4.8,0.1-9.6-1-13.9-3.3c-3.6-2-5.7-4.9-5.7-8s2.2-6,5.7-8c8.7-4.4,19-4.4,27.7,0
	c3.5,2,5.7,4.9,5.7,8s-2.2,6-5.7,8C119.4,271.3,114.6,272.4,109.8,272.3L109.8,272.3z"/>
<path class="st3" d="M144.1,255c0-5.5-3.8-10.4-10-14s-14.8-5.8-24.3-5.8c-6.3-0.1-12.6,1-18.5,3.1L19.7,197
	c-3.3-1.7-7.1-1.7-10.4,0c-1.7,0.6-2.5,2.4-2,4c0.3,0.9,1,1.7,2,2l71.6,41.3c-3.4,3.1-5.4,6.7-5.4,10.7c0,5.5,3.8,10.4,10,14
	s14.8,5.8,24.3,5.8s18.1-2.2,24.3-5.8C140.3,265.4,144.1,260.5,144.1,255z M109.8,266.3c-4.8,0.1-9.6-1-13.9-3.3
	c-3.6-2-5.7-4.9-5.7-8s2.2-6,5.7-8c8.7-4.4,19-4.4,27.7,0c3.5,2,5.7,4.9,5.7,8s-2.2,6-5.7,8C119.4,265.3,114.6,266.4,109.8,266.3
	L109.8,266.3z"/>
<path class="st6" d="M28.4,218H1.7v2c0,0.4,0.3,0.8,0.7,1l10.4,6c1.1,0.5,2.4,0.5,3.5,0l12.1-7V218z"/>
<polygon class="st1" points="14.5,210 9.3,213 20.4,222.6 28.4,218 "/>
<path class="st6" d="M20.4,223.5V220l-18.8-4v2l11.1,7.5c1.1,0.5,2.4,0.5,3.5,0L20.4,223.5z"/>
<path class="st3" d="M20.4,220c0-0.4-0.3-0.8-0.7-1l-10.4-6c-1.1-0.5-2.4-0.5-3.5,0l-3.5,2c-0.6,0.2-0.9,0.8-0.7,1.3
	c0.1,0.3,0.4,0.6,0.7,0.7l10.4,6c1.1,0.5,2.4,0.5,3.5,0l3.5-2C20.1,220.8,20.4,220.4,20.4,220z"/>
</svg>
