<?xml version="1.0" encoding="utf-8"?>
<!-- Generator: Adobe Illustrator 22.1.0, SVG Export Plug-In . SVG Version: 6.00 Build 0)  -->
<svg version="1.1" id="Warstwa_1" xmlns="http://www.w3.org/2000/svg" xmlns:xlink="http://www.w3.org/1999/xlink" x="0px" y="0px"
	 width="376px" height="324px" viewBox="0 0 376 324" style="enable-background:new 0 0 376 324;" xml:space="preserve">
<style type="text/css">
	.st0{fill:#FFFFFF;}
	.st1{fill:#056CEA;}
	.st2{fill:#A4E0FF;}
</style>
<g>
	<g>
		<path class="st0" d="M261.68,161v97L376,324v-97L261.68,161z"/>
		<g>
			<polygon class="st1" points="376,228 261.68,162 261.68,150 376,216 			"/>
		</g>
		<path class="st0" d="M268.61,160c0,1.1-0.78,1.55-1.73,1c-0.96-0.55-1.73-1.9-1.73-3s0.78-1.55,1.73-1
			C267.84,157.55,268.61,158.9,268.61,160z"/>
		<path class="st0" d="M275.54,164c0,1.1-0.78,1.55-1.73,1c-0.96-0.55-1.73-1.9-1.73-3s0.78-1.55,1.73-1
			C274.77,161.55,275.54,162.9,275.54,164z"/>
		<path class="st0" d="M282.47,168c0,1.1-0.78,1.55-1.73,1c-0.96-0.55-1.73-1.9-1.73-3s0.78-1.55,1.73-1S282.47,166.9,282.47,168z"
			/>
	</g>
	<g>
		<g>
			<path class="st2" d="M280.74,199c0.48,0.28,0.87,0.05,0.87-0.5s-0.39-1.22-0.87-1.5l-7.79-4.5c-0.48-0.28-0.87-0.05-0.87,0.5
				s0.39,1.22,0.87,1.5L280.74,199z"/>
			<path class="st2" d="M280.74,229c0.48,0.28,0.87,0.05,0.87-0.5s-0.39-1.22-0.87-1.5l-7.79-4.5c-0.48-0.28-0.87-0.05-0.87,0.5
				s0.39,1.22,0.87,1.5L280.74,229z"/>
			<path class="st2" d="M280.74,257c0.48,0.28,0.87,0.05,0.87-0.5c0-0.55-0.39-1.22-0.87-1.5l-7.79-4.5
				c-0.48-0.28-0.87-0.05-0.87,0.5s0.39,1.22,0.87,1.5L280.74,257z"/>
			<path class="st2" d="M285.07,207.5c0.48,0.28,0.87,0.05,0.87-0.5s-0.39-1.22-0.87-1.5l-12.12-7c-0.48-0.28-0.87-0.05-0.87,0.5
				s0.39,1.22,0.87,1.5L285.07,207.5z"/>
			<path class="st2" d="M293.73,218.5c0.48,0.28,0.87,0.05,0.87-0.5s-0.39-1.22-0.87-1.5l-20.78-12c-0.48-0.28-0.87-0.05-0.87,0.5
				s0.39,1.22,0.87,1.5L293.73,218.5z"/>
			<path class="st2" d="M289.4,222c0.48,0.28,0.87,0.05,0.87-0.5s-0.39-1.22-0.87-1.5l-16.45-9.5c-0.48-0.28-0.87-0.05-0.87,0.5
				s0.39,1.22,0.87,1.5L289.4,222z"/>
			<path class="st2" d="M289.4,228c0.48,0.28,0.87,0.05,0.87-0.5s-0.39-1.22-0.87-1.5l-16.45-9.5c-0.48-0.28-0.87-0.05-0.87,0.5
				s0.39,1.22,0.87,1.5L289.4,228z"/>
			<path class="st2" d="M280.74,193c0.48,0.28,0.87,0.05,0.87-0.5s-0.39-1.22-0.87-1.5l-7.79-4.5c-0.48-0.28-0.87-0.05-0.87,0.5
				s0.39,1.22,0.87,1.5L280.74,193z"/>
			<path class="st2" d="M289.4,192c0.48,0.28,0.87,0.05,0.87-0.5s-0.39-1.22-0.87-1.5l-16.45-9.5c-0.48-0.28-0.87-0.05-0.87,0.5
				s0.39,1.22,0.87,1.5L289.4,192z"/>
			<path class="st2" d="M364.74,233.5l-25.98-15c-0.48-0.28-0.87-0.05-0.87,0.5v31c0,0.55,0.39,1.22,0.87,1.5l25.98,15
				c0.48,0.28,0.87,0.05,0.87-0.5v-31C365.61,234.45,365.22,233.78,364.74,233.5z"/>
			<path class="st2" d="M331.83,214.5l-25.98-15c-0.48-0.28-0.87-0.05-0.87,0.5v31c0,0.55,0.39,1.22,0.87,1.5l25.98,15
				c0.48,0.28,0.87,0.05,0.87-0.5v-31C332.7,215.45,332.31,214.78,331.83,214.5z"/>
			<path class="st2" d="M364.74,272.5l-25.98-15c-0.48-0.28-0.87-0.05-0.87,0.5v31c0,0.55,0.39,1.22,0.87,1.5l25.98,15
				c0.48,0.28,0.87,0.05,0.87-0.5v-31C365.61,273.45,365.22,272.78,364.74,272.5z"/>
			<path class="st2" d="M331.83,253.5l-25.98-15c-0.48-0.28-0.87-0.05-0.87,0.5v31c0,0.55,0.39,1.22,0.87,1.5l25.98,15
				c0.48,0.28,0.87,0.05,0.87-0.5v-31C332.7,254.45,332.31,253.78,331.83,253.5z"/>
		</g>
	</g>
</g>
</svg>
