<?xml version="1.0" encoding="utf-8"?>
<!-- Generator: Adobe Illustrator 22.1.0, SVG Export Plug-In . SVG Version: 6.00 Build 0)  -->
<svg version="1.1" id="Warstwa_1" xmlns="http://www.w3.org/2000/svg" xmlns:xlink="http://www.w3.org/1999/xlink" x="0px" y="0px"
	 width="376px" height="324px" viewBox="0 0 376 324" style="enable-background:new 0 0 376 324;" xml:space="preserve">
<style type="text/css">
	.st0{fill:#3192E7;}
	.st1{fill:#FFFFFF;}
	.st2{fill:#88D3FF;}
	.st3{fill:none;stroke:#FFFFFF;stroke-width:18;stroke-linecap:round;stroke-linejoin:round;stroke-miterlimit:10;}
	.st4{fill:#056CEA;}
	.st5{display:none;}
	.st6{display:inline;fill:#88D3FF;}
	.st7{display:none;fill:none;stroke:#88D3FF;stroke-width:18;stroke-linecap:round;stroke-linejoin:round;stroke-miterlimit:10;}
	.st8{fill:#73C8FF;}
</style>
<g>
	<path class="st0" d="M249.56,141l-29.45,17l2.45,2.59v105.66c0,0,28.77-16.61,29.45-17s1.01-1.22,1.01-2.24v-14l-5.2-7.19
		l5.2-12.81v-6l-5.2-7.19l5.2-12.81v-6l-5.2-7.19l5.2-12.81v-14c0-1.02-0.34-2.24-1.01-3.41L249.56,141z"/>
	<g>
		<path class="st0" d="M159.49,113.51c-3.59,0-6.84-0.84-9.19-2.2s-3.81-3.23-3.81-5.31c0-2.07,1.46-3.95,3.81-5.31
			c2.35-1.36,5.6-2.2,9.19-2.2s6.84,0.84,9.19,2.2s3.81,3.23,3.81,5.31c0,2.07-1.46,3.95-3.81,5.31
			C166.33,112.67,163.08,113.51,159.49,113.51z"/>
		<path class="st0" d="M220.12,148.51c-3.59,0-6.84-0.84-9.19-2.2s-3.81-3.23-3.81-5.31c0-2.07,1.46-3.95,3.81-5.31
			c2.35-1.36,5.6-2.2,9.19-2.2s6.84,0.84,9.19,2.2s3.81,3.23,3.81,5.31c0,2.07-1.46,3.95-3.81,5.31S223.71,148.51,220.12,148.51z"/>
	</g>
	<g>
		<path class="st1" d="M159.49,111.2c-2.49,0-4.74-0.58-6.36-1.52c-1.63-0.94-2.64-2.24-2.64-3.67c0-1.44,1.01-2.73,2.64-3.67
			c1.63-0.94,3.88-1.52,6.36-1.52s4.73,0.58,6.36,1.52c1.63,0.94,2.64,2.24,2.64,3.67s-1.01,2.73-2.64,3.67
			C164.23,110.62,161.98,111.2,159.49,111.2z"/>
		<path class="st1" d="M159.49,123.2c-2.49,0-4.74-0.58-6.36-1.52c-1.63-0.94-2.64-2.24-2.64-3.67c0-1.44,0-12,0-12h18
			c0,0,0,10.56,0,12c0,1.43-1.01,2.73-2.64,3.67C164.23,122.62,161.98,123.2,159.49,123.2z"/>
		<path class="st1" d="M220.12,146.2c-2.49,0-4.74-0.58-6.36-1.52c-1.63-0.94-2.64-2.24-2.64-3.67c0-1.44,1.01-2.73,2.64-3.67
			s3.88-1.52,6.36-1.52c2.49,0,4.74,0.58,6.36,1.52c1.63,0.94,2.64,2.24,2.64,3.67s-1.01,2.73-2.64,3.67
			C224.85,145.62,222.6,146.2,220.12,146.2z"/>
		<path class="st1" d="M220.12,158.2c-2.49,0-4.74-0.58-6.36-1.52c-1.63-0.94-2.64-2.24-2.64-3.67c0-1.44,0-12,0-12h18
			c0,0,0,10.56,0,12c0,1.43-1.01,2.73-2.64,3.67C224.85,157.62,222.6,158.2,220.12,158.2z"/>
	</g>
	<path class="st2" d="M249.56,141l-90.07-52c-0.89-0.51-1.77-0.63-2.45-0.24s-29.44,17-29.44,17l94.96,54.83l29.45-17
		C251.33,142.41,250.45,141.51,249.56,141z M167.98,110.9c-2.17,1.25-5.17,2.03-8.48,2.03s-6.31-0.78-8.49-2.03
		c-2.17-1.25-3.51-2.99-3.51-4.9s1.34-3.65,3.51-4.9s5.17-2.03,8.49-2.03c3.31,0,6.31,0.78,8.48,2.03s3.52,2.99,3.52,4.9
		C171.49,107.91,170.15,109.65,167.98,110.9z M228.6,145.9c-2.17,1.25-5.17,2.03-8.49,2.03c-3.31,0-6.31-0.78-8.49-2.03
		c-2.17-1.25-3.51-2.99-3.51-4.9c0-1.91,1.34-3.65,3.51-4.9s5.17-2.03,8.49-2.03c3.31,0,6.31,0.78,8.49,2.03
		c2.17,1.25,3.51,2.99,3.51,4.9C232.12,142.91,230.77,144.65,228.6,145.9z"/>
	<g>
		<path class="st1" d="M159.49,111.2c-2.49,0-4.74-0.58-6.36-1.52c-1.63-0.94-2.64-2.24-2.64-3.67c0-1.44,0-32,0-32h18
			c0,0,0,30.56,0,32c0,1.43-1.01,2.73-2.64,3.67C164.23,110.62,161.98,111.2,159.49,111.2z"/>
		<path class="st1" d="M159.49,79.2c-2.49,0-4.74-0.58-6.36-1.52c-1.63-0.94-2.64-2.24-2.64-3.67c0-1.44,1.01-2.73,2.64-3.67
			c1.63-0.94,3.88-1.52,6.36-1.52s4.73,0.58,6.36,1.52c1.63,0.94,2.64,2.24,2.64,3.67s-1.01,2.73-2.64,3.67
			C164.23,78.62,161.98,79.2,159.49,79.2z"/>
		<path class="st1" d="M220.12,146.2c-2.49,0-4.74-0.58-6.36-1.52c-1.63-0.94-2.64-2.24-2.64-3.67c0-1.44,0-32,0-32h18
			c0,0,0,30.56,0,32c0,1.43-1.01,2.73-2.64,3.67C224.85,145.62,222.6,146.2,220.12,146.2z"/>
		<path class="st1" d="M220.12,114.2c-2.49,0-4.74-0.58-6.36-1.52c-1.63-0.94-2.64-2.24-2.64-3.67c0-1.44,1.01-2.73,2.64-3.67
			c1.63-0.94,3.88-1.52,6.36-1.52c2.49,0,4.74,0.58,6.36,1.52c1.63,0.94,2.64,2.24,2.64,3.67s-1.01,2.73-2.64,3.67
			C224.85,113.62,222.6,114.2,220.12,114.2z"/>
	</g>
	<path class="st3" d="M220.12,109c0-19.33-13.57-42.83-30.31-52.5S159.5,54.67,159.5,74"/>
	<g>
		<path class="st4" d="M176.63,206.47c-0.84,0-1.7-0.25-2.55-0.74c-2.54-1.47-4.46-4.79-4.46-7.73v-12.08
			c-0.89-1.04-1.69-2.17-2.39-3.38c-1.81-3.13-2.8-6.52-2.8-9.54c0-3.42,1.26-6.02,3.54-7.34c0.97-0.56,2.07-0.84,3.25-0.84
			c1.57,0,3.21,0.49,4.87,1.45c2.61,1.51,5.05,4.06,6.86,7.2c1.81,3.13,2.8,6.52,2.8,9.54c0,3.42-1.26,6.02-3.54,7.34
			c-0.52,0.3-1.07,0.52-1.66,0.66v11C180.55,204.63,178.94,206.47,176.63,206.47z"/>
		<g class="st5">
			<path class="st6" d="M189.97,179.79c-1.24,0.72-10.39,6-10.39,6l-9-15.59c0,0,9.15-5.28,10.39-6s2.87-0.49,4.5,0.45
				s3.26,2.6,4.5,4.75s1.86,4.39,1.86,6.27S191.22,179.08,189.97,179.79z"/>
			<path class="st6" d="M179.58,185.79c-1.24,0.72-2.87,0.49-4.5-0.45s-3.26-2.6-4.5-4.75s-1.86-4.39-1.86-6.27s0.62-3.4,1.86-4.12
				s2.87-0.49,4.5,0.45s3.26,2.6,4.5,4.75s1.86,4.39,1.86,6.27S180.82,185.08,179.58,185.79z"/>
		</g>
		<path class="st4" d="M223.58,164c0-1.02-0.34-2.24-1.01-3.41c-0.68-1.17-1.56-2.07-2.45-2.59l-90.07-52
			c-0.89-0.51-1.77-0.63-2.45-0.24c-0.68,0.39-1.01,1.22-1.01,2.24v100c0,1.02,0.34,2.24,1.01,3.41c0.68,1.17,1.56,2.07,2.45,2.59
			l90.07,52c0.89,0.51,1.77,0.63,2.45,0.24s1.01-1.22,1.01-2.24L223.58,164z M181.21,188.61c-0.79,0.46-1.7,0.62-2.66,0.55V202
			c0,2.21-1.55,3.1-3.46,2s-3.46-3.79-3.46-6v-12.84c-0.96-1.04-1.87-2.26-2.66-3.62c-1.69-2.93-2.54-5.98-2.54-8.54
			s0.85-4.63,2.54-5.61c1.69-0.98,3.91-0.67,6.12,0.61c2.22,1.28,4.43,3.54,6.12,6.46c1.69,2.93,2.54,5.98,2.54,8.54
			C183.74,185.56,182.9,187.63,181.21,188.61z"/>
		<g class="st5">
			<path class="st6" d="M179.58,185.79c-1.24,0.72-27.71,16-27.71,16l-9-15.59c0,0,26.47-15.28,27.71-16
				c1.24-0.72,2.87-0.49,4.5,0.45s3.26,2.6,4.5,4.75s1.86,4.39,1.86,6.27S180.82,185.08,179.58,185.79z"/>
			<path class="st6" d="M151.87,201.79c-1.24,0.72-2.87,0.49-4.5-0.45s-3.26-2.6-4.5-4.75s-1.86-4.39-1.86-6.27s0.62-3.4,1.86-4.12
				s2.87-0.49,4.5,0.45s3.26,2.6,4.5,4.75s1.86,4.39,1.86,6.27S153.11,201.08,151.87,201.79z"/>
		</g>
		<line class="st7" x1="147.37" y1="194" x2="111" y2="215"/>
		<path class="st7" d="M105.16,234.63c-3.89,6.74-8.99,11.93-14.08,14.87c-5.1,2.94-10.19,3.64-14.08,1.39s-5.83-7.01-5.83-12.89
			c0-5.89,1.95-12.9,5.83-19.63c3.89-6.74,8.99-11.93,14.08-14.87c5.1-2.94,10.2-3.64,14.08-1.39c3.89,2.25,5.83,7.01,5.83,12.89
			C111,220.89,109.05,227.9,105.16,234.63z"/>
	</g>
	<g>
		<path class="st1" d="M175.08,168c2.22,1.28,4.43,3.54,6.12,6.46c1.69,2.93,2.54,5.98,2.54,8.54s-0.85,4.63-2.54,5.61
			c-0.79,0.46-1.7,0.62-2.66,0.55V202c0,2.21-1.55,3.1-3.46,2s-3.46-3.79-3.46-6v-12.84c-0.96-1.04-1.87-2.26-2.66-3.62
			c-1.69-2.93-2.54-5.98-2.54-8.54s0.85-4.63,2.54-5.61C170.65,166.42,172.87,166.72,175.08,168 M175.08,162
			c-3.7-2.14-7.18-2.48-9.8-0.97c-2.62,1.51-4.06,4.7-4.06,8.97s1.44,9.12,4.06,13.66c0.36,0.63,0.74,1.24,1.14,1.83V195
			c0,5.51,3.89,12.24,8.66,15c4.78,2.76,8.66,0.51,8.66-5v-9.51c0.4-0.14,0.78-0.31,1.14-0.52c2.62-1.51,4.06-4.7,4.06-8.97
			s-1.44-9.12-4.06-13.66C182.26,167.81,178.78,164.14,175.08,162L175.08,162z"/>
	</g>
	<g>
		<path class="st4" d="M242.63,238c0,0.26,0.08,0.46,0.25,0.56c0.17,0.1,0.39,0.07,0.61-0.06l9.53-5.5v-20l-9.53,5.5
			c-0.22,0.13-0.44,0.35-0.61,0.65c-0.17,0.29-0.25,0.6-0.25,0.85V238z"/>
		<path class="st4" d="M242.63,212c0,0.26,0.08,0.46,0.25,0.56c0.17,0.1,0.39,0.07,0.61-0.06l9.53-5.5v-20l-9.53,5.5
			c-0.22,0.13-0.44,0.35-0.61,0.65c-0.17,0.29-0.25,0.6-0.25,0.85V212z"/>
		<path class="st4" d="M242.63,186c0,0.26,0.08,0.46,0.25,0.56c0.17,0.1,0.39,0.07,0.61-0.06l9.53-5.5v-20l-9.53,5.5
			c-0.22,0.13-0.44,0.35-0.61,0.65c-0.17,0.29-0.25,0.6-0.25,0.85V186z"/>
	</g>
</g>
<g>
	<polygon class="st5" points="109.26,280 157.76,308 206.26,280 157.76,252 	"/>
	<path class="st0" d="M192.05,280c0-2.73,0-6,0-6s-6.94-6.21-10.04-8c-6.21-3.58-14.78-5.8-24.25-5.8c-6.81,0-13.15,1.15-18.49,3.13
		L55.15,219c0,0,0,4.83,0,6s0.82,2.23,2.15,3l71.58,41.33c-1.06,0.96-5.41,4.67-5.41,4.67s0,3.29,0,6c0,5.47,3.84,10.42,10.04,14
		c6.21,3.58,14.78,5.8,24.25,5.8s18.04-2.22,24.25-5.8C188.22,290.42,192.05,285.47,192.05,280z M157.76,291.31
		c-5.41,0-10.31-1.27-13.86-3.31c-3.55-2.05-5.74-4.88-5.74-8s2.19-5.95,5.74-8s8.45-3.31,13.86-3.31s10.31,1.27,13.86,3.31
		c3.55,2.05,5.74,4.88,5.74,8s-2.19,5.95-5.74,8C168.07,290.05,163.17,291.31,157.76,291.31z"/>
	<path class="st2" d="M192.05,274c0-5.47-3.84-10.42-10.04-14c-6.21-3.58-14.78-5.8-24.25-5.8c-6.81,0-13.15,1.15-18.49,3.13
		L67.7,216c-1.33-0.77-3.17-1.24-5.2-1.24c-2.03,0-3.87,0.47-5.2,1.24s-2.15,1.83-2.15,3s0.82,2.23,2.15,3l71.58,41.33
		c-3.42,3.08-5.41,6.74-5.41,10.67c0,5.47,3.84,10.42,10.04,14c6.21,3.58,14.78,5.8,24.25,5.8s18.04-2.22,24.25-5.8
		C188.22,284.42,192.05,279.47,192.05,274z M157.76,285.31c-5.41,0-10.31-1.27-13.86-3.31c-3.55-2.05-5.74-4.88-5.74-8
		s2.19-5.95,5.74-8s8.45-3.31,13.86-3.31s10.31,1.27,13.86,3.31c3.55,2.05,5.74,4.88,5.74,8s-2.19,5.95-5.74,8
		C168.07,284.05,163.17,285.31,157.76,285.31z"/>
	<path class="st0" d="M76.36,237h-26.7c0,0,0,1.61,0,2s0.27,0.74,0.72,1l10.39,6c0.44,0.26,1.06,0.41,1.73,0.41
		c0.68,0,1.29-0.16,1.73-0.41l12.12-7L76.36,237L76.36,237z"/>
	<polygon class="st8" points="62.5,229 57.3,232 68.41,241.59 76.36,237 	"/>
	<path class="st0" d="M68.41,242.5V239l-18.75-4v2l11.11,7.5c0.44,0.26,1.06,0.41,1.73,0.41c0.68,0,1.29-0.16,1.73-0.41L68.41,242.5
		z"/>
	<path class="st2" d="M68.41,239c0-0.39-0.27-0.74-0.72-1l-10.39-6c-0.44-0.26-1.06-0.41-1.73-0.41c-0.68,0-1.29,0.16-1.73,0.41
		l-3.46,2c-0.44,0.26-0.72,0.61-0.72,1s0.27,0.74,0.72,1l10.39,6c0.44,0.26,1.06,0.41,1.73,0.41c0.68,0,1.29-0.16,1.73-0.41l3.46-2
		C68.14,239.74,68.41,239.39,68.41,239z"/>
</g>
</svg>
