<?xml version="1.0" encoding="utf-8"?>
<!-- Generator: Adobe Illustrator 22.1.0, SVG Export Plug-In . SVG Version: 6.00 Build 0)  -->
<svg version="1.1" id="Warstwa_1" xmlns="http://www.w3.org/2000/svg" xmlns:xlink="http://www.w3.org/1999/xlink" x="0px" y="0px"
	 width="376px" height="324px" viewBox="0 0 376 324" style="enable-background:new 0 0 376 324;" xml:space="preserve">
<style type="text/css">
	.st0{fill:#FFFFFF;}
	.st1{fill:#A4E0FF;}
	.st2{fill:#056CEA;}
	.st3{fill:#88D3FF;}
	.st4{opacity:0.48;fill:#3192E7;enable-background:new    ;}
	.st5{fill:#73C8FF;}
	.st6{fill:#3192E7;}
</style>
<g>
	<g>
		<polygon class="st0" points="1.88,0 143.91,82 143.91,190 1.88,108 		"/>
	</g>
	<g>
		<path class="st1" d="M110.13,138.5c0.48,0.28,0.87,0.05,0.87-0.5s-0.39-1.22-0.87-1.5l-20.78-12c-0.48-0.28-0.87-0.05-0.87,0.5
			s0.39,1.22,0.87,1.5L110.13,138.5z"/>
		<path class="st1" d="M132.65,109.5c0.48,0.28,0.87,0.05,0.87-0.5s-0.39-1.22-0.87-1.5l-43.3-25c-0.48-0.28-0.87-0.05-0.87,0.5
			s0.39,1.22,0.87,1.5L132.65,109.5z"/>
		<path class="st1" d="M132.65,127.5c0.48,0.28,0.87,0.05,0.87-0.5s-0.39-1.22-0.87-1.5l-34.64-20c-0.48-0.28-0.87-0.05-0.87,0.5
			s0.39,1.22,0.87,1.5L132.65,127.5z"/>
		<path class="st1" d="M122.25,127.5c0.48,0.28,0.87,0.05,0.87-0.5s-0.39-1.22-0.87-1.5l-32.91-19c-0.48-0.28-0.87-0.05-0.87,0.5
			s0.39,1.22,0.87,1.5L122.25,127.5z"/>
		<path class="st1" d="M101.47,127.5c0.48,0.28,0.87,0.05,0.87-0.5s-0.39-1.22-0.87-1.5l-12.12-7c-0.48-0.28-0.87-0.05-0.87,0.5
			s0.39,1.22,0.87,1.5L101.47,127.5z"/>
		<path class="st1" d="M127.45,142.5c0.48,0.28,0.87,0.05,0.87-0.5s-0.39-1.22-0.87-1.5l-20.78-12c-0.48-0.28-0.87-0.05-0.87,0.5
			s0.39,1.22,0.87,1.5L127.45,142.5z"/>
		<path class="st1" d="M101.47,97.5c0.48,0.28,0.87,0.05,0.87-0.5s-0.39-1.22-0.87-1.5l-12.12-7c-0.48-0.28-0.87-0.05-0.87,0.5
			s0.39,1.22,0.87,1.5L101.47,97.5z"/>
		<path class="st1" d="M127.45,112.5c0.48,0.28,0.87,0.05,0.87-0.5s-0.39-1.22-0.87-1.5l-20.78-12c-0.48-0.28-0.87-0.05-0.87,0.5
			s0.39,1.22,0.87,1.5L127.45,112.5z"/>
		<path class="st1" d="M113.59,110.5c0.48,0.28,0.87,0.05,0.87-0.5s-0.39-1.22-0.87-1.5l-24.25-14c-0.48-0.28-0.87-0.05-0.87,0.5
			s0.39,1.22,0.87,1.5L113.59,110.5z"/>
		<path class="st1" d="M122.25,115.5c0.48,0.28,0.87,0.05,0.87-0.5s-0.39-1.22-0.87-1.5l-3.46-2c-0.48-0.28-0.87-0.05-0.87,0.5
			s0.39,1.22,0.87,1.5L122.25,115.5z"/>
		<path class="st1" d="M115.33,129.5c-0.48-0.28-0.87-0.95-0.87-1.5s0.39-0.78,0.87-0.5l12.12,7c0.48,0.28,0.87,0.95,0.87,1.5
			s-0.39,0.78-0.87,0.5L115.33,129.5z"/>
		<path class="st1" d="M89.35,102.5c-0.48-0.28-0.87-0.95-0.87-1.5s0.39-0.78,0.87-0.5l3.46,2c0.48,0.28,0.87,0.95,0.87,1.5
			s-0.39,0.78-0.87,0.5L89.35,102.5z"/>
		<path class="st1" d="M89.35,114.5c-0.48-0.28-0.87-0.95-0.87-1.5s0.39-0.78,0.87-0.5l20.78,12c0.48,0.28,0.87,0.95,0.87,1.5
			s-0.39,0.78-0.87,0.5L89.35,114.5z"/>
		<path class="st1" d="M132.65,168.5c0.48,0.28,0.87,0.05,0.87-0.5s-0.39-1.22-0.87-1.5l-12.12-7c-0.48-0.28-0.87-0.05-0.87,0.5
			s0.39,1.22,0.87,1.5L132.65,168.5z"/>
		<path class="st1" d="M101.47,74.5c0.48,0.28,0.87,0.05,0.87-0.5s-0.39-1.22-0.87-1.5l-12.12-7c-0.48-0.28-0.87-0.05-0.87,0.5
			s0.39,1.22,0.87,1.5L101.47,74.5z"/>
	</g>
	<g>
		<path class="st1" d="M33.92,94.5c0.48,0.28,0.87,0.05,0.87-0.5s-0.39-1.22-0.87-1.5l-20.78-12c-0.48-0.28-0.87-0.05-0.87,0.5
			s0.39,1.22,0.87,1.5L33.92,94.5z"/>
		<path class="st1" d="M56.44,65.5c0.48,0.28,0.87,0.05,0.87-0.5s-0.39-1.22-0.87-1.5l-43.3-25c-0.48-0.28-0.87-0.05-0.87,0.5
			s0.39,1.22,0.87,1.5L56.44,65.5z"/>
		<path class="st1" d="M56.44,83.5c0.48,0.28,0.87,0.05,0.87-0.5s-0.39-1.22-0.87-1.5l-34.64-20c-0.48-0.28-0.87-0.05-0.87,0.5
			s0.39,1.22,0.87,1.5L56.44,83.5z"/>
		<path class="st1" d="M46.04,83.5c0.48,0.28,0.87,0.05,0.87-0.5s-0.39-1.22-0.87-1.5l-32.91-19c-0.48-0.28-0.87-0.05-0.87,0.5
			s0.39,1.22,0.87,1.5L46.04,83.5z"/>
		<path class="st1" d="M25.26,83.5c0.48,0.28,0.87,0.05,0.87-0.5s-0.39-1.22-0.87-1.5l-12.12-7c-0.48-0.28-0.87-0.05-0.87,0.5
			s0.39,1.22,0.87,1.5L25.26,83.5z"/>
		<path class="st1" d="M51.24,98.5c0.48,0.28,0.87,0.05,0.87-0.5s-0.39-1.22-0.87-1.5l-20.78-12c-0.48-0.28-0.87-0.05-0.87,0.5
			s0.39,1.22,0.87,1.5L51.24,98.5z"/>
		<path class="st1" d="M25.26,53.5c0.48,0.28,0.87,0.05,0.87-0.5s-0.39-1.22-0.87-1.5l-12.12-7c-0.48-0.28-0.87-0.05-0.87,0.5
			s0.39,1.22,0.87,1.5L25.26,53.5z"/>
		<path class="st1" d="M51.24,68.5c0.48,0.28,0.87,0.05,0.87-0.5s-0.39-1.22-0.87-1.5l-20.78-12c-0.48-0.28-0.87-0.05-0.87,0.5
			s0.39,1.22,0.87,1.5L51.24,68.5z"/>
		<path class="st1" d="M37.38,66.5c0.48,0.28,0.87,0.05,0.87-0.5s-0.39-1.22-0.87-1.5l-24.25-14c-0.48-0.28-0.87-0.05-0.87,0.5
			s0.39,1.22,0.87,1.5L37.38,66.5z"/>
		<path class="st1" d="M46.04,71.5c0.48,0.28,0.87,0.05,0.87-0.5s-0.39-1.22-0.87-1.5l-3.46-2c-0.48-0.28-0.87-0.05-0.87,0.5
			s0.39,1.22,0.87,1.5L46.04,71.5z"/>
		<path class="st1" d="M39.12,85.5c-0.48-0.28-0.87-0.95-0.87-1.5s0.39-0.78,0.87-0.5l12.12,7c0.48,0.28,0.87,0.95,0.87,1.5
			s-0.39,0.78-0.87,0.5L39.12,85.5z"/>
		<path class="st1" d="M13.14,58.5c-0.48-0.28-0.87-0.95-0.87-1.5s0.39-0.78,0.87-0.5l3.46,2c0.48,0.28,0.87,0.95,0.87,1.5
			s-0.39,0.78-0.87,0.5L13.14,58.5z"/>
		<path class="st1" d="M13.14,70.5c-0.48-0.28-0.87-0.95-0.87-1.5s0.39-0.78,0.87-0.5l20.78,12c0.48,0.28,0.87,0.95,0.87,1.5
			s-0.39,0.78-0.87,0.5L13.14,70.5z"/>
		<path class="st1" d="M56.44,124.5c0.48,0.28,0.87,0.05,0.87-0.5s-0.39-1.22-0.87-1.5l-12.12-7c-0.48-0.28-0.87-0.05-0.87,0.5
			s0.39,1.22,0.87,1.5L56.44,124.5z"/>
		<path class="st1" d="M25.26,106.5c0.48,0.28,0.87,0.05,0.87-0.5s-0.39-1.22-0.87-1.5l-12.12-7c-0.48-0.28-0.87-0.05-0.87,0.5
			s0.39,1.22,0.87,1.5L25.26,106.5z"/>
		<path class="st1" d="M25.26,30.5c0.48,0.28,0.87,0.05,0.87-0.5s-0.39-1.22-0.87-1.5l-12.12-7c-0.48-0.28-0.87-0.05-0.87,0.5
			s0.39,1.22,0.87,1.5L25.26,30.5z"/>
	</g>
</g>
<g>
	<path class="st2" d="M97.14,156c-1.86-1.07-3.72-2.92-5.2-5.31V172l5.2-3l5.2,9v-21.31C100.86,157.37,99,157.07,97.14,156z"/>
	<path class="st3" d="M100.58,156.96c0.58-0.34,1.04-0.83,1.38-1.44c-1.34,0.73-3.08,0.49-4.82-0.52c-1.77-1.02-3.55-2.83-4.9-5.17
		s-2.03-4.78-2.03-6.83c0-2.01,0.66-3.64,1.96-4.44c-0.7-0.01-1.36,0.14-1.94,0.48c-1.43,0.82-2.14,2.57-2.14,4.74
		c0,2.16,0.71,4.74,2.14,7.21s3.3,4.38,5.17,5.46C97.28,157.53,99.15,157.78,100.58,156.96z"/>
	<path class="st4" d="M100.58,156.96c0.58-0.34,1.04-0.83,1.38-1.44c-1.34,0.73-3.08,0.49-4.82-0.52c-1.77-1.02-3.55-2.83-4.9-5.17
		s-2.03-4.78-2.03-6.83c0-2.01,0.66-3.64,1.96-4.44c-0.7-0.01-1.36,0.14-1.94,0.48c-1.43,0.82-2.14,2.57-2.14,4.74
		c0,2.16,0.71,4.74,2.14,7.21s3.3,4.38,5.17,5.46C97.28,157.53,99.15,157.78,100.58,156.96z"/>
	<path class="st5" d="M101.17,155.99c-1.35,0.78-3.13,0.54-4.9-0.49c-1.77-1.02-3.55-2.83-4.9-5.17s-2.03-4.78-2.03-6.83
		s0.68-3.7,2.03-4.49c1.35-0.78,3.13-0.54,4.9,0.49c1.77,1.02,3.55,2.83,4.9,5.17s2.03,4.78,2.03,6.83S102.53,155.2,101.17,155.99z"
		/>
	<path class="st0" d="M95.41,150c0,0.55,0.39,1.22,0.87,1.5s0.87,0.05,0.87-0.5v-6c0-0.55-0.39-1.22-0.87-1.5s-0.87-0.05-0.87,0.5
		V150z"/>
	<path class="st6" d="M103.26,143.46c-1.69-2.93-3.91-5.18-6.12-6.46c-2.22-1.28-4.43-1.58-6.12-0.61l-1.73,1l0.28,2.16
		c0.2-0.19,0.42-0.37,0.67-0.51c1.43-0.82,3.3-0.57,5.17,0.51c1.87,1.08,3.74,2.99,5.17,5.46s2.14,5.05,2.14,7.21
		s-0.71,3.91-2.14,4.74c-0.68,0.39-1.45,0.53-2.28,0.46l3.23,1.18l1.73-1c1.69-0.98,2.54-3.05,2.54-5.61
		C105.8,149.44,104.95,146.39,103.26,143.46z"/>
	<path class="st3" d="M101.53,144.46c-1.69-2.93-3.91-5.18-6.12-6.46c-2.22-1.28-4.43-1.58-6.12-0.61
		c-1.69,0.98-2.54,3.05-2.54,5.61s0.85,5.61,2.54,8.54s3.91,5.19,6.12,6.46c2.22,1.28,4.43,1.58,6.12,0.61
		c1.69-0.98,2.54-3.05,2.54-5.61S103.22,147.39,101.53,144.46z M100.31,156.49c-1.35,0.78-3.13,0.54-4.9-0.49
		c-1.77-1.02-3.55-2.83-4.9-5.17s-2.03-4.78-2.03-6.83s0.68-3.7,2.03-4.49c1.35-0.78,3.13-0.54,4.9,0.49
		c1.77,1.02,3.55,2.83,4.9,5.17s2.03,4.78,2.03,6.83S101.66,155.7,100.31,156.49z"/>
</g>
</svg>
