<?xml version="1.0" encoding="utf-8"?>
<!-- Generator: Adobe Illustrator 22.1.0, SVG Export Plug-In . SVG Version: 6.00 Build 0)  -->
<svg version="1.1" id="Warstwa_1" xmlns="http://www.w3.org/2000/svg" xmlns:xlink="http://www.w3.org/1999/xlink" x="0px" y="0px"
	 width="376px" height="324px" viewBox="0 0 376 324" style="enable-background:new 0 0 376 324;" xml:space="preserve">
<style type="text/css">
	.st0{fill:#3192E7;}
	.st1{fill:#88D3FF;}
	.st2{filter:url(#Adobe_OpacityMaskFilter);}
	.st3{fill:#FFFFFF;}
	.st4{mask:url(#SVGID_1_);}
	.st5{opacity:0.48;fill:#3192E7;}
	.st6{fill:#73C8FF;}
	.st7{opacity:0.48;}
	.st8{fill:#B4E8FE;}
	.st9{fill:#A4E0FF;}
	.st10{fill:#056CEA;}
	.st11{display:none;fill:#FFFFFF;}
	.st12{filter:url(#Adobe_OpacityMaskFilter_1_);}
	.st13{mask:url(#SVGID_2_);}
	.st14{filter:url(#Adobe_OpacityMaskFilter_2_);}
	.st15{mask:url(#SVGID_3_);}
	.st16{filter:url(#Adobe_OpacityMaskFilter_3_);}
	.st17{mask:url(#SVGID_4_);}
	.st18{filter:url(#Adobe_OpacityMaskFilter_4_);}
	.st19{mask:url(#SVGID_5_);}
</style>
<g>
	<g>
		<g>
			<path class="st0" d="M35.08,234c0,0,0,1.22,0,2c0,0.78,0.55,1.49,1.43,2l117.78,68c0.89,0.51,2.11,0.83,3.46,0.83
				c1.35,0,2.58-0.32,3.46-0.83l90.07-52v-2L35.08,234z"/>
			<path class="st1" d="M36.52,232c-0.89,0.51-1.43,1.22-1.43,2c0,0.78,0.55,1.49,1.43,2l117.78,68c0.89,0.51,2.11,0.83,3.46,0.83
				c1.35,0,2.58-0.32,3.46-0.83l90.07-52l-5.2-9l-114.31-66l-5.2,3L36.52,232z"/>
		</g>
		<defs>
			<filter id="Adobe_OpacityMaskFilter" filterUnits="userSpaceOnUse" x="82.57" y="230.59" width="82.84" height="48.83">
				<feColorMatrix  type="matrix" values="1 0 0 0 0  0 1 0 0 0  0 0 1 0 0  0 0 0 1 0"/>
			</filter>
		</defs>
		<mask maskUnits="userSpaceOnUse" x="82.57" y="230.59" width="82.84" height="48.83" id="SVGID_1_">
			<g class="st2">
				<path class="st3" d="M83.28,251c-0.44-0.26-0.72-0.61-0.72-1c0-0.39,0.27-0.74,0.72-1l31.18-18c0.44-0.26,1.06-0.41,1.73-0.41
					c0.68,0,1.29,0.16,1.73,0.41l46.77,27c0.44,0.26,0.72,0.61,0.72,1s-0.27,0.74-0.72,1l-31.18,18c-0.44,0.26-1.06,0.41-1.73,0.41
					c-0.68,0-1.29-0.16-1.73-0.41L83.28,251z"/>
			</g>
		</mask>
		<g class="st4">
			<path class="st5" d="M83.28,251c-0.44-0.26-0.72-0.61-0.72-1c0-0.39,0.27-0.74,0.72-1l31.18-18c0.44-0.26,1.06-0.41,1.73-0.41
				c0.68,0,1.29,0.16,1.73,0.41l46.77,27c0.44,0.26,0.72,0.61,0.72,1s-0.27,0.74-0.72,1l-31.18,18c-0.44,0.26-1.06,0.41-1.73,0.41
				c-0.68,0-1.29-0.16-1.73-0.41L83.28,251z"/>
			<path class="st6" d="M83.28,252c-0.44-0.26-0.72-0.61-0.72-1c0-0.39,0.27-0.74,0.72-1l31.18-18c0.44-0.26,1.06-0.41,1.73-0.41
				c0.68,0,1.29,0.16,1.73,0.41l46.77,27c0.44,0.26,0.72,0.61,0.72,1s-0.27,0.74-0.72,1l-31.18,18c-0.44,0.26-1.06,0.41-1.73,0.41
				c-0.68,0-1.29-0.16-1.73-0.41L83.28,252z"/>
		</g>
		<g class="st7">
			<path class="st0" d="M121.9,226c0,0,0,0.8,0,1c0,0.2,0.14,0.37,0.36,0.5l48.5,28c0.22,0.13,0.53,0.21,0.87,0.21
				c0.34,0,0.64-0.08,0.87-0.21l5.2-3c0.22-0.13,0.36-0.3,0.36-0.5c0-0.2,0-1,0-1L121.9,226z"/>
			<path class="st0" d="M104.58,216c0,0,0,0.8,0,1c0,0.2,0.14,0.37,0.36,0.5l5.2,3c0.22,0.13,0.53,0.21,0.87,0.21
				c0.34,0,0.64-0.08,0.87-0.21l5.2-3c0.22-0.13,0.36-0.3,0.36-0.5c0-0.2,0-1,0-1H104.58z"/>
			<path class="st0" d="M113.24,211c0,0,0,0.8,0,1c0,0.2,0.14,0.37,0.36,0.5l5.2,3c0.22,0.13,0.53,0.21,0.87,0.21
				c0.34,0,0.64-0.08,0.87-0.21l5.2-3c0.22-0.13,0.36-0.3,0.36-0.5c0-0.2,0-1,0-1H113.24z"/>
			<path class="st0" d="M121.9,216c0,0,0,0.8,0,1c0,0.2,0.14,0.37,0.36,0.5l5.2,3c0.22,0.13,0.53,0.21,0.87,0.21
				c0.34,0,0.64-0.08,0.87-0.21l5.2-3c0.22-0.13,0.36-0.3,0.36-0.5c0-0.2,0-1,0-1H121.9z"/>
			<path class="st0" d="M130.56,221c0,0,0,0.8,0,1c0,0.2,0.14,0.37,0.36,0.5l5.2,3c0.22,0.13,0.53,0.21,0.87,0.21
				c0.34,0,0.64-0.08,0.87-0.21l5.2-3c0.22-0.13,0.36-0.3,0.36-0.5c0-0.2,0-1,0-1H130.56z"/>
			<path class="st0" d="M142.68,218c0,0,0,0.8,0,1c0,0.2,0.14,0.37,0.36,0.5l5.2,3c0.22,0.13,0.53,0.21,0.87,0.21
				c0.34,0,0.64-0.08,0.87-0.21l5.2-3c0.22-0.13,0.36-0.3,0.36-0.5c0-0.2,0-1,0-1H142.68z"/>
			<path class="st0" d="M139.22,226c0,0,0,0.8,0,1c0,0.2,0.14,0.37,0.36,0.5l5.2,3c0.22,0.13,0.53,0.21,0.87,0.21
				c0.34,0,0.64-0.08,0.87-0.21l5.2-3c0.22-0.13,0.36-0.3,0.36-0.5c0-0.2,0-1,0-1H139.22z"/>
			<path class="st0" d="M147.88,231c0,0,0,0.8,0,1c0,0.2,0.14,0.37,0.36,0.5l5.2,3c0.22,0.13,0.53,0.21,0.87,0.21
				c0.34,0,0.64-0.08,0.87-0.21l5.2-3c0.22-0.13,0.36-0.3,0.36-0.5c0-0.2,0-1,0-1H147.88z"/>
			<path class="st0" d="M151.34,223c0,0,0,0.8,0,1c0,0.2,0.14,0.37,0.36,0.5l5.2,3c0.22,0.13,0.53,0.21,0.87,0.21
				c0.34,0,0.64-0.08,0.87-0.21l5.2-3c0.22-0.13,0.36-0.3,0.36-0.5c0-0.2,0-1,0-1H151.34z"/>
			<path class="st0" d="M160,228c0,0,0,0.8,0,1c0,0.2,0.14,0.37,0.36,0.5l5.2,3c0.22,0.13,0.53,0.21,0.87,0.21
				c0.34,0,0.64-0.08,0.87-0.21l5.2-3c0.22-0.13,0.36-0.3,0.36-0.5c0-0.2,0-1,0-1H160z"/>
			<path class="st0" d="M168.66,233c0,0,0,0.8,0,1c0,0.2,0.14,0.37,0.36,0.5l5.2,3c0.22,0.13,0.53,0.21,0.87,0.21
				s0.64-0.08,0.87-0.21l5.2-3c0.22-0.13,0.36-0.3,0.36-0.5c0-0.2,0-1,0-1H168.66z"/>
			<path class="st0" d="M173.86,226c0,0,0,0.8,0,1c0,0.2,0.14,0.37,0.36,0.5l5.2,3c0.22,0.13,0.53,0.21,0.87,0.21
				c0.34,0,0.64-0.08,0.87-0.21l5.2-3c0.22-0.13,0.36-0.3,0.36-0.5c0-0.2,0-1,0-1H173.86z"/>
			<path class="st0" d="M156.54,236c0,0,0,0.8,0,1c0,0.2,0.14,0.37,0.36,0.5l5.2,3c0.22,0.13,0.53,0.21,0.87,0.21
				c0.34,0,0.64-0.08,0.87-0.21l5.2-3c0.22-0.13,0.36-0.3,0.36-0.5c0-0.2,0-1,0-1H156.54z"/>
			<path class="st0" d="M165.2,241c0,0,0,0.8,0,1c0,0.2,0.14,0.37,0.36,0.5l5.2,3c0.22,0.13,0.53,0.21,0.87,0.21
				c0.34,0,0.64-0.08,0.87-0.21l5.2-3c0.22-0.13,0.36-0.3,0.36-0.5c0-0.2,0-1,0-1H165.2z"/>
			<path class="st0" d="M177.32,238c0,0,0,0.8,0,1c0,0.2,0.14,0.37,0.36,0.5l5.2,3c0.22,0.13,0.53,0.21,0.87,0.21
				c0.34,0,0.64-0.08,0.87-0.21l5.2-3c0.22-0.13,0.36-0.3,0.36-0.5c0-0.2,0-1,0-1H177.32z"/>
			<path class="st0" d="M182.52,231c0,0,0,0.8,0,1c0,0.2,0.14,0.37,0.36,0.5l5.2,3c0.22,0.13,0.53,0.21,0.87,0.21
				c0.34,0,0.64-0.08,0.87-0.21l5.2-3c0.22-0.13,0.36-0.3,0.36-0.5c0-0.2,0-1,0-1H182.52z"/>
			<path class="st0" d="M191.18,236c0,0,0,0.8,0,1c0,0.2,0.14,0.37,0.36,0.5l5.2,3c0.22,0.13,0.53,0.21,0.87,0.21
				c0.34,0,0.64-0.08,0.87-0.21l5.2-3c0.22-0.13,0.36-0.3,0.36-0.5c0-0.2,0-1,0-1H191.18z"/>
			<path class="st0" d="M185.98,243c0,0,0,0.8,0,1c0,0.2,0.14,0.37,0.36,0.5l5.2,3c0.22,0.13,0.53,0.21,0.87,0.21
				c0.34,0,0.64-0.08,0.87-0.21l5.2-3c0.22-0.13,0.36-0.3,0.36-0.5c0-0.2,0-1,0-1H185.98z"/>
			<path class="st0" d="M182.52,251c0,0,0,0.8,0,1c0,0.2,0.14,0.37,0.36,0.5l5.2,3c0.22,0.13,0.53,0.21,0.87,0.21
				c0.34,0,0.64-0.08,0.87-0.21l5.2-3c0.22-0.13,0.36-0.3,0.36-0.5c0-0.2,0-1,0-1H182.52z"/>
			<path class="st0" d="M194.64,248c0,0,0,0.8,0,1c0,0.2,0.14,0.37,0.36,0.5l5.2,3c0.22,0.13,0.53,0.21,0.87,0.21
				c0.34,0,0.64-0.08,0.87-0.21l5.2-3c0.22-0.13,0.36-0.3,0.36-0.5c0-0.2,0-1,0-1H194.64z"/>
			<path class="st0" d="M199.84,241c0,0,0,0.8,0,1c0,0.2,0.14,0.37,0.36,0.5l5.2,3c0.22,0.13,0.53,0.21,0.87,0.21
				c0.34,0,0.64-0.08,0.87-0.21l5.2-3c0.22-0.13,0.36-0.3,0.36-0.5c0-0.2,0-1,0-1H199.84z"/>
			<path class="st0" d="M208.5,246c0,0,0,0.8,0,1c0,0.2,0.14,0.37,0.36,0.5l5.2,3c0.22,0.13,0.53,0.21,0.87,0.21
				c0.34,0,0.64-0.08,0.87-0.21l5.2-3c0.22-0.13,0.36-0.3,0.36-0.5c0-0.2,0-1,0-1H208.5z"/>
			<path class="st0" d="M217.16,251c0,0,0,0.8,0,1c0,0.2,0.14,0.37,0.36,0.5l5.2,3c0.22,0.13,0.53,0.21,0.87,0.21
				c0.34,0,0.64-0.08,0.87-0.21l5.2-3c0.22-0.13,0.36-0.3,0.36-0.5c0-0.2,0-1,0-1H217.16z"/>
			<path class="st0" d="M191.18,256c0,0,0,0.8,0,1c0,0.2,0.14,0.37,0.36,0.5l5.2,3c0.22,0.13,0.53,0.21,0.87,0.21
				c0.34,0,0.64-0.08,0.87-0.21l5.2-3c0.22-0.13,0.36-0.3,0.36-0.5c0-0.2,0-1,0-1H191.18z"/>
			<path class="st0" d="M191.18,266c0,0,0,0.8,0,1c0,0.2,0.14,0.37,0.36,0.5l5.2,3c0.22,0.13,0.53,0.21,0.87,0.21
				c0.34,0,0.64-0.08,0.87-0.21l5.2-3c0.22-0.13,0.36-0.3,0.36-0.5c0-0.2,0-1,0-1H191.18z"/>
			<path class="st0" d="M173.86,256c0,0,0,0.8,0,1c0,0.2,0.14,0.37,0.36,0.5l5.2,3c0.22,0.13,0.53,0.21,0.87,0.21
				c0.34,0,0.64-0.08,0.87-0.21l5.2-3c0.22-0.13,0.36-0.3,0.36-0.5c0-0.2,0-1,0-1H173.86z"/>
			<path class="st0" d="M182.52,261c0,0,0,0.8,0,1c0,0.2,0.14,0.37,0.36,0.5l5.2,3c0.22,0.13,0.53,0.21,0.87,0.21
				c0.34,0,0.64-0.08,0.87-0.21l5.2-3c0.22-0.13,0.36-0.3,0.36-0.5c0-0.2,0-1,0-1H182.52z"/>
			<path class="st0" d="M173.86,246c0,0,0,0.8,0,1c0,0.2,0.14,0.37,0.36,0.5l5.2,3c0.22,0.13,0.53,0.21,0.87,0.21
				c0.34,0,0.64-0.08,0.87-0.21l5.2-3c0.22-0.13,0.36-0.3,0.36-0.5c0-0.2,0-1,0-1H173.86z"/>
			<path class="st0" d="M156.54,216c0,0,0,0.8,0,1c0,0.2,0.14,0.37,0.36,0.5l5.2,3c0.22,0.13,0.53,0.21,0.87,0.21
				c0.34,0,0.64-0.08,0.87-0.21l5.2-3c0.22-0.13,0.36-0.3,0.36-0.5c0-0.2,0-1,0-1H156.54z"/>
			<path class="st0" d="M165.2,221c0,0,0,0.8,0,1c0,0.2,0.14,0.37,0.36,0.5l5.2,3c0.22,0.13,0.53,0.21,0.87,0.21
				c0.34,0,0.64-0.08,0.87-0.21l5.2-3c0.22-0.13,0.36-0.3,0.36-0.5c0-0.2,0-1,0-1H165.2z"/>
			<path class="st0" d="M147.88,211c0,0,0,0.8,0,1c0,0.2,0.14,0.37,0.36,0.5l5.2,3c0.22,0.13,0.53,0.21,0.87,0.21
				c0.34,0,0.64-0.08,0.87-0.21l5.2-3c0.22-0.13,0.36-0.3,0.36-0.5c0-0.2,0-1,0-1H147.88z"/>
			<path class="st0" d="M113.24,221c0,0,0,0.8,0,1c0,0.2,0.14,0.37,0.36,0.5l5.2,3c0.22,0.13,0.53,0.21,0.87,0.21
				c0.34,0,0.64-0.08,0.87-0.21l5.2-3c0.22-0.13,0.36-0.3,0.36-0.5c0-0.2,0-1,0-1H113.24z"/>
			<path class="st0" d="M125.36,208c0,0,0,0.8,0,1c0,0.2,0.14,0.37,0.36,0.5l5.2,3c0.22,0.13,0.53,0.21,0.87,0.21
				c0.34,0,0.64-0.08,0.87-0.21l5.2-3c0.22-0.13,0.36-0.3,0.36-0.5c0-0.2,0-1,0-1H125.36z"/>
			<path class="st0" d="M130.56,201c0,0,0,0.8,0,1c0,0.2,0.14,0.37,0.36,0.5l5.2,3c0.22,0.13,0.53,0.21,0.87,0.21
				c0.34,0,0.64-0.08,0.87-0.21l5.2-3c0.22-0.13,0.36-0.3,0.36-0.5c0-0.2,0-1,0-1H130.56z"/>
			<path class="st0" d="M139.22,206c0,0,0,0.8,0,1c0,0.2,0.14,0.37,0.36,0.5l5.2,3c0.22,0.13,0.53,0.21,0.87,0.21
				c0.34,0,0.64-0.08,0.87-0.21l5.2-3c0.22-0.13,0.36-0.3,0.36-0.5c0-0.2,0-1,0-1H139.22z"/>
			<path class="st0" d="M134.02,213c0,0,0,0.8,0,1c0,0.2,0.14,0.37,0.36,0.5l5.2,3c0.22,0.13,0.53,0.21,0.87,0.21
				c0.34,0,0.64-0.08,0.87-0.21l5.2-3c0.22-0.13,0.36-0.3,0.36-0.5c0-0.2,0-1,0-1H134.02z"/>
			<path class="st0" d="M94.18,210c0,0,0,0.8,0,1c0,0.2,0.14,0.37,0.36,0.5l6.93,4c0.22,0.13,0.53,0.21,0.87,0.21
				c0.34,0,0.64-0.08,0.87-0.21l5.2-3c0.22-0.13,0.36-0.3,0.36-0.5c0-0.2,0-1,0-1L94.18,210z"/>
			<path class="st0" d="M102.84,205c0,0,0,0.8,0,1c0,0.2,0.14,0.37,0.36,0.5l6.93,4c0.22,0.13,0.53,0.21,0.87,0.21
				c0.34,0,0.64-0.08,0.87-0.21l5.2-3c0.22-0.13,0.36-0.3,0.36-0.5c0-0.2,0-1,0-1L102.84,205z"/>
			<path class="st0" d="M221.34,257c0-0.2,0-1,0-1l-18.04-3c0,0,0,0.8,0,1c0,0.2,0.14,0.37,0.36,0.5l4.33,2.5l-8.15,4c0,0,0,0.8,0,1
				c0,0.2,0.14,0.37,0.36,0.5l5.2,3c0.22,0.13,0.53,0.21,0.87,0.21c0.34,0,0.64-0.08,0.87-0.21l13.86-8
				C221.2,257.37,221.34,257.2,221.34,257z"/>
			<path class="st0" d="M111.5,200c0,0,0,0.8,0,1c0,0.2,0.14,0.37,0.36,0.5l10.39,6c0.22,0.13,0.53,0.21,0.87,0.21
				c0.34,0,0.64-0.08,0.87-0.21l5.2-3c0.22-0.13,0.36-0.3,0.36-0.5c0-0.2,0-1,0-1L111.5,200z"/>
			<path class="st0" d="M120.16,195c0,0,0,0.8,0,1c0,0.2,0.14,0.37,0.36,0.5l6.93,4c0.22,0.13,0.53,0.21,0.87,0.21
				c0.34,0,0.64-0.08,0.87-0.21l5.2-3c0.22-0.13,0.36-0.3,0.36-0.5c0-0.2,0-1,0-1L120.16,195z"/>
		</g>
		<g>
			<path class="st8" d="M191.54,265.5c-0.22,0.13-0.36,0.3-0.36,0.5c0,0.2,0.14,0.37,0.36,0.5l5.2,3c0.22,0.13,0.53,0.21,0.87,0.21
				c0.34,0,0.64-0.08,0.87-0.21l5.2-3c0.22-0.13,0.36-0.3,0.36-0.5c0-0.2-0.14-0.37-0.36-0.5l-5.2-3c-0.22-0.13-0.53-0.21-0.87-0.21
				c-0.34,0-0.64,0.08-0.87,0.21L191.54,265.5z"/>
			<path class="st8" d="M182.88,260.5c-0.22,0.13-0.36,0.3-0.36,0.5c0,0.2,0.14,0.37,0.36,0.5l5.2,3c0.22,0.13,0.53,0.21,0.87,0.21
				c0.34,0,0.64-0.08,0.87-0.21l5.2-3c0.22-0.13,0.36-0.3,0.36-0.5c0-0.2-0.14-0.37-0.36-0.5l-5.2-3c-0.22-0.13-0.53-0.21-0.87-0.21
				c-0.34,0-0.64,0.08-0.87,0.21L182.88,260.5z"/>
			<path class="st8" d="M174.22,255.5c-0.22,0.13-0.36,0.3-0.36,0.5c0,0.2,0.14,0.37,0.36,0.5l5.2,3c0.22,0.13,0.53,0.21,0.87,0.21
				c0.34,0,0.64-0.08,0.87-0.21l5.2-3c0.22-0.13,0.36-0.3,0.36-0.5c0-0.2-0.14-0.37-0.36-0.5l-5.2-3c-0.22-0.13-0.53-0.21-0.87-0.21
				c-0.34,0-0.64,0.08-0.87,0.21L174.22,255.5z"/>
			<path class="st8" d="M122.25,225.5c-0.22,0.13-0.36,0.3-0.36,0.5c0,0.2,0.14,0.37,0.36,0.5l48.5,28
				c0.22,0.13,0.53,0.21,0.87,0.21c0.34,0,0.64-0.08,0.87-0.21l5.2-3c0.22-0.13,0.36-0.3,0.36-0.5c0-0.2-0.14-0.37-0.36-0.5
				l-48.5-28c-0.22-0.13-0.53-0.21-0.87-0.21c-0.34,0-0.64,0.08-0.87,0.21L122.25,225.5z"/>
			<path class="st8" d="M113.59,220.5c-0.22,0.13-0.36,0.3-0.36,0.5c0,0.2,0.14,0.37,0.36,0.5l5.2,3c0.22,0.13,0.53,0.21,0.87,0.21
				c0.34,0,0.64-0.08,0.87-0.21l5.2-3c0.22-0.13,0.36-0.3,0.36-0.5c0-0.2-0.14-0.37-0.36-0.5l-5.2-3c-0.22-0.13-0.53-0.21-0.87-0.21
				c-0.34,0-0.64,0.08-0.87,0.21L113.59,220.5z"/>
			<path class="st8" d="M104.93,215.5c-0.22,0.13-0.36,0.3-0.36,0.5c0,0.2,0.14,0.37,0.36,0.5l5.2,3c0.22,0.13,0.53,0.21,0.87,0.21
				c0.34,0,0.64-0.08,0.87-0.21l5.2-3c0.22-0.13,0.36-0.3,0.36-0.5c0-0.2-0.14-0.37-0.36-0.5l-5.2-3c-0.22-0.13-0.53-0.21-0.87-0.21
				c-0.34,0-0.64,0.08-0.87,0.21L104.93,215.5z"/>
			<path class="st8" d="M94.54,209.5c-0.22,0.13-0.36,0.3-0.36,0.5c0,0.2,0.14,0.37,0.36,0.5l6.93,4c0.22,0.13,0.53,0.21,0.87,0.21
				c0.34,0,0.64-0.08,0.87-0.21l5.2-3c0.22-0.13,0.36-0.3,0.36-0.5c0-0.2-0.14-0.37-0.36-0.5l-6.93-4
				c-0.22-0.13-0.53-0.21-0.87-0.21c-0.34,0-0.64,0.08-0.87,0.21L94.54,209.5z"/>
			<path class="st8" d="M191.54,255.5c-0.22,0.13-0.36,0.3-0.36,0.5c0,0.2,0.14,0.37,0.36,0.5l5.2,3c0.22,0.13,0.53,0.21,0.87,0.21
				c0.34,0,0.64-0.08,0.87-0.21l5.2-3c0.22-0.13,0.36-0.3,0.36-0.5c0-0.2-0.14-0.37-0.36-0.5l-5.2-3c-0.22-0.13-0.53-0.21-0.87-0.21
				c-0.34,0-0.64,0.08-0.87,0.21L191.54,255.5z"/>
			<path class="st8" d="M182.88,250.5c-0.22,0.13-0.36,0.3-0.36,0.5c0,0.2,0.14,0.37,0.36,0.5l5.2,3c0.22,0.13,0.53,0.21,0.87,0.21
				c0.34,0,0.64-0.08,0.87-0.21l5.2-3c0.22-0.13,0.36-0.3,0.36-0.5c0-0.2-0.14-0.37-0.36-0.5l-5.2-3c-0.22-0.13-0.53-0.21-0.87-0.21
				c-0.34,0-0.64,0.08-0.87,0.21L182.88,250.5z"/>
			<path class="st8" d="M174.22,245.5c-0.22,0.13-0.36,0.3-0.36,0.5c0,0.2,0.14,0.37,0.36,0.5l5.2,3c0.22,0.13,0.53,0.21,0.87,0.21
				c0.34,0,0.64-0.08,0.87-0.21l5.2-3c0.22-0.13,0.36-0.3,0.36-0.5c0-0.2-0.14-0.37-0.36-0.5l-5.2-3c-0.22-0.13-0.53-0.21-0.87-0.21
				c-0.34,0-0.64,0.08-0.87,0.21L174.22,245.5z"/>
			<path class="st8" d="M165.56,240.5c-0.22,0.13-0.36,0.3-0.36,0.5c0,0.2,0.14,0.37,0.36,0.5l5.2,3c0.22,0.13,0.53,0.21,0.87,0.21
				c0.34,0,0.64-0.08,0.87-0.21l5.2-3c0.22-0.13,0.36-0.3,0.36-0.5c0-0.2-0.14-0.37-0.36-0.5l-5.2-3c-0.22-0.13-0.53-0.21-0.87-0.21
				c-0.34,0-0.64,0.08-0.87,0.21L165.56,240.5z"/>
			<path class="st8" d="M156.9,235.5c-0.22,0.13-0.36,0.3-0.36,0.5c0,0.2,0.14,0.37,0.36,0.5l5.2,3c0.22,0.13,0.53,0.21,0.87,0.21
				c0.34,0,0.64-0.08,0.87-0.21l5.2-3c0.22-0.13,0.36-0.3,0.36-0.5c0-0.2-0.14-0.37-0.36-0.5l-5.2-3c-0.22-0.13-0.53-0.21-0.87-0.21
				c-0.34,0-0.64,0.08-0.87,0.21L156.9,235.5z"/>
			<path class="st8" d="M148.24,230.5c-0.22,0.13-0.36,0.3-0.36,0.5c0,0.2,0.14,0.37,0.36,0.5l5.2,3c0.22,0.13,0.53,0.21,0.87,0.21
				c0.34,0,0.64-0.08,0.87-0.21l5.2-3c0.22-0.13,0.36-0.3,0.36-0.5c0-0.2-0.14-0.37-0.36-0.5l-5.2-3c-0.22-0.13-0.53-0.21-0.87-0.21
				c-0.34,0-0.64,0.08-0.87,0.21L148.24,230.5z"/>
			<path class="st8" d="M139.58,225.5c-0.22,0.13-0.36,0.3-0.36,0.5c0,0.2,0.14,0.37,0.36,0.5l5.2,3c0.22,0.13,0.53,0.21,0.87,0.21
				c0.34,0,0.64-0.08,0.87-0.21l5.2-3c0.22-0.13,0.36-0.3,0.36-0.5c0-0.2-0.14-0.37-0.36-0.5l-5.2-3c-0.22-0.13-0.53-0.21-0.87-0.21
				c-0.34,0-0.64,0.08-0.87,0.21L139.58,225.5z"/>
			<path class="st8" d="M130.91,220.5c-0.22,0.13-0.36,0.3-0.36,0.5c0,0.2,0.14,0.37,0.36,0.5l5.2,3c0.22,0.13,0.53,0.21,0.87,0.21
				c0.34,0,0.64-0.08,0.87-0.21l5.2-3c0.22-0.13,0.36-0.3,0.36-0.5c0-0.2-0.14-0.37-0.36-0.5l-5.2-3c-0.22-0.13-0.53-0.21-0.87-0.21
				c-0.34,0-0.64,0.08-0.87,0.21L130.91,220.5z"/>
			<path class="st8" d="M122.25,215.5c-0.22,0.13-0.36,0.3-0.36,0.5c0,0.2,0.14,0.37,0.36,0.5l5.2,3c0.22,0.13,0.53,0.21,0.87,0.21
				c0.34,0,0.64-0.08,0.87-0.21l5.2-3c0.22-0.13,0.36-0.3,0.36-0.5c0-0.2-0.14-0.37-0.36-0.5l-5.2-3c-0.22-0.13-0.53-0.21-0.87-0.21
				c-0.34,0-0.64,0.08-0.87,0.21L122.25,215.5z"/>
			<path class="st8" d="M113.59,210.5c-0.22,0.13-0.36,0.3-0.36,0.5c0,0.2,0.14,0.37,0.36,0.5l5.2,3c0.22,0.13,0.53,0.21,0.87,0.21
				c0.34,0,0.64-0.08,0.87-0.21l5.2-3c0.22-0.13,0.36-0.3,0.36-0.5c0-0.2-0.14-0.37-0.36-0.5l-5.2-3c-0.22-0.13-0.53-0.21-0.87-0.21
				c-0.34,0-0.64,0.08-0.87,0.21L113.59,210.5z"/>
			<path class="st8" d="M103.2,204.5c-0.22,0.13-0.36,0.3-0.36,0.5c0,0.2,0.14,0.37,0.36,0.5l6.93,4c0.22,0.13,0.53,0.21,0.87,0.21
				c0.34,0,0.64-0.08,0.87-0.21l5.2-3c0.22-0.13,0.36-0.3,0.36-0.5c0-0.2-0.14-0.37-0.36-0.5l-6.93-4
				c-0.22-0.13-0.53-0.21-0.87-0.21c-0.34,0-0.64,0.08-0.87,0.21L103.2,204.5z"/>
			<path class="st8" d="M195,247.5c-0.22,0.13-0.36,0.3-0.36,0.5c0,0.2,0.14,0.37,0.36,0.5l5.2,3c0.22,0.13,0.53,0.21,0.87,0.21
				c0.34,0,0.64-0.08,0.87-0.21l5.2-3c0.22-0.13,0.36-0.3,0.36-0.5c0-0.2-0.14-0.37-0.36-0.5l-5.2-3c-0.22-0.13-0.53-0.21-0.87-0.21
				c-0.34,0-0.64,0.08-0.87,0.21L195,247.5z"/>
			<path class="st8" d="M221.34,256c0-0.2-0.14-0.37-0.36-0.5l-10.39-6c-0.22-0.13-0.53-0.21-0.87-0.21c-0.34,0-0.64,0.08-0.87,0.21
				l-5.2,3c-0.22,0.13-0.36,0.3-0.36,0.5c0,0.2,0.14,0.37,0.36,0.5l4.33,2.5l-7.79,4.5c-0.22,0.13-0.36,0.3-0.36,0.5
				c0,0.2,0.14,0.37,0.36,0.5l5.2,3c0.22,0.13,0.53,0.21,0.87,0.21c0.34,0,0.64-0.08,0.87-0.21l13.86-8
				C221.2,256.37,221.34,256.2,221.34,256z"/>
			<path class="st8" d="M186.34,242.5c-0.22,0.13-0.36,0.3-0.36,0.5c0,0.2,0.14,0.37,0.36,0.5l5.2,3c0.22,0.13,0.53,0.21,0.87,0.21
				c0.34,0,0.64-0.08,0.87-0.21l5.2-3c0.22-0.13,0.36-0.3,0.36-0.5c0-0.2-0.14-0.37-0.36-0.5l-5.2-3c-0.22-0.13-0.53-0.21-0.87-0.21
				c-0.34,0-0.64,0.08-0.87,0.21L186.34,242.5z"/>
			<path class="st8" d="M177.68,237.5c-0.22,0.13-0.36,0.3-0.36,0.5c0,0.2,0.14,0.37,0.36,0.5l5.2,3c0.22,0.13,0.53,0.21,0.87,0.21
				c0.34,0,0.64-0.08,0.87-0.21l5.2-3c0.22-0.13,0.36-0.3,0.36-0.5c0-0.2-0.14-0.37-0.36-0.5l-5.2-3c-0.22-0.13-0.53-0.21-0.87-0.21
				c-0.34,0-0.64,0.08-0.87,0.21L177.68,237.5z"/>
			<path class="st8" d="M169.02,232.5c-0.22,0.13-0.36,0.3-0.36,0.5c0,0.2,0.14,0.37,0.36,0.5l5.2,3c0.22,0.13,0.53,0.21,0.87,0.21
				s0.64-0.08,0.87-0.21l5.2-3c0.22-0.13,0.36-0.3,0.36-0.5c0-0.2-0.14-0.37-0.36-0.5l-5.2-3c-0.22-0.13-0.53-0.21-0.87-0.21
				s-0.64,0.08-0.87,0.21L169.02,232.5z"/>
			<path class="st8" d="M160.36,227.5c-0.22,0.13-0.36,0.3-0.36,0.5c0,0.2,0.14,0.37,0.36,0.5l5.2,3c0.22,0.13,0.53,0.21,0.87,0.21
				c0.34,0,0.64-0.08,0.87-0.21l5.2-3c0.22-0.13,0.36-0.3,0.36-0.5c0-0.2-0.14-0.37-0.36-0.5l-5.2-3c-0.22-0.13-0.53-0.21-0.87-0.21
				c-0.34,0-0.64,0.08-0.87,0.21L160.36,227.5z"/>
			<path class="st8" d="M151.7,222.5c-0.22,0.13-0.36,0.3-0.36,0.5c0,0.2,0.14,0.37,0.36,0.5l5.2,3c0.22,0.13,0.53,0.21,0.87,0.21
				c0.34,0,0.64-0.08,0.87-0.21l5.2-3c0.22-0.13,0.36-0.3,0.36-0.5c0-0.2-0.14-0.37-0.36-0.5l-5.2-3c-0.22-0.13-0.53-0.21-0.87-0.21
				c-0.34,0-0.64,0.08-0.87,0.21L151.7,222.5z"/>
			<path class="st8" d="M143.04,217.5c-0.22,0.13-0.36,0.3-0.36,0.5c0,0.2,0.14,0.37,0.36,0.5l5.2,3c0.22,0.13,0.53,0.21,0.87,0.21
				c0.34,0,0.64-0.08,0.87-0.21l5.2-3c0.22-0.13,0.36-0.3,0.36-0.5c0-0.2-0.14-0.37-0.36-0.5l-5.2-3c-0.22-0.13-0.53-0.21-0.87-0.21
				c-0.34,0-0.64,0.08-0.87,0.21L143.04,217.5z"/>
			<path class="st8" d="M134.38,212.5c-0.22,0.13-0.36,0.3-0.36,0.5c0,0.2,0.14,0.37,0.36,0.5l5.2,3c0.22,0.13,0.53,0.21,0.87,0.21
				c0.34,0,0.64-0.08,0.87-0.21l5.2-3c0.22-0.13,0.36-0.3,0.36-0.5c0-0.2-0.14-0.37-0.36-0.5l-5.2-3c-0.22-0.13-0.53-0.21-0.87-0.21
				c-0.34,0-0.64,0.08-0.87,0.21L134.38,212.5z"/>
			<path class="st8" d="M125.72,207.5c-0.22,0.13-0.36,0.3-0.36,0.5c0,0.2,0.14,0.37,0.36,0.5l5.2,3c0.22,0.13,0.53,0.21,0.87,0.21
				c0.34,0,0.64-0.08,0.87-0.21l5.2-3c0.22-0.13,0.36-0.3,0.36-0.5c0-0.2-0.14-0.37-0.36-0.5l-5.2-3c-0.22-0.13-0.53-0.21-0.87-0.21
				c-0.34,0-0.64,0.08-0.87,0.21L125.72,207.5z"/>
			<path class="st8" d="M111.86,199.5c-0.22,0.13-0.36,0.3-0.36,0.5c0,0.2,0.14,0.37,0.36,0.5l10.39,6
				c0.22,0.13,0.53,0.21,0.87,0.21c0.34,0,0.64-0.08,0.87-0.21l5.2-3c0.22-0.13,0.36-0.3,0.36-0.5c0-0.2-0.14-0.37-0.36-0.5
				l-10.39-6c-0.22-0.13-0.53-0.21-0.87-0.21c-0.34,0-0.64,0.08-0.87,0.21L111.86,199.5z"/>
			<path class="st8" d="M217.52,250.5c-0.22,0.13-0.36,0.3-0.36,0.5c0,0.2,0.14,0.37,0.36,0.5l5.2,3c0.22,0.13,0.53,0.21,0.87,0.21
				c0.34,0,0.64-0.08,0.87-0.21l5.2-3c0.22-0.13,0.36-0.3,0.36-0.5c0-0.2-0.14-0.37-0.36-0.5l-5.2-3c-0.22-0.13-0.53-0.21-0.87-0.21
				c-0.34,0-0.64,0.08-0.87,0.21L217.52,250.5z"/>
			<path class="st8" d="M208.86,245.5c-0.22,0.13-0.36,0.3-0.36,0.5c0,0.2,0.14,0.37,0.36,0.5l5.2,3c0.22,0.13,0.53,0.21,0.87,0.21
				c0.34,0,0.64-0.08,0.87-0.21l5.2-3c0.22-0.13,0.36-0.3,0.36-0.5c0-0.2-0.14-0.37-0.36-0.5l-5.2-3c-0.22-0.13-0.53-0.21-0.87-0.21
				c-0.34,0-0.64,0.08-0.87,0.21L208.86,245.5z"/>
			<path class="st8" d="M200.2,240.5c-0.22,0.13-0.36,0.3-0.36,0.5c0,0.2,0.14,0.37,0.36,0.5l5.2,3c0.22,0.13,0.53,0.21,0.87,0.21
				c0.34,0,0.64-0.08,0.87-0.21l5.2-3c0.22-0.13,0.36-0.3,0.36-0.5c0-0.2-0.14-0.37-0.36-0.5l-5.2-3c-0.22-0.13-0.53-0.21-0.87-0.21
				c-0.34,0-0.64,0.08-0.87,0.21L200.2,240.5z"/>
			<path class="st8" d="M191.54,235.5c-0.22,0.13-0.36,0.3-0.36,0.5c0,0.2,0.14,0.37,0.36,0.5l5.2,3c0.22,0.13,0.53,0.21,0.87,0.21
				c0.34,0,0.64-0.08,0.87-0.21l5.2-3c0.22-0.13,0.36-0.3,0.36-0.5c0-0.2-0.14-0.37-0.36-0.5l-5.2-3c-0.22-0.13-0.53-0.21-0.87-0.21
				c-0.34,0-0.64,0.08-0.87,0.21L191.54,235.5z"/>
			<path class="st8" d="M182.88,230.5c-0.22,0.13-0.36,0.3-0.36,0.5c0,0.2,0.14,0.37,0.36,0.5l5.2,3c0.22,0.13,0.53,0.21,0.87,0.21
				c0.34,0,0.64-0.08,0.87-0.21l5.2-3c0.22-0.13,0.36-0.3,0.36-0.5c0-0.2-0.14-0.37-0.36-0.5l-5.2-3c-0.22-0.13-0.53-0.21-0.87-0.21
				c-0.34,0-0.64,0.08-0.87,0.21L182.88,230.5z"/>
			<path class="st8" d="M174.22,225.5c-0.22,0.13-0.36,0.3-0.36,0.5c0,0.2,0.14,0.37,0.36,0.5l5.2,3c0.22,0.13,0.53,0.21,0.87,0.21
				c0.34,0,0.64-0.08,0.87-0.21l5.2-3c0.22-0.13,0.36-0.3,0.36-0.5c0-0.2-0.14-0.37-0.36-0.5l-5.2-3c-0.22-0.13-0.53-0.21-0.87-0.21
				c-0.34,0-0.64,0.08-0.87,0.21L174.22,225.5z"/>
			<path class="st8" d="M165.56,220.5c-0.22,0.13-0.36,0.3-0.36,0.5c0,0.2,0.14,0.37,0.36,0.5l5.2,3c0.22,0.13,0.53,0.21,0.87,0.21
				c0.34,0,0.64-0.08,0.87-0.21l5.2-3c0.22-0.13,0.36-0.3,0.36-0.5c0-0.2-0.14-0.37-0.36-0.5l-5.2-3c-0.22-0.13-0.53-0.21-0.87-0.21
				c-0.34,0-0.64,0.08-0.87,0.21L165.56,220.5z"/>
			<path class="st8" d="M156.9,215.5c-0.22,0.13-0.36,0.3-0.36,0.5c0,0.2,0.14,0.37,0.36,0.5l5.2,3c0.22,0.13,0.53,0.21,0.87,0.21
				c0.34,0,0.64-0.08,0.87-0.21l5.2-3c0.22-0.13,0.36-0.3,0.36-0.5c0-0.2-0.14-0.37-0.36-0.5l-5.2-3c-0.22-0.13-0.53-0.21-0.87-0.21
				c-0.34,0-0.64,0.08-0.87,0.21L156.9,215.5z"/>
			<path class="st8" d="M148.24,210.5c-0.22,0.13-0.36,0.3-0.36,0.5c0,0.2,0.14,0.37,0.36,0.5l5.2,3c0.22,0.13,0.53,0.21,0.87,0.21
				c0.34,0,0.64-0.08,0.87-0.21l5.2-3c0.22-0.13,0.36-0.3,0.36-0.5c0-0.2-0.14-0.37-0.36-0.5l-5.2-3c-0.22-0.13-0.53-0.21-0.87-0.21
				c-0.34,0-0.64,0.08-0.87,0.21L148.24,210.5z"/>
			<path class="st8" d="M139.58,205.5c-0.22,0.13-0.36,0.3-0.36,0.5c0,0.2,0.14,0.37,0.36,0.5l5.2,3c0.22,0.13,0.53,0.21,0.87,0.21
				c0.34,0,0.64-0.08,0.87-0.21l5.2-3c0.22-0.13,0.36-0.3,0.36-0.5c0-0.2-0.14-0.37-0.36-0.5l-5.2-3c-0.22-0.13-0.53-0.21-0.87-0.21
				c-0.34,0-0.64,0.08-0.87,0.21L139.58,205.5z"/>
			<path class="st8" d="M130.91,200.5c-0.22,0.13-0.36,0.3-0.36,0.5c0,0.2,0.14,0.37,0.36,0.5l5.2,3c0.22,0.13,0.53,0.21,0.87,0.21
				c0.34,0,0.64-0.08,0.87-0.21l5.2-3c0.22-0.13,0.36-0.3,0.36-0.5c0-0.2-0.14-0.37-0.36-0.5l-5.2-3c-0.22-0.13-0.53-0.21-0.87-0.21
				c-0.34,0-0.64,0.08-0.87,0.21L130.91,200.5z"/>
			<path class="st8" d="M120.52,194.5c-0.22,0.13-0.36,0.3-0.36,0.5c0,0.2,0.14,0.37,0.36,0.5l6.93,4c0.22,0.13,0.53,0.21,0.87,0.21
				c0.34,0,0.64-0.08,0.87-0.21l5.2-3c0.22-0.13,0.36-0.3,0.36-0.5c0-0.2-0.14-0.37-0.36-0.5l-6.93-4
				c-0.22-0.13-0.53-0.21-0.87-0.21c-0.34,0-0.64,0.08-0.87,0.21L120.52,194.5z"/>
		</g>
	</g>
	<g>
		<path class="st0" d="M127.6,73.76c0,0,1.06-0.61,1.73-1c0.68-0.39,1.56-0.27,2.45,0.24l117.78,68c0.89,0.51,1.77,1.41,2.45,2.59
			c0.68,1.17,1.01,2.39,1.01,3.41v104l-1.73,1L127.6,73.76z"/>
		<path class="st9" d="M126.58,76c0-1.02,0.34-1.85,1.01-2.24c0.68-0.39,1.56-0.27,2.45,0.24l117.78,68
			c0.89,0.51,1.77,1.41,2.45,2.59c0.68,1.17,1.01,2.39,1.01,3.41v104l-124.71-72V76z"/>
		<polygon class="st10" points="246.1,243 131.78,177 131.78,81 246.1,147 		"/>
		<path class="st11" d="M207.67,188.95c2.92-2.82,4.65-7.41,4.65-13.45c0-14.89-10.49-33.06-23.38-40.5
			c-12.89-7.44-23.38-1.39-23.38,13.5c0,6.04,1.73,12.63,4.65,18.82c0.04,0.1,0.09,0.19,0.14,0.29c4.28,8.94,11.02,17.02,18.6,21.4
			c7.58,4.37,14.32,4.08,18.6,0.08C207.59,189.04,207.63,189,207.67,188.95z M204.96,181.17l-7.29-14.73l6.94-6.01
			c1.59,4.04,2.52,8.19,2.52,12.06C207.12,176.09,206.34,179.01,204.96,181.17z M188.94,141c5.39,3.11,10.22,8.63,13.55,14.87
			l-12.87,11.15c-0.33,0.29-1.02-0.11-1.35-0.78l-12.87-26.01C178.72,137.83,183.55,137.89,188.94,141z M173.27,142.34l6.94,14.02
			l-7.29,6.31c-1.38-3.75-2.17-7.59-2.17-11.17C170.75,147.63,171.68,144.54,173.27,142.34z M188.94,183
			c-5.62-3.25-10.65-9.11-13.99-15.68l7.48-6.48l3.13,6.33c0.83,1.67,2.06,3.06,3.38,3.83c1.32,0.76,2.55,0.79,3.38,0.08l3.13-2.71
			l7.48,15.11C199.59,186.19,194.56,186.25,188.94,183z"/>
		<path class="st3" d="M188.94,133c-13.85-8-25.11-1.49-25.11,14.5s11.27,35.5,25.11,43.5s25.11,1.49,25.11-14.5
			S202.79,141,188.94,133z M206.58,182.85l-7.8-15.76l7.46-6.46c1.66,4.32,2.61,8.75,2.61,12.88
			C208.86,177.35,208.03,180.5,206.58,182.85z M202.99,153.83L188.94,166l-14.05-28.4c3.6-2.07,8.57-1.77,14.05,1.4
			S199.39,147.6,202.99,153.83z M171.63,140.64l7.46,15.08l-7.8,6.76c-1.45-4.03-2.28-8.13-2.28-11.98
			C169.02,146.37,169.97,143.04,171.63,140.64z M188.94,185c-5.71-3.3-10.87-9.07-14.5-15.64l7.99-6.92l2.46,4.96
			c0.99,2,2.47,3.68,4.06,4.59s3.06,0.95,4.06,0.09l2.46-2.13l7.99,16.15C199.81,188.48,194.65,188.3,188.94,185z"/>
	</g>
</g>
<g>
	<defs>
		<filter id="Adobe_OpacityMaskFilter_1_" filterUnits="userSpaceOnUse" x="1.88" y="0" width="114.32" height="174">
			<feColorMatrix  type="matrix" values="1 0 0 0 0  0 1 0 0 0  0 0 1 0 0  0 0 0 1 0"/>
		</filter>
	</defs>
	<mask maskUnits="userSpaceOnUse" x="1.88" y="0" width="114.32" height="174" id="SVGID_2_">
		<g class="st12">
			<path class="st3" d="M115.68,66.29c-0.34-0.59-0.78-1.04-1.22-1.29L3.61,1C3.17,0.74,2.72,0.68,2.38,0.88
				C2.05,1.07,1.88,1.49,1.88,2v104c0,0.51,0.17,1.12,0.51,1.71c0.34,0.59,0.78,1.04,1.22,1.29l110.85,64
				c0.44,0.26,0.89,0.32,1.22,0.12c0.34-0.2,0.51-0.61,0.51-1.12V68C116.19,67.49,116.02,66.88,115.68,66.29z"/>
		</g>
	</mask>
	<g class="st13">
		<path class="st3" d="M1.88,11v97l114.32,66V77L1.88,11z"/>
		<g>
			<polygon class="st10" points="116.19,78 1.88,12 1.88,0 116.19,66 			"/>
		</g>
		<path class="st3" d="M8.81,10c0,1.1-0.78,1.55-1.73,1c-0.96-0.55-1.73-1.9-1.73-3s0.78-1.55,1.73-1C8.03,7.55,8.81,8.9,8.81,10z"
			/>
		<path class="st3" d="M15.73,14c0,1.1-0.78,1.55-1.73,1c-0.96-0.55-1.73-1.9-1.73-3s0.78-1.55,1.73-1
			C14.96,11.55,15.73,12.9,15.73,14z"/>
		<path class="st3" d="M22.66,18c0,1.1-0.78,1.55-1.73,1c-0.96-0.55-1.73-1.9-1.73-3s0.78-1.55,1.73-1
			C21.89,15.55,22.66,16.9,22.66,18z"/>
	</g>
	<g>
		<g>
			<path class="st9" d="M55.57,66c0,0.55-0.39,0.78-0.87,0.5l-8.66-5c-0.48-0.28-0.87-0.95-0.87-1.5V50c0-0.55,0.39-0.78,0.87-0.5
				l8.66,5c0.48,0.28,0.87,0.95,0.87,1.5V66z"/>
			<path class="st9" d="M105.8,155c0,0.55-0.39,0.78-0.87,0.5l-58.89-34c-0.48-0.28-0.87-0.95-0.87-1.5v-18
				c0-0.55,0.39-0.78,0.87-0.5l58.89,34c0.48,0.28,0.87,0.95,0.87,1.5V155z"/>
			<path class="st9" d="M39.98,57c0,0.55-0.39,0.78-0.87,0.5l-25.98-15c-0.48-0.28-0.87-0.95-0.87-1.5V31c0-0.55,0.39-0.78,0.87-0.5
				l25.98,15c0.48,0.28,0.87,0.95,0.87,1.5V57z"/>
			<path class="st9" d="M72.03,88.5c0.48,0.28,0.87,0.05,0.87-0.5s-0.39-1.22-0.87-1.5l-25.98-15c-0.48-0.28-0.87-0.05-0.87,0.5
				s0.39,1.22,0.87,1.5L72.03,88.5z"/>
			<path class="st9" d="M72.03,112.5c0.48,0.28,0.87,0.05,0.87-0.5c0-0.55-0.39-1.22-0.87-1.5l-25.98-15
				c-0.48-0.28-0.87-0.05-0.87,0.5c0,0.55,0.39,1.22,0.87,1.5L72.03,112.5z"/>
			<path class="st9" d="M104.93,101.5c0.48,0.28,0.87,0.05,0.87-0.5s-0.39-1.22-0.87-1.5l-58.89-34c-0.48-0.28-0.87-0.05-0.87,0.5
				s0.39,1.22,0.87,1.5L104.93,101.5z"/>
			<path class="st3" d="M52.11,57c0,1.1-0.78,1.55-1.73,1c-0.96-0.55-1.73-1.9-1.73-3c0-1.1,0.78-1.55,1.73-1
				C51.33,54.55,52.11,55.9,52.11,57z"/>
			<path class="st3" d="M47.78,60.5c0-1.1,0.78-1.55,1.73-1c0.32,0.18,1.41,0.82,1.73,1c0.96,0.55,1.73,1.9,1.73,3v3l-5.2-3V60.5z"
				/>
			<path class="st9" d="M20.93,65c0.48,0.28,0.87,0.05,0.87-0.5c0-0.55-0.39-1.22-0.87-1.5l-7.79-4.5c-0.48-0.28-0.87-0.05-0.87,0.5
				s0.39,1.22,0.87,1.5L20.93,65z"/>
			<path class="st9" d="M25.26,73.5c0.48,0.28,0.87,0.05,0.87-0.5s-0.39-1.22-0.87-1.5l-12.12-7c-0.48-0.28-0.87-0.05-0.87,0.5
				s0.39,1.22,0.87,1.5L25.26,73.5z"/>
			<path class="st9" d="M33.92,84.5c0.48,0.28,0.87,0.05,0.87-0.5c0-0.55-0.39-1.22-0.87-1.5l-20.78-12
				c-0.48-0.28-0.87-0.05-0.87,0.5s0.39,1.22,0.87,1.5L33.92,84.5z"/>
			<path class="st9" d="M29.59,88c0.48,0.28,0.87,0.05,0.87-0.5c0-0.55-0.39-1.22-0.87-1.5l-16.45-9.5
				c-0.48-0.28-0.87-0.05-0.87,0.5c0,0.55,0.39,1.22,0.87,1.5L29.59,88z"/>
			<path class="st9" d="M20.93,59c0.48,0.28,0.87,0.05,0.87-0.5c0-0.55-0.39-1.22-0.87-1.5l-7.79-4.5c-0.48-0.28-0.87-0.05-0.87,0.5
				c0,0.55,0.39,1.22,0.87,1.5L20.93,59z"/>
			<path class="st9" d="M29.59,58c0.48,0.28,0.87,0.05,0.87-0.5c0-0.55-0.39-1.22-0.87-1.5l-16.45-9.5
				c-0.48-0.28-0.87-0.05-0.87,0.5c0,0.55,0.39,1.22,0.87,1.5L29.59,58z"/>
		</g>
	</g>
</g>
<g>
	<defs>
		<filter id="Adobe_OpacityMaskFilter_2_" filterUnits="userSpaceOnUse" x="324.04" y="234.36" width="51.96" height="89.64">
			<feColorMatrix  type="matrix" values="1 0 0 0 0  0 1 0 0 0  0 0 1 0 0  0 0 0 1 0"/>
		</filter>
	</defs>
	<mask maskUnits="userSpaceOnUse" x="324.04" y="234.36" width="51.96" height="89.64" id="SVGID_3_">
		<g class="st14">
			<path class="st3" d="M324.04,219v73c0,0.51,0.17,1.12,0.51,1.71c0.34,0.59,0.78,1.04,1.22,1.29l48.5,28
				c0.44,0.26,0.89,0.32,1.22,0.12c0.34-0.2,0.51-0.61,0.51-1.12v-73L324.04,219z"/>
		</g>
	</mask>
	<g class="st15">
		<path class="st10" d="M375.35,272.06c0.4,0.59,0.65,1.31,0.65,1.94c0,1.11,0,50,0,50l-51.96-30c0,0,0-48.89,0-50
			c0-0.63,0.25-1.05,0.65-1.19l24.25-8.4c0.3-0.1,0.67-0.05,1.08,0.19c0.41,0.24,0.79,0.62,1.08,1.06L375.35,272.06z"/>
		<path class="st3" d="M372.28,274.15c-0.17-0.29-0.39-0.52-0.61-0.65l-43.3-25c-0.22-0.13-0.44-0.16-0.61-0.06
			c-0.17,0.1-0.25,0.3-0.25,0.56v42c0,0.26,0.08,0.56,0.25,0.85c0.17,0.29,0.39,0.52,0.61,0.65l43.3,25
			c0.22,0.13,0.44,0.16,0.61,0.06c0.17-0.1,0.25-0.3,0.25-0.56v-42C372.54,274.74,372.45,274.44,372.28,274.15z"/>
		<polygon class="st6" points="324.04,294 376,324 376,276 		"/>
		<polygon class="st5" points="351.95,284.33 376,324 346.24,286.31 		"/>
		<polygon class="st1" points="376,324 324.04,294 324.04,246 		"/>
	</g>
	<defs>
		<filter id="Adobe_OpacityMaskFilter_3_" filterUnits="userSpaceOnUse" x="261.68" y="210" width="51.96" height="78">
			<feColorMatrix  type="matrix" values="1 0 0 0 0  0 1 0 0 0  0 0 1 0 0  0 0 0 1 0"/>
		</filter>
	</defs>
	<mask maskUnits="userSpaceOnUse" x="261.68" y="210" width="51.96" height="78" id="SVGID_4_">
		<g class="st16">
			<path class="st3" d="M313.14,240.29c-0.34-0.59-0.78-1.04-1.22-1.29l-48.5-28c-0.44-0.26-0.89-0.32-1.23-0.12
				c-0.34,0.2-0.51,0.61-0.51,1.12v44c0,0.51,0.17,1.12,0.51,1.71c0.34,0.59,0.78,1.04,1.23,1.29l48.5,28
				c0.44,0.26,0.89,0.32,1.22,0.12c0.34-0.2,0.51-0.61,0.51-1.12v-44C313.65,241.49,313.48,240.88,313.14,240.29z"/>
		</g>
	</mask>
	<g class="st17">
		<polygon class="st6" points="313.65,288 261.68,258 261.68,210 313.65,240 		"/>
		<polygon class="st5" points="289.6,248.33 313.65,288 283.89,250.31 		"/>
		<polygon class="st1" points="313.65,288 261.68,258 261.68,210 		"/>
		<path class="st9" d="M313,243.19c0.4-0.14,0.65-0.55,0.65-1.19c0-1.1,0-2,0-2l-51.96-30c0,0,0,0.9,0,2c0,0.63,0.25,1.34,0.65,1.94
			l24.25,36.4c0.3,0.45,0.67,0.83,1.08,1.06c0.41,0.24,0.79,0.29,1.08,0.19L313,243.19z"/>
	</g>
	<defs>
		<filter id="Adobe_OpacityMaskFilter_4_" filterUnits="userSpaceOnUse" x="261.68" y="150" width="51.96" height="78">
			<feColorMatrix  type="matrix" values="1 0 0 0 0  0 1 0 0 0  0 0 1 0 0  0 0 0 1 0"/>
		</filter>
	</defs>
	<mask maskUnits="userSpaceOnUse" x="261.68" y="150" width="51.96" height="78" id="SVGID_5_">
		<g class="st18">
			<path class="st3" d="M313.14,180.29c-0.34-0.59-0.78-1.04-1.22-1.29l-48.5-28c-0.44-0.26-0.89-0.32-1.23-0.12
				c-0.34,0.2-0.51,0.61-0.51,1.12v44c0,0.51,0.17,1.12,0.51,1.71c0.34,0.59,0.78,1.04,1.23,1.29l48.5,28
				c0.44,0.26,0.89,0.32,1.22,0.12s0.51-0.61,0.51-1.12v-44C313.65,181.49,313.48,180.88,313.14,180.29z"/>
		</g>
	</mask>
	<g class="st19">
		<polygon class="st6" points="313.65,228 261.68,198 261.68,150 313.65,180 		"/>
		<polygon class="st5" points="289.6,188.33 313.65,228 283.89,190.31 		"/>
		<polygon class="st1" points="313.65,228 261.68,198 261.68,150 		"/>
		<path class="st9" d="M313,183.19c0.4-0.14,0.65-0.55,0.65-1.19c0-1.1,0-2,0-2l-51.96-30c0,0,0,0.9,0,2c0,0.63,0.25,1.34,0.65,1.94
			l24.25,36.4c0.3,0.45,0.67,0.83,1.08,1.06c0.41,0.24,0.79,0.29,1.08,0.19L313,183.19z"/>
	</g>
</g>
</svg>
