<?xml version="1.0" encoding="utf-8"?>
<!-- Generator: Adobe Illustrator 22.1.0, SVG Export Plug-In . SVG Version: 6.00 Build 0)  -->
<svg version="1.1" id="Warstwa_1" xmlns="http://www.w3.org/2000/svg" xmlns:xlink="http://www.w3.org/1999/xlink" x="0px" y="0px"
	 width="376px" height="324px" viewBox="0 0 376 324" style="enable-background:new 0 0 376 324;" xml:space="preserve">
<style type="text/css">
	.st0{filter:url(#Adobe_OpacityMaskFilter);}
	.st1{fill:#FFFFFF;}
	.st2{mask:url(#SVGID_1_);}
	.st3{fill:#056CEA;}
	.st4{fill:#A4E0FF;}
	.st5{fill:#3192E7;}
	.st6{fill:#73C8FF;}
	.st7{display:none;}
	.st8{filter:url(#Adobe_OpacityMaskFilter_1_);}
	.st9{mask:url(#SVGID_2_);}
	.st10{fill:#88D3FF;}
	.st11{opacity:0.48;fill:#3192E7;}
	.st12{display:inline;fill:#056CEA;}
	.st13{display:inline;fill:#FFFFFF;}
	.st14{opacity:0.48;}
	.st15{fill:#B4E8FE;}
	.st16{filter:url(#Adobe_OpacityMaskFilter_2_);}
	.st17{mask:url(#SVGID_3_);}
	.st18{filter:url(#Adobe_OpacityMaskFilter_3_);}
	.st19{mask:url(#SVGID_4_);}
	.st20{filter:url(#Adobe_OpacityMaskFilter_4_);}
	.st21{mask:url(#SVGID_5_);}
</style>
<g>
	<defs>
		<filter id="Adobe_OpacityMaskFilter" filterUnits="userSpaceOnUse" x="261.68" y="150" width="114.32" height="174">
			<feColorMatrix  type="matrix" values="1 0 0 0 0  0 1 0 0 0  0 0 1 0 0  0 0 0 1 0"/>
		</filter>
	</defs>
	<mask maskUnits="userSpaceOnUse" x="261.68" y="150" width="114.32" height="174" id="SVGID_1_">
		<g class="st0">
			<path class="st1" d="M375.49,216.29c-0.34-0.59-0.78-1.04-1.22-1.29l-110.85-64c-0.44-0.26-0.89-0.32-1.22-0.12
				c-0.34,0.2-0.51,0.61-0.51,1.12v104c0,0.51,0.17,1.12,0.51,1.71c0.34,0.59,0.78,1.04,1.22,1.29l110.85,64
				c0.44,0.26,0.89,0.32,1.22,0.12c0.34-0.2,0.51-0.61,0.51-1.12V218C376,217.49,375.83,216.88,375.49,216.29z"/>
		</g>
	</mask>
	<g class="st2">
		<path class="st1" d="M261.68,161v97L376,324v-97L261.68,161z"/>
		<g>
			<polygon class="st3" points="376,228 261.68,162 261.68,150 376,216 			"/>
		</g>
		<path class="st1" d="M268.61,160c0,1.1-0.78,1.55-1.73,1c-0.96-0.55-1.73-1.9-1.73-3c0-1.1,0.78-1.55,1.73-1
			C267.84,157.55,268.61,158.9,268.61,160z"/>
		<path class="st1" d="M275.54,164c0,1.1-0.78,1.55-1.73,1c-0.96-0.55-1.73-1.9-1.73-3c0-1.1,0.78-1.55,1.73-1
			C274.77,161.55,275.54,162.9,275.54,164z"/>
		<path class="st1" d="M282.47,168c0,1.1-0.78,1.55-1.73,1c-0.96-0.55-1.73-1.9-1.73-3c0-1.1,0.78-1.55,1.73-1
			C281.69,165.55,282.47,166.9,282.47,168z"/>
	</g>
	<g>
		<g>
			<path class="st4" d="M341.36,270c0.48,0.28,0.87,0.05,0.87-0.5c0-0.55-0.39-1.22-0.87-1.5l-32.91-19
				c-0.48-0.28-0.87-0.05-0.87,0.5c0,0.55,0.39,1.22,0.87,1.5L341.36,270z"/>
			<path class="st4" d="M336.16,273c0.48,0.28,0.87,0.05,0.87-0.5c0-0.55-0.39-1.22-0.87-1.5l-36.37-21
				c-0.48-0.28-0.87-0.05-0.87,0.5c0,0.55,0.39,1.22,0.87,1.5L336.16,273z"/>
			<path class="st4" d="M303.25,248c0.48,0.28,0.87,0.05,0.87-0.5c0-0.55-0.39-1.22-0.87-1.5l-8.66-5c-0.48-0.28-0.87-0.05-0.87,0.5
				c0,0.55,0.39,1.22,0.87,1.5L303.25,248z"/>
			<path class="st4" d="M364.74,241.5l-91.8-53c-0.48-0.28-0.87-0.05-0.87,0.5v32c0,0.55,0.39,1.22,0.87,1.5l91.8,53
				c0.48,0.28,0.87,0.05,0.87-0.5v-32C365.61,242.45,365.22,241.78,364.74,241.5z"/>
			<g>
				<path class="st4" d="M330.1,275.5l-22.52-13c-0.48-0.28-0.87-0.05-0.87,0.5v8c0,0.55,0.39,1.22,0.87,1.5l22.52,13
					c0.48,0.28,0.87,0.05,0.87-0.5v-8C330.97,276.45,330.58,275.78,330.1,275.5z"/>
			</g>
			<path class="st4" d="M364.74,235.5c0.48,0.28,0.87,0.05,0.87-0.5s-0.39-1.22-0.87-1.5l-3.46-2c-0.48-0.28-0.87-0.05-0.87,0.5
				s0.39,1.22,0.87,1.5L364.74,235.5z"/>
			<path class="st4" d="M356.08,230.5c0.48,0.28,0.87,0.05,0.87-0.5s-0.39-1.22-0.87-1.5l-3.46-2c-0.48-0.28-0.87-0.05-0.87,0.5
				s0.39,1.22,0.87,1.5L356.08,230.5z"/>
			<path class="st4" d="M347.42,225.5c0.48,0.28,0.87,0.05,0.87-0.5s-0.39-1.22-0.87-1.5l-3.46-2c-0.48-0.28-0.87-0.05-0.87,0.5
				s0.39,1.22,0.87,1.5L347.42,225.5z"/>
			<path class="st4" d="M338.76,220.5c0.48,0.28,0.87,0.05,0.87-0.5s-0.39-1.22-0.87-1.5l-3.46-2c-0.48-0.28-0.87-0.05-0.87,0.5
				s0.39,1.22,0.87,1.5L338.76,220.5z"/>
			<path class="st4" d="M330.1,215.5c0.48,0.28,0.87,0.05,0.87-0.5s-0.39-1.22-0.87-1.5l-3.46-2c-0.48-0.28-0.87-0.05-0.87,0.5
				s0.39,1.22,0.87,1.5L330.1,215.5z"/>
			<path class="st4" d="M276.41,184.5c0.48,0.28,0.87,0.05,0.87-0.5s-0.39-1.22-0.87-1.5l-3.46-2c-0.48-0.28-0.87-0.05-0.87,0.5
				s0.39,1.22,0.87,1.5L276.41,184.5z"/>
		</g>
	</g>
</g>
<g>
	<path class="st5" d="M227.61,249.5c0-0.78-0.55-1.49-1.43-2l-29.45-17c-0.89-0.51-2.11-0.83-3.46-0.83c-1.15,0-2.2,0.23-3.04,0.61
		l-21.75,9.91l-1.33,5.21c0,0-11.69,1.31-11.69,2.09c0,0.35,0,1.65,0,2c0,0.78,0.55,1.49,1.43,2l36.37,21
		c0.89,0.51,2.11,0.83,3.46,0.83c1.35,0,2.58-0.32,3.46-0.83c0.13-0.08,0.26-0.16,0.38-0.25l25.98-19c0.66-0.48,1.05-1.09,1.05-1.75
		C227.61,251.15,227.61,249.85,227.61,249.5z"/>
	<path class="st6" d="M200.58,270.25l8.81-6.44l-40.9-23.62l-11.16,5.09c-0.15,0.07-0.29,0.14-0.43,0.22
		c-0.89,0.51-1.43,1.22-1.43,2c0,0.78,0.55,1.49,1.43,2l36.37,21c0.89,0.51,2.11,0.83,3.46,0.83c1.35,0,2.58-0.32,3.46-0.83
		C200.33,270.42,200.46,270.34,200.58,270.25z"/>
	<polygon class="st7" points="210.59,264.5 167.29,239.5 169.02,238.5 212.32,263.5 	"/>
</g>
<g>
	<path class="st5" d="M252.01,143.59c-0.68-1.17-1.56-2.07-2.45-2.59L131.78,73c-0.89-0.51-1.77-0.63-2.45-0.24
		c-0.68,0.39-1.73,1-1.73,1l122.68,200.48c0,0,1.06-0.61,1.73-1c0.68-0.39,1.01-1.22,1.01-2.24V147
		C253.02,145.98,252.69,144.76,252.01,143.59z"/>
	<defs>
		<filter id="Adobe_OpacityMaskFilter_1_" filterUnits="userSpaceOnUse" x="126.58" y="72" width="124.71" height="204">
			<feColorMatrix  type="matrix" values="1 0 0 0 0  0 1 0 0 0  0 0 1 0 0  0 0 0 1 0"/>
		</filter>
	</defs>
	<mask maskUnits="userSpaceOnUse" x="126.58" y="72" width="124.71" height="204" id="SVGID_2_">
		<g class="st8">
			<g>
				<path class="st1" d="M250.28,144.59c-0.68-1.17-1.56-2.07-2.45-2.59L130.05,74c-0.89-0.51-1.77-0.63-2.45-0.24
					c-0.68,0.39-1.01,1.22-1.01,2.24v124c0,1.02,0.34,2.24,1.01,3.41c0.68,1.17,1.56,2.07,2.45,2.59l117.78,68
					c0.89,0.51,1.77,0.63,2.45,0.24c0.68-0.39,1.01-1.22,1.01-2.24V148C251.29,146.98,250.95,145.76,250.28,144.59z"/>
			</g>
		</g>
	</mask>
	<g class="st9">
		<g>
			<polygon class="st10" points="126.58,204 251.29,276 251.29,251 126.58,179 			"/>
		</g>
		<g>
			<polygon class="st4" points="126.58,72 251.29,144 251.29,252 126.58,180 			"/>
		</g>
	</g>
	<path class="st11" d="M192.4,230c0,2.21-1.55,3.1-3.46,2c-1.91-1.1-3.46-3.79-3.46-6s1.55-3.1,3.46-2
		C190.85,225.1,192.4,227.79,192.4,230z"/>
	<g class="st7">
		<polygon class="st12" points="246.1,243 131.78,177 131.78,81 246.1,147 		"/>
		<path class="st13" d="M175.08,138c1.45,0.84,2.8,2.68,3.29,4.63l3.64,14.72l3.64-10.51c0.47-1.36,1.8-1.7,3.29-0.84
			c1.49,0.86,2.81,2.73,3.29,4.63l3.64,14.72l3.64-10.51c0.48-1.4,1.84-1.67,3.29-0.83c0.36,0.21,0.73,0.49,1.09,0.83
			c1.81,1.75,2.8,4.58,2.19,6.33l-6.93,20c-0.47,1.36-1.8,1.7-3.29,0.84c-1.49-0.86-2.81-2.73-3.29-4.63l-3.64-14.72l-3.64,10.51
			c-0.47,1.36-1.8,1.7-3.29,0.84c-1.49-0.86-2.81-2.73-3.29-4.63l-6.93-28c-0.6-2.45,0.38-4.14,2.19-3.79
			C174.35,137.64,174.72,137.79,175.08,138 M175.08,132c-0.93-0.54-1.85-0.9-2.74-1.07c-4.53-0.87-6.99,3.38-5.48,9.49l6.93,28
			c1.18,4.77,4.48,9.43,8.22,11.58c2.78,1.61,5.32,1.55,6.93,0c1.6,3.4,4.15,6.39,6.93,8c3.73,2.15,7.03,1.31,8.22-2.09l6.93-20
			c1.51-4.36-0.95-11.45-5.48-15.81c-0.89-0.85-1.81-1.56-2.73-2.09c-2.78-1.61-5.33-1.55-6.93-0.01c-1.6-3.4-4.15-6.39-6.93-8
			c-2.78-1.61-5.32-1.55-6.93,0C180.41,136.6,177.86,133.61,175.08,132L175.08,132z"/>
	</g>
	<g>
		<g>
			<polygon class="st3" points="246.1,243 131.78,177 131.78,81 246.1,147 			"/>
		</g>
		<path class="st1" d="M171.62,133c1.45,0.84,2.81,2.68,3.29,4.63l5.37,21.72l5.37-15.51c0.47-1.36,1.8-1.7,3.29-0.84
			c1.49,0.86,2.81,2.73,3.29,4.63l5.37,21.72l5.37-15.51c0.48-1.4,1.84-1.67,3.29-0.84c0.36,0.21,0.73,0.49,1.09,0.84
			c1.82,1.75,2.8,4.58,2.19,6.33l-8.66,25c-0.47,1.36-1.8,1.7-3.29,0.84c-1.49-0.86-2.81-2.73-3.29-4.63l-5.37-21.72l-5.37,15.51
			c-0.47,1.36-1.8,1.7-3.29,0.84c-1.49-0.86-2.81-2.73-3.29-4.63l-8.66-35c-0.6-2.45,0.38-4.14,2.19-3.79
			C170.89,132.64,171.25,132.79,171.62,133 M171.62,127c-0.93-0.54-1.85-0.9-2.73-1.07c-4.53-0.87-6.99,3.38-5.48,9.49l8.66,35
			c1.18,4.77,4.48,9.43,8.22,11.58c3.73,2.15,7.03,1.31,8.22-2.09l0.44-1.28l0.44,1.8c1.18,4.77,4.48,9.43,8.22,11.58
			c3.73,2.15,7.03,1.31,8.22-2.09l8.66-25c1.51-4.36-0.95-11.45-5.48-15.81c-0.89-0.85-1.81-1.56-2.73-2.09
			c-3.74-2.16-7.04-1.32-8.22,2.09l-0.44,1.28l-0.44-1.8c-1.18-4.77-4.48-9.43-8.22-11.58c-3.73-2.15-7.03-1.31-8.22,2.09
			l-0.44,1.28l-0.44-1.8C178.65,133.81,175.35,129.16,171.62,127L171.62,127z"/>
	</g>
	<polygon class="st7" points="210.59,253.5 167.29,228.5 167.29,226.5 210.59,251.5 	"/>
	<polygon class="st7" points="142.17,209 142.17,214 143.91,215 143.91,212 233.97,264 233.97,267 235.7,268 235.7,263 	"/>
</g>
<g>
	<path class="st5" d="M208.71,296c0-0.39,0-2,0-2L80.83,261c0,0,0,1.61,0,2s0.27,0.74,0.72,1l2.88,1.66L171.62,316
		c0.44,0.26,1.06,0.41,1.73,0.41c0.68,0,1.29-0.16,1.73-0.41l32.91-19C208.43,296.74,208.71,296.39,208.71,296z"/>
	<path class="st10" d="M208.71,294c0-0.39-0.27-0.74-0.72-1l-90.07-52c-0.44-0.26-1.06-0.41-1.73-0.41c-0.68,0-1.29,0.16-1.73,0.41
		l-32.91,19c-0.44,0.26-0.72,0.61-0.72,1s0.27,0.74,0.72,1l90.07,52c0.44,0.26,1.06,0.41,1.73,0.41c0.68,0,1.29-0.16,1.73-0.41
		l32.91-19C208.43,294.74,208.71,294.39,208.71,294z"/>
	<g class="st14">
		<path class="st5" d="M113.24,273c0,0,0,0.8,0,1s0.14,0.37,0.36,0.5l38.11,22c0.22,0.13,0.53,0.21,0.87,0.21
			c0.34,0,0.64-0.08,0.87-0.21l3.46-2c0.22-0.13,0.36-0.3,0.36-0.5s0-1,0-1L113.24,273z"/>
		<path class="st5" d="M99.38,265c0,0,0,0.8,0,1s0.14,0.37,0.36,0.5l3.46,2c0.22,0.13,0.53,0.21,0.87,0.21
			c0.34,0,0.64-0.08,0.87-0.21l3.46-2c0.22-0.13,0.36-0.3,0.36-0.5s0-1,0-1H99.38z"/>
		<path class="st5" d="M106.31,261c0,0,0,0.8,0,1s0.14,0.37,0.36,0.5l3.46,2c0.22,0.13,0.53,0.21,0.87,0.21
			c0.34,0,0.64-0.08,0.87-0.21l3.46-2c0.22-0.13,0.36-0.3,0.36-0.5c0-0.19,0-1,0-1H106.31z"/>
		<path class="st5" d="M116.7,259c0,0,0,0.81,0,1c0,0.2,0.14,0.37,0.36,0.5l3.46,2c0.22,0.13,0.53,0.21,0.87,0.21
			c0.34,0,0.64-0.08,0.87-0.21l3.46-2c0.22-0.13,0.36-0.3,0.36-0.5c0-0.19,0-1,0-1H116.7z"/>
		<path class="st5" d="M120.16,253c0,0,0,0.81,0,1c0,0.2,0.14,0.37,0.36,0.5l3.46,2c0.22,0.13,0.53,0.21,0.87,0.21
			c0.34,0,0.64-0.08,0.87-0.21l3.46-2c0.22-0.13,0.36-0.3,0.36-0.5c0-0.19,0-1,0-1H120.16z"/>
		<path class="st5" d="M127.09,257c0,0,0,0.81,0,1c0,0.2,0.14,0.37,0.36,0.5l3.46,2c0.22,0.13,0.53,0.21,0.87,0.21
			c0.34,0,0.64-0.08,0.87-0.21l3.46-2c0.22-0.13,0.36-0.3,0.36-0.5c0-0.19,0-1,0-1H127.09z"/>
		<path class="st5" d="M134.02,261c0,0,0,0.81,0,1c0,0.2,0.14,0.37,0.36,0.5l3.46,2c0.22,0.13,0.53,0.21,0.87,0.21
			c0.34,0,0.64-0.08,0.87-0.21l3.46-2c0.22-0.13,0.36-0.3,0.36-0.5c0-0.19,0-1,0-1H134.02z"/>
		<path class="st5" d="M140.95,265c0,0,0,0.81,0,1c0,0.2,0.14,0.37,0.36,0.5l3.46,2c0.22,0.13,0.53,0.21,0.87,0.21
			c0.34,0,0.64-0.08,0.87-0.21l3.46-2c0.22-0.13,0.36-0.3,0.36-0.5c0-0.19,0-1,0-1H140.95z"/>
		<path class="st5" d="M137.48,271c0,0,0,0.81,0,1c0,0.2,0.14,0.37,0.36,0.5l3.46,2c0.22,0.13,0.53,0.21,0.87,0.21
			c0.34,0,0.64-0.08,0.87-0.21l3.46-2c0.22-0.13,0.36-0.3,0.36-0.5c0-0.19,0-1,0-1H137.48z"/>
		<path class="st5" d="M144.41,275c0,0,0,0.81,0,1c0,0.2,0.14,0.37,0.36,0.5l3.46,2c0.22,0.13,0.53,0.21,0.87,0.21
			c0.34,0,0.64-0.08,0.87-0.21l3.46-2c0.22-0.13,0.36-0.3,0.36-0.5c0-0.19,0-1,0-1H144.41z"/>
		<path class="st5" d="M147.88,269c0,0,0,0.81,0,1c0,0.2,0.14,0.37,0.36,0.5l3.46,2c0.22,0.13,0.53,0.21,0.87,0.21
			c0.34,0,0.64-0.08,0.87-0.21l3.46-2c0.22-0.13,0.36-0.3,0.36-0.5c0-0.19,0-1,0-1H147.88z"/>
		<path class="st5" d="M154.8,273c0,0,0,0.81,0,1c0,0.2,0.14,0.37,0.36,0.5l3.46,2c0.22,0.13,0.53,0.21,0.87,0.21
			c0.34,0,0.64-0.08,0.87-0.21l3.46-2c0.22-0.13,0.36-0.3,0.36-0.5c0-0.19,0-1,0-1H154.8z"/>
		<path class="st5" d="M140.95,281c0,0,0,0.8,0,1s0.14,0.37,0.36,0.5l3.46,2c0.22,0.13,0.53,0.21,0.87,0.21
			c0.34,0,0.64-0.08,0.87-0.21l3.46-2c0.22-0.13,0.36-0.3,0.36-0.5c0-0.19,0-1,0-1H140.95z"/>
		<path class="st5" d="M151.34,279c0,0,0,0.81,0,1c0,0.2,0.14,0.37,0.36,0.5l3.46,2c0.22,0.13,0.53,0.21,0.87,0.21
			c0.34,0,0.64-0.08,0.87-0.21l3.46-2c0.22-0.13,0.36-0.3,0.36-0.5c0-0.19,0-1,0-1H151.34z"/>
		<path class="st5" d="M147.88,285c0,0,0,0.8,0,1s0.14,0.37,0.36,0.5l3.46,2c0.22,0.13,0.53,0.21,0.87,0.21
			c0.34,0,0.64-0.08,0.87-0.21l3.46-2c0.22-0.13,0.36-0.3,0.36-0.5c0-0.19,0-1,0-1H147.88z"/>
		<path class="st5" d="M154.8,289c0,0,0,0.8,0,1s0.14,0.37,0.36,0.5l3.46,2c0.22,0.13,0.53,0.21,0.87,0.21
			c0.34,0,0.64-0.08,0.87-0.21l3.46-2c0.22-0.13,0.36-0.3,0.36-0.5c0-0.19,0-1,0-1H154.8z"/>
		<path class="st5" d="M158.27,283c0,0,0,0.81,0,1c0,0.2,0.14,0.37,0.36,0.5l3.46,2c0.22,0.13,0.53,0.21,0.87,0.21
			c0.34,0,0.64-0.08,0.87-0.21l3.46-2c0.22-0.13,0.36-0.3,0.36-0.5c0-0.19,0-1,0-1H158.27z"/>
		<path class="st5" d="M161.73,277c0,0,0,0.81,0,1c0,0.2,0.14,0.37,0.36,0.5l3.46,2c0.22,0.13,0.53,0.21,0.87,0.21
			c0.34,0,0.64-0.08,0.87-0.21l3.46-2c0.22-0.13,0.36-0.3,0.36-0.5c0-0.19,0-1,0-1H161.73z"/>
		<path class="st5" d="M168.66,281c0,0,0,0.81,0,1c0,0.2,0.14,0.37,0.36,0.5l3.46,2c0.22,0.13,0.53,0.21,0.87,0.21
			c0.34,0,0.64-0.08,0.87-0.21l3.46-2c0.22-0.13,0.36-0.3,0.36-0.5c0-0.19,0-1,0-1H168.66z"/>
		<path class="st5" d="M165.2,287c0,0,0,0.81,0,1c0,0.2,0.14,0.37,0.36,0.5l3.46,2c0.22,0.13,0.53,0.21,0.87,0.21
			c0.34,0,0.64-0.08,0.87-0.21l3.46-2c0.22-0.13,0.36-0.3,0.36-0.5c0-0.19,0-1,0-1H165.2z"/>
		<path class="st5" d="M175.59,285c0,0,0,0.81,0,1c0,0.2,0.14,0.37,0.36,0.5l3.46,2c0.22,0.13,0.53,0.21,0.87,0.21
			c0.34,0,0.64-0.08,0.87-0.21l3.46-2c0.22-0.13,0.36-0.3,0.36-0.5c0-0.19,0-1,0-1H175.59z"/>
		<path class="st5" d="M172.13,291c0,0,0,0.81,0,1c0,0.2,0.14,0.37,0.36,0.5l3.46,2c0.22,0.13,0.53,0.21,0.87,0.21
			c0.34,0,0.64-0.08,0.87-0.21l3.46-2c0.22-0.13,0.36-0.3,0.36-0.5c0-0.19,0-1,0-1H172.13z"/>
		<path class="st5" d="M182.52,289c0,0,0,0.81,0,1c0,0.2,0.14,0.37,0.36,0.5l3.46,2c0.22,0.13,0.53,0.21,0.87,0.21
			c0.34,0,0.64-0.08,0.87-0.21l3.46-2c0.22-0.13,0.36-0.3,0.36-0.5c0-0.19,0-1,0-1H182.52z"/>
		<path class="st5" d="M189.45,293c0,0,0,0.81,0,1c0,0.2,0.14,0.37,0.36,0.5l3.46,2c0.22,0.13,0.53,0.21,0.87,0.21
			c0.34,0,0.64-0.08,0.87-0.21l3.46-2c0.22-0.13,0.36-0.3,0.36-0.5c0-0.19,0-1,0-1H189.45z"/>
		<path class="st5" d="M168.66,297c0,0,0,0.8,0,1s0.14,0.37,0.36,0.5l3.46,2c0.22,0.13,0.53,0.21,0.87,0.21
			c0.34,0,0.64-0.08,0.87-0.21l3.46-2c0.22-0.13,0.36-0.3,0.36-0.5c0-0.19,0-1,0-1H168.66z"/>
		<path class="st5" d="M161.73,301c0,0,0,0.8,0,1s0.14,0.37,0.36,0.5l3.46,2c0.22,0.13,0.53,0.21,0.87,0.21
			c0.34,0,0.64-0.08,0.87-0.21l3.46-2c0.22-0.13,0.36-0.3,0.36-0.5s0-1,0-1H161.73z"/>
		<path class="st5" d="M168.66,305c0,0,0,0.8,0,1s0.14,0.37,0.36,0.5l3.46,2c0.22,0.13,0.53,0.21,0.87,0.21
			c0.34,0,0.64-0.08,0.87-0.21l3.46-2c0.22-0.13,0.36-0.3,0.36-0.5s0-1,0-1H168.66z"/>
		<path class="st5" d="M161.73,293c0,0,0,0.8,0,1s0.14,0.37,0.36,0.5l3.46,2c0.22,0.13,0.53,0.21,0.87,0.21
			c0.34,0,0.64-0.08,0.87-0.21l3.46-2c0.22-0.13,0.36-0.3,0.36-0.5c0-0.19,0-1,0-1H161.73z"/>
		<path class="st5" d="M154.8,297c0,0,0,0.8,0,1s0.14,0.37,0.36,0.5l3.46,2c0.22,0.13,0.53,0.21,0.87,0.21
			c0.34,0,0.64-0.08,0.87-0.21l3.46-2c0.22-0.13,0.36-0.3,0.36-0.5s0-1,0-1H154.8z"/>
		<path class="st5" d="M134.02,277c0,0,0,0.8,0,1s0.14,0.37,0.36,0.5l3.46,2c0.22,0.13,0.53,0.21,0.87,0.21
			c0.34,0,0.64-0.08,0.87-0.21l3.46-2c0.22-0.13,0.36-0.3,0.36-0.5c0-0.19,0-1,0-1H134.02z"/>
		<path class="st5" d="M130.56,267c0,0,0,0.81,0,1c0,0.2,0.14,0.37,0.36,0.5l3.46,2c0.22,0.13,0.53,0.21,0.87,0.21
			c0.34,0,0.64-0.08,0.87-0.21l3.46-2c0.22-0.13,0.36-0.3,0.36-0.5c0-0.19,0-1,0-1H130.56z"/>
		<path class="st5" d="M127.09,273c0,0,0,0.8,0,1s0.14,0.37,0.36,0.5l3.46,2c0.22,0.13,0.53,0.21,0.87,0.21
			c0.34,0,0.64-0.08,0.87-0.21l3.46-2c0.22-0.13,0.36-0.3,0.36-0.5c0-0.19,0-1,0-1H127.09z"/>
		<path class="st5" d="M123.63,263c0,0,0,0.81,0,1c0,0.2,0.14,0.37,0.36,0.5l3.46,2c0.22,0.13,0.53,0.21,0.87,0.21
			c0.34,0,0.64-0.08,0.87-0.21l3.46-2c0.22-0.13,0.36-0.3,0.36-0.5c0-0.19,0-1,0-1H123.63z"/>
		<path class="st5" d="M120.16,269c0,0,0,0.8,0,1s0.14,0.37,0.36,0.5l3.46,2c0.22,0.13,0.53,0.21,0.87,0.21
			c0.34,0,0.64-0.08,0.87-0.21l3.46-2c0.22-0.13,0.36-0.3,0.36-0.5c0-0.19,0-1,0-1H120.16z"/>
		<path class="st5" d="M113.24,265c0,0,0,0.8,0,1s0.14,0.37,0.36,0.5l3.46,2c0.22,0.13,0.53,0.21,0.87,0.21
			c0.34,0,0.64-0.08,0.87-0.21l3.46-2c0.22-0.13,0.36-0.3,0.36-0.5c0-0.19,0-1,0-1H113.24z"/>
		<path class="st5" d="M106.31,269c0,0,0,0.8,0,1s0.14,0.37,0.36,0.5l3.46,2c0.22,0.13,0.53,0.21,0.87,0.21
			c0.34,0,0.64-0.08,0.87-0.21l3.46-2c0.22-0.13,0.36-0.3,0.36-0.5s0-1,0-1H106.31z"/>
		<path class="st5" d="M90.72,260c0,0,0,0.8,0,1s0.14,0.37,0.36,0.5l5.2,3c0.22,0.13,0.53,0.21,0.87,0.21
			c0.34,0,0.64-0.08,0.87-0.21l3.46-2c0.22-0.13,0.36-0.3,0.36-0.5s0-1,0-1L90.72,260z"/>
		<path class="st5" d="M97.65,256c0,0,0,0.8,0,1s0.14,0.37,0.36,0.5l5.2,3c0.22,0.13,0.53,0.21,0.87,0.21
			c0.34,0,0.64-0.08,0.87-0.21l3.46-2c0.22-0.13,0.36-0.3,0.36-0.5c0-0.19,0-1,0-1L97.65,256z"/>
		<path class="st5" d="M191.9,298c0-0.19,0-1.04,0-1.04L179.05,295c0,0,0,0.81,0,1c0,0.2,0.14,0.37,0.36,0.5l2.6,1.5l-6.42,3
			c0,0,0,0.81,0,1c0,0.2,0.14,0.37,0.36,0.5l3.46,2c0.22,0.13,0.53,0.21,0.87,0.21c0.34,0,0.64-0.08,0.87-0.21l10.39-6
			C191.76,298.37,191.9,298.19,191.9,298z"/>
		<path class="st5" d="M104.58,252c0,0,0,0.81,0,1c0,0.2,0.14,0.37,0.36,0.5l8.66,5c0.22,0.13,0.53,0.21,0.87,0.21
			c0.34,0,0.64-0.08,0.87-0.21l3.46-2c0.22-0.13,0.36-0.3,0.36-0.5c0-0.19,0-1,0-1L104.58,252z"/>
		<path class="st5" d="M111.5,248c0,0,0,0.81,0,1c0,0.2,0.14,0.37,0.36,0.5l5.2,3c0.22,0.13,0.53,0.21,0.87,0.21
			c0.34,0,0.64-0.08,0.87-0.21l3.46-2c0.22-0.13,0.36-0.3,0.36-0.5c0-0.19,0-1,0-1L111.5,248z"/>
	</g>
	<g>
		<path class="st15" d="M169.02,304.5c-0.22,0.13-0.36,0.3-0.36,0.5s0.14,0.37,0.36,0.5l3.46,2c0.22,0.13,0.53,0.21,0.87,0.21
			c0.34,0,0.64-0.08,0.87-0.21l3.46-2c0.22-0.13,0.36-0.3,0.36-0.5s-0.14-0.37-0.36-0.5l-3.46-2c-0.22-0.13-0.53-0.21-0.87-0.21
			c-0.34,0-0.64,0.08-0.87,0.21L169.02,304.5z"/>
		<path class="st15" d="M162.09,300.5c-0.22,0.13-0.36,0.3-0.36,0.5s0.14,0.37,0.36,0.5l3.46,2c0.22,0.13,0.53,0.21,0.87,0.21
			c0.34,0,0.64-0.08,0.87-0.21l3.46-2c0.22-0.13,0.36-0.3,0.36-0.5s-0.14-0.37-0.36-0.5l-3.46-2c-0.22-0.13-0.53-0.21-0.87-0.21
			c-0.34,0-0.64,0.08-0.87,0.21L162.09,300.5z"/>
		<path class="st15" d="M155.16,296.5c-0.22,0.13-0.36,0.3-0.36,0.5s0.14,0.37,0.36,0.5l3.46,2c0.22,0.13,0.53,0.21,0.87,0.21
			c0.34,0,0.64-0.08,0.87-0.21l3.46-2c0.22-0.13,0.36-0.3,0.36-0.5s-0.14-0.37-0.36-0.5l-3.46-2c-0.22-0.13-0.53-0.21-0.87-0.21
			c-0.34,0-0.64,0.08-0.87,0.21L155.16,296.5z"/>
		<path class="st15" d="M113.59,272.5c-0.22,0.13-0.36,0.3-0.36,0.5s0.14,0.37,0.36,0.5l38.11,22c0.22,0.13,0.53,0.21,0.87,0.21
			c0.34,0,0.64-0.08,0.87-0.21l3.46-2c0.22-0.13,0.36-0.3,0.36-0.5s-0.14-0.37-0.36-0.5l-38.1-22c-0.22-0.13-0.53-0.21-0.87-0.21
			c-0.34,0-0.64,0.08-0.87,0.21L113.59,272.5z"/>
		<path class="st15" d="M106.67,268.5c-0.22,0.13-0.36,0.3-0.36,0.5s0.14,0.37,0.36,0.5l3.46,2c0.22,0.13,0.53,0.21,0.87,0.21
			c0.34,0,0.64-0.08,0.87-0.21l3.46-2c0.22-0.13,0.36-0.3,0.36-0.5s-0.14-0.37-0.36-0.5l-3.46-2c-0.22-0.13-0.53-0.21-0.87-0.21
			c-0.34,0-0.64,0.08-0.87,0.21L106.67,268.5z"/>
		<path class="st15" d="M99.74,264.5c-0.22,0.13-0.36,0.3-0.36,0.5s0.14,0.37,0.36,0.5l3.46,2c0.22,0.13,0.53,0.21,0.87,0.21
			c0.34,0,0.64-0.08,0.87-0.21l3.46-2c0.22-0.13,0.36-0.3,0.36-0.5s-0.14-0.37-0.36-0.5l-3.46-2c-0.22-0.13-0.53-0.21-0.87-0.21
			c-0.34,0-0.64,0.08-0.87,0.21L99.74,264.5z"/>
		<path class="st15" d="M91.08,259.5c-0.22,0.13-0.36,0.3-0.36,0.5s0.14,0.37,0.36,0.5l5.2,3c0.22,0.13,0.53,0.21,0.87,0.21
			c0.34,0,0.64-0.08,0.87-0.21l3.46-2c0.22-0.13,0.36-0.3,0.36-0.5s-0.14-0.37-0.36-0.5l-5.2-3c-0.22-0.13-0.53-0.21-0.87-0.21
			c-0.34,0-0.64,0.08-0.87,0.21L91.08,259.5z"/>
		<path class="st15" d="M169.02,296.5c-0.22,0.13-0.36,0.3-0.36,0.5s0.14,0.37,0.36,0.5l3.46,2c0.22,0.13,0.53,0.21,0.87,0.21
			c0.34,0,0.64-0.08,0.87-0.21l3.46-2c0.22-0.13,0.36-0.3,0.36-0.5c0-0.19-0.14-0.37-0.36-0.5l-3.46-2
			c-0.22-0.13-0.53-0.21-0.87-0.21c-0.34,0-0.64,0.08-0.87,0.21L169.02,296.5z"/>
		<path class="st15" d="M162.09,292.5c-0.22,0.13-0.36,0.3-0.36,0.5s0.14,0.37,0.36,0.5l3.46,2c0.22,0.13,0.53,0.21,0.87,0.21
			c0.34,0,0.64-0.08,0.87-0.21l3.46-2c0.22-0.13,0.36-0.3,0.36-0.5c0-0.19-0.14-0.37-0.36-0.5l-3.46-2
			c-0.22-0.13-0.53-0.21-0.87-0.21c-0.34,0-0.64,0.08-0.87,0.21L162.09,292.5z"/>
		<path class="st15" d="M155.16,288.5c-0.22,0.13-0.36,0.3-0.36,0.5s0.14,0.37,0.36,0.5l3.46,2c0.22,0.13,0.53,0.21,0.87,0.21
			c0.34,0,0.64-0.08,0.87-0.21l3.46-2c0.22-0.13,0.36-0.3,0.36-0.5c0-0.19-0.14-0.37-0.36-0.5l-3.46-2
			c-0.22-0.13-0.53-0.21-0.87-0.21c-0.34,0-0.64,0.08-0.87,0.21L155.16,288.5z"/>
		<path class="st15" d="M148.24,284.5c-0.22,0.13-0.36,0.3-0.36,0.5s0.14,0.37,0.36,0.5l3.46,2c0.22,0.13,0.53,0.21,0.87,0.21
			c0.34,0,0.64-0.08,0.87-0.21l3.46-2c0.22-0.13,0.36-0.3,0.36-0.5c0-0.19-0.14-0.37-0.36-0.5l-3.46-2
			c-0.22-0.13-0.53-0.21-0.87-0.21c-0.34,0-0.64,0.08-0.87,0.21L148.24,284.5z"/>
		<path class="st15" d="M141.31,280.5c-0.22,0.13-0.36,0.3-0.36,0.5s0.14,0.37,0.36,0.5l3.46,2c0.22,0.13,0.53,0.21,0.87,0.21
			c0.34,0,0.64-0.08,0.87-0.21l3.46-2c0.22-0.13,0.36-0.3,0.36-0.5c0-0.19-0.14-0.37-0.36-0.5l-3.46-2
			c-0.22-0.13-0.53-0.21-0.87-0.21c-0.34,0-0.64,0.08-0.87,0.21L141.31,280.5z"/>
		<path class="st15" d="M134.38,276.5c-0.22,0.13-0.36,0.3-0.36,0.5s0.14,0.37,0.36,0.5l3.46,2c0.22,0.13,0.53,0.21,0.87,0.21
			c0.34,0,0.64-0.08,0.87-0.21l3.46-2c0.22-0.13,0.36-0.3,0.36-0.5c0-0.19-0.14-0.37-0.36-0.5l-3.46-2
			c-0.22-0.13-0.53-0.21-0.87-0.21c-0.34,0-0.64,0.08-0.87,0.21L134.38,276.5z"/>
		<path class="st15" d="M127.45,272.5c-0.22,0.13-0.36,0.3-0.36,0.5s0.14,0.37,0.36,0.5l3.46,2c0.22,0.13,0.53,0.21,0.87,0.21
			c0.34,0,0.64-0.08,0.87-0.21l3.46-2c0.22-0.13,0.36-0.3,0.36-0.5c0-0.19-0.14-0.37-0.36-0.5l-3.46-2
			c-0.22-0.13-0.53-0.21-0.87-0.21c-0.34,0-0.64,0.08-0.87,0.21L127.45,272.5z"/>
		<path class="st15" d="M120.52,268.5c-0.22,0.13-0.36,0.3-0.36,0.5s0.14,0.37,0.36,0.5l3.46,2c0.22,0.13,0.53,0.21,0.87,0.21
			c0.34,0,0.64-0.08,0.87-0.21l3.46-2c0.22-0.13,0.36-0.3,0.36-0.5c0-0.19-0.14-0.37-0.36-0.5l-3.46-2
			c-0.22-0.13-0.53-0.21-0.87-0.21c-0.34,0-0.64,0.08-0.87,0.21L120.52,268.5z"/>
		<path class="st15" d="M113.59,264.5c-0.22,0.13-0.36,0.3-0.36,0.5s0.14,0.37,0.36,0.5l3.46,2c0.22,0.13,0.53,0.21,0.87,0.21
			c0.34,0,0.64-0.08,0.87-0.21l3.46-2c0.22-0.13,0.36-0.3,0.36-0.5c0-0.19-0.14-0.37-0.36-0.5l-3.46-2
			c-0.22-0.13-0.53-0.21-0.87-0.21c-0.34,0-0.64,0.08-0.87,0.21L113.59,264.5z"/>
		<path class="st15" d="M106.67,260.5c-0.22,0.13-0.36,0.3-0.36,0.5s0.14,0.37,0.36,0.5l3.46,2c0.22,0.13,0.53,0.21,0.87,0.21
			c0.34,0,0.64-0.08,0.87-0.21l3.46-2c0.22-0.13,0.36-0.3,0.36-0.5c0-0.19-0.14-0.37-0.36-0.5l-3.46-2
			c-0.22-0.13-0.53-0.21-0.87-0.21c-0.34,0-0.64,0.08-0.87,0.21L106.67,260.5z"/>
		<path class="st15" d="M98.01,255.5c-0.22,0.13-0.36,0.3-0.36,0.5c0,0.2,0.14,0.37,0.36,0.5l5.2,3c0.22,0.13,0.53,0.21,0.87,0.21
			c0.34,0,0.64-0.08,0.87-0.21l3.46-2c0.22-0.13,0.36-0.3,0.36-0.5c0-0.19-0.14-0.37-0.36-0.5l-5.2-3
			c-0.22-0.13-0.53-0.21-0.87-0.21c-0.34,0-0.64,0.08-0.87,0.21L98.01,255.5z"/>
		<path class="st15" d="M172.48,290.5c-0.22,0.13-0.36,0.31-0.36,0.5c0,0.2,0.14,0.37,0.36,0.5l3.46,2
			c0.22,0.13,0.53,0.21,0.87,0.21c0.34,0,0.64-0.08,0.87-0.21l3.46-2c0.22-0.13,0.36-0.3,0.36-0.5c0-0.19-0.14-0.37-0.36-0.5
			l-3.46-2c-0.22-0.13-0.53-0.21-0.87-0.21c-0.34,0-0.64,0.08-0.87,0.21L172.48,290.5z"/>
		<path class="st15" d="M191.9,297c0-0.19-0.14-0.37-0.36-0.5l-6.93-4c-0.22-0.13-0.53-0.21-0.87-0.21c-0.34,0-0.64,0.08-0.87,0.21
			l-3.46,2c-0.22,0.13-0.36,0.31-0.36,0.5c0,0.2,0.14,0.37,0.36,0.5l2.6,1.5l-6.06,3.5c-0.22,0.13-0.36,0.31-0.36,0.5
			c0,0.2,0.14,0.37,0.36,0.5l3.46,2c0.22,0.13,0.53,0.21,0.87,0.21c0.34,0,0.64-0.08,0.87-0.21l10.39-6
			C191.76,297.37,191.9,297.19,191.9,297z"/>
		<path class="st15" d="M165.56,286.5c-0.22,0.13-0.36,0.31-0.36,0.5c0,0.2,0.14,0.37,0.36,0.5l3.46,2
			c0.22,0.13,0.53,0.21,0.87,0.21c0.34,0,0.64-0.08,0.87-0.21l3.46-2c0.22-0.13,0.36-0.3,0.36-0.5c0-0.19-0.14-0.37-0.36-0.5
			l-3.46-2c-0.22-0.13-0.53-0.21-0.87-0.21c-0.34,0-0.64,0.08-0.87,0.21L165.56,286.5z"/>
		<path class="st15" d="M158.63,282.5c-0.22,0.13-0.36,0.31-0.36,0.5c0,0.2,0.14,0.37,0.36,0.5l3.46,2
			c0.22,0.13,0.53,0.21,0.87,0.21c0.34,0,0.64-0.08,0.87-0.21l3.46-2c0.22-0.13,0.36-0.3,0.36-0.5c0-0.19-0.14-0.37-0.36-0.5
			l-3.46-2c-0.22-0.13-0.53-0.21-0.87-0.21c-0.34,0-0.64,0.08-0.87,0.21L158.63,282.5z"/>
		<path class="st15" d="M151.7,278.5c-0.22,0.13-0.36,0.31-0.36,0.5c0,0.2,0.14,0.37,0.36,0.5l3.46,2c0.22,0.13,0.53,0.21,0.87,0.21
			c0.34,0,0.64-0.08,0.87-0.21l3.46-2c0.22-0.13,0.36-0.3,0.36-0.5c0-0.19-0.14-0.37-0.36-0.5l-3.46-2
			c-0.22-0.13-0.53-0.21-0.87-0.21c-0.34,0-0.64,0.08-0.87,0.21L151.7,278.5z"/>
		<path class="st15" d="M144.77,274.5c-0.22,0.13-0.36,0.31-0.36,0.5c0,0.2,0.14,0.37,0.36,0.5l3.46,2
			c0.22,0.13,0.53,0.21,0.87,0.21c0.34,0,0.64-0.08,0.87-0.21l3.46-2c0.22-0.13,0.36-0.3,0.36-0.5c0-0.19-0.14-0.37-0.36-0.5
			l-3.46-2c-0.22-0.13-0.53-0.21-0.87-0.21c-0.34,0-0.64,0.08-0.87,0.21L144.77,274.5z"/>
		<path class="st15" d="M137.84,270.5c-0.22,0.13-0.36,0.31-0.36,0.5c0,0.2,0.14,0.37,0.36,0.5l3.46,2
			c0.22,0.13,0.53,0.21,0.87,0.21c0.34,0,0.64-0.08,0.87-0.21l3.46-2c0.22-0.13,0.36-0.3,0.36-0.5c0-0.19-0.14-0.37-0.36-0.5
			l-3.46-2c-0.22-0.13-0.53-0.21-0.87-0.21c-0.34,0-0.64,0.08-0.87,0.21L137.84,270.5z"/>
		<path class="st15" d="M130.91,266.5c-0.22,0.13-0.36,0.31-0.36,0.5c0,0.2,0.14,0.37,0.36,0.5l3.46,2
			c0.22,0.13,0.53,0.21,0.87,0.21c0.34,0,0.64-0.08,0.87-0.21l3.46-2c0.22-0.13,0.36-0.3,0.36-0.5c0-0.19-0.14-0.37-0.36-0.5
			l-3.46-2c-0.22-0.13-0.53-0.21-0.87-0.21c-0.34,0-0.64,0.08-0.87,0.21L130.91,266.5z"/>
		<path class="st15" d="M123.99,262.5c-0.22,0.13-0.36,0.31-0.36,0.5c0,0.2,0.14,0.37,0.36,0.5l3.46,2
			c0.22,0.13,0.53,0.21,0.87,0.21c0.34,0,0.64-0.08,0.87-0.21l3.46-2c0.22-0.13,0.36-0.3,0.36-0.5c0-0.19-0.14-0.37-0.36-0.5
			l-3.46-2c-0.22-0.13-0.53-0.21-0.87-0.21c-0.34,0-0.64,0.08-0.87,0.21L123.99,262.5z"/>
		<path class="st15" d="M117.06,258.5c-0.22,0.13-0.36,0.31-0.36,0.5c0,0.2,0.14,0.37,0.36,0.5l3.46,2
			c0.22,0.13,0.53,0.21,0.87,0.21c0.34,0,0.64-0.08,0.87-0.21l3.46-2c0.22-0.13,0.36-0.3,0.36-0.5c0-0.19-0.14-0.37-0.36-0.5
			l-3.46-2c-0.22-0.13-0.53-0.21-0.87-0.21c-0.34,0-0.64,0.08-0.87,0.21L117.06,258.5z"/>
		<path class="st15" d="M104.93,251.5c-0.22,0.13-0.36,0.31-0.36,0.5c0,0.2,0.14,0.37,0.36,0.5l8.66,5
			c0.22,0.13,0.53,0.21,0.87,0.21c0.34,0,0.64-0.08,0.87-0.21l3.46-2c0.22-0.13,0.36-0.3,0.36-0.5c0-0.19-0.14-0.37-0.36-0.5
			l-8.66-5c-0.22-0.13-0.53-0.21-0.87-0.21c-0.34,0-0.64,0.08-0.87,0.21L104.93,251.5z"/>
		<path class="st15" d="M189.8,292.5c-0.22,0.13-0.36,0.31-0.36,0.5c0,0.2,0.14,0.37,0.36,0.5l3.46,2c0.22,0.13,0.53,0.21,0.87,0.21
			c0.34,0,0.64-0.08,0.87-0.21l3.46-2c0.22-0.13,0.36-0.3,0.36-0.5c0-0.19-0.14-0.37-0.36-0.5l-3.46-2
			c-0.22-0.13-0.53-0.21-0.87-0.21c-0.34,0-0.64,0.08-0.87,0.21L189.8,292.5z"/>
		<path class="st15" d="M182.88,288.5c-0.22,0.13-0.36,0.31-0.36,0.5c0,0.2,0.14,0.37,0.36,0.5l3.46,2
			c0.22,0.13,0.53,0.21,0.87,0.21c0.34,0,0.64-0.08,0.87-0.21l3.46-2c0.22-0.13,0.36-0.3,0.36-0.5c0-0.19-0.14-0.37-0.36-0.5
			l-3.46-2c-0.22-0.13-0.53-0.21-0.87-0.21c-0.34,0-0.64,0.08-0.87,0.21L182.88,288.5z"/>
		<path class="st15" d="M175.95,284.5c-0.22,0.13-0.36,0.31-0.36,0.5c0,0.2,0.14,0.37,0.36,0.5l3.46,2
			c0.22,0.13,0.53,0.21,0.87,0.21c0.34,0,0.64-0.08,0.87-0.21l3.46-2c0.22-0.13,0.36-0.3,0.36-0.5c0-0.19-0.14-0.37-0.36-0.5
			l-3.46-2c-0.22-0.13-0.53-0.21-0.87-0.21c-0.34,0-0.64,0.08-0.87,0.21L175.95,284.5z"/>
		<path class="st15" d="M169.02,280.5c-0.22,0.13-0.36,0.31-0.36,0.5c0,0.2,0.14,0.37,0.36,0.5l3.46,2
			c0.22,0.13,0.53,0.21,0.87,0.21c0.34,0,0.64-0.08,0.87-0.21l3.46-2c0.22-0.13,0.36-0.3,0.36-0.5c0-0.19-0.14-0.37-0.36-0.5
			l-3.46-2c-0.22-0.13-0.53-0.21-0.87-0.21c-0.34,0-0.64,0.08-0.87,0.21L169.02,280.5z"/>
		<path class="st15" d="M162.09,276.5c-0.22,0.13-0.36,0.31-0.36,0.5c0,0.2,0.14,0.37,0.36,0.5l3.46,2
			c0.22,0.13,0.53,0.21,0.87,0.21c0.34,0,0.64-0.08,0.87-0.21l3.46-2c0.22-0.13,0.36-0.3,0.36-0.5c0-0.19-0.14-0.37-0.36-0.5
			l-3.46-2c-0.22-0.13-0.53-0.21-0.87-0.21c-0.34,0-0.64,0.08-0.87,0.21L162.09,276.5z"/>
		<path class="st15" d="M155.16,272.5c-0.22,0.13-0.36,0.31-0.36,0.5c0,0.2,0.14,0.37,0.36,0.5l3.46,2
			c0.22,0.13,0.53,0.21,0.87,0.21c0.34,0,0.64-0.08,0.87-0.21l3.46-2c0.22-0.13,0.36-0.3,0.36-0.5c0-0.19-0.14-0.37-0.36-0.5
			l-3.46-2c-0.22-0.13-0.53-0.21-0.87-0.21c-0.34,0-0.64,0.08-0.87,0.21L155.16,272.5z"/>
		<path class="st15" d="M148.24,268.5c-0.22,0.13-0.36,0.31-0.36,0.5c0,0.2,0.14,0.37,0.36,0.5l3.46,2
			c0.22,0.13,0.53,0.21,0.87,0.21c0.34,0,0.64-0.08,0.87-0.21l3.46-2c0.22-0.13,0.36-0.3,0.36-0.5c0-0.19-0.14-0.37-0.36-0.5
			l-3.46-2c-0.22-0.13-0.53-0.21-0.87-0.21c-0.34,0-0.64,0.08-0.87,0.21L148.24,268.5z"/>
		<path class="st15" d="M141.31,264.5c-0.22,0.13-0.36,0.31-0.36,0.5c0,0.2,0.14,0.37,0.36,0.5l3.46,2
			c0.22,0.13,0.53,0.21,0.87,0.21c0.34,0,0.64-0.08,0.87-0.21l3.46-2c0.22-0.13,0.36-0.3,0.36-0.5c0-0.19-0.14-0.37-0.36-0.5
			l-3.46-2c-0.22-0.13-0.53-0.21-0.87-0.21c-0.34,0-0.64,0.08-0.87,0.21L141.31,264.5z"/>
		<path class="st15" d="M134.38,260.5c-0.22,0.13-0.36,0.31-0.36,0.5c0,0.2,0.14,0.37,0.36,0.5l3.46,2
			c0.22,0.13,0.53,0.21,0.87,0.21c0.34,0,0.64-0.08,0.87-0.21l3.46-2c0.22-0.13,0.36-0.3,0.36-0.5c0-0.19-0.14-0.37-0.36-0.5
			l-3.46-2c-0.22-0.13-0.53-0.21-0.87-0.21c-0.34,0-0.64,0.08-0.87,0.21L134.38,260.5z"/>
		<path class="st15" d="M127.45,256.5c-0.22,0.13-0.36,0.31-0.36,0.5c0,0.2,0.14,0.37,0.36,0.5l3.46,2
			c0.22,0.13,0.53,0.21,0.87,0.21c0.34,0,0.64-0.08,0.87-0.21l3.46-2c0.22-0.13,0.36-0.3,0.36-0.5c0-0.19-0.14-0.37-0.36-0.5
			l-3.46-2c-0.22-0.13-0.53-0.21-0.87-0.21c-0.34,0-0.64,0.08-0.87,0.21L127.45,256.5z"/>
		<path class="st15" d="M120.52,252.5c-0.22,0.13-0.36,0.31-0.36,0.5c0,0.2,0.14,0.37,0.36,0.5l3.46,2
			c0.22,0.13,0.53,0.21,0.87,0.21c0.34,0,0.64-0.08,0.87-0.21l3.46-2c0.22-0.13,0.36-0.3,0.36-0.5c0-0.19-0.14-0.37-0.36-0.5
			l-3.46-2c-0.22-0.13-0.53-0.21-0.87-0.21c-0.34,0-0.64,0.08-0.87,0.21L120.52,252.5z"/>
		<path class="st15" d="M111.86,247.5c-0.22,0.13-0.36,0.31-0.36,0.5c0,0.2,0.14,0.37,0.36,0.5l5.2,3c0.22,0.13,0.53,0.21,0.87,0.21
			c0.34,0,0.64-0.08,0.87-0.21l3.46-2c0.22-0.13,0.36-0.3,0.36-0.5c0-0.19-0.14-0.37-0.36-0.5l-5.2-3
			c-0.22-0.13-0.53-0.21-0.87-0.21c-0.34,0-0.64,0.08-0.87,0.21L111.86,247.5z"/>
	</g>
	<polygon class="st7" points="173.35,315 79.82,261 116.19,240 209.72,294 	"/>
</g>
<path class="st3" d="M106.25,232.35c0.09-0.39-0.09-0.76-0.47-1.05l-11.79-9.04c-0.38-0.29-0.95-0.5-1.62-0.55
	c-0.67-0.05-1.31,0.05-1.82,0.27l-39.13,17.02c-0.5,0.22-0.86,0.55-0.95,0.93c-0.09,0.39,0.09,0.76,0.47,1.05l11.79,9.04
	c0.38,0.29,0.95,0.5,1.62,0.55c0.67,0.05,1.31-0.05,1.82-0.27l39.12-17.02C105.8,233.06,106.16,232.73,106.25,232.35z"/>
<g>
	<path class="st15" d="M43.45,242c-0.44-0.26-0.72-0.61-0.72-1c0-0.39,0.27-0.74,0.72-1l34.64-20c0.44-0.26,1.06-0.41,1.73-0.41
		c0.68,0,1.29,0.16,1.73,0.41l13.86,8c0.44,0.26,0.72,0.61,0.72,1c0,0.39-0.27,0.74-0.72,1l-34.64,20
		c-0.44,0.26-1.06,0.41-1.73,0.41c-0.68,0-1.29-0.16-1.73-0.41L43.45,242z"/>
	<path class="st1" d="M70.29,226.5c-0.22,0.13-0.36,0.3-0.36,0.5s0.14,0.37,0.36,0.5l12.12,7c0.22,0.13,0.53,0.21,0.87,0.21
		c0.34,0,0.64-0.08,0.87-0.21l8.66-5c0.22-0.13,0.36-0.3,0.36-0.5s-0.14-0.37-0.36-0.5l-12.12-7c-0.22-0.13-0.53-0.21-0.87-0.21
		c-0.34,0-0.64,0.08-0.87,0.21L70.29,226.5z"/>
	<path class="st6" d="M58.17,233.5c-0.22,0.13-0.36,0.3-0.36,0.5c0,0.2,0.14,0.37,0.36,0.5l12.12,7c0.22,0.13,0.53,0.21,0.87,0.21
		c0.34,0,0.64-0.08,0.87-0.21l8.66-5c0.22-0.13,0.36-0.3,0.36-0.5s-0.14-0.37-0.36-0.5l-12.12-7c-0.22-0.13-0.53-0.21-0.87-0.21
		c-0.34,0-0.64,0.08-0.87,0.21L58.17,233.5z"/>
	<g>
		<path class="st3" d="M46.05,240.5c-0.22,0.13-0.36,0.3-0.36,0.5s0.14,0.37,0.36,0.5l12.12,7c0.22,0.13,0.53,0.21,0.87,0.21
			c0.34,0,0.64-0.08,0.87-0.21l8.66-5c0.22-0.13,0.36-0.3,0.36-0.5s-0.14-0.37-0.36-0.5l-12.12-7c-0.22-0.13-0.53-0.21-0.87-0.21
			s-0.64,0.08-0.87,0.21L46.05,240.5z"/>
	</g>
	<polygon class="st7" points="59.04,251 41.72,241 79.82,219 97.14,229 	"/>
</g>
<g>
	<g>
		<path class="st1" d="M70.29,161.5c-0.48-0.28-0.87-0.95-0.87-1.5s0.39-0.78,0.87-0.5l3.46,2c0.48,0.28,0.87,0.95,0.87,1.5
			s-0.39,0.78-0.87,0.5L70.29,161.5z"/>
		<path class="st4" d="M78.95,166.5c-0.48-0.28-0.87-0.95-0.87-1.5s0.39-0.78,0.87-0.5l31.18,18c0.48,0.28,0.87,0.95,0.87,1.5
			c0,0.55-0.39,0.78-0.87,0.5L78.95,166.5z"/>
		<path class="st1" d="M94.54,181.5c0.48,0.28,0.87,0.05,0.87-0.5c0-0.55-0.39-1.22-0.87-1.5l-3.46-2c-0.48-0.28-0.87-0.05-0.87,0.5
			c0,0.55,0.39,1.22,0.87,1.5L94.54,181.5z"/>
		<path class="st4" d="M85.88,176.5c0.48,0.28,0.87,0.05,0.87-0.5c0-0.55-0.39-1.22-0.87-1.5l-15.59-9
			c-0.48-0.28-0.87-0.05-0.87,0.5s0.39,1.22,0.87,1.5L85.88,176.5z"/>
	</g>
	<defs>
		<filter id="Adobe_OpacityMaskFilter_2_" filterUnits="userSpaceOnUse" x="64.23" y="96" width="51.96" height="78">
			<feColorMatrix  type="matrix" values="1 0 0 0 0  0 1 0 0 0  0 0 1 0 0  0 0 0 1 0"/>
		</filter>
	</defs>
	<mask maskUnits="userSpaceOnUse" x="64.23" y="96" width="51.96" height="78" id="SVGID_3_">
		<g class="st16">
			<path class="st1" d="M115.68,126.29c-0.34-0.59-0.78-1.04-1.22-1.29l-48.5-28c-0.44-0.26-0.89-0.32-1.22-0.12
				c-0.34,0.2-0.51,0.61-0.51,1.12v44c0,0.51,0.17,1.12,0.51,1.71c0.34,0.59,0.78,1.04,1.22,1.29l48.5,28
				c0.44,0.26,0.89,0.32,1.22,0.12c0.34-0.2,0.51-0.61,0.51-1.12v-44C116.19,127.49,116.02,126.88,115.68,126.29z"/>
		</g>
	</mask>
	<g class="st17">
		<polygon class="st4" points="116.19,174 64.23,144 64.23,96 116.19,126 		"/>
		<path class="st1" d="M64.23,144v-10.41l11.51-6.65c0.17-0.1,0.39-0.07,0.61,0.06c0.22,0.13,0.44,0.35,0.61,0.65l20.53,35.56
			L64.23,144z"/>
		<polygon class="st4" points="84.15,140.09 72.53,148.79 87.99,142.57 		"/>
		<path class="st1" d="M116.19,174v-22.41l-11.51-19.94c-0.17-0.29-0.39-0.52-0.61-0.65c-0.22-0.13-0.44-0.16-0.61-0.06
			l-30.92,17.85L116.19,174z"/>
	</g>
	<defs>
		<filter id="Adobe_OpacityMaskFilter_3_" filterUnits="userSpaceOnUse" x="64.23" y="36" width="51.96" height="78">
			<feColorMatrix  type="matrix" values="1 0 0 0 0  0 1 0 0 0  0 0 1 0 0  0 0 0 1 0"/>
		</filter>
	</defs>
	<mask maskUnits="userSpaceOnUse" x="64.23" y="36" width="51.96" height="78" id="SVGID_4_">
		<g class="st18">
			<path class="st1" d="M115.68,66.29c-0.34-0.59-0.78-1.04-1.22-1.29l-48.5-28c-0.44-0.26-0.89-0.32-1.22-0.12
				c-0.34,0.2-0.51,0.61-0.51,1.12v44c0,0.51,0.17,1.12,0.51,1.71c0.34,0.59,0.78,1.04,1.22,1.29l48.5,28
				c0.44,0.26,0.89,0.32,1.22,0.12c0.34-0.2,0.51-0.61,0.51-1.12V68C116.19,67.49,116.02,66.88,115.68,66.29z"/>
		</g>
	</mask>
	<g class="st19">
		<polygon class="st4" points="116.19,114 64.23,84 64.23,36 116.19,66 		"/>
		<path class="st1" d="M110.13,102.5c0.48,0.28,0.87,0.05,0.87-0.5c0-0.55-0.39-1.22-0.87-1.5l-29.44-17
			c-0.48-0.28-0.87-0.05-0.87,0.5c0,0.55,0.39,1.22,0.87,1.5L110.13,102.5z"/>
		<path class="st1" d="M73.76,81.5c0.48,0.28,0.87,0.05,0.87-0.5c0-0.55-0.39-1.22-0.87-1.5l-3.46-2c-0.48-0.28-0.87-0.05-0.87,0.5
			c0,0.55,0.39,1.22,0.87,1.5L73.76,81.5z"/>
		<path class="st1" d="M92.81,91.5c0,1.66-1.16,2.33-2.6,1.5c-1.44-0.83-2.6-2.84-2.6-4.5c0-1.66,1.16-2.33,2.6-1.5
			C91.65,87.83,92.81,89.84,92.81,91.5z"/>
		<path class="st1" d="M86.75,75c0,0.55,0.39,1.22,0.87,1.5c0.17,0.1,0.33,0.13,0.46,0.11l6.93-1c0.24-0.04,0.41-0.26,0.41-0.61
			c0-0.36-0.16-0.77-0.41-1.08l-6.93-9c-0.13-0.17-0.29-0.32-0.46-0.42c-0.48-0.28-0.87-0.05-0.87,0.5V75z"/>
	</g>
	<defs>
		<filter id="Adobe_OpacityMaskFilter_4_" filterUnits="userSpaceOnUse" x="1.88" y="0" width="51.96" height="78">
			<feColorMatrix  type="matrix" values="1 0 0 0 0  0 1 0 0 0  0 0 1 0 0  0 0 0 1 0"/>
		</filter>
	</defs>
	<mask maskUnits="userSpaceOnUse" x="1.88" y="0" width="51.96" height="78" id="SVGID_5_">
		<g class="st20">
			<path class="st1" d="M53.33,30.29c-0.34-0.59-0.78-1.04-1.22-1.29L3.61,1C3.17,0.74,2.72,0.68,2.38,0.88
				C2.05,1.07,1.88,1.49,1.88,2v44c0,0.51,0.17,1.12,0.51,1.71c0.34,0.59,0.78,1.04,1.22,1.29l48.5,28
				c0.44,0.26,0.89,0.32,1.22,0.12c0.34-0.2,0.51-0.61,0.51-1.12V32C53.84,31.49,53.67,30.88,53.33,30.29z"/>
		</g>
	</mask>
	<g class="st21">
		<polygon class="st4" points="53.84,78 1.88,48 1.88,0 53.84,30 		"/>
		<g>
			<path class="st1" d="M42.58,39.5c0.48,0.28,0.87,0.05,0.87-0.5c0-0.55-0.39-1.22-0.87-1.5l-15.59-9
				c-0.48-0.28-0.87-0.05-0.87,0.5s0.39,1.22,0.87,1.5L42.58,39.5z"/>
			<path class="st1" d="M32.19,39.5c0.48,0.28,0.87,0.05,0.87-0.5c0-0.55-0.39-1.22-0.87-1.5l-19.05-11
				c-0.48-0.28-0.87-0.05-0.87,0.5c0,0.55,0.39,1.22,0.87,1.5L32.19,39.5z"/>
			<path class="st1" d="M21.8,27.5c0.48,0.28,0.87,0.05,0.87-0.5s-0.39-1.22-0.87-1.5l-8.66-5c-0.48-0.28-0.87-0.05-0.87,0.5
				s0.39,1.22,0.87,1.5L21.8,27.5z"/>
			<path class="st1" d="M13.14,34.5c-0.48-0.28-0.87-0.95-0.87-1.5s0.39-0.78,0.87-0.5l3.46,2c0.48,0.28,0.87,0.95,0.87,1.5
				s-0.39,0.78-0.87,0.5L13.14,34.5z"/>
			<path class="st1" d="M21.8,39.5c-0.48-0.28-0.87-0.95-0.87-1.5s0.39-0.78,0.87-0.5l20.78,12c0.48,0.28,0.87,0.95,0.87,1.5
				s-0.39,0.78-0.87,0.5L21.8,39.5z"/>
			<path class="st1" d="M42.58,57.5c0.48,0.28,0.87,0.05,0.87-0.5s-0.39-1.22-0.87-1.5l-3.46-2c-0.48-0.28-0.87-0.05-0.87,0.5
				s0.39,1.22,0.87,1.5L42.58,57.5z"/>
			<path class="st1" d="M33.92,52.5c0.48,0.28,0.87,0.05,0.87-0.5s-0.39-1.22-0.87-1.5l-20.78-12c-0.48-0.28-0.87-0.05-0.87,0.5
				s0.39,1.22,0.87,1.5L33.92,52.5z"/>
		</g>
	</g>
</g>
</svg>
