<svg id="ssl-1" xmlns="http://www.w3.org/2000/svg" xmlns:xlink="http://www.w3.org/1999/xlink" width="446" height="310" viewBox="0 0 446 310">
  <defs>
    <style>
      .cls-1, .cls-4, .cls-7 {
        fill: #fff;
      }

      .cls-2 {
        fill: #a4e0ff;
      }

      .cls-2, .cls-3, .cls-4, .cls-5, .cls-6, .cls-7, .cls-8, .cls-9 {
        fill-rule: evenodd;
      }

      .cls-3 {
        fill: #f3f5f9;
      }

      .cls-5 {
        fill: #009aff;
      }

      .cls-6 {
        fill: none;
        stroke: #fff;
        stroke-width: 2px;
      }

      .cls-7 {
        filter: url(#filter);
      }

      .cls-8 {
        fill: #e3effc;
      }

      .cls-9 {
        fill: #393d45;
      }
    </style>
    <filter id="filter" x="1138" y="2094" width="308" height="113" filterUnits="userSpaceOnUse">
      <feOffset result="offset" dy="2" in="SourceAlpha"/>
      <feGaussianBlur result="blur" stdDeviation="3.606"/>
      <feFlood result="flood" flood-opacity="0.15"/>
      <feComposite result="composite" operator="in" in2="blur"/>
      <feBlend result="blend" in="SourceGraphic"/>
    </filter>
  </defs>
  <rect id="Prostokąt_1237" data-name="Prostokąt 1237" class="cls-1" width="446" height="310"/>
  <path id="Kształt_1718" data-name="Kształt 1718" class="cls-2" d="M1068.99,2118.99v-45h446.02v45H1068.99Z" transform="translate(-1069 -2074)"/>
  <g id="Grupa_12" data-name="Grupa 12">
    <path id="Kształt_1718-2" data-name="Kształt 1718" class="cls-3" d="M1241,2257v-12h136v12H1241Z" transform="translate(-1069 -2074)"/>
    <path id="Kształt_1718-3" data-name="Kształt 1718" class="cls-3" d="M1240.99,2235v-12h262.02v12H1240.99Z" transform="translate(-1069 -2074)"/>
    <path id="Kształt_1718-4" data-name="Kształt 1718" class="cls-3" d="M1240.99,2191v-12h262.02v12H1240.99Z" transform="translate(-1069 -2074)"/>
    <path id="Kształt_1718_kopia" data-name="Kształt 1718 kopia" class="cls-3" d="M1240.99,2213v-12h262.02v12H1240.99Z" transform="translate(-1069 -2074)"/>
    <path id="Kształt_1718-5" data-name="Kształt 1718" class="cls-3" d="M1240.99,2169v-12h262.02v12H1240.99Z" transform="translate(-1069 -2074)"/>
    <path id="Kształt_1718-6" data-name="Kształt 1718" class="cls-3" d="M1240.99,2147v-12h262.02v12H1240.99Z" transform="translate(-1069 -2074)"/>
    <path id="Kształt_1718-7" data-name="Kształt 1718" class="cls-3" d="M1081.99,2305v-12h260.02v12H1081.99Z" transform="translate(-1069 -2074)"/>
    <path id="Kształt_1718_kopia_2" data-name="Kształt 1718 kopia 2" class="cls-3" d="M1081.99,2327v-12h260.02v12H1081.99Z" transform="translate(-1069 -2074)"/>
    <path id="Kształt_1718_kopia_4" data-name="Kształt 1718 kopia 4" class="cls-3" d="M1082,2349v-12h140v12H1082Z" transform="translate(-1069 -2074)"/>
    <path id="Kształt_1718-8" data-name="Kształt 1718" class="cls-3" d="M1081.99,2283v-12h260.02v12H1081.99Z" transform="translate(-1069 -2074)"/>
    <path id="Kształt_1718-9" data-name="Kształt 1718" class="cls-3" d="M1081.99,2257.01v-122h146.02v122H1081.99Z" transform="translate(-1069 -2074)"/>
    <path id="Kształt_1718_kopia_3" data-name="Kształt 1718 kopia 3" class="cls-3" d="M1356.99,2349.01v-78h146.02v78H1356.99Z" transform="translate(-1069 -2074)"/>
  </g>
  <path id="Kształt_1718-10" data-name="Kształt 1718" class="cls-4" d="M1165.99,2107v-20.01h337.02V2107H1165.99Z" transform="translate(-1069 -2074)"/>
  <path id="Kształt_1724" data-name="Kształt 1724" class="cls-5" d="M1185.29,2095.05h-0.65v-0.53a3.471,3.471,0,0,0-1.1-2.66,3.75,3.75,0,0,0-2.71-.85,3.258,3.258,0,0,0-3.4,3.37v0.67h-0.72a0.689,0.689,0,0,0-.71.66v6.62a0.751,0.751,0,0,0,.71.67h8.58a0.7,0.7,0,0,0,.71-0.67v-6.62A0.649,0.649,0,0,0,1185.29,2095.05Zm-6.43-.67a1.886,1.886,0,0,1,2.03-2.05,2.279,2.279,0,0,1,1.66.49,2.191,2.191,0,0,1,.66,1.7v0.53h-4.35v-0.67Z" transform="translate(-1069 -2074)"/>
  <g id="Grupa_20" data-name="Grupa 20">
    <path id="Kształt_1723" data-name="Kształt 1723" class="cls-4" d="M1126.85,2096.43l-6.29-6.26a0.5,0.5,0,0,0-.71,0l-0.71.7a0.5,0.5,0,0,0,0,.71l4.45,4.42H1109.5a0.493,0.493,0,0,0-.5.49v1a0.5,0.5,0,0,0,.5.5h14.09l-4.44,4.42a0.5,0.5,0,0,0,0,.71l0.71,0.71a0.5,0.5,0,0,0,.35.15,0.485,0.485,0,0,0,.35-0.15l6.29-6.27a0.508,0.508,0,0,0,.15-0.36v-0.42A0.469,0.469,0,0,0,1126.85,2096.43Z" transform="translate(-1069 -2074)"/>
    <path id="Kształt_1723-2" data-name="Kształt 1723" class="cls-4" d="M1082.15,2096.43l6.29-6.29a0.5,0.5,0,0,1,.71,0l0.71,0.71a0.5,0.5,0,0,1,0,.71l-4.45,4.43h14.09a0.5,0.5,0,0,1,.5.5v1a0.5,0.5,0,0,1-.5.5h-14.09l4.44,4.45a0.5,0.5,0,0,1,0,.71l-0.71.71a0.5,0.5,0,0,1-.35.15,0.485,0.485,0,0,1-.35-0.15l-6.29-6.3a0.508,0.508,0,0,1-.15-0.36v-0.42A0.469,0.469,0,0,1,1082.15,2096.43Z" transform="translate(-1069 -2074)"/>
    <g id="Grupa_16" data-name="Grupa 16">
      <path id="Elipsa_1009" data-name="Elipsa 1009" class="cls-6" d="M1144.5,2104.57a8.075,8.075,0,1,1,8.07-8.07" transform="translate(-1069 -2074)"/>
      <path id="Kształt_1728" data-name="Kształt 1728" class="cls-4" d="M1154.3,2098.95l3.36-7.72a0.541,0.541,0,0,0-.25-0.69l-0.9-.44a0.474,0.474,0,0,0-.66.24l-2.87,6.6-6.43-3.21a0.474,0.474,0,0,0-.66.24l-0.4.93a0.579,0.579,0,0,0-.01.39,0.5,0.5,0,0,0,.26.29l7.52,3.75a0.462,0.462,0,0,0,.38.03l0.39-.15A0.434,0.434,0,0,0,1154.3,2098.95Z" transform="translate(-1069 -2074)"/>
    </g>
  </g>
  <g id="secure">
    <path id="Kształt_1718-11" data-name="Kształt 1718" class="cls-7" d="M1210.01,2135L1181,2104l-0.01,31h29.02Zm-60.02,56.99v-58.2h283.02v58.2H1149.99Z" transform="translate(-1069 -2074)"/>
    <g id="Grupa_18" data-name="Grupa 18">
      <path id="Kształt_1718-12" data-name="Kształt 1718" class="cls-8" d="M1164,2181.99V2145h130v36.99H1164Z" transform="translate(-1069 -2074)"/>
      <g id="Grupa_17" data-name="Grupa 17">
        <path id="Kształt_1727" data-name="Kształt 1727" class="cls-5" d="M1195.79,2159.06h-1.1v-0.92a6.124,6.124,0,0,0-1.9-4.6,6.283,6.283,0,0,0-4.58-1.55,5.61,5.61,0,0,0-5.78,5.91v1.16h-1.22a1.2,1.2,0,0,0-1.21,1.16v11.61a1.279,1.279,0,0,0,1.21,1.16h14.58a1.191,1.191,0,0,0,1.21-1.16v-11.61A1.127,1.127,0,0,0,1195.79,2159.06Zm-10.93-1.16a3.27,3.27,0,0,1,3.44-3.59,3.725,3.725,0,0,1,2.8.9,3.9,3.9,0,0,1,1.16,2.93v0.92h-7.4v-1.16Z" transform="translate(-1069 -2074)"/>
        <path id="Kształt_1730" data-name="Kształt 1730" class="cls-4" d="M1193.37,2163.53l-0.79-.78a1.241,1.241,0,0,0-.89,0h0l-3.81,3.92-1.57-1.57a0.71,0.71,0,0,0-.78-0.11h0l-0.79.78a0.9,0.9,0,0,0-.11.9h0l2.58,2.58c0.11,0,.33.11,0.45,0.11h0.44a1.094,1.094,0,0,0,.34-0.11l4.82-4.82a0.9,0.9,0,0,0,.11-0.9h0Z" transform="translate(-1069 -2074)"/>
      </g>
      <path id="SECURE-2" data-name="SECURE" class="cls-5" d="M1216.08,2167.45a2.756,2.756,0,0,1-1.74.47,3.154,3.154,0,0,1-2.07-.6,2.073,2.073,0,0,1-.72-1.69h-2.22a3.523,3.523,0,0,0,.65,2.11,4.193,4.193,0,0,0,1.81,1.42,6.248,6.248,0,0,0,2.55.52,5.334,5.334,0,0,0,3.33-.95,3.06,3.06,0,0,0,1.22-2.54,3.4,3.4,0,0,0-.42-1.72,3.77,3.77,0,0,0-1.33-1.3,9.449,9.449,0,0,0-2.4-1.01,7.4,7.4,0,0,1-2.14-.92,1.4,1.4,0,0,1-.65-1.17,1.547,1.547,0,0,1,.6-1.3,2.717,2.717,0,0,1,1.69-.47,2.592,2.592,0,0,1,1.8.57,2.005,2.005,0,0,1,.63,1.57h2.21a3.67,3.67,0,0,0-.59-2.02,3.9,3.9,0,0,0-1.65-1.4,5.5,5.5,0,0,0-2.38-.49,5.083,5.083,0,0,0-3.27,1,3.126,3.126,0,0,0-1.26,2.55,3.273,3.273,0,0,0,1.74,2.86,10.281,10.281,0,0,0,2.47,1.04,7.33,7.33,0,0,1,2.14.92,1.566,1.566,0,0,1,.59,1.3A1.536,1.536,0,0,1,1216.08,2167.45Zm13.14-5.42h-5.25v-3.53h6.08v-1.8h-8.31v12.8h8.37v-1.78h-6.14v-3.93h5.25v-1.76Zm11.15,3.3a3.06,3.06,0,0,1-.83,1.96,2.847,2.847,0,0,1-1.97.59,2.466,2.466,0,0,1-2.18-1.09,5.654,5.654,0,0,1-.74-3.16v-1.14a5.351,5.351,0,0,1,.79-3.11,2.6,2.6,0,0,1,2.23-1.06,2.663,2.663,0,0,1,1.9.61,3.138,3.138,0,0,1,.8,1.99h2.22a4.82,4.82,0,0,0-1.51-3.25,4.966,4.966,0,0,0-3.41-1.14,5.19,5.19,0,0,0-2.77.74,4.864,4.864,0,0,0-1.84,2.13,7.447,7.447,0,0,0-.64,3.19v1.2a7.213,7.213,0,0,0,.66,3.1,4.755,4.755,0,0,0,1.79,2.06,5.052,5.052,0,0,0,2.7.73,5.142,5.142,0,0,0,3.5-1.15,4.641,4.641,0,0,0,1.52-3.2h-2.22Zm12.25-8.63v8.49c0,1.81-.86,2.71-2.57,2.71a2.529,2.529,0,0,1-1.91-.68,2.686,2.686,0,0,1-.66-1.96v-8.56h-2.21v8.55a4.175,4.175,0,0,0,1.29,3.25,5.015,5.015,0,0,0,3.49,1.18,4.94,4.94,0,0,0,3.48-1.2,4.146,4.146,0,0,0,1.3-3.23v-8.55h-2.21Zm12.75,12.8h2.39v-0.11l-2.88-5.33a3.915,3.915,0,0,0,1.73-1.34,3.6,3.6,0,0,0,.62-2.15,3.488,3.488,0,0,0-1.21-2.87,5.175,5.175,0,0,0-3.41-1h-4.5v12.8h2.22v-4.92h2.48Zm-5.04-11h2.35a2.446,2.446,0,0,1,1.74.58,2.085,2.085,0,0,1,.58,1.59,1.991,1.991,0,0,1-.63,1.55,2.535,2.535,0,0,1-1.76.57h-2.28v-4.29Zm17.39,3.53h-5.26v-3.53h6.08v-1.8h-8.3v12.8h8.37v-1.78h-6.15v-3.93h5.26v-1.76Z" transform="translate(-1069 -2074)"/>
    </g>
    <path id="https:_www." data-name="https://www." class="cls-9" d="M1310.88,2156h-2.14v13.5h2.14v-6.79a2.045,2.045,0,0,1,1.91-1.15,1.768,1.768,0,0,1,1.26.41,1.9,1.9,0,0,1,.42,1.4v6.13h2.14v-6.21q-0.045-3.48-3.09-3.48a3.347,3.347,0,0,0-2.64,1.22V2156Zm9.33,1.68v2.31h-1.57v1.58h1.57v5.39c0,1.81.82,2.72,2.46,2.72a5.007,5.007,0,0,0,1.4-.21v-1.65a3.184,3.184,0,0,1-.74.09,1,1,0,0,1-.77-0.24,1.148,1.148,0,0,1-.22-0.79v-5.31h1.68v-1.58h-1.68v-2.31h-2.13Zm6.88,0v2.31h-1.56v1.58h1.56v5.39c0,1.81.82,2.72,2.46,2.72a5.129,5.129,0,0,0,1.41-.21v-1.65a3.2,3.2,0,0,1-.75.09,1.014,1.014,0,0,1-.77-0.24,1.2,1.2,0,0,1-.21-0.79v-5.31h1.68v-1.58h-1.68v-2.31h-2.14Zm14.68,7.03a5.812,5.812,0,0,0-.99-3.6,3.259,3.259,0,0,0-2.73-1.3,3.154,3.154,0,0,0-2.56,1.15l-0.09-.97h-1.97v13.17h2.14v-4.51a3.249,3.249,0,0,0,2.5,1.03,3.188,3.188,0,0,0,2.69-1.32,5.64,5.64,0,0,0,1.01-3.52v-0.13Zm-2.71,2.44a1.821,1.821,0,0,1-1.59.82,1.987,1.987,0,0,1-1.9-1.11v-4.22a1.966,1.966,0,0,1,1.88-1.08,1.843,1.843,0,0,1,1.62.84,3.96,3.96,0,0,1,.57,2.26A4.32,4.32,0,0,1,1339.06,2167.15Zm10.3,0.61a2.176,2.176,0,0,1-1.28.32,2.24,2.24,0,0,1-1.4-.41,1.509,1.509,0,0,1-.57-1.17h-2.07a2.734,2.734,0,0,0,.51,1.59,3.346,3.346,0,0,0,1.42,1.16,4.776,4.776,0,0,0,2.08.43,4.549,4.549,0,0,0,2.79-.8,2.468,2.468,0,0,0,1.06-2.08,2.354,2.354,0,0,0-.34-1.3,2.89,2.89,0,0,0-1.07-.92,8.321,8.321,0,0,0-1.97-.66,5.237,5.237,0,0,1-1.67-.55,0.842,0.842,0,0,1-.41-0.76,1.019,1.019,0,0,1,.44-0.87,1.888,1.888,0,0,1,1.15-.33,1.773,1.773,0,0,1,1.21.41,1.359,1.359,0,0,1,.46,1.03h2.13a2.673,2.673,0,0,0-1.05-2.19,4.28,4.28,0,0,0-2.75-.85,4.106,4.106,0,0,0-2.64.83,2.544,2.544,0,0,0-1.04,2.06,2.439,2.439,0,0,0,1.6,2.24,8.133,8.133,0,0,0,1.82.58,4.846,4.846,0,0,1,1.56.53,0.977,0.977,0,0,1,.47.87A0.992,0.992,0,0,1,1349.36,2167.76Zm5.67-.17a1.2,1.2,0,0,0-.32.85,1.115,1.115,0,0,0,.33.83,1.256,1.256,0,0,0,.91.33,1.233,1.233,0,0,0,.92-0.33,1.131,1.131,0,0,0,.33-0.83,1.161,1.161,0,0,0-.33-0.85,1.2,1.2,0,0,0-.92-0.34A1.215,1.215,0,0,0,1355.03,2167.59Zm0-7.46a1.171,1.171,0,0,0-.32.84,1.138,1.138,0,0,0,.33.84,1.251,1.251,0,0,0,.91.32,1.27,1.27,0,0,0,.92-0.32,1.234,1.234,0,0,0,0-1.68,1.2,1.2,0,0,0-.92-0.34A1.215,1.215,0,0,0,1355.03,2160.13Zm10.94-3.43h-1.68l-5.03,13.9h1.68Zm5.84,0h-1.68l-5.03,13.9h1.68Zm8.76,3.29h-1.61l-1.95,6.5-1.54-6.5h-2.08l2.6,9.51h1.76l2-6.53,2.04,6.53h1.76l2.59-9.51h-2.08l-1.51,6.57Zm14.28,0h-1.61l-1.95,6.5-1.54-6.5h-2.08l2.6,9.51h1.75l2.01-6.53,2.04,6.53h1.76l2.59-9.51h-2.09l-1.51,6.57Zm14.27,0h-1.61l-1.95,6.5-1.54-6.5h-2.08l2.6,9.51h1.76l2.01-6.53,2.03,6.53h1.76l2.59-9.51h-2.08l-1.51,6.57Zm7.23,7.6a1.154,1.154,0,0,0-.32.85,1.115,1.115,0,0,0,.33.83,1.216,1.216,0,0,0,.9.33,1.258,1.258,0,0,0,.93-0.33,1.164,1.164,0,0,0,.32-0.83,1.2,1.2,0,0,0-.32-0.85,1.223,1.223,0,0,0-.93-0.34A1.192,1.192,0,0,0,1416.35,2167.59Z" transform="translate(-1069 -2074)"/>
  </g>
</svg>
