<?xml version="1.0" encoding="utf-8"?>
<!-- Generator: Adobe Illustrator 22.1.0, SVG Export Plug-In . SVG Version: 6.00 Build 0)  -->
<svg version="1.1" id="Warstwa_1" xmlns="http://www.w3.org/2000/svg" xmlns:xlink="http://www.w3.org/1999/xlink" x="0px" y="0px"
	 width="376px" height="324px" viewBox="0 0 376 324" style="enable-background:new 0 0 376 324;" xml:space="preserve">
<style type="text/css">
	.st0{filter:url(#Adobe_OpacityMaskFilter);}
	.st1{fill:#FFFFFF;}
	.st2{mask:url(#SVGID_1_);}
	.st3{fill:#A4E0FF;}
	.st4{fill:#056CEA;}
	.st5{fill:#88D3FF;}
	.st6{opacity:0.48;fill:#3192E7;}
	.st7{fill:#73C8FF;}
	.st8{fill:#3192E7;}
	.st9{display:none;}
	.st10{fill:none;stroke:#FFFFFF;stroke-width:18;stroke-linecap:round;stroke-linejoin:round;stroke-miterlimit:10;}
	.st11{display:inline;fill:#88D3FF;}
	.st12{display:none;fill:none;stroke:#88D3FF;stroke-width:18;stroke-linecap:round;stroke-linejoin:round;stroke-miterlimit:10;}
	.st13{filter:url(#Adobe_OpacityMaskFilter_1_);}
	.st14{mask:url(#SVGID_2_);}
</style>
<g>
	<defs>
		<filter id="Adobe_OpacityMaskFilter" filterUnits="userSpaceOnUse" x="1.88" y="0" width="142.03" height="190">
			<feColorMatrix  type="matrix" values="1 0 0 0 0  0 1 0 0 0  0 0 1 0 0  0 0 0 1 0"/>
		</filter>
	</defs>
	<mask maskUnits="userSpaceOnUse" x="1.88" y="0" width="142.03" height="190" id="SVGID_1_">
		<g class="st0">
			<g>
				<path class="st1" d="M143.4,82.29c-0.34-0.59-0.78-1.04-1.22-1.29L79.82,45c-0.44-0.26-0.89-0.32-1.22-0.12
					c-0.34,0.2-0.51,0.61-0.51,1.12v104c0,0.51,0.17,1.12,0.51,1.71c0.34,0.59,0.78,1.04,1.22,1.29l62.35,36
					c0.44,0.26,0.89,0.32,1.22,0.12c0.34-0.2,0.51-0.61,0.51-1.12V84C143.91,83.49,143.74,82.88,143.4,82.29z"/>
			</g>
			<g>
				<path class="st1" d="M67.19,38.29c-0.34-0.59-0.78-1.04-1.22-1.29L3.61,1C3.17,0.74,2.72,0.68,2.38,0.88
					C2.05,1.07,1.88,1.49,1.88,2v104c0,0.51,0.17,1.12,0.51,1.71c0.34,0.59,0.78,1.04,1.22,1.29l62.35,36
					c0.44,0.26,0.89,0.32,1.22,0.12c0.34-0.2,0.51-0.61,0.51-1.12V40C67.7,39.49,67.53,38.88,67.19,38.29z"/>
			</g>
		</g>
	</mask>
	<g class="st2">
		<polygon class="st1" points="1.88,0 143.91,82 143.91,190 1.88,108 		"/>
	</g>
	<g>
		<path class="st3" d="M110.13,138.5c0.48,0.28,0.87,0.05,0.87-0.5c0-0.55-0.39-1.22-0.87-1.5l-20.78-12
			c-0.48-0.28-0.87-0.05-0.87,0.5c0,0.55,0.39,1.22,0.87,1.5L110.13,138.5z"/>
		<path class="st3" d="M132.65,109.5c0.48,0.28,0.87,0.05,0.87-0.5c0-0.55-0.39-1.22-0.87-1.5l-43.3-25
			c-0.48-0.28-0.87-0.05-0.87,0.5c0,0.55,0.39,1.22,0.87,1.5L132.65,109.5z"/>
		<path class="st3" d="M132.65,127.5c0.48,0.28,0.87,0.05,0.87-0.5c0-0.55-0.39-1.22-0.87-1.5l-34.64-20
			c-0.48-0.28-0.87-0.05-0.87,0.5c0,0.55,0.39,1.22,0.87,1.5L132.65,127.5z"/>
		<path class="st3" d="M122.25,127.5c0.48,0.28,0.87,0.05,0.87-0.5c0-0.55-0.39-1.22-0.87-1.5l-32.91-19
			c-0.48-0.28-0.87-0.05-0.87,0.5c0,0.55,0.39,1.22,0.87,1.5L122.25,127.5z"/>
		<path class="st3" d="M101.47,127.5c0.48,0.28,0.87,0.05,0.87-0.5c0-0.55-0.39-1.22-0.87-1.5l-12.12-7
			c-0.48-0.28-0.87-0.05-0.87,0.5c0,0.55,0.39,1.22,0.87,1.5L101.47,127.5z"/>
		<path class="st3" d="M127.45,142.5c0.48,0.28,0.87,0.05,0.87-0.5s-0.39-1.22-0.87-1.5l-20.78-12c-0.48-0.28-0.87-0.05-0.87,0.5
			s0.39,1.22,0.87,1.5L127.45,142.5z"/>
		<path class="st3" d="M101.47,97.5c0.48,0.28,0.87,0.05,0.87-0.5c0-0.55-0.39-1.22-0.87-1.5l-12.12-7
			c-0.48-0.28-0.87-0.05-0.87,0.5c0,0.55,0.39,1.22,0.87,1.5L101.47,97.5z"/>
		<path class="st3" d="M127.45,112.5c0.48,0.28,0.87,0.05,0.87-0.5c0-0.55-0.39-1.22-0.87-1.5l-20.78-12
			c-0.48-0.28-0.87-0.05-0.87,0.5c0,0.55,0.39,1.22,0.87,1.5L127.45,112.5z"/>
		<path class="st3" d="M113.59,110.5c0.48,0.28,0.87,0.05,0.87-0.5c0-0.55-0.39-1.22-0.87-1.5l-24.25-14
			c-0.48-0.28-0.87-0.05-0.87,0.5c0,0.55,0.39,1.22,0.87,1.5L113.59,110.5z"/>
		<path class="st3" d="M122.25,115.5c0.48,0.28,0.87,0.05,0.87-0.5c0-0.55-0.39-1.22-0.87-1.5l-3.46-2
			c-0.48-0.28-0.87-0.05-0.87,0.5c0,0.55,0.39,1.22,0.87,1.5L122.25,115.5z"/>
		<path class="st3" d="M115.33,129.5c-0.48-0.28-0.87-0.95-0.87-1.5c0-0.55,0.39-0.78,0.87-0.5l12.12,7
			c0.48,0.28,0.87,0.95,0.87,1.5c0,0.55-0.39,0.78-0.87,0.5L115.33,129.5z"/>
		<path class="st3" d="M89.35,102.5c-0.48-0.28-0.87-0.95-0.87-1.5c0-0.55,0.39-0.78,0.87-0.5l3.46,2c0.48,0.28,0.87,0.95,0.87,1.5
			c0,0.55-0.39,0.78-0.87,0.5L89.35,102.5z"/>
		<path class="st3" d="M89.35,114.5c-0.48-0.28-0.87-0.95-0.87-1.5c0-0.55,0.39-0.78,0.87-0.5l20.78,12
			c0.48,0.28,0.87,0.95,0.87,1.5c0,0.55-0.39,0.78-0.87,0.5L89.35,114.5z"/>
		<path class="st3" d="M132.65,168.5c0.48,0.28,0.87,0.05,0.87-0.5c0-0.55-0.39-1.22-0.87-1.5l-12.12-7
			c-0.48-0.28-0.87-0.05-0.87,0.5c0,0.55,0.39,1.22,0.87,1.5L132.65,168.5z"/>
		<path class="st3" d="M101.47,74.5c0.48,0.28,0.87,0.05,0.87-0.5c0-0.55-0.39-1.22-0.87-1.5l-12.12-7
			c-0.48-0.28-0.87-0.05-0.87,0.5c0,0.55,0.39,1.22,0.87,1.5L101.47,74.5z"/>
	</g>
	<g>
		<path class="st3" d="M33.92,94.5c0.48,0.28,0.87,0.05,0.87-0.5c0-0.55-0.39-1.22-0.87-1.5l-20.78-12
			c-0.48-0.28-0.87-0.05-0.87,0.5c0,0.55,0.39,1.22,0.87,1.5L33.92,94.5z"/>
		<path class="st3" d="M56.44,65.5c0.48,0.28,0.87,0.05,0.87-0.5c0-0.55-0.39-1.22-0.87-1.5l-43.3-25c-0.48-0.28-0.87-0.05-0.87,0.5
			s0.39,1.22,0.87,1.5L56.44,65.5z"/>
		<path class="st3" d="M56.44,83.5c0.48,0.28,0.87,0.05,0.87-0.5c0-0.55-0.39-1.22-0.87-1.5l-34.64-20
			c-0.48-0.28-0.87-0.05-0.87,0.5s0.39,1.22,0.87,1.5L56.44,83.5z"/>
		<path class="st3" d="M46.04,83.5c0.48,0.28,0.87,0.05,0.87-0.5c0-0.55-0.39-1.22-0.87-1.5l-32.91-19
			c-0.48-0.28-0.87-0.05-0.87,0.5s0.39,1.22,0.87,1.5L46.04,83.5z"/>
		<path class="st3" d="M25.26,83.5c0.48,0.28,0.87,0.05,0.87-0.5c0-0.55-0.39-1.22-0.87-1.5l-12.12-7c-0.48-0.28-0.87-0.05-0.87,0.5
			c0,0.55,0.39,1.22,0.87,1.5L25.26,83.5z"/>
		<path class="st3" d="M51.24,98.5c0.48,0.28,0.87,0.05,0.87-0.5c0-0.55-0.39-1.22-0.87-1.5l-20.78-12
			c-0.48-0.28-0.87-0.05-0.87,0.5c0,0.55,0.39,1.22,0.87,1.5L51.24,98.5z"/>
		<path class="st3" d="M25.26,53.5c0.48,0.28,0.87,0.05,0.87-0.5s-0.39-1.22-0.87-1.5l-12.12-7c-0.48-0.28-0.87-0.05-0.87,0.5
			s0.39,1.22,0.87,1.5L25.26,53.5z"/>
		<path class="st3" d="M51.24,68.5c0.48,0.28,0.87,0.05,0.87-0.5c0-0.55-0.39-1.22-0.87-1.5l-20.78-12
			c-0.48-0.28-0.87-0.05-0.87,0.5s0.39,1.22,0.87,1.5L51.24,68.5z"/>
		<path class="st3" d="M37.38,66.5c0.48,0.28,0.87,0.05,0.87-0.5c0-0.55-0.39-1.22-0.87-1.5l-24.25-14
			c-0.48-0.28-0.87-0.05-0.87,0.5s0.39,1.22,0.87,1.5L37.38,66.5z"/>
		<path class="st3" d="M46.04,71.5c0.48,0.28,0.87,0.05,0.87-0.5c0-0.55-0.39-1.22-0.87-1.5l-3.46-2c-0.48-0.28-0.87-0.05-0.87,0.5
			c0,0.55,0.39,1.22,0.87,1.5L46.04,71.5z"/>
		<path class="st3" d="M39.12,85.5c-0.48-0.28-0.87-0.95-0.87-1.5c0-0.55,0.39-0.78,0.87-0.5l12.12,7c0.48,0.28,0.87,0.95,0.87,1.5
			c0,0.55-0.39,0.78-0.87,0.5L39.12,85.5z"/>
		<path class="st3" d="M13.14,58.5c-0.48-0.28-0.87-0.95-0.87-1.5s0.39-0.78,0.87-0.5l3.46,2c0.48,0.28,0.87,0.95,0.87,1.5
			s-0.39,0.78-0.87,0.5L13.14,58.5z"/>
		<path class="st3" d="M13.14,70.5c-0.48-0.28-0.87-0.95-0.87-1.5c0-0.55,0.39-0.78,0.87-0.5l20.78,12c0.48,0.28,0.87,0.95,0.87,1.5
			c0,0.55-0.39,0.78-0.87,0.5L13.14,70.5z"/>
		<path class="st3" d="M56.44,124.5c0.48,0.28,0.87,0.05,0.87-0.5c0-0.55-0.39-1.22-0.87-1.5l-12.12-7
			c-0.48-0.28-0.87-0.05-0.87,0.5c0,0.55,0.39,1.22,0.87,1.5L56.44,124.5z"/>
		<path class="st3" d="M25.26,106.5c0.48,0.28,0.87,0.05,0.87-0.5c0-0.55-0.39-1.22-0.87-1.5l-12.12-7
			c-0.48-0.28-0.87-0.05-0.87,0.5c0,0.55,0.39,1.22,0.87,1.5L25.26,106.5z"/>
		<path class="st3" d="M25.26,30.5c0.48,0.28,0.87,0.05,0.87-0.5s-0.39-1.22-0.87-1.5l-12.12-7c-0.48-0.28-0.87-0.05-0.87,0.5
			s0.39,1.22,0.87,1.5L25.26,30.5z"/>
	</g>
</g>
<g>
	<path class="st4" d="M97.14,156c-1.86-1.07-3.72-2.92-5.2-5.31V172l5.2-3l5.2,9v-21.31C100.86,157.37,99,157.07,97.14,156z"/>
	<path class="st5" d="M100.58,156.96c0.58-0.34,1.04-0.83,1.38-1.44c-1.34,0.73-3.08,0.49-4.82-0.52c-1.77-1.02-3.55-2.83-4.9-5.17
		c-1.35-2.34-2.03-4.78-2.03-6.83c0-2.01,0.66-3.64,1.96-4.44c-0.7-0.01-1.36,0.14-1.94,0.48c-1.43,0.82-2.14,2.57-2.14,4.74
		c0,2.16,0.71,4.74,2.14,7.21c1.43,2.47,3.3,4.38,5.17,5.46C97.28,157.53,99.15,157.78,100.58,156.96z"/>
	<path class="st6" d="M100.58,156.96c0.58-0.34,1.04-0.83,1.38-1.44c-1.34,0.73-3.08,0.49-4.82-0.52c-1.77-1.02-3.55-2.83-4.9-5.17
		c-1.35-2.34-2.03-4.78-2.03-6.83c0-2.01,0.66-3.64,1.96-4.44c-0.7-0.01-1.36,0.14-1.94,0.48c-1.43,0.82-2.14,2.57-2.14,4.74
		c0,2.16,0.71,4.74,2.14,7.21c1.43,2.47,3.3,4.38,5.17,5.46C97.28,157.53,99.15,157.78,100.58,156.96z"/>
	<path class="st7" d="M101.17,155.99c-1.35,0.78-3.13,0.54-4.9-0.49c-1.77-1.02-3.55-2.83-4.9-5.17c-1.35-2.34-2.03-4.78-2.03-6.83
		s0.68-3.7,2.03-4.49c1.35-0.78,3.13-0.54,4.9,0.49c1.77,1.02,3.55,2.83,4.9,5.17c1.35,2.34,2.03,4.78,2.03,6.83
		S102.53,155.2,101.17,155.99z"/>
	<path class="st1" d="M95.41,150c0,0.55,0.39,1.22,0.87,1.5c0.48,0.28,0.87,0.05,0.87-0.5v-6c0-0.55-0.39-1.22-0.87-1.5
		c-0.48-0.28-0.87-0.05-0.87,0.5V150z"/>
	<path class="st8" d="M103.26,143.46c-1.69-2.93-3.91-5.18-6.12-6.46c-2.22-1.28-4.43-1.58-6.12-0.61l-1.73,1l0.28,2.16
		c0.2-0.19,0.42-0.37,0.67-0.51c1.43-0.82,3.3-0.57,5.17,0.51c1.87,1.08,3.74,2.99,5.17,5.46c1.43,2.47,2.14,5.05,2.14,7.21
		c0,2.16-0.71,3.91-2.14,4.74c-0.68,0.39-1.45,0.53-2.28,0.46l3.23,1.18l1.73-1c1.69-0.98,2.54-3.05,2.54-5.61
		C105.8,149.44,104.95,146.39,103.26,143.46z"/>
	<path class="st5" d="M101.53,144.46c-1.69-2.93-3.91-5.18-6.12-6.46c-2.22-1.28-4.43-1.58-6.12-0.61
		c-1.69,0.98-2.54,3.05-2.54,5.61c0,2.56,0.85,5.61,2.54,8.54c1.69,2.93,3.91,5.19,6.12,6.46c2.22,1.28,4.43,1.58,6.12,0.61
		c1.69-0.98,2.54-3.05,2.54-5.61C104.07,150.44,103.22,147.39,101.53,144.46z M100.31,156.49c-1.35,0.78-3.13,0.54-4.9-0.49
		c-1.77-1.02-3.55-2.83-4.9-5.17c-1.35-2.34-2.03-4.78-2.03-6.83c0-2.05,0.68-3.7,2.03-4.49c1.35-0.78,3.13-0.54,4.9,0.49
		c1.77,1.02,3.55,2.83,4.9,5.17c1.35,2.34,2.03,4.78,2.03,6.83C102.34,154.05,101.66,155.7,100.31,156.49z"/>
</g>
<g>
	<polygon class="st9" points="156.03,87 253.02,143 253.02,251 156.03,195 	"/>
	<path class="st8" d="M249.56,141l-29.45,17l2.45,2.59v105.66c0,0,28.77-16.61,29.45-17c0.68-0.39,1.01-1.22,1.01-2.24v-14
		l-5.2-7.19l5.2-12.81v-6l-5.2-7.19l5.2-12.81v-6l-5.2-7.19l5.2-12.81v-14c0-1.02-0.34-2.24-1.01-3.41L249.56,141z"/>
	<g>
		<path class="st8" d="M159.49,113.51c-3.59,0-6.84-0.84-9.19-2.2c-2.35-1.36-3.81-3.23-3.81-5.31c0-2.07,1.46-3.95,3.81-5.31
			c2.35-1.36,5.6-2.2,9.19-2.2c3.59,0,6.84,0.84,9.19,2.2c2.35,1.36,3.81,3.23,3.81,5.31c0,2.07-1.46,3.95-3.81,5.31
			C166.33,112.67,163.08,113.51,159.49,113.51z"/>
		<path class="st8" d="M220.12,148.51c-3.59,0-6.84-0.84-9.19-2.2c-2.35-1.36-3.81-3.23-3.81-5.31c0-2.07,1.46-3.95,3.81-5.31
			c2.35-1.36,5.6-2.2,9.19-2.2c3.59,0,6.84,0.84,9.19,2.2c2.35,1.36,3.81,3.23,3.81,5.31c0,2.07-1.46,3.95-3.81,5.31
			C226.96,147.67,223.71,148.51,220.12,148.51z"/>
	</g>
	<g>
		<path class="st1" d="M159.49,111.2c-2.49,0-4.74-0.58-6.36-1.52c-1.63-0.94-2.64-2.24-2.64-3.67c0-1.44,1.01-2.73,2.64-3.67
			c1.63-0.94,3.88-1.52,6.36-1.52c2.48,0,4.73,0.58,6.36,1.52c1.63,0.94,2.64,2.24,2.64,3.67c0,1.43-1.01,2.73-2.64,3.67
			C164.23,110.62,161.98,111.2,159.49,111.2z"/>
		<path class="st1" d="M159.49,123.2c-2.49,0-4.74-0.58-6.36-1.52c-1.63-0.94-2.64-2.24-2.64-3.67c0-1.44,0-12,0-12h18
			c0,0,0,10.56,0,12c0,1.43-1.01,2.73-2.64,3.67C164.23,122.62,161.98,123.2,159.49,123.2z"/>
		<path class="st1" d="M220.12,146.2c-2.49,0-4.74-0.58-6.36-1.52c-1.63-0.94-2.64-2.24-2.64-3.67c0-1.44,1.01-2.73,2.64-3.67
			c1.63-0.94,3.88-1.52,6.36-1.52c2.49,0,4.74,0.58,6.36,1.52c1.63,0.94,2.64,2.24,2.64,3.67c0,1.43-1.01,2.73-2.64,3.67
			C224.85,145.62,222.6,146.2,220.12,146.2z"/>
		<path class="st1" d="M220.12,158.2c-2.49,0-4.74-0.58-6.36-1.52c-1.63-0.94-2.64-2.24-2.64-3.67c0-1.44,0-12,0-12h18
			c0,0,0,10.56,0,12c0,1.43-1.01,2.73-2.64,3.67C224.85,157.62,222.6,158.2,220.12,158.2z"/>
	</g>
	<path class="st5" d="M249.56,141l-90.07-52c-0.89-0.51-1.77-0.63-2.45-0.24c-0.68,0.39-29.44,17-29.44,17l94.96,54.83l29.45-17
		C251.33,142.41,250.45,141.51,249.56,141z M167.98,110.9c-2.17,1.25-5.17,2.03-8.48,2.03c-3.31,0-6.31-0.78-8.49-2.03
		c-2.17-1.25-3.51-2.99-3.51-4.9c0-1.91,1.34-3.65,3.51-4.9c2.17-1.25,5.17-2.03,8.49-2.03c3.31,0,6.31,0.78,8.48,2.03
		c2.17,1.25,3.52,2.99,3.52,4.9C171.49,107.91,170.15,109.65,167.98,110.9z M228.6,145.9c-2.17,1.25-5.17,2.03-8.49,2.03
		c-3.31,0-6.31-0.78-8.49-2.03c-2.17-1.25-3.51-2.99-3.51-4.9c0-1.91,1.34-3.65,3.51-4.9c2.17-1.25,5.17-2.03,8.49-2.03
		c3.31,0,6.31,0.78,8.49,2.03c2.17,1.25,3.51,2.99,3.51,4.9C232.12,142.91,230.77,144.65,228.6,145.9z"/>
	<g>
		<path class="st1" d="M159.49,111.2c-2.49,0-4.74-0.58-6.36-1.52c-1.63-0.94-2.64-2.24-2.64-3.67c0-1.44,0-32,0-32h18
			c0,0,0,30.56,0,32c0,1.43-1.01,2.73-2.64,3.67C164.23,110.62,161.98,111.2,159.49,111.2z"/>
		<path class="st1" d="M159.49,79.2c-2.49,0-4.74-0.58-6.36-1.52c-1.63-0.94-2.64-2.24-2.64-3.67c0-1.44,1.01-2.73,2.64-3.67
			c1.63-0.94,3.88-1.52,6.36-1.52c2.48,0,4.73,0.58,6.36,1.52c1.63,0.94,2.64,2.24,2.64,3.67c0,1.43-1.01,2.73-2.64,3.67
			C164.23,78.62,161.98,79.2,159.49,79.2z"/>
		<path class="st1" d="M220.12,146.2c-2.49,0-4.74-0.58-6.36-1.52c-1.63-0.94-2.64-2.24-2.64-3.67c0-1.44,0-32,0-32h18
			c0,0,0,30.56,0,32c0,1.43-1.01,2.73-2.64,3.67C224.85,145.62,222.6,146.2,220.12,146.2z"/>
		<path class="st1" d="M220.12,114.2c-2.49,0-4.74-0.58-6.36-1.52c-1.63-0.94-2.64-2.24-2.64-3.67c0-1.44,1.01-2.73,2.64-3.67
			c1.63-0.94,3.88-1.52,6.36-1.52c2.49,0,4.74,0.58,6.36,1.52c1.63,0.94,2.64,2.24,2.64,3.67c0,1.43-1.01,2.73-2.64,3.67
			C224.85,113.62,222.6,114.2,220.12,114.2z"/>
	</g>
	<path class="st10" d="M220.12,109c0-19.33-13.57-42.83-30.31-52.5s-30.31-1.83-30.31,17.5"/>
	<g>
		<path class="st4" d="M176.63,206.47c-0.84,0-1.7-0.25-2.55-0.74c-2.54-1.47-4.46-4.79-4.46-7.73v-12.08
			c-0.89-1.04-1.69-2.17-2.39-3.38c-1.81-3.13-2.8-6.52-2.8-9.54c0-3.42,1.26-6.02,3.54-7.34c0.97-0.56,2.07-0.84,3.25-0.84
			c1.57,0,3.21,0.49,4.87,1.45c2.61,1.51,5.05,4.06,6.86,7.2c1.81,3.13,2.8,6.52,2.8,9.54c0,3.42-1.26,6.02-3.54,7.34
			c-0.52,0.3-1.07,0.52-1.66,0.66v11C180.55,204.63,178.94,206.47,176.63,206.47z"/>
		<g class="st9">
			<path class="st11" d="M189.97,179.79c-1.24,0.72-10.39,6-10.39,6l-9-15.59c0,0,9.15-5.28,10.39-6c1.24-0.72,2.87-0.49,4.5,0.45
				c1.63,0.94,3.26,2.6,4.5,4.75c1.24,2.15,1.86,4.39,1.86,6.27S191.22,179.08,189.97,179.79z"/>
			<path class="st11" d="M179.58,185.79c-1.24,0.72-2.87,0.49-4.5-0.45c-1.63-0.94-3.26-2.6-4.5-4.75
				c-1.24-2.15-1.86-4.39-1.86-6.27s0.62-3.4,1.86-4.12c1.24-0.72,2.87-0.49,4.5,0.45c1.63,0.94,3.26,2.6,4.5,4.75
				c1.24,2.15,1.86,4.39,1.86,6.27S180.82,185.08,179.58,185.79z"/>
		</g>
		<path class="st4" d="M223.58,164c0-1.02-0.34-2.24-1.01-3.41c-0.68-1.17-1.56-2.07-2.45-2.59l-90.07-52
			c-0.89-0.51-1.77-0.63-2.45-0.24c-0.68,0.39-1.01,1.22-1.01,2.24v100c0,1.02,0.34,2.24,1.01,3.41c0.68,1.17,1.56,2.07,2.45,2.59
			l90.07,52c0.89,0.51,1.77,0.63,2.45,0.24c0.68-0.39,1.01-1.22,1.01-2.24L223.58,164z M181.21,188.61
			c-0.79,0.46-1.7,0.62-2.66,0.55V202c0,2.21-1.55,3.1-3.46,2c-1.91-1.1-3.46-3.79-3.46-6v-12.84c-0.96-1.04-1.87-2.26-2.66-3.62
			c-1.69-2.93-2.54-5.98-2.54-8.54c0-2.56,0.85-4.63,2.54-5.61c1.69-0.98,3.91-0.67,6.12,0.61c2.22,1.28,4.43,3.54,6.12,6.46
			c1.69,2.93,2.54,5.98,2.54,8.54C183.74,185.56,182.9,187.63,181.21,188.61z"/>
		<g class="st9">
			<path class="st11" d="M179.58,185.79c-1.24,0.72-27.71,16-27.71,16l-9-15.59c0,0,26.47-15.28,27.71-16
				c1.24-0.72,2.87-0.49,4.5,0.45c1.63,0.94,3.26,2.6,4.5,4.75c1.24,2.15,1.86,4.39,1.86,6.27S180.82,185.08,179.58,185.79z"/>
			<path class="st11" d="M151.87,201.79c-1.24,0.72-2.87,0.49-4.5-0.45c-1.63-0.94-3.26-2.6-4.5-4.75
				c-1.24-2.15-1.86-4.39-1.86-6.27s0.62-3.4,1.86-4.12c1.24-0.72,2.87-0.49,4.5,0.45c1.63,0.94,3.26,2.6,4.5,4.75
				c1.24,2.15,1.86,4.39,1.86,6.27S153.11,201.08,151.87,201.79z"/>
		</g>
		<line class="st12" x1="147.37" y1="194" x2="111" y2="215"/>
		<path class="st12" d="M105.16,234.63c-3.89,6.74-8.99,11.93-14.08,14.87c-5.1,2.94-10.19,3.64-14.08,1.39
			c-3.89-2.25-5.83-7.01-5.83-12.89c0-5.89,1.95-12.9,5.83-19.63c3.89-6.74,8.99-11.93,14.08-14.87c5.1-2.94,10.2-3.64,14.08-1.39
			c3.89,2.25,5.83,7.01,5.83,12.89C111,220.89,109.05,227.9,105.16,234.63z"/>
	</g>
	<g>
		<path class="st4" d="M242.63,238c0,0.26,0.08,0.46,0.25,0.56c0.17,0.1,0.39,0.07,0.61-0.06l9.53-5.5v-20l-9.53,5.5
			c-0.22,0.13-0.44,0.35-0.61,0.65c-0.17,0.29-0.25,0.6-0.25,0.85V238z"/>
		<path class="st4" d="M242.63,212c0,0.26,0.08,0.46,0.25,0.56c0.17,0.1,0.39,0.07,0.61-0.06l9.53-5.5v-20l-9.53,5.5
			c-0.22,0.13-0.44,0.35-0.61,0.65c-0.17,0.29-0.25,0.6-0.25,0.85V212z"/>
		<path class="st4" d="M242.63,186c0,0.26,0.08,0.46,0.25,0.56c0.17,0.1,0.39,0.07,0.61-0.06l9.53-5.5v-20l-9.53,5.5
			c-0.22,0.13-0.44,0.35-0.61,0.65c-0.17,0.29-0.25,0.6-0.25,0.85V186z"/>
	</g>
	<polygon class="st9" points="126.58,104 223.58,160 223.58,268 126.58,212 	"/>
</g>
<g>
	<defs>
		<filter id="Adobe_OpacityMaskFilter_1_" filterUnits="userSpaceOnUse" x="261.68" y="150" width="114.32" height="174">
			<feColorMatrix  type="matrix" values="1 0 0 0 0  0 1 0 0 0  0 0 1 0 0  0 0 0 1 0"/>
		</filter>
	</defs>
	<mask maskUnits="userSpaceOnUse" x="261.68" y="150" width="114.32" height="174" id="SVGID_2_">
		<g class="st13">
			<path class="st1" d="M375.49,216.29c-0.34-0.59-0.78-1.04-1.22-1.29l-110.85-64c-0.44-0.26-0.89-0.32-1.22-0.12
				c-0.34,0.2-0.51,0.61-0.51,1.12v104c0,0.51,0.17,1.12,0.51,1.71c0.34,0.59,0.78,1.04,1.22,1.29l110.85,64
				c0.44,0.26,0.89,0.32,1.22,0.12c0.34-0.2,0.51-0.61,0.51-1.12V218C376,217.49,375.83,216.88,375.49,216.29z"/>
		</g>
	</mask>
	<g class="st14">
		<path class="st1" d="M261.68,161v97L376,324v-97L261.68,161z"/>
		<g>
			<polygon class="st4" points="376,228 261.68,162 261.68,150 376,216 			"/>
		</g>
		<path class="st1" d="M268.61,160c0,1.1-0.78,1.55-1.73,1c-0.96-0.55-1.73-1.9-1.73-3c0-1.1,0.78-1.55,1.73-1
			C267.84,157.55,268.61,158.9,268.61,160z"/>
		<path class="st1" d="M275.54,164c0,1.1-0.78,1.55-1.73,1c-0.96-0.55-1.73-1.9-1.73-3c0-1.1,0.78-1.55,1.73-1
			C274.77,161.55,275.54,162.9,275.54,164z"/>
		<path class="st1" d="M282.47,168c0,1.1-0.78,1.55-1.73,1c-0.96-0.55-1.73-1.9-1.73-3c0-1.1,0.78-1.55,1.73-1
			C281.69,165.55,282.47,166.9,282.47,168z"/>
	</g>
	<g>
		<g>
			<path class="st3" d="M280.74,199c0.48,0.28,0.87,0.05,0.87-0.5s-0.39-1.22-0.87-1.5l-7.79-4.5c-0.48-0.28-0.87-0.05-0.87,0.5
				s0.39,1.22,0.87,1.5L280.74,199z"/>
			<path class="st3" d="M280.74,229c0.48,0.28,0.87,0.05,0.87-0.5s-0.39-1.22-0.87-1.5l-7.79-4.5c-0.48-0.28-0.87-0.05-0.87,0.5
				s0.39,1.22,0.87,1.5L280.74,229z"/>
			<path class="st3" d="M280.74,257c0.48,0.28,0.87,0.05,0.87-0.5c0-0.55-0.39-1.22-0.87-1.5l-7.79-4.5
				c-0.48-0.28-0.87-0.05-0.87,0.5s0.39,1.22,0.87,1.5L280.74,257z"/>
			<path class="st3" d="M285.07,207.5c0.48,0.28,0.87,0.05,0.87-0.5s-0.39-1.22-0.87-1.5l-12.12-7c-0.48-0.28-0.87-0.05-0.87,0.5
				s0.39,1.22,0.87,1.5L285.07,207.5z"/>
			<path class="st3" d="M293.73,218.5c0.48,0.28,0.87,0.05,0.87-0.5s-0.39-1.22-0.87-1.5l-20.78-12c-0.48-0.28-0.87-0.05-0.87,0.5
				s0.39,1.22,0.87,1.5L293.73,218.5z"/>
			<path class="st3" d="M289.4,222c0.48,0.28,0.87,0.05,0.87-0.5s-0.39-1.22-0.87-1.5l-16.45-9.5c-0.48-0.28-0.87-0.05-0.87,0.5
				s0.39,1.22,0.87,1.5L289.4,222z"/>
			<path class="st3" d="M289.4,228c0.48,0.28,0.87,0.05,0.87-0.5s-0.39-1.22-0.87-1.5l-16.45-9.5c-0.48-0.28-0.87-0.05-0.87,0.5
				s0.39,1.22,0.87,1.5L289.4,228z"/>
			<path class="st3" d="M280.74,193c0.48,0.28,0.87,0.05,0.87-0.5s-0.39-1.22-0.87-1.5l-7.79-4.5c-0.48-0.28-0.87-0.05-0.87,0.5
				s0.39,1.22,0.87,1.5L280.74,193z"/>
			<path class="st3" d="M289.4,192c0.48,0.28,0.87,0.05,0.87-0.5s-0.39-1.22-0.87-1.5l-16.45-9.5c-0.48-0.28-0.87-0.05-0.87,0.5
				s0.39,1.22,0.87,1.5L289.4,192z"/>
			<path class="st3" d="M364.74,233.5l-25.98-15c-0.48-0.28-0.87-0.05-0.87,0.5v31c0,0.55,0.39,1.22,0.87,1.5l25.98,15
				c0.48,0.28,0.87,0.05,0.87-0.5v-31C365.61,234.45,365.22,233.78,364.74,233.5z"/>
			<path class="st3" d="M331.83,214.5l-25.98-15c-0.48-0.28-0.87-0.05-0.87,0.5v31c0,0.55,0.39,1.22,0.87,1.5l25.98,15
				c0.48,0.28,0.87,0.05,0.87-0.5v-31C332.7,215.45,332.31,214.78,331.83,214.5z"/>
			<path class="st3" d="M364.74,272.5l-25.98-15c-0.48-0.28-0.87-0.05-0.87,0.5v31c0,0.55,0.39,1.22,0.87,1.5l25.98,15
				c0.48,0.28,0.87,0.05,0.87-0.5v-31C365.61,273.45,365.22,272.78,364.74,272.5z"/>
			<path class="st3" d="M331.83,253.5l-25.98-15c-0.48-0.28-0.87-0.05-0.87,0.5v31c0,0.55,0.39,1.22,0.87,1.5l25.98,15
				c0.48,0.28,0.87,0.05,0.87-0.5v-31C332.7,254.45,332.31,253.78,331.83,253.5z"/>
		</g>
	</g>
</g>
<g>
	<polygon class="st9" points="109.26,280 157.76,308 206.26,280 157.76,252 	"/>
	<path class="st8" d="M192.05,280c0-2.73,0-6,0-6s-6.94-6.21-10.04-8c-6.21-3.58-14.78-5.8-24.25-5.8c-6.81,0-13.15,1.15-18.49,3.13
		L55.15,219c0,0,0,4.83,0,6c0,1.17,0.82,2.23,2.15,3l71.58,41.33c-1.06,0.96-5.41,4.67-5.41,4.67s0,3.29,0,6
		c0,5.47,3.84,10.42,10.04,14c6.21,3.58,14.78,5.8,24.25,5.8c9.47,0,18.04-2.22,24.25-5.8C188.22,290.42,192.05,285.47,192.05,280z
		 M157.76,291.31c-5.41,0-10.31-1.27-13.86-3.31c-3.55-2.05-5.74-4.88-5.74-8c0-3.12,2.19-5.95,5.74-8
		c3.55-2.05,8.45-3.31,13.86-3.31c5.41,0,10.31,1.27,13.86,3.31c3.55,2.05,5.74,4.88,5.74,8c0,3.12-2.19,5.95-5.74,8
		C168.07,290.05,163.17,291.31,157.76,291.31z"/>
	<path class="st5" d="M192.05,274c0-5.47-3.84-10.42-10.04-14c-6.21-3.58-14.78-5.8-24.25-5.8c-6.81,0-13.15,1.15-18.49,3.13
		L67.7,216c-1.33-0.77-3.17-1.24-5.2-1.24c-2.03,0-3.87,0.47-5.2,1.24c-1.33,0.77-2.15,1.83-2.15,3c0,1.17,0.82,2.23,2.15,3
		l71.58,41.33c-3.42,3.08-5.41,6.74-5.41,10.67c0,5.47,3.84,10.42,10.04,14c6.21,3.58,14.78,5.8,24.25,5.8
		c9.47,0,18.04-2.22,24.25-5.8C188.22,284.42,192.05,279.47,192.05,274z M157.76,285.31c-5.41,0-10.31-1.27-13.86-3.31
		c-3.55-2.05-5.74-4.88-5.74-8c0-3.12,2.19-5.95,5.74-8s8.45-3.31,13.86-3.31c5.41,0,10.31,1.27,13.86,3.31
		c3.55,2.05,5.74,4.88,5.74,8c0,3.12-2.19,5.95-5.74,8C168.07,284.05,163.17,285.31,157.76,285.31z"/>
	<path class="st8" d="M76.36,237h-26.7c0,0,0,1.61,0,2c0,0.39,0.27,0.74,0.72,1l10.39,6c0.44,0.26,1.06,0.41,1.73,0.41
		c0.68,0,1.29-0.16,1.73-0.41l12.12-7V237z"/>
	<polygon class="st7" points="62.5,229 57.3,232 68.41,241.59 76.36,237 	"/>
	<path class="st8" d="M68.41,242.5V239l-18.75-4v2l11.11,7.5c0.44,0.26,1.06,0.41,1.73,0.41c0.68,0,1.29-0.16,1.73-0.41L68.41,242.5
		z"/>
	<path class="st5" d="M68.41,239c0-0.39-0.27-0.74-0.72-1l-10.39-6c-0.44-0.26-1.06-0.41-1.73-0.41c-0.68,0-1.29,0.16-1.73,0.41
		l-3.46,2c-0.44,0.26-0.72,0.61-0.72,1c0,0.39,0.27,0.74,0.72,1l10.39,6c0.44,0.26,1.06,0.41,1.73,0.41c0.68,0,1.29-0.16,1.73-0.41
		l3.46-2C68.14,239.74,68.41,239.39,68.41,239z"/>
</g>
<g>
	<path class="st1" d="M175.08,168c2.22,1.28,4.43,3.54,6.12,6.46c1.69,2.93,2.54,5.98,2.54,8.54c0,2.56-0.85,4.63-2.54,5.61
		c-0.79,0.46-1.7,0.62-2.66,0.55V202c0,2.21-1.55,3.1-3.46,2c-1.91-1.1-3.46-3.79-3.46-6v-12.84c-0.96-1.04-1.87-2.26-2.66-3.62
		c-1.69-2.93-2.54-5.98-2.54-8.54c0-2.56,0.85-4.63,2.54-5.61C170.65,166.42,172.87,166.72,175.08,168 M175.08,162
		c-3.7-2.14-7.18-2.48-9.8-0.97c-2.62,1.51-4.06,4.7-4.06,8.97c0,4.27,1.44,9.12,4.06,13.66c0.36,0.63,0.74,1.24,1.14,1.83V195
		c0,5.51,3.89,12.24,8.66,15c4.78,2.76,8.66,0.51,8.66-5v-9.51c0.4-0.14,0.78-0.31,1.14-0.52c2.62-1.51,4.06-4.7,4.06-8.97
		c0-4.27-1.44-9.12-4.06-13.66C182.26,167.81,178.78,164.14,175.08,162L175.08,162z"/>
</g>
</svg>
