<svg id="weebly" xmlns="http://www.w3.org/2000/svg" xmlns:xlink="http://www.w3.org/1999/xlink" width="446" height="310" viewBox="0 0 446 310">
  <defs>
    <style>
      .cls-1, .cls-7 {
        fill: #fff;
      }

      .cls-2 {
        fill: #e3effc;
      }

      .cls-2, .cls-3, .cls-4, .cls-6, .cls-7, .cls-8 {
        fill-rule: evenodd;
      }

      .cls-3 {
        fill: #f3f5f9;
      }

      .cls-4, .cls-6 {
        fill: #a4e0ff;
      }

      .cls-5 {
        fill: none;
        stroke: #009aff;
        stroke-width: 1px;
        stroke-dasharray: 4 2;
      }

      .cls-6 {
        filter: url(#filter);
      }

      .cls-8 {
        fill: #393d45;
      }
    </style>
    <filter id="filter" x="516" y="1194" width="160" height="116" filterUnits="userSpaceOnUse">
      <feOffset result="offset" dy="2" in="SourceAlpha"/>
      <feGaussianBlur result="blur" stdDeviation="3.606"/>
      <feFlood result="flood" flood-opacity="0.15"/>
      <feComposite result="composite" operator="in" in2="blur"/>
      <feBlend result="blend" in="SourceGraphic"/>
    </filter>
  </defs>
  <rect id="Prostokąt_1237" data-name="Prostokąt 1237" class="cls-1" x="143" width="303" height="310"/>
  <path id="Kształt_1718" data-name="Kształt 1718" class="cls-2" d="M384.994,1418.01V1107.99h160v310.02h-160Z" transform="translate(-385 -1108)"/>
  <g id="Grupa_12" data-name="Grupa 12">
    <path id="Kształt_1718-2" data-name="Kształt 1718" class="cls-3" d="M557,1391v-12H693v12H557Z" transform="translate(-385 -1108)"/>
    <path id="Kształt_1718-3" data-name="Kształt 1718" class="cls-3" d="M556.992,1369v-12H819.007v12H556.992Z" transform="translate(-385 -1108)"/>
    <path id="Kształt_1718-4" data-name="Kształt 1718" class="cls-3" d="M556.992,1347v-12H819.007v12H556.992Z" transform="translate(-385 -1108)"/>
    <path id="Kształt_1718-5" data-name="Kształt 1718" class="cls-3" d="M556.992,1325v-12H819.007v12H556.992Z" transform="translate(-385 -1108)"/>
    <path id="Kształt_1718-6" data-name="Kształt 1718" class="cls-3" d="M556.992,1303v-12H819.007v12H556.992Z" transform="translate(-385 -1108)"/>
    <path id="Kształt_1718-7" data-name="Kształt 1718" class="cls-3" d="M691.994,1270.01v-90.02H819.013v90.02H691.994Z" transform="translate(-385 -1108)"/>
    <path id="Kształt_1718-8" data-name="Kształt 1718" class="cls-4" d="M556.992,1164v-37.01H819.007V1164H556.992Z" transform="translate(-385 -1108)"/>
  </g>
  <g id="uplaod">
    <g id="Grupa_11" data-name="Grupa 11">
      <rect id="Prostokąt_717_kopia" data-name="Prostokąt 717 kopia" class="cls-1" x="84" y="199" width="66" height="50"/>
      <path id="Kształt_1719" data-name="Kształt 1719" class="cls-4" d="M518,1327l4.984,5L518,1337v-10Z" transform="translate(-385 -1108)"/>
      <path id="Kształt_1719-2" data-name="Kształt 1719" class="cls-4" d="M485,1327l-4.984,5,4.984,5v-10Z" transform="translate(-385 -1108)"/>
      <path id="Kształt_736" data-name="Kształt 736" class="cls-4" d="M511.641,1321H491.4a3.422,3.422,0,0,0-3.4,3.42v14.89c0,1.88,1.127,3.69,3,3.69h21c1.871,0,3-2.12,3-4v-15C515,1322.12,513.512,1321,511.641,1321ZM511,1341H492a1.868,1.868,0,0,1-2-2v-14a2.125,2.125,0,0,1,2-2h19c1.385-.03,2.031.49,2,2v14A1.831,1.831,0,0,1,511,1341Zm-6.618-9.9-3.761,4.32a0.641,0.641,0,0,1-.935.03l-2.383-2.39a0.63,0.63,0,0,0-.958.06L494,1336c-0.327.42-.158,1.03,1,1h13c1.528,0.12,1.317-.58,1-1l-3.624-4.86A0.635,0.635,0,0,0,504.382,1331.1Z" transform="translate(-385 -1108)"/>
    </g>
    <g id="Grupa_10" data-name="Grupa 10">
      <rect id="Prostokąt_717" data-name="Prostokąt 717" class="cls-1" x="8" y="199" width="66" height="50"/>
      <path id="Kształt_740" data-name="Kształt 740" class="cls-4" d="M406.727,1322a2.8,2.8,0,0,0-2.727,2.87v11.25a2.806,2.806,0,0,0,2.727,2.88h37.546a2.807,2.807,0,0,0,2.727-2.88v-11.25a2.8,2.8,0,0,0-2.727-2.87H406.727Zm1.273,2h35a1.745,1.745,0,0,1,2,2v9a1.736,1.736,0,0,1-2,2H408c-1.433-.03-2-0.53-2-2v-9A1.838,1.838,0,0,1,408,1324Z" transform="translate(-385 -1108)"/>
      <path id="Button" class="cls-4" d="M414.05,1333.75a2.893,2.893,0,0,0,1.764-.48,1.7,1.7,0,0,0,.6-1.41,1.424,1.424,0,0,0-.269-0.88,1.368,1.368,0,0,0-.769-0.5,1.338,1.338,0,0,0,.673-0.51,1.547,1.547,0,0,0,.228-0.85,1.518,1.518,0,0,0-.644-1.32,3.267,3.267,0,0,0-1.878-.45h-2.3v6.4h2.6Zm0.026-2.72a0.706,0.706,0,0,1,.795.8,0.663,0.663,0,0,1-.224.54,0.946,0.946,0,0,1-.641.19H413v-1.53h1.081ZM413,1328.54h0.756a1.238,1.238,0,0,1,.751.18,0.681,0.681,0,0,1,.233.58,0.644,0.644,0,0,1-.215.53,1.126,1.126,0,0,1-.721.19H413v-1.48Zm7.521,5.21H421.9V1329h-1.489v3.33a0.785,0.785,0,0,1-.725.37,0.538,0.538,0,0,1-.594-0.62V1329h-1.481v3.08a1.9,1.9,0,0,0,.4,1.3,1.48,1.48,0,0,0,1.185.46,1.53,1.53,0,0,0,1.27-.6Zm2.893-5.94V1329H422.8v1.02h0.606v2.36a1.491,1.491,0,0,0,.365,1.1,1.551,1.551,0,0,0,1.129.36,2.587,2.587,0,0,0,.835-0.13v-1.06a1.905,1.905,0,0,1-.369.03,0.517,0.517,0,0,1-.382-0.11,0.539,0.539,0,0,1-.1-0.37v-2.18h0.782V1329H424.89v-1.19h-1.481Zm3.539,0V1329h-0.606v1.02h0.606v2.36a1.491,1.491,0,0,0,.365,1.1,1.553,1.553,0,0,0,1.13.36,2.592,2.592,0,0,0,.835-0.13v-1.06a1.924,1.924,0,0,1-.37.03,0.519,0.519,0,0,1-.382-0.11,0.544,0.544,0,0,1-.1-0.37v-2.18h0.783V1329h-0.783v-1.19h-1.481Zm2.982,3.77a2.4,2.4,0,0,0,.663,1.65,2.48,2.48,0,0,0,3.3-.04,2.489,2.489,0,0,0,.617-1.77v-0.05a2.536,2.536,0,0,0-.615-1.8,2.188,2.188,0,0,0-1.683-.66,2.385,2.385,0,0,0-1.217.3,1.978,1.978,0,0,0-.8.85,2.805,2.805,0,0,0-.277,1.27Zm1.481-.43c0.041-.73.309-1.1,0.8-1.1,0.545,0,.817.43,0.817,1.28v0.15c-0.011.81-.281,1.22-0.808,1.22a0.7,0.7,0,0,1-.611-0.31,1.789,1.789,0,0,1-.207-0.97Zm4.176-2.15v4.75h1.481v-3.36a0.7,0.7,0,0,1,.646-0.34,0.683,0.683,0,0,1,.528.17,0.8,0.8,0,0,1,.145.53v3h1.485v-3.06a2.129,2.129,0,0,0-.38-1.34,1.374,1.374,0,0,0-1.11-.44,1.61,1.61,0,0,0-1.358.64l-0.048-.55h-1.389Z" transform="translate(-385 -1108)"/>
    </g>
    <g id="Grupa_9" data-name="Grupa 9">
      <rect id="Prostokąt_717_kopia-2" data-name="Prostokąt 717 kopia" class="cls-1" x="84" y="139" width="66" height="50"/>
      <path id="Kształt_740-2" data-name="Kształt 740" class="cls-4" d="M489.727,1260a2.8,2.8,0,0,0-2.727,2.87v17.25a2.806,2.806,0,0,0,2.727,2.88h23.546a2.807,2.807,0,0,0,2.727-2.88v-17.25a2.8,2.8,0,0,0-2.727-2.87H489.727Zm1.273,2h21a1.839,1.839,0,0,1,2,2v15a1.76,1.76,0,0,1-2,2H491a1.813,1.813,0,0,1-2-2v-15A1.991,1.991,0,0,1,491,1262Zm8,5v9c0,0.57.9,0.72,1.326,0.36l5.132-4.33a0.7,0.7,0,0,0,0-1.06l-5.132-4.33C499.9,1266.28,499,1266.43,499,1267Z" transform="translate(-385 -1108)"/>
    </g>
    <g id="Grupa_8" data-name="Grupa 8">
      <rect id="Prostokąt_717-2" data-name="Prostokąt 717" class="cls-1" x="8" y="139" width="66" height="50"/>
      <path id="Kształt_739" data-name="Kształt 739" class="cls-4" d="M425.5,1261a7.426,7.426,0,0,0-7.5,7.35c0,5.25,7.5,13.65,7.5,13.65s7.5-8.4,7.5-13.65A7.426,7.426,0,0,0,425.5,1261Zm0,9.97a2.626,2.626,0,1,1,2.678-2.62A2.648,2.648,0,0,1,425.5,1270.97Z" transform="translate(-385 -1108)"/>
    </g>
    <g id="Grupa_7" data-name="Grupa 7">
      <rect id="Prostokąt_717_kopia-3" data-name="Prostokąt 717 kopia" class="cls-1" x="84" y="79" width="65" height="50"/>
      <path id="Kształt_736-2" data-name="Kształt 736" class="cls-4" d="M509.641,1200H489.4a3.422,3.422,0,0,0-3.4,3.42v14.89c0,1.88,1.127,3.69,3,3.69h21c1.871,0,3.043-1.81,3.043-3.69v-14.89A3.422,3.422,0,0,0,509.641,1200ZM509,1220H490a1.868,1.868,0,0,1-2-2v-14a2.124,2.124,0,0,1,2-2h19c1.385-.03,2.031.49,2,2v14A1.831,1.831,0,0,1,509,1220Zm6-16v18a1.872,1.872,0,0,1-2,2H490c0.327,1.54,1.73,1.99,3.359,1.99H513.6a3.42,3.42,0,0,0,3.4-3.41v-14.89C517,1206.05,516.538,1204.33,515,1204Zm-12.618,6.1-3.761,4.32a0.641,0.641,0,0,1-.935.03l-2.383-2.39a0.63,0.63,0,0,0-.958.06L492,1215c-0.327.42-.158,1.03,1,1h13c1.528,0.12,1.317-.58,1-1l-3.623-4.86A0.636,0.636,0,0,0,502.382,1210.1Z" transform="translate(-385 -1108)"/>
    </g>
    <g id="Grupa_6" data-name="Grupa 6">
      <rect id="Prostokąt_717_kopia-4" data-name="Prostokąt 717 kopia" class="cls-1" x="84" y="19" width="65" height="50"/>
      <path id="Kształt_738" data-name="Kształt 738" class="cls-4" d="M488,1143h0a0.9,0.9,0,0,0,1,1h25a0.9,0.9,0,0,0,1-1v0.18a1.046,1.046,0,0,0-1.174-1.18H489.174A0.97,0.97,0,0,0,488,1143Zm0,6.06h0a0.856,0.856,0,0,0,1,.94h25a0.856,0.856,0,0,0,1-.94h0a0.944,0.944,0,0,0-1-1.06H489A0.944,0.944,0,0,0,488,1149.06Zm0,5.88h0a0.944,0.944,0,0,0,1,1.06h25a0.944,0.944,0,0,0,1-1.06h0a0.856,0.856,0,0,0-1-.94H489A0.856,0.856,0,0,0,488,1154.94Zm0,6.06v-0.18a1.022,1.022,0,0,0,1.174,1.18h12.548a1.132,1.132,0,0,0,1.278-1h0a0.9,0.9,0,0,0-1-1H489A0.9,0.9,0,0,0,488,1161Z" transform="translate(-385 -1108)"/>
    </g>
    <g id="Grupa_5" data-name="Grupa 5">
      <rect id="Prostokąt_717-3" data-name="Prostokąt 717" class="cls-1" x="8" y="19" width="65" height="50"/>
      <path id="Kształt_737" data-name="Kształt 737" class="cls-4" d="M416,1141.86V1144a0.871,0.871,0,0,0,1,1h0a1.117,1.117,0,0,0,1-1h0c-0.016-.97-0.013-0.98,1-1h4c0.966,0.02.969,0.01,1,1v15a1.117,1.117,0,0,1-1,1h0c-0.481,0-1.063.05-1.063,0.52v0.62a0.863,0.863,0,0,0,.872.86h4.382a0.862,0.862,0,0,0,.871-0.86v-0.62c0-.47-0.581-0.52-1.062-0.52h0a1.117,1.117,0,0,1-1-1v-15c0.016-.96.018-1,1-1h4c0.981,0,.984.01,1,1h0a1.117,1.117,0,0,0,1,1h0a1.117,1.117,0,0,0,1-1v-2.14c-0.016-.85-0.031-0.84-0.872-0.86H416.872C415.984,1141.02,416,1141.02,416,1141.86Z" transform="translate(-385 -1108)"/>
    </g>
    <g id="Grupa_4" data-name="Grupa 4">
      <rect id="Prostokąt_534_kopia_7" data-name="Prostokąt 534 kopia 7" class="cls-5" x="8" y="79" width="66" height="50"/>
    </g>
  </g>
  <g id="drag">
    <rect id="Prostokąt_534_kopia_6" data-name="Prostokąt 534 kopia 6" class="cls-5" x="172" y="72" width="127" height="90"/>
    <path id="Kształt_1718-9" data-name="Kształt 1718" class="cls-6" d="M528.875,1295v-91H662.862v91H528.875Z" transform="translate(-385 -1108)"/>
    <path id="Kształt_726" data-name="Kształt 726" class="cls-7" d="M613.84,1231.01H577.917a6.027,6.027,0,0,0-6.039,5.98v26.05a6.025,6.025,0,0,0,6.039,5.97H613.84a6.025,6.025,0,0,0,6.039-5.97v-26.05A6.027,6.027,0,0,0,613.84,1231.01ZM614,1265H578a1.741,1.741,0,0,1-2-2v-26a1.986,1.986,0,0,1,2-2h36a1.736,1.736,0,0,1,2,2v26C616,1264.43,615.309,1264.94,614,1265Zm-13.045-17.32-6.676,7.55a1.146,1.146,0,0,1-1.66.06l-4.23-4.19a1.139,1.139,0,0,0-1.7.11l-4.316,5.49c-0.581.74-.319,2.3,0.628,2.3h26c0.937,0,1.076-1.55.514-2.29l-6.794-8.96A1.145,1.145,0,0,0,600.955,1247.68Z" transform="translate(-385 -1108)"/>
    <path id="Kształt_735" data-name="Kształt 735" class="cls-8" d="M547.646,1264.14l-3.7,3.7c-0.306.31-.375,1.16,0.059,1.16h2a4.582,4.582,0,0,1,1,0v5c0,0.97.019,1-1,1h-5c0-.02,0-0.73,0-1v-2c0-.43-0.853-0.36-1.16-0.06l-3.705,3.71a0.489,0.489,0,0,0,0,.69l3.705,3.7c0.307,0.31,1.16.39,1.16-.04v-2c0-.27-0.019-1.05,0-1h5c1.034,0,1.016.01,1,1v5c-0.016-.01-0.731,0-1,0h-2c-0.434,0-.365.84-0.059,1.14l3.7,3.71a0.486,0.486,0,0,0,.688,0l3.706-3.71c0.306-.3.393-1.14-0.04-1.14h-2c-0.269,0-1.016.02-1,0v-5c-0.031-1,0-1.02,1-1h5c-0.013-.03,0,0.73,0,1v2c0,0.43.834,0.35,1.141,0.04l3.705-3.7a0.489,0.489,0,0,0,0-.69l-3.705-3.71c-0.307-.3-1.141-0.37-1.141.06v2c0,0.27.019,1,0,1h-5c-0.987-.02-1.016-0.06-1-1v-5a6.464,6.464,0,0,1,1,0h2c0.433,0,.346-0.85.04-1.16l-3.706-3.7A0.486,0.486,0,0,0,547.646,1264.14Z" transform="translate(-385 -1108)"/>
  </g>
</svg>
