<svg id="Warstwa_1" data-name="Warstwa 1" xmlns="http://www.w3.org/2000/svg" xmlns:xlink="http://www.w3.org/1999/xlink" viewBox="0 0 376 324"><defs><style>.cls-1{fill:#fff;}.cls-2,.cls-5{fill:#3192e7;}.cls-3{fill:#88d3ff;}.cls-4{mask:url(#mask);}.cls-5,.cls-7{opacity:0.48;}.cls-6{fill:#73c8ff;}.cls-8{fill:#b4e8fe;}.cls-9{fill:#a4e0ff;}.cls-10{fill:#056cea;}.cls-11{mask:url(#mask-2);}.cls-12{mask:url(#mask-3);}.cls-13{mask:url(#mask-4);}.cls-14{mask:url(#mask-5);}</style><mask id="mask" x="82.57" y="230.59" width="82.84" height="48.83" maskUnits="userSpaceOnUse"><path class="cls-1" d="M83.28,251a1.06,1.06,0,0,1,0-2l31.18-18a3.85,3.85,0,0,1,3.46,0l46.77,27a1.05,1.05,0,0,1,0,2l-31.18,18a3.85,3.85,0,0,1-3.46,0Z"/></mask><mask id="mask-2" x="1.88" y="0" width="114.32" height="174" maskUnits="userSpaceOnUse"><path class="cls-1" d="M115.68,66.29A3.55,3.55,0,0,0,114.46,65L3.61,1A1.21,1.21,0,0,0,2.38.88,1.23,1.23,0,0,0,1.88,2V106a3.77,3.77,0,0,0,1.73,3l110.85,64a1.2,1.2,0,0,0,1.22.12,1.22,1.22,0,0,0,.51-1.12V68A3.54,3.54,0,0,0,115.68,66.29Z"/></mask><mask id="mask-3" x="324.04" y="219" width="51.96" height="105" maskUnits="userSpaceOnUse"><path class="cls-1" d="M324,219v73a3.84,3.84,0,0,0,1.73,3l48.5,28a1.19,1.19,0,0,0,1.22.12A1.22,1.22,0,0,0,376,322V249Z"/></mask><mask id="mask-4" x="261.68" y="210" width="51.96" height="78" maskUnits="userSpaceOnUse"><path class="cls-1" d="M313.14,240.29a3.57,3.57,0,0,0-1.23-1.29l-48.49-28a1.06,1.06,0,0,0-1.74,1v44a3.82,3.82,0,0,0,1.74,3l48.49,28a1.06,1.06,0,0,0,1.74-1V242A3.54,3.54,0,0,0,313.14,240.29Z"/></mask><mask id="mask-5" x="261.68" y="150" width="51.96" height="78" maskUnits="userSpaceOnUse"><path class="cls-1" d="M313.14,180.29a3.57,3.57,0,0,0-1.23-1.29l-48.49-28a1.06,1.06,0,0,0-1.74,1v44a3.82,3.82,0,0,0,1.74,3l48.49,28a1.06,1.06,0,0,0,1.74-1V182A3.54,3.54,0,0,0,313.14,180.29Z"/></mask></defs><path class="cls-2" d="M35.08,234v2a2.45,2.45,0,0,0,1.44,2L154.3,306a7.65,7.65,0,0,0,6.93,0l90.06-52v-2Z"/><path class="cls-3" d="M36.52,232a2.11,2.11,0,0,0,0,4L154.3,304a7.65,7.65,0,0,0,6.93,0l90.06-52-5.19-9L131.78,177l-5.2,3Z"/><g class="cls-4"><path class="cls-5" d="M83.28,251a1.06,1.06,0,0,1,0-2l31.18-18a3.85,3.85,0,0,1,3.46,0l46.77,27a1.05,1.05,0,0,1,0,2l-31.18,18a3.85,3.85,0,0,1-3.46,0Z"/><path class="cls-6" d="M83.28,252a1.06,1.06,0,0,1,0-2l31.18-18a3.85,3.85,0,0,1,3.46,0l46.77,27a1.05,1.05,0,0,1,0,2l-31.18,18a3.85,3.85,0,0,1-3.46,0Z"/></g><g class="cls-7"><path class="cls-2" d="M121.9,226v1a.6.6,0,0,0,.35.5l48.5,28a1.75,1.75,0,0,0,.87.21,1.71,1.71,0,0,0,.86-.21l5.2-3a.61.61,0,0,0,.36-.5v-1Z"/><path class="cls-2" d="M104.58,216v1a.6.6,0,0,0,.35.5l5.2,3a1.89,1.89,0,0,0,1.73,0l5.2-3a.61.61,0,0,0,.36-.5v-1Z"/><path class="cls-2" d="M113.24,211v1a.6.6,0,0,0,.35.5l5.2,3a1.75,1.75,0,0,0,.87.21,1.71,1.71,0,0,0,.86-.21l5.2-3a.61.61,0,0,0,.36-.5v-1Z"/><path class="cls-2" d="M121.9,216v1a.6.6,0,0,0,.35.5l5.2,3a1.75,1.75,0,0,0,.87.21,1.71,1.71,0,0,0,.86-.21l5.2-3a.61.61,0,0,0,.36-.5v-1Z"/><path class="cls-2" d="M130.56,221v1a.59.59,0,0,0,.36.5l5.19,3a1.75,1.75,0,0,0,.87.21,1.71,1.71,0,0,0,.86-.21l5.2-3a.61.61,0,0,0,.36-.5v-1Z"/><path class="cls-2" d="M142.68,218v1a.61.61,0,0,0,.36.5l5.2,3a1.71,1.71,0,0,0,.86.21,1.75,1.75,0,0,0,.87-.21l5.19-3a.61.61,0,0,0,.36-.5v-1Z"/><path class="cls-2" d="M139.22,226v1a.59.59,0,0,0,.36.5l5.19,3a1.75,1.75,0,0,0,.87.21,1.71,1.71,0,0,0,.86-.21l5.2-3a.61.61,0,0,0,.36-.5v-1Z"/><path class="cls-2" d="M147.88,231v1a.59.59,0,0,0,.36.5l5.19,3a1.75,1.75,0,0,0,.87.21,1.71,1.71,0,0,0,.86-.21l5.2-3a.61.61,0,0,0,.36-.5v-1Z"/><path class="cls-2" d="M151.34,223v1a.61.61,0,0,0,.36.5l5.2,3a1.71,1.71,0,0,0,.86.21,1.75,1.75,0,0,0,.87-.21l5.19-3a.61.61,0,0,0,.36-.5v-1Z"/><path class="cls-2" d="M160,228v1a.61.61,0,0,0,.36.5l5.2,3a1.71,1.71,0,0,0,.86.21,1.75,1.75,0,0,0,.87-.21l5.19-3a.59.59,0,0,0,.36-.5v-1Z"/><path class="cls-2" d="M168.66,233v1a.61.61,0,0,0,.36.5l5.2,3a1.71,1.71,0,0,0,.86.21,1.75,1.75,0,0,0,.87-.21l5.19-3a.59.59,0,0,0,.36-.5v-1Z"/><path class="cls-2" d="M173.86,226v1a.59.59,0,0,0,.36.5l5.19,3a1.75,1.75,0,0,0,.87.21,1.71,1.71,0,0,0,.86-.21l5.2-3a.61.61,0,0,0,.36-.5v-1Z"/><path class="cls-2" d="M156.54,236v1a.59.59,0,0,0,.36.5l5.19,3a1.75,1.75,0,0,0,.87.21,1.71,1.71,0,0,0,.86-.21l5.2-3a.61.61,0,0,0,.36-.5v-1Z"/><path class="cls-2" d="M165.2,241v1a.59.59,0,0,0,.36.5l5.19,3a1.75,1.75,0,0,0,.87.21,1.71,1.71,0,0,0,.86-.21l5.2-3a.61.61,0,0,0,.36-.5v-1Z"/><path class="cls-2" d="M177.32,238v1a.61.61,0,0,0,.36.5l5.2,3a1.71,1.71,0,0,0,.86.21,1.75,1.75,0,0,0,.87-.21l5.19-3a.59.59,0,0,0,.36-.5v-1Z"/><path class="cls-2" d="M182.52,231v1a.59.59,0,0,0,.36.5l5.19,3a1.75,1.75,0,0,0,.87.21,1.71,1.71,0,0,0,.86-.21l5.2-3a.61.61,0,0,0,.36-.5v-1Z"/><path class="cls-2" d="M191.18,236v1a.61.61,0,0,0,.36.5l5.19,3a1.75,1.75,0,0,0,.87.21,1.71,1.71,0,0,0,.86-.21l5.2-3a.61.61,0,0,0,.36-.5v-1Z"/><path class="cls-2" d="M186,243v1a.61.61,0,0,0,.36.5l5.2,3a1.71,1.71,0,0,0,.86.21,1.75,1.75,0,0,0,.87-.21l5.19-3a.59.59,0,0,0,.36-.5v-1Z"/><path class="cls-2" d="M182.52,251v1a.61.61,0,0,0,.36.5l5.19,3a1.75,1.75,0,0,0,.87.21,1.71,1.71,0,0,0,.86-.21l5.2-3a.61.61,0,0,0,.36-.5v-1Z"/><path class="cls-2" d="M194.64,248v1a.61.61,0,0,0,.36.5l5.2,3a1.71,1.71,0,0,0,.86.21,1.75,1.75,0,0,0,.87-.21l5.2-3a.6.6,0,0,0,.35-.5v-1Z"/><path class="cls-2" d="M199.84,241v1a.61.61,0,0,0,.36.5l5.19,3a1.75,1.75,0,0,0,.87.21,1.78,1.78,0,0,0,.87-.21l5.19-3a.61.61,0,0,0,.36-.5v-1Z"/><path class="cls-2" d="M208.5,246v1a.61.61,0,0,0,.36.5l5.19,3a1.91,1.91,0,0,0,1.74,0l5.19-3a.61.61,0,0,0,.36-.5v-1Z"/><path class="cls-2" d="M217.16,251v1a.61.61,0,0,0,.36.5l5.19,3a1.91,1.91,0,0,0,1.74,0l5.19-3a.61.61,0,0,0,.36-.5v-1Z"/><path class="cls-2" d="M191.18,256v1a.61.61,0,0,0,.36.5l5.19,3a1.78,1.78,0,0,0,.87.21,1.71,1.71,0,0,0,.86-.21l5.2-3a.61.61,0,0,0,.36-.5v-1Z"/><path class="cls-2" d="M191.18,266v1a.61.61,0,0,0,.36.5l5.19,3a1.78,1.78,0,0,0,.87.21,1.71,1.71,0,0,0,.86-.21l5.2-3a.61.61,0,0,0,.36-.5v-1Z"/><path class="cls-2" d="M173.86,256v1a.59.59,0,0,0,.36.5l5.19,3a1.75,1.75,0,0,0,.87.21,1.71,1.71,0,0,0,.86-.21l5.2-3a.61.61,0,0,0,.36-.5v-1Z"/><path class="cls-2" d="M182.52,261v1a.61.61,0,0,0,.36.5l5.19,3a1.75,1.75,0,0,0,.87.21,1.71,1.71,0,0,0,.86-.21l5.2-3a.61.61,0,0,0,.36-.5v-1Z"/><path class="cls-2" d="M173.86,246v1a.59.59,0,0,0,.36.5l5.19,3a1.75,1.75,0,0,0,.87.21,1.71,1.71,0,0,0,.86-.21l5.2-3a.61.61,0,0,0,.36-.5v-1Z"/><path class="cls-2" d="M156.54,216v1a.59.59,0,0,0,.36.5l5.19,3a1.75,1.75,0,0,0,.87.21,1.71,1.71,0,0,0,.86-.21l5.2-3a.61.61,0,0,0,.36-.5v-1Z"/><path class="cls-2" d="M165.2,221v1a.59.59,0,0,0,.36.5l5.19,3a1.75,1.75,0,0,0,.87.21,1.71,1.71,0,0,0,.86-.21l5.2-3a.61.61,0,0,0,.36-.5v-1Z"/><path class="cls-2" d="M147.88,211v1a.59.59,0,0,0,.36.5l5.19,3a1.75,1.75,0,0,0,.87.21,1.71,1.71,0,0,0,.86-.21l5.2-3a.61.61,0,0,0,.36-.5v-1Z"/><path class="cls-2" d="M113.24,221v1a.6.6,0,0,0,.35.5l5.2,3a1.75,1.75,0,0,0,.87.21,1.71,1.71,0,0,0,.86-.21l5.2-3a.61.61,0,0,0,.36-.5v-1Z"/><path class="cls-2" d="M125.36,208v1a.61.61,0,0,0,.36.5l5.2,3a1.71,1.71,0,0,0,.86.21,1.75,1.75,0,0,0,.87-.21l5.19-3a.61.61,0,0,0,.36-.5v-1Z"/><path class="cls-2" d="M130.56,201v1a.59.59,0,0,0,.36.5l5.19,3a1.75,1.75,0,0,0,.87.21,1.71,1.71,0,0,0,.86-.21l5.2-3a.61.61,0,0,0,.36-.5v-1Z"/><path class="cls-2" d="M139.22,206v1a.59.59,0,0,0,.36.5l5.19,3a1.75,1.75,0,0,0,.87.21,1.71,1.71,0,0,0,.86-.21l5.2-3a.61.61,0,0,0,.36-.5v-1Z"/><path class="cls-2" d="M134,213v1a.61.61,0,0,0,.36.5l5.2,3a1.71,1.71,0,0,0,.86.21,1.75,1.75,0,0,0,.87-.21l5.19-3a.61.61,0,0,0,.36-.5v-1Z"/><path class="cls-2" d="M94.18,210v1a.61.61,0,0,0,.36.5l6.93,4a1.89,1.89,0,0,0,1.73,0l5.2-3a.61.61,0,0,0,.36-.5v-1Z"/><path class="cls-2" d="M102.84,205v1a.61.61,0,0,0,.36.5l6.93,4a1.89,1.89,0,0,0,1.73,0l5.2-3a.61.61,0,0,0,.36-.5v-1Z"/><path class="cls-2" d="M221.34,257v-1l-18-3v1a.61.61,0,0,0,.36.5L208,257l-8.15,4v1a.61.61,0,0,0,.36.5l5.19,3a1.91,1.91,0,0,0,1.74,0l13.85-8A.61.61,0,0,0,221.34,257Z"/><path class="cls-2" d="M111.5,200v1a.61.61,0,0,0,.36.5l10.39,6a1.91,1.91,0,0,0,1.74,0l5.19-3a.61.61,0,0,0,.36-.5v-1Z"/><path class="cls-2" d="M120.16,195v1a.61.61,0,0,0,.36.5l6.93,4a1.75,1.75,0,0,0,.87.21,1.71,1.71,0,0,0,.86-.21l5.2-3a.61.61,0,0,0,.36-.5v-1Z"/></g><path class="cls-8" d="M191.54,265.5a.53.53,0,0,0,0,1l5.19,3a1.78,1.78,0,0,0,.87.21,1.71,1.71,0,0,0,.86-.21l5.2-3a.53.53,0,0,0,0-1l-5.2-3a1.71,1.71,0,0,0-.86-.21,1.78,1.78,0,0,0-.87.21Z"/><path class="cls-8" d="M182.88,260.5a.53.53,0,0,0,0,1l5.19,3a1.75,1.75,0,0,0,.87.21,1.71,1.71,0,0,0,.86-.21l5.2-3a.53.53,0,0,0,0-1l-5.2-3a1.71,1.71,0,0,0-.86-.21,1.75,1.75,0,0,0-.87.21Z"/><path class="cls-8" d="M174.22,255.5a.53.53,0,0,0,0,1l5.19,3a1.75,1.75,0,0,0,.87.21,1.71,1.71,0,0,0,.86-.21l5.2-3a.53.53,0,0,0,0-1l-5.2-3a1.71,1.71,0,0,0-.86-.21,1.75,1.75,0,0,0-.87.21Z"/><path class="cls-8" d="M122.25,225.5a.53.53,0,0,0,0,1l48.5,28a1.75,1.75,0,0,0,.87.21,1.71,1.71,0,0,0,.86-.21l5.2-3a.53.53,0,0,0,0-1l-48.5-28a1.71,1.71,0,0,0-.86-.21,1.75,1.75,0,0,0-.87.21Z"/><path class="cls-8" d="M113.59,220.5a.53.53,0,0,0,0,1l5.2,3a1.75,1.75,0,0,0,.87.21,1.71,1.71,0,0,0,.86-.21l5.2-3a.53.53,0,0,0,0-1l-5.2-3a1.71,1.71,0,0,0-.86-.21,1.75,1.75,0,0,0-.87.21Z"/><path class="cls-8" d="M104.93,215.5a.53.53,0,0,0,0,1l5.2,3a1.89,1.89,0,0,0,1.73,0l5.2-3a.53.53,0,0,0,0-1l-5.2-3a1.89,1.89,0,0,0-1.73,0Z"/><path class="cls-8" d="M94.54,209.5a.53.53,0,0,0,0,1l6.93,4a1.89,1.89,0,0,0,1.73,0l5.2-3a.53.53,0,0,0,0-1l-6.93-4a1.89,1.89,0,0,0-1.73,0Z"/><path class="cls-8" d="M191.54,255.5a.53.53,0,0,0,0,1l5.19,3a1.78,1.78,0,0,0,.87.21,1.71,1.71,0,0,0,.86-.21l5.2-3a.53.53,0,0,0,0-1l-5.2-3a1.71,1.71,0,0,0-.86-.21,1.78,1.78,0,0,0-.87.21Z"/><path class="cls-8" d="M182.88,250.5a.53.53,0,0,0,0,1l5.19,3a1.75,1.75,0,0,0,.87.21,1.71,1.71,0,0,0,.86-.21l5.2-3a.53.53,0,0,0,0-1l-5.2-3a1.71,1.71,0,0,0-.86-.21,1.75,1.75,0,0,0-.87.21Z"/><path class="cls-8" d="M174.22,245.5a.53.53,0,0,0,0,1l5.19,3a1.75,1.75,0,0,0,.87.21,1.71,1.71,0,0,0,.86-.21l5.2-3a.53.53,0,0,0,0-1l-5.2-3a1.71,1.71,0,0,0-.86-.21,1.75,1.75,0,0,0-.87.21Z"/><path class="cls-8" d="M165.56,240.5a.53.53,0,0,0,0,1l5.19,3a1.75,1.75,0,0,0,.87.21,1.71,1.71,0,0,0,.86-.21l5.2-3a.53.53,0,0,0,0-1l-5.2-3a1.71,1.71,0,0,0-.86-.21,1.75,1.75,0,0,0-.87.21Z"/><path class="cls-8" d="M156.9,235.5a.53.53,0,0,0,0,1l5.19,3a1.75,1.75,0,0,0,.87.21,1.71,1.71,0,0,0,.86-.21l5.2-3a.53.53,0,0,0,0-1l-5.2-3a1.71,1.71,0,0,0-.86-.21,1.75,1.75,0,0,0-.87.21Z"/><path class="cls-8" d="M148.24,230.5a.53.53,0,0,0,0,1l5.19,3a1.75,1.75,0,0,0,.87.21,1.71,1.71,0,0,0,.86-.21l5.2-3a.53.53,0,0,0,0-1l-5.2-3a1.71,1.71,0,0,0-.86-.21,1.75,1.75,0,0,0-.87.21Z"/><path class="cls-8" d="M139.58,225.5a.53.53,0,0,0,0,1l5.19,3a1.75,1.75,0,0,0,.87.21,1.71,1.71,0,0,0,.86-.21l5.2-3a.53.53,0,0,0,0-1l-5.2-3a1.71,1.71,0,0,0-.86-.21,1.75,1.75,0,0,0-.87.21Z"/><path class="cls-8" d="M130.92,220.5a.53.53,0,0,0,0,1l5.19,3a1.75,1.75,0,0,0,.87.21,1.71,1.71,0,0,0,.86-.21l5.2-3a.53.53,0,0,0,0-1l-5.2-3a1.71,1.71,0,0,0-.86-.21,1.75,1.75,0,0,0-.87.21Z"/><path class="cls-8" d="M122.25,215.5a.53.53,0,0,0,0,1l5.2,3a1.75,1.75,0,0,0,.87.21,1.71,1.71,0,0,0,.86-.21l5.2-3a.53.53,0,0,0,0-1l-5.2-3a1.71,1.71,0,0,0-.86-.21,1.75,1.75,0,0,0-.87.21Z"/><path class="cls-8" d="M113.59,210.5a.53.53,0,0,0,0,1l5.2,3a1.75,1.75,0,0,0,.87.21,1.71,1.71,0,0,0,.86-.21l5.2-3a.53.53,0,0,0,0-1l-5.2-3a1.71,1.71,0,0,0-.86-.21,1.75,1.75,0,0,0-.87.21Z"/><path class="cls-8" d="M103.2,204.5a.53.53,0,0,0,0,1l6.93,4a1.89,1.89,0,0,0,1.73,0l5.2-3a.53.53,0,0,0,0-1l-6.93-4a1.89,1.89,0,0,0-1.73,0Z"/><path class="cls-8" d="M195,247.5a.53.53,0,0,0,0,1l5.2,3a1.71,1.71,0,0,0,.86.21,1.75,1.75,0,0,0,.87-.21l5.2-3a.53.53,0,0,0,0-1l-5.2-3a1.75,1.75,0,0,0-.87-.21,1.71,1.71,0,0,0-.86.21Z"/><path class="cls-8" d="M221.34,256a.61.61,0,0,0-.36-.5l-10.39-6a1.75,1.75,0,0,0-.87-.21,1.71,1.71,0,0,0-.86.21l-5.2,3a.53.53,0,0,0,0,1L208,256l-7.79,4.5a.53.53,0,0,0,0,1l5.19,3a1.91,1.91,0,0,0,1.74,0l13.85-8A.61.61,0,0,0,221.34,256Z"/><path class="cls-8" d="M186.34,242.5a.53.53,0,0,0,0,1l5.2,3a1.71,1.71,0,0,0,.86.21,1.75,1.75,0,0,0,.87-.21l5.19-3a.53.53,0,0,0,0-1l-5.19-3a1.75,1.75,0,0,0-.87-.21,1.71,1.71,0,0,0-.86.21Z"/><path class="cls-8" d="M177.68,237.5a.53.53,0,0,0,0,1l5.2,3a1.71,1.71,0,0,0,.86.21,1.75,1.75,0,0,0,.87-.21l5.19-3a.53.53,0,0,0,0-1l-5.19-3a1.75,1.75,0,0,0-.87-.21,1.71,1.71,0,0,0-.86.21Z"/><path class="cls-8" d="M169,232.5a.53.53,0,0,0,0,1l5.2,3a1.71,1.71,0,0,0,.86.21,1.75,1.75,0,0,0,.87-.21l5.19-3a.53.53,0,0,0,0-1l-5.19-3a1.75,1.75,0,0,0-.87-.21,1.71,1.71,0,0,0-.86.21Z"/><path class="cls-8" d="M160.36,227.5a.53.53,0,0,0,0,1l5.2,3a1.71,1.71,0,0,0,.86.21,1.75,1.75,0,0,0,.87-.21l5.19-3a.53.53,0,0,0,0-1l-5.19-3a1.75,1.75,0,0,0-.87-.21,1.71,1.71,0,0,0-.86.21Z"/><path class="cls-8" d="M151.7,222.5a.53.53,0,0,0,0,1l5.2,3a1.71,1.71,0,0,0,.86.21,1.75,1.75,0,0,0,.87-.21l5.19-3a.53.53,0,0,0,0-1l-5.19-3a1.75,1.75,0,0,0-.87-.21,1.71,1.71,0,0,0-.86.21Z"/><path class="cls-8" d="M143,217.5a.53.53,0,0,0,0,1l5.2,3a1.71,1.71,0,0,0,.86.21,1.75,1.75,0,0,0,.87-.21l5.19-3a.53.53,0,0,0,0-1l-5.19-3a1.75,1.75,0,0,0-.87-.21,1.71,1.71,0,0,0-.86.21Z"/><path class="cls-8" d="M134.38,212.5a.53.53,0,0,0,0,1l5.2,3a1.71,1.71,0,0,0,.86.21,1.75,1.75,0,0,0,.87-.21l5.19-3a.53.53,0,0,0,0-1l-5.19-3a1.75,1.75,0,0,0-.87-.21,1.71,1.71,0,0,0-.86.21Z"/><path class="cls-8" d="M125.72,207.5a.53.53,0,0,0,0,1l5.2,3a1.71,1.71,0,0,0,.86.21,1.75,1.75,0,0,0,.87-.21l5.19-3a.53.53,0,0,0,0-1l-5.19-3a1.75,1.75,0,0,0-.87-.21,1.71,1.71,0,0,0-.86.21Z"/><path class="cls-8" d="M111.86,199.5a.53.53,0,0,0,0,1l10.39,6a1.91,1.91,0,0,0,1.74,0l5.19-3a.53.53,0,0,0,0-1l-10.39-6a1.89,1.89,0,0,0-1.73,0Z"/><path class="cls-8" d="M217.52,250.5a.53.53,0,0,0,0,1l5.19,3a1.91,1.91,0,0,0,1.74,0l5.19-3a.53.53,0,0,0,0-1l-5.19-3a1.91,1.91,0,0,0-1.74,0Z"/><path class="cls-8" d="M208.86,245.5a.53.53,0,0,0,0,1l5.19,3a1.91,1.91,0,0,0,1.74,0l5.19-3a.53.53,0,0,0,0-1l-5.19-3a1.91,1.91,0,0,0-1.74,0Z"/><path class="cls-8" d="M200.2,240.5a.53.53,0,0,0,0,1l5.19,3a1.75,1.75,0,0,0,.87.21,1.78,1.78,0,0,0,.87-.21l5.19-3a.53.53,0,0,0,0-1l-5.19-3a1.78,1.78,0,0,0-.87-.21,1.75,1.75,0,0,0-.87.21Z"/><path class="cls-8" d="M191.54,235.5a.53.53,0,0,0,0,1l5.19,3a1.75,1.75,0,0,0,.87.21,1.71,1.71,0,0,0,.86-.21l5.2-3a.53.53,0,0,0,0-1l-5.2-3a1.71,1.71,0,0,0-.86-.21,1.75,1.75,0,0,0-.87.21Z"/><path class="cls-8" d="M182.88,230.5a.53.53,0,0,0,0,1l5.19,3a1.75,1.75,0,0,0,.87.21,1.71,1.71,0,0,0,.86-.21l5.2-3a.53.53,0,0,0,0-1l-5.2-3a1.71,1.71,0,0,0-.86-.21,1.75,1.75,0,0,0-.87.21Z"/><path class="cls-8" d="M174.22,225.5a.53.53,0,0,0,0,1l5.19,3a1.75,1.75,0,0,0,.87.21,1.71,1.71,0,0,0,.86-.21l5.2-3a.53.53,0,0,0,0-1l-5.2-3a1.71,1.71,0,0,0-.86-.21,1.75,1.75,0,0,0-.87.21Z"/><path class="cls-8" d="M165.56,220.5a.53.53,0,0,0,0,1l5.19,3a1.75,1.75,0,0,0,.87.21,1.71,1.71,0,0,0,.86-.21l5.2-3a.53.53,0,0,0,0-1l-5.2-3a1.71,1.71,0,0,0-.86-.21,1.75,1.75,0,0,0-.87.21Z"/><path class="cls-8" d="M156.9,215.5a.53.53,0,0,0,0,1l5.19,3a1.75,1.75,0,0,0,.87.21,1.71,1.71,0,0,0,.86-.21l5.2-3a.53.53,0,0,0,0-1l-5.2-3a1.71,1.71,0,0,0-.86-.21,1.75,1.75,0,0,0-.87.21Z"/><path class="cls-8" d="M148.24,210.5a.53.53,0,0,0,0,1l5.19,3a1.75,1.75,0,0,0,.87.21,1.71,1.71,0,0,0,.86-.21l5.2-3a.53.53,0,0,0,0-1l-5.2-3a1.71,1.71,0,0,0-.86-.21,1.75,1.75,0,0,0-.87.21Z"/><path class="cls-8" d="M139.58,205.5a.53.53,0,0,0,0,1l5.19,3a1.75,1.75,0,0,0,.87.21,1.71,1.71,0,0,0,.86-.21l5.2-3a.53.53,0,0,0,0-1l-5.2-3a1.71,1.71,0,0,0-.86-.21,1.75,1.75,0,0,0-.87.21Z"/><path class="cls-8" d="M130.92,200.5a.53.53,0,0,0,0,1l5.19,3a1.75,1.75,0,0,0,.87.21,1.71,1.71,0,0,0,.86-.21l5.2-3a.53.53,0,0,0,0-1l-5.2-3a1.71,1.71,0,0,0-.86-.21,1.75,1.75,0,0,0-.87.21Z"/><path class="cls-8" d="M120.52,194.5a.53.53,0,0,0,0,1l6.93,4a1.75,1.75,0,0,0,.87.21,1.71,1.71,0,0,0,.86-.21l5.2-3a.53.53,0,0,0,0-1l-6.93-4a1.89,1.89,0,0,0-1.73,0Z"/><path class="cls-2" d="M127.6,73.76l1.73-1a2.46,2.46,0,0,1,2.45.24l117.78,68a7.07,7.07,0,0,1,2.45,2.59,7,7,0,0,1,1,3.41V251l-1.73,1Z"/><path class="cls-9" d="M126.58,76a2.12,2.12,0,0,1,3.47-2l117.78,68a7.65,7.65,0,0,1,3.46,6V252L126.58,180Z"/><polygon class="cls-10" points="246.1 243 131.78 177 131.78 81 246.1 147 246.1 243"/><g class="cls-11"><path class="cls-1" d="M1.88,11v97l114.31,66V77Z"/><polygon class="cls-10" points="116.19 78 1.88 12 1.88 0 116.19 66 116.19 78"/><path class="cls-1" d="M8.81,10c0,1.11-.78,1.55-1.74,1A3.83,3.83,0,0,1,5.34,8c0-1.1.78-1.55,1.73-1A3.83,3.83,0,0,1,8.81,10Z"/><path class="cls-1" d="M15.73,14c0,1.11-.77,1.55-1.73,1a3.81,3.81,0,0,1-1.73-3c0-1.1.77-1.55,1.73-1A3.82,3.82,0,0,1,15.73,14Z"/><path class="cls-1" d="M22.66,18c0,1.11-.77,1.55-1.73,1a3.81,3.81,0,0,1-1.73-3c0-1.1.77-1.55,1.73-1A3.82,3.82,0,0,1,22.66,18Z"/></g><path class="cls-9" d="M55.57,66c0,.55-.39.78-.87.5L46,61.5a1.94,1.94,0,0,1-.86-1.5V50c0-.55.39-.78.86-.5l8.66,5a1.92,1.92,0,0,1,.87,1.5Z"/><path class="cls-9" d="M105.8,155c0,.55-.39.78-.87.5L46,121.5a1.94,1.94,0,0,1-.86-1.5V102c0-.55.39-.78.86-.5l58.89,34a1.92,1.92,0,0,1,.87,1.5Z"/><path class="cls-9" d="M40,57c0,.55-.39.78-.86.5l-26-15a1.92,1.92,0,0,1-.87-1.5V31c0-.55.39-.78.87-.5l26,15A1.94,1.94,0,0,1,40,47Z"/><path class="cls-9" d="M72,88.5c.47.28.86,0,.86-.5A1.94,1.94,0,0,0,72,86.5l-26-15c-.47-.28-.86,0-.86.5A1.94,1.94,0,0,0,46,73.5Z"/><path class="cls-9" d="M72,112.5c.47.28.86,0,.86-.5a1.94,1.94,0,0,0-.86-1.5l-26-15c-.47-.28-.86,0-.86.5A1.94,1.94,0,0,0,46,97.5Z"/><path class="cls-9" d="M104.93,101.5c.48.28.87,0,.87-.5a1.92,1.92,0,0,0-.87-1.5L46,65.5c-.47-.28-.86,0-.86.5A1.94,1.94,0,0,0,46,67.5Z"/><path class="cls-1" d="M52.11,57c0,1.1-.78,1.55-1.74,1a3.85,3.85,0,0,1-1.73-3c0-1.1.78-1.55,1.73-1A3.83,3.83,0,0,1,52.11,57Z"/><path class="cls-1" d="M47.78,60.5c0-1.1.77-1.55,1.73-1l1.73,1a3.82,3.82,0,0,1,1.73,3v3l-5.19-3Z"/><path class="cls-9" d="M20.93,65c.48.28.87,0,.87-.5a1.92,1.92,0,0,0-.87-1.5l-7.79-4.5c-.48-.28-.87,0-.87.5a1.92,1.92,0,0,0,.87,1.5Z"/><path class="cls-9" d="M25.26,73.5c.48.28.87,0,.87-.5a1.92,1.92,0,0,0-.87-1.5l-12.12-7c-.48-.28-.87,0-.87.5a1.92,1.92,0,0,0,.87,1.5Z"/><path class="cls-9" d="M33.92,84.5c.48.28.87,0,.87-.5a1.92,1.92,0,0,0-.87-1.5l-20.78-12c-.48-.28-.87,0-.87.5a1.92,1.92,0,0,0,.87,1.5Z"/><path class="cls-9" d="M29.59,88c.48.28.87,0,.87-.5a1.92,1.92,0,0,0-.87-1.5L13.14,76.5c-.48-.28-.87,0-.87.5a1.92,1.92,0,0,0,.87,1.5Z"/><path class="cls-9" d="M20.93,59c.48.28.87,0,.87-.5a1.92,1.92,0,0,0-.87-1.5l-7.79-4.5c-.48-.28-.87,0-.87.5a1.92,1.92,0,0,0,.87,1.5Z"/><path class="cls-9" d="M29.59,58c.48.28.87,0,.87-.5a1.92,1.92,0,0,0-.87-1.5L13.14,46.5c-.48-.28-.87,0-.87.5a1.92,1.92,0,0,0,.87,1.5Z"/><g class="cls-12"><path class="cls-10" d="M375.35,272.06A3.66,3.66,0,0,1,376,274v50l-52-30V244a1.14,1.14,0,0,1,.65-1.19l24.25-8.4a1.32,1.32,0,0,1,1.08.19,3.51,3.51,0,0,1,1.08,1.06Z"/><path class="cls-1" d="M372.28,274.15a1.75,1.75,0,0,0-.61-.65l-43.3-25a.6.6,0,0,0-.61-.06.61.61,0,0,0-.26.56v42a1.73,1.73,0,0,0,.26.85,1.75,1.75,0,0,0,.61.65l43.3,25a.6.6,0,0,0,.61.06.61.61,0,0,0,.26-.56V275A1.73,1.73,0,0,0,372.28,274.15Z"/><polygon class="cls-6" points="324.04 294 376 324 376 276 324.04 294"/><polygon class="cls-5" points="351.95 284.33 376 324 346.24 286.31 351.95 284.33"/><polygon class="cls-3" points="376 324 324.04 294 324.04 246 376 324"/></g><g class="cls-13"><polygon class="cls-6" points="313.65 288 261.69 258 261.69 210 313.65 240 313.65 288"/><polygon class="cls-5" points="289.6 248.33 313.65 288 283.89 250.31 289.6 248.33"/><polygon class="cls-3" points="313.65 288 261.69 258 261.69 210 313.65 288"/><path class="cls-9" d="M313,243.19a1.15,1.15,0,0,0,.65-1.19v-2l-52-30v2a3.75,3.75,0,0,0,.65,1.94l24.25,36.4a3.54,3.54,0,0,0,1.09,1.06,1.31,1.31,0,0,0,1.08.19Z"/></g><g class="cls-14"><polygon class="cls-6" points="313.65 228 261.69 198 261.69 150 313.65 180 313.65 228"/><polygon class="cls-5" points="289.6 188.33 313.65 228 283.89 190.31 289.6 188.33"/><polygon class="cls-3" points="313.65 228 261.69 198 261.69 150 313.65 228"/><path class="cls-9" d="M313,183.19a1.15,1.15,0,0,0,.65-1.19v-2l-52-30v2a3.75,3.75,0,0,0,.65,1.94l24.25,36.4a3.54,3.54,0,0,0,1.09,1.06,1.31,1.31,0,0,0,1.08.19Z"/></g></svg>