<svg id="Warstwa_1" data-name="Warstwa 1" xmlns="http://www.w3.org/2000/svg" xmlns:xlink="http://www.w3.org/1999/xlink" viewBox="0 0 376 324"><defs><style>.cls-1{fill:#fff;}.cls-2{mask:url(#mask);}.cls-3{fill:#056cea;}.cls-4{fill:#a4e0ff;}.cls-5,.cls-9{fill:#3192e7;}.cls-6{fill:#73c8ff;}.cls-7{mask:url(#mask-2);}.cls-8{fill:#88d3ff;}.cls-10,.cls-9{opacity:0.48;}.cls-11{fill:#b4e8fe;}.cls-12{mask:url(#mask-3);}.cls-13{mask:url(#mask-4);}.cls-14{mask:url(#mask-5);}</style><mask id="mask" x="261.68" y="150" width="114.32" height="174" maskUnits="userSpaceOnUse"><path class="cls-1" d="M375.49,216.29a3.63,3.63,0,0,0-1.22-1.29L263.42,151a1.06,1.06,0,0,0-1.74,1V256a3.82,3.82,0,0,0,1.74,3l110.85,64a1.19,1.19,0,0,0,1.22.12A1.22,1.22,0,0,0,376,322V218A3.54,3.54,0,0,0,375.49,216.29Z"/></mask><mask id="mask-2" x="126.58" y="72" width="124.71" height="204" maskUnits="userSpaceOnUse"><path class="cls-1" d="M250.28,144.59a7.07,7.07,0,0,0-2.45-2.59L130.05,74a2.12,2.12,0,0,0-3.47,2V200a7.7,7.7,0,0,0,3.47,6l117.78,68a2.11,2.11,0,0,0,3.46-2V148A7.11,7.11,0,0,0,250.28,144.59Z"/></mask><mask id="mask-3" x="64.23" y="96" width="51.96" height="78" maskUnits="userSpaceOnUse"><path class="cls-1" d="M115.68,126.29a3.55,3.55,0,0,0-1.22-1.29L66,97a1.19,1.19,0,0,0-1.22-.12A1.22,1.22,0,0,0,64.23,98v44a3.54,3.54,0,0,0,.51,1.71A3.63,3.63,0,0,0,66,145l48.5,28a1.2,1.2,0,0,0,1.22.12,1.22,1.22,0,0,0,.51-1.12V128A3.54,3.54,0,0,0,115.68,126.29Z"/></mask><mask id="mask-4" x="64.23" y="36" width="51.96" height="78" maskUnits="userSpaceOnUse"><path class="cls-1" d="M115.68,66.29A3.55,3.55,0,0,0,114.46,65L66,37a1.19,1.19,0,0,0-1.22-.12A1.22,1.22,0,0,0,64.23,38V82a3.54,3.54,0,0,0,.51,1.71A3.63,3.63,0,0,0,66,85l48.5,28a1.2,1.2,0,0,0,1.22.12,1.22,1.22,0,0,0,.51-1.12V68A3.54,3.54,0,0,0,115.68,66.29Z"/></mask><mask id="mask-5" x="1.88" y="0" width="51.96" height="78" maskUnits="userSpaceOnUse"><path class="cls-1" d="M53.33,30.29A3.63,3.63,0,0,0,52.11,29L3.61,1A1.21,1.21,0,0,0,2.38.88,1.23,1.23,0,0,0,1.88,2V46a3.77,3.77,0,0,0,1.73,3l48.5,28a1.19,1.19,0,0,0,1.22.12A1.22,1.22,0,0,0,53.84,76V32A3.54,3.54,0,0,0,53.33,30.29Z"/></mask></defs><g class="cls-2"><path class="cls-1" d="M261.68,161v97L376,324V227Z"/><polygon class="cls-3" points="376 228 261.69 162 261.69 150 376 216 376 228"/><path class="cls-1" d="M268.61,160c0,1.11-.77,1.55-1.73,1a3.81,3.81,0,0,1-1.73-3c0-1.1.77-1.55,1.73-1A3.82,3.82,0,0,1,268.61,160Z"/><path class="cls-1" d="M275.54,164c0,1.11-.77,1.55-1.73,1a3.81,3.81,0,0,1-1.73-3c0-1.1.77-1.55,1.73-1A3.82,3.82,0,0,1,275.54,164Z"/><path class="cls-1" d="M282.47,168c0,1.11-.78,1.55-1.73,1a3.81,3.81,0,0,1-1.73-3c0-1.1.77-1.55,1.73-1A3.85,3.85,0,0,1,282.47,168Z"/></g><path class="cls-4" d="M341.36,270c.48.28.87.05.87-.5a1.92,1.92,0,0,0-.87-1.5l-32.91-19c-.48-.28-.87-.05-.87.5a1.92,1.92,0,0,0,.87,1.5Z"/><path class="cls-4" d="M336.16,273c.48.28.87.05.87-.5a1.92,1.92,0,0,0-.87-1.5l-36.37-21c-.48-.28-.87-.05-.87.5a1.92,1.92,0,0,0,.87,1.5Z"/><path class="cls-4" d="M303.25,248c.48.28.87.05.87-.5a1.92,1.92,0,0,0-.87-1.5l-8.66-5c-.48-.28-.86-.05-.86.5a1.91,1.91,0,0,0,.86,1.5Z"/><path class="cls-4" d="M364.74,241.5l-91.8-53c-.48-.28-.86-.05-.86.5v32a1.91,1.91,0,0,0,.86,1.5l91.8,53c.48.28.87.05.87-.5V243A1.92,1.92,0,0,0,364.74,241.5Z"/><path class="cls-4" d="M330.1,275.5l-22.52-13c-.47-.28-.86-.05-.86.5v8a1.94,1.94,0,0,0,.86,1.5l22.52,13c.48.28.87.05.87-.5v-8A1.92,1.92,0,0,0,330.1,275.5Z"/><path class="cls-4" d="M364.74,235.5c.48.28.87.05.87-.5a1.92,1.92,0,0,0-.87-1.5l-3.46-2c-.48-.28-.87-.05-.87.5a1.92,1.92,0,0,0,.87,1.5Z"/><path class="cls-4" d="M356.08,230.5c.48.28.87.05.87-.5a1.92,1.92,0,0,0-.87-1.5l-3.46-2c-.48-.28-.87-.05-.87.5a1.92,1.92,0,0,0,.87,1.5Z"/><path class="cls-4" d="M347.42,225.5c.48.28.87.05.87-.5a1.92,1.92,0,0,0-.87-1.5l-3.46-2c-.48-.28-.87-.05-.87.5a1.92,1.92,0,0,0,.87,1.5Z"/><path class="cls-4" d="M338.76,220.5c.48.28.87.05.87-.5a1.92,1.92,0,0,0-.87-1.5l-3.46-2c-.48-.28-.87-.05-.87.5a1.92,1.92,0,0,0,.87,1.5Z"/><path class="cls-4" d="M330.1,215.5c.48.28.87.05.87-.5a1.92,1.92,0,0,0-.87-1.5l-3.46-2c-.48-.28-.87-.05-.87.5a1.92,1.92,0,0,0,.87,1.5Z"/><path class="cls-4" d="M276.41,184.5c.48.28.86.05.86-.5a1.91,1.91,0,0,0-.86-1.5l-3.47-2c-.48-.28-.86-.05-.86.5a1.91,1.91,0,0,0,.86,1.5Z"/><path class="cls-5" d="M227.61,249.5a2.46,2.46,0,0,0-1.43-2l-29.45-17a7,7,0,0,0-3.46-.83,7.45,7.45,0,0,0-3,.61l-21.74,9.91-1.34,5.22s-11.69,1.31-11.69,2.09v2a2.45,2.45,0,0,0,1.44,2l36.37,21a7.65,7.65,0,0,0,6.93,0c.13-.08.26-.16.38-.25l26-19a2.22,2.22,0,0,0,1.05-1.75Z"/><path class="cls-6" d="M200.58,270.25l8.81-6.44-40.9-23.62-11.17,5.09a4.13,4.13,0,0,0-.42.22,2.11,2.11,0,0,0,0,4l36.37,21a7.65,7.65,0,0,0,6.93,0C200.33,270.42,200.46,270.34,200.58,270.25Z"/><path class="cls-5" d="M252,143.59a7,7,0,0,0-2.45-2.59L131.78,73a2.46,2.46,0,0,0-2.45-.24l-1.73,1L250.28,274.24l1.73-1a2.44,2.44,0,0,0,1-2.24V147A7,7,0,0,0,252,143.59Z"/><g class="cls-7"><polygon class="cls-8" points="126.58 204 251.29 276 251.29 251 126.58 179 126.58 204"/><polygon class="cls-4" points="126.58 72 251.29 144 251.29 252 126.58 180 126.58 72"/></g><path class="cls-9" d="M192.4,230c0,2.21-1.55,3.1-3.46,2a7.66,7.66,0,0,1-3.47-6c0-2.21,1.56-3.1,3.47-2A7.65,7.65,0,0,1,192.4,230Z"/><polygon class="cls-3" points="246.1 243 131.78 177 131.78 81 246.1 147 246.1 243"/><path class="cls-1" d="M175.08,138a7.76,7.76,0,0,1,3.29,4.63L182,157.35l3.64-10.51c.47-1.36,1.8-1.7,3.29-.84a7.8,7.8,0,0,1,3.29,4.63l3.64,14.72,3.64-10.51c.48-1.4,1.84-1.67,3.29-.84a5.7,5.7,0,0,1,1.09.84c1.82,1.74,2.8,4.58,2.19,6.32l-6.93,20c-.47,1.36-1.79,1.7-3.28.84a7.76,7.76,0,0,1-3.29-4.63l-3.64-14.72-3.64,10.51c-.47,1.36-1.8,1.7-3.29.84a7.8,7.8,0,0,1-3.29-4.63l-6.92-28c-.61-2.45.37-4.15,2.19-3.8a3.53,3.53,0,0,1,1.09.43m0-6a8.83,8.83,0,0,0-2.73-1.07c-4.54-.87-7,3.39-5.48,9.49l6.92,28c1.19,4.77,4.49,9.43,8.22,11.58,2.78,1.61,5.33,1.55,6.93,0a18.45,18.45,0,0,0,6.93,8c3.73,2.16,7,1.31,8.21-2.09l6.93-20c1.51-4.36-.95-11.46-5.48-15.81a14,14,0,0,0-2.73-2.1c-2.78-1.6-5.33-1.55-6.93,0a18.51,18.51,0,0,0-6.93-8c-2.78-1.61-5.33-1.55-6.93,0a18.45,18.45,0,0,0-6.93-8Z"/><path class="cls-5" d="M208.71,296v-2L80.83,261v2a1.24,1.24,0,0,0,.72,1l2.88,1.66L171.62,316a3.85,3.85,0,0,0,3.46,0L208,297A1.24,1.24,0,0,0,208.71,296Z"/><path class="cls-8" d="M208.71,294a1.24,1.24,0,0,0-.72-1l-90.07-52a3.85,3.85,0,0,0-3.46,0L81.55,260a1.05,1.05,0,0,0,0,2l90.07,52a3.85,3.85,0,0,0,3.46,0L208,295A1.24,1.24,0,0,0,208.71,294Z"/><g class="cls-10"><path class="cls-5" d="M113.24,273v1a.61.61,0,0,0,.35.5l38.11,22a1.89,1.89,0,0,0,1.73,0l3.47-2a.61.61,0,0,0,.35-.5v-1Z"/><path class="cls-5" d="M99.38,265v1a.63.63,0,0,0,.36.5l3.46,2a1.75,1.75,0,0,0,.87.21,1.71,1.71,0,0,0,.86-.21l3.47-2a.63.63,0,0,0,.36-.5v-1Z"/><path class="cls-5" d="M106.31,261v1a.63.63,0,0,0,.36.5l3.46,2a1.89,1.89,0,0,0,1.73,0l3.47-2a.63.63,0,0,0,.36-.5v-1Z"/><path class="cls-5" d="M116.7,259v1a.63.63,0,0,0,.36.5l3.46,2a1.75,1.75,0,0,0,.87.21,1.71,1.71,0,0,0,.86-.21l3.47-2a.63.63,0,0,0,.36-.5v-1Z"/><path class="cls-5" d="M120.16,253v1a.63.63,0,0,0,.36.5l3.47,2a1.71,1.71,0,0,0,.86.21,1.75,1.75,0,0,0,.87-.21l3.46-2a.63.63,0,0,0,.36-.5v-1Z"/><path class="cls-5" d="M127.09,257v1a.63.63,0,0,0,.36.5l3.47,2a1.71,1.71,0,0,0,.86.21,1.75,1.75,0,0,0,.87-.21l3.46-2a.63.63,0,0,0,.36-.5v-1Z"/><path class="cls-5" d="M134,261v1a.63.63,0,0,0,.36.5l3.46,2a1.75,1.75,0,0,0,.87.21,1.78,1.78,0,0,0,.87-.21l3.46-2a.63.63,0,0,0,.36-.5v-1Z"/><path class="cls-5" d="M141,265v1a.63.63,0,0,0,.36.5l3.46,2a1.75,1.75,0,0,0,.87.21,1.71,1.71,0,0,0,.86-.21l3.47-2a.63.63,0,0,0,.36-.5v-1Z"/><path class="cls-5" d="M137.48,271v1a.63.63,0,0,0,.36.5l3.47,2a1.71,1.71,0,0,0,.86.21,1.75,1.75,0,0,0,.87-.21l3.46-2a.61.61,0,0,0,.36-.5v-1Z"/><path class="cls-5" d="M144.41,275v1a.63.63,0,0,0,.36.5l3.47,2a1.71,1.71,0,0,0,.86.21,1.75,1.75,0,0,0,.87-.21l3.46-2a.63.63,0,0,0,.36-.5v-1Z"/><path class="cls-5" d="M147.88,269v1a.61.61,0,0,0,.36.5l3.46,2a1.89,1.89,0,0,0,1.73,0l3.47-2a.61.61,0,0,0,.35-.5v-1Z"/><path class="cls-5" d="M154.8,273v1a.63.63,0,0,0,.36.5l3.47,2a1.89,1.89,0,0,0,1.73,0l3.46-2a.61.61,0,0,0,.36-.5v-1Z"/><path class="cls-5" d="M141,281v1a.63.63,0,0,0,.36.5l3.46,2a1.75,1.75,0,0,0,.87.21,1.71,1.71,0,0,0,.86-.21l3.47-2a.63.63,0,0,0,.36-.5v-1Z"/><path class="cls-5" d="M151.34,279v1a.63.63,0,0,0,.36.5l3.46,2a1.91,1.91,0,0,0,1.74,0l3.46-2a.63.63,0,0,0,.36-.5v-1Z"/><path class="cls-5" d="M147.88,285v1a.61.61,0,0,0,.36.5l3.46,2a1.89,1.89,0,0,0,1.73,0l3.47-2a.61.61,0,0,0,.35-.5v-1Z"/><path class="cls-5" d="M154.8,289v1a.63.63,0,0,0,.36.5l3.47,2a1.89,1.89,0,0,0,1.73,0l3.46-2a.61.61,0,0,0,.36-.5v-1Z"/><path class="cls-5" d="M158.27,283v1a.63.63,0,0,0,.36.5l3.46,2a1.75,1.75,0,0,0,.87.21,1.71,1.71,0,0,0,.86-.21l3.47-2a.63.63,0,0,0,.36-.5v-1Z"/><path class="cls-5" d="M161.73,277v1a.63.63,0,0,0,.36.5l3.47,2a1.71,1.71,0,0,0,.86.21,1.75,1.75,0,0,0,.87-.21l3.46-2a.63.63,0,0,0,.36-.5v-1Z"/><path class="cls-5" d="M168.66,281v1a.63.63,0,0,0,.36.5l3.46,2a1.91,1.91,0,0,0,1.74,0l3.46-2a.63.63,0,0,0,.36-.5v-1Z"/><path class="cls-5" d="M165.2,287v1a.61.61,0,0,0,.36.5l3.46,2a1.89,1.89,0,0,0,1.73,0l3.47-2a.63.63,0,0,0,.36-.5v-1Z"/><path class="cls-5" d="M175.59,285v1a.63.63,0,0,0,.36.5l3.46,2a1.75,1.75,0,0,0,.87.21,1.71,1.71,0,0,0,.86-.21l3.47-2a.63.63,0,0,0,.36-.5v-1Z"/><path class="cls-5" d="M172.13,291v1a.61.61,0,0,0,.35.5l3.47,2a1.89,1.89,0,0,0,1.73,0l3.46-2a.61.61,0,0,0,.36-.5v-1Z"/><path class="cls-5" d="M182.52,289v1a.63.63,0,0,0,.36.5l3.46,2a1.89,1.89,0,0,0,1.73,0l3.47-2a.63.63,0,0,0,.36-.5v-1Z"/><path class="cls-5" d="M189.45,293v1a.61.61,0,0,0,.35.5l3.47,2a1.89,1.89,0,0,0,1.73,0l3.46-2a.61.61,0,0,0,.36-.5v-1Z"/><path class="cls-5" d="M168.66,297v1a.63.63,0,0,0,.36.5l3.46,2a1.78,1.78,0,0,0,.87.21,1.75,1.75,0,0,0,.87-.21l3.46-2a.63.63,0,0,0,.36-.5v-1Z"/><path class="cls-5" d="M161.73,301v1a.63.63,0,0,0,.36.5l3.47,2a1.71,1.71,0,0,0,.86.21,1.75,1.75,0,0,0,.87-.21l3.46-2a.63.63,0,0,0,.36-.5v-1Z"/><path class="cls-5" d="M168.66,305v1a.63.63,0,0,0,.36.5l3.46,2a1.78,1.78,0,0,0,.87.21,1.75,1.75,0,0,0,.87-.21l3.46-2a.63.63,0,0,0,.36-.5v-1Z"/><path class="cls-5" d="M161.73,293v1a.63.63,0,0,0,.36.5l3.47,2a1.71,1.71,0,0,0,.86.21,1.75,1.75,0,0,0,.87-.21l3.46-2a.63.63,0,0,0,.36-.5v-1Z"/><path class="cls-5" d="M154.8,297v1a.63.63,0,0,0,.36.5l3.47,2a1.89,1.89,0,0,0,1.73,0l3.46-2a.61.61,0,0,0,.36-.5v-1Z"/><path class="cls-5" d="M134,277v1a.63.63,0,0,0,.36.5l3.46,2a1.91,1.91,0,0,0,1.74,0l3.46-2a.63.63,0,0,0,.36-.5v-1Z"/><path class="cls-5" d="M130.56,267v1a.61.61,0,0,0,.36.5l3.46,2a1.89,1.89,0,0,0,1.73,0l3.47-2a.61.61,0,0,0,.35-.5v-1Z"/><path class="cls-5" d="M127.09,273v1a.63.63,0,0,0,.36.5l3.47,2a1.71,1.71,0,0,0,.86.21,1.75,1.75,0,0,0,.87-.21l3.46-2a.63.63,0,0,0,.36-.5v-1Z"/><path class="cls-5" d="M123.63,263v1a.63.63,0,0,0,.36.5l3.46,2a1.75,1.75,0,0,0,.87.21,1.71,1.71,0,0,0,.86-.21l3.47-2a.63.63,0,0,0,.36-.5v-1Z"/><path class="cls-5" d="M120.16,269v1a.63.63,0,0,0,.36.5l3.47,2a1.71,1.71,0,0,0,.86.21,1.75,1.75,0,0,0,.87-.21l3.46-2a.63.63,0,0,0,.36-.5v-1Z"/><path class="cls-5" d="M113.24,265v1a.61.61,0,0,0,.35.5l3.47,2a1.89,1.89,0,0,0,1.73,0l3.46-2a.61.61,0,0,0,.36-.5v-1Z"/><path class="cls-5" d="M106.31,269v1a.63.63,0,0,0,.36.5l3.46,2a1.89,1.89,0,0,0,1.73,0l3.47-2a.63.63,0,0,0,.36-.5v-1Z"/><path class="cls-5" d="M90.72,260v1a.63.63,0,0,0,.36.5l5.19,3a1.91,1.91,0,0,0,1.74,0l3.46-2a.63.63,0,0,0,.36-.5v-1Z"/><path class="cls-5" d="M97.65,256v1a.61.61,0,0,0,.36.5l5.19,3a1.75,1.75,0,0,0,.87.21,1.71,1.71,0,0,0,.86-.21l3.47-2a.63.63,0,0,0,.36-.5v-1Z"/><path class="cls-5" d="M191.9,298v-1l-12.85-2v1a.63.63,0,0,0,.36.5L182,298l-6.42,3v1a.63.63,0,0,0,.36.5l3.46,2a1.75,1.75,0,0,0,.87.21,1.71,1.71,0,0,0,.86-.21l10.4-6A.63.63,0,0,0,191.9,298Z"/><path class="cls-5" d="M104.58,252v1a.61.61,0,0,0,.35.5l8.66,5a1.78,1.78,0,0,0,.87.21,1.75,1.75,0,0,0,.87-.21l3.46-2a.63.63,0,0,0,.36-.5v-1Z"/><path class="cls-5" d="M111.5,248v1a.63.63,0,0,0,.36.5l5.2,3a1.89,1.89,0,0,0,1.73,0l3.46-2a.61.61,0,0,0,.36-.5v-1Z"/></g><path class="cls-11" d="M169,304.5a.61.61,0,0,0-.36.5.63.63,0,0,0,.36.5l3.46,2a1.78,1.78,0,0,0,.87.21,1.75,1.75,0,0,0,.87-.21l3.46-2a.63.63,0,0,0,.36-.5.61.61,0,0,0-.36-.5l-3.46-2a1.75,1.75,0,0,0-.87-.21,1.78,1.78,0,0,0-.87.21Z"/><path class="cls-11" d="M162.09,300.5a.61.61,0,0,0-.36.5.63.63,0,0,0,.36.5l3.47,2a1.71,1.71,0,0,0,.86.21,1.75,1.75,0,0,0,.87-.21l3.46-2a.63.63,0,0,0,.36-.5.61.61,0,0,0-.36-.5l-3.46-2a1.75,1.75,0,0,0-.87-.21,1.71,1.71,0,0,0-.86.21Z"/><path class="cls-11" d="M155.16,296.5a.61.61,0,0,0-.36.5.63.63,0,0,0,.36.5l3.47,2a1.89,1.89,0,0,0,1.73,0l3.46-2a.61.61,0,0,0,.36-.5.59.59,0,0,0-.36-.5l-3.46-2a1.89,1.89,0,0,0-1.73,0Z"/><path class="cls-11" d="M113.59,272.5a.6.6,0,0,0-.35.5.61.61,0,0,0,.35.5l38.11,22a1.89,1.89,0,0,0,1.73,0l3.47-2a.61.61,0,0,0,.35-.5.6.6,0,0,0-.35-.5l-38.11-22a1.89,1.89,0,0,0-1.73,0Z"/><path class="cls-11" d="M106.67,268.5a.61.61,0,0,0-.36.5.63.63,0,0,0,.36.5l3.46,2a1.89,1.89,0,0,0,1.73,0l3.47-2a.63.63,0,0,0,.36-.5.61.61,0,0,0-.36-.5l-3.47-2a1.89,1.89,0,0,0-1.73,0Z"/><path class="cls-11" d="M99.74,264.5a.61.61,0,0,0-.36.5.63.63,0,0,0,.36.5l3.46,2a1.75,1.75,0,0,0,.87.21,1.71,1.71,0,0,0,.86-.21l3.47-2a.63.63,0,0,0,.36-.5.61.61,0,0,0-.36-.5l-3.47-2a1.71,1.71,0,0,0-.86-.21,1.75,1.75,0,0,0-.87.21Z"/><path class="cls-11" d="M91.08,259.5a.61.61,0,0,0-.36.5.63.63,0,0,0,.36.5l5.19,3a1.91,1.91,0,0,0,1.74,0l3.46-2a.63.63,0,0,0,.36-.5.61.61,0,0,0-.36-.5l-5.2-3a1.71,1.71,0,0,0-.86-.21,1.75,1.75,0,0,0-.87.21Z"/><path class="cls-11" d="M169,296.5a.61.61,0,0,0-.36.5.63.63,0,0,0,.36.5l3.46,2a1.78,1.78,0,0,0,.87.21,1.75,1.75,0,0,0,.87-.21l3.46-2a.63.63,0,0,0,.36-.5.61.61,0,0,0-.36-.5l-3.46-2a1.75,1.75,0,0,0-.87-.21,1.78,1.78,0,0,0-.87.21Z"/><path class="cls-11" d="M162.09,292.5a.61.61,0,0,0-.36.5.63.63,0,0,0,.36.5l3.47,2a1.71,1.71,0,0,0,.86.21,1.75,1.75,0,0,0,.87-.21l3.46-2a.63.63,0,0,0,.36-.5.61.61,0,0,0-.36-.5l-3.46-2a1.75,1.75,0,0,0-.87-.21,1.71,1.71,0,0,0-.86.21Z"/><path class="cls-11" d="M155.16,288.5a.61.61,0,0,0-.36.5.63.63,0,0,0,.36.5l3.47,2a1.89,1.89,0,0,0,1.73,0l3.46-2a.61.61,0,0,0,.36-.5.59.59,0,0,0-.36-.5l-3.46-2a1.89,1.89,0,0,0-1.73,0Z"/><path class="cls-11" d="M148.24,284.5a.59.59,0,0,0-.36.5.61.61,0,0,0,.36.5l3.46,2a1.89,1.89,0,0,0,1.73,0l3.47-2a.61.61,0,0,0,.35-.5.6.6,0,0,0-.35-.5l-3.47-2a1.89,1.89,0,0,0-1.73,0Z"/><path class="cls-11" d="M141.31,280.5a.61.61,0,0,0-.36.5.63.63,0,0,0,.36.5l3.46,2a1.75,1.75,0,0,0,.87.21,1.71,1.71,0,0,0,.86-.21l3.47-2a.63.63,0,0,0,.36-.5.61.61,0,0,0-.36-.5l-3.47-2a1.71,1.71,0,0,0-.86-.21,1.75,1.75,0,0,0-.87.21Z"/><path class="cls-11" d="M134.38,276.5a.61.61,0,0,0-.36.5.63.63,0,0,0,.36.5l3.46,2a1.91,1.91,0,0,0,1.74,0l3.46-2a.63.63,0,0,0,.36-.5.61.61,0,0,0-.36-.5l-3.46-2a1.91,1.91,0,0,0-1.74,0Z"/><path class="cls-11" d="M127.45,272.5a.61.61,0,0,0-.36.5.63.63,0,0,0,.36.5l3.47,2a1.71,1.71,0,0,0,.86.21,1.75,1.75,0,0,0,.87-.21l3.46-2a.63.63,0,0,0,.36-.5.61.61,0,0,0-.36-.5l-3.46-2a1.75,1.75,0,0,0-.87-.21,1.71,1.71,0,0,0-.86.21Z"/><path class="cls-11" d="M120.52,268.5a.61.61,0,0,0-.36.5.63.63,0,0,0,.36.5l3.47,2a1.71,1.71,0,0,0,.86.21,1.75,1.75,0,0,0,.87-.21l3.46-2a.63.63,0,0,0,.36-.5.61.61,0,0,0-.36-.5l-3.46-2a1.75,1.75,0,0,0-.87-.21,1.71,1.71,0,0,0-.86.21Z"/><path class="cls-11" d="M113.59,264.5a.6.6,0,0,0-.35.5.61.61,0,0,0,.35.5l3.47,2a1.89,1.89,0,0,0,1.73,0l3.46-2a.61.61,0,0,0,.36-.5.59.59,0,0,0-.36-.5l-3.46-2a1.89,1.89,0,0,0-1.73,0Z"/><path class="cls-11" d="M106.67,260.5a.61.61,0,0,0-.36.5.63.63,0,0,0,.36.5l3.46,2a1.89,1.89,0,0,0,1.73,0l3.47-2a.63.63,0,0,0,.36-.5.61.61,0,0,0-.36-.5l-3.47-2a1.89,1.89,0,0,0-1.73,0Z"/><path class="cls-11" d="M98,255.5a.59.59,0,0,0-.36.5.61.61,0,0,0,.36.5l5.19,3a1.75,1.75,0,0,0,.87.21,1.71,1.71,0,0,0,.86-.21l3.47-2a.63.63,0,0,0,.36-.5.61.61,0,0,0-.36-.5l-5.2-3a1.89,1.89,0,0,0-1.73,0Z"/><path class="cls-11" d="M172.48,290.5a.6.6,0,0,0-.35.5.61.61,0,0,0,.35.5l3.47,2a1.89,1.89,0,0,0,1.73,0l3.46-2a.61.61,0,0,0,.36-.5.59.59,0,0,0-.36-.5l-3.46-2a1.89,1.89,0,0,0-1.73,0Z"/><path class="cls-11" d="M191.9,297a.61.61,0,0,0-.36-.5l-6.93-4a1.75,1.75,0,0,0-.87-.21,1.71,1.71,0,0,0-.86.21l-3.47,2a.61.61,0,0,0-.36.5.63.63,0,0,0,.36.5L182,297,176,300.5a.61.61,0,0,0-.36.5.63.63,0,0,0,.36.5l3.46,2a1.75,1.75,0,0,0,.87.21,1.71,1.71,0,0,0,.86-.21l10.4-6A.63.63,0,0,0,191.9,297Z"/><path class="cls-11" d="M165.56,286.5a.59.59,0,0,0-.36.5.61.61,0,0,0,.36.5l3.46,2a1.89,1.89,0,0,0,1.73,0l3.47-2a.63.63,0,0,0,.36-.5.61.61,0,0,0-.36-.5l-3.47-2a1.89,1.89,0,0,0-1.73,0Z"/><path class="cls-11" d="M158.63,282.5a.61.61,0,0,0-.36.5.63.63,0,0,0,.36.5l3.46,2a1.75,1.75,0,0,0,.87.21,1.71,1.71,0,0,0,.86-.21l3.47-2a.63.63,0,0,0,.36-.5.61.61,0,0,0-.36-.5l-3.47-2a1.71,1.71,0,0,0-.86-.21,1.75,1.75,0,0,0-.87.21Z"/><path class="cls-11" d="M151.7,278.5a.61.61,0,0,0-.36.5.63.63,0,0,0,.36.5l3.46,2a1.91,1.91,0,0,0,1.74,0l3.46-2a.63.63,0,0,0,.36-.5.61.61,0,0,0-.36-.5l-3.46-2a1.91,1.91,0,0,0-1.74,0Z"/><path class="cls-11" d="M144.77,274.5a.61.61,0,0,0-.36.5.63.63,0,0,0,.36.5l3.47,2a1.71,1.71,0,0,0,.86.21,1.75,1.75,0,0,0,.87-.21l3.46-2a.63.63,0,0,0,.36-.5.61.61,0,0,0-.36-.5l-3.46-2a1.75,1.75,0,0,0-.87-.21,1.71,1.71,0,0,0-.86.21Z"/><path class="cls-11" d="M137.84,270.5a.61.61,0,0,0-.36.5.63.63,0,0,0,.36.5l3.47,2a1.71,1.71,0,0,0,.86.21,1.75,1.75,0,0,0,.87-.21l3.46-2a.61.61,0,0,0,.36-.5.59.59,0,0,0-.36-.5l-3.46-2a1.75,1.75,0,0,0-.87-.21,1.71,1.71,0,0,0-.86.21Z"/><path class="cls-11" d="M130.92,266.5a.59.59,0,0,0-.36.5.61.61,0,0,0,.36.5l3.46,2a1.89,1.89,0,0,0,1.73,0l3.47-2a.61.61,0,0,0,.35-.5.6.6,0,0,0-.35-.5l-3.47-2a1.89,1.89,0,0,0-1.73,0Z"/><path class="cls-11" d="M124,262.5a.61.61,0,0,0-.36.5.63.63,0,0,0,.36.5l3.46,2a1.75,1.75,0,0,0,.87.21,1.71,1.71,0,0,0,.86-.21l3.47-2a.63.63,0,0,0,.36-.5.61.61,0,0,0-.36-.5l-3.47-2a1.71,1.71,0,0,0-.86-.21,1.75,1.75,0,0,0-.87.21Z"/><path class="cls-11" d="M117.06,258.5a.61.61,0,0,0-.36.5.63.63,0,0,0,.36.5l3.46,2a1.75,1.75,0,0,0,.87.21,1.71,1.71,0,0,0,.86-.21l3.47-2a.63.63,0,0,0,.36-.5.61.61,0,0,0-.36-.5l-3.47-2a1.71,1.71,0,0,0-.86-.21,1.75,1.75,0,0,0-.87.21Z"/><path class="cls-11" d="M104.93,251.5a.6.6,0,0,0-.35.5.61.61,0,0,0,.35.5l8.66,5a1.78,1.78,0,0,0,.87.21,1.75,1.75,0,0,0,.87-.21l3.46-2a.63.63,0,0,0,.36-.5.61.61,0,0,0-.36-.5l-8.66-5a1.89,1.89,0,0,0-1.73,0Z"/><path class="cls-11" d="M189.8,292.5a.6.6,0,0,0-.35.5.61.61,0,0,0,.35.5l3.47,2a1.89,1.89,0,0,0,1.73,0l3.46-2a.61.61,0,0,0,.36-.5.59.59,0,0,0-.36-.5l-3.46-2a1.89,1.89,0,0,0-1.73,0Z"/><path class="cls-11" d="M182.88,288.5a.61.61,0,0,0-.36.5.63.63,0,0,0,.36.5l3.46,2a1.89,1.89,0,0,0,1.73,0l3.47-2a.63.63,0,0,0,.36-.5.61.61,0,0,0-.36-.5l-3.47-2a1.89,1.89,0,0,0-1.73,0Z"/><path class="cls-11" d="M176,284.5a.61.61,0,0,0-.36.5.63.63,0,0,0,.36.5l3.46,2a1.75,1.75,0,0,0,.87.21,1.71,1.71,0,0,0,.86-.21l3.47-2a.63.63,0,0,0,.36-.5.61.61,0,0,0-.36-.5l-3.47-2a1.71,1.71,0,0,0-.86-.21,1.75,1.75,0,0,0-.87.21Z"/><path class="cls-11" d="M169,280.5a.61.61,0,0,0-.36.5.63.63,0,0,0,.36.5l3.46,2a1.91,1.91,0,0,0,1.74,0l3.46-2a.63.63,0,0,0,.36-.5.61.61,0,0,0-.36-.5l-3.46-2a1.91,1.91,0,0,0-1.74,0Z"/><path class="cls-11" d="M162.09,276.5a.61.61,0,0,0-.36.5.63.63,0,0,0,.36.5l3.47,2a1.71,1.71,0,0,0,.86.21,1.75,1.75,0,0,0,.87-.21l3.46-2a.63.63,0,0,0,.36-.5.61.61,0,0,0-.36-.5l-3.46-2a1.75,1.75,0,0,0-.87-.21,1.71,1.71,0,0,0-.86.21Z"/><path class="cls-11" d="M155.16,272.5a.61.61,0,0,0-.36.5.63.63,0,0,0,.36.5l3.47,2a1.89,1.89,0,0,0,1.73,0l3.46-2a.61.61,0,0,0,.36-.5.59.59,0,0,0-.36-.5l-3.46-2a1.89,1.89,0,0,0-1.73,0Z"/><path class="cls-11" d="M148.24,268.5a.59.59,0,0,0-.36.5.61.61,0,0,0,.36.5l3.46,2a1.89,1.89,0,0,0,1.73,0l3.47-2a.61.61,0,0,0,.35-.5.6.6,0,0,0-.35-.5l-3.47-2a1.89,1.89,0,0,0-1.73,0Z"/><path class="cls-11" d="M141.31,264.5a.61.61,0,0,0-.36.5.63.63,0,0,0,.36.5l3.46,2a1.75,1.75,0,0,0,.87.21,1.71,1.71,0,0,0,.86-.21l3.47-2a.63.63,0,0,0,.36-.5.61.61,0,0,0-.36-.5l-3.47-2a1.71,1.71,0,0,0-.86-.21,1.75,1.75,0,0,0-.87.21Z"/><path class="cls-11" d="M134.38,260.5a.61.61,0,0,0-.36.5.63.63,0,0,0,.36.5l3.46,2a1.75,1.75,0,0,0,.87.21,1.78,1.78,0,0,0,.87-.21l3.46-2a.63.63,0,0,0,.36-.5.61.61,0,0,0-.36-.5l-3.46-2a1.78,1.78,0,0,0-.87-.21,1.75,1.75,0,0,0-.87.21Z"/><path class="cls-11" d="M127.45,256.5a.61.61,0,0,0-.36.5.63.63,0,0,0,.36.5l3.47,2a1.71,1.71,0,0,0,.86.21,1.75,1.75,0,0,0,.87-.21l3.46-2a.63.63,0,0,0,.36-.5.61.61,0,0,0-.36-.5l-3.46-2a1.75,1.75,0,0,0-.87-.21,1.71,1.71,0,0,0-.86.21Z"/><path class="cls-11" d="M120.52,252.5a.61.61,0,0,0-.36.5.63.63,0,0,0,.36.5l3.47,2a1.71,1.71,0,0,0,.86.21,1.75,1.75,0,0,0,.87-.21l3.46-2a.63.63,0,0,0,.36-.5.61.61,0,0,0-.36-.5l-3.46-2a1.75,1.75,0,0,0-.87-.21,1.71,1.71,0,0,0-.86.21Z"/><path class="cls-11" d="M111.86,247.5a.61.61,0,0,0-.36.5.63.63,0,0,0,.36.5l5.2,3a1.89,1.89,0,0,0,1.73,0l3.46-2a.61.61,0,0,0,.36-.5.59.59,0,0,0-.36-.5l-5.19-3a1.75,1.75,0,0,0-.87-.21,1.71,1.71,0,0,0-.86.21Z"/><path class="cls-3" d="M106.25,232.35a1,1,0,0,0-.47-1l-11.79-9a3.13,3.13,0,0,0-1.61-.55,3.91,3.91,0,0,0-1.82.28L51.44,239a1.53,1.53,0,0,0-1,.93A1,1,0,0,0,51,241l11.8,9a3,3,0,0,0,1.61.55,3.78,3.78,0,0,0,1.82-.27l39.12-17A1.53,1.53,0,0,0,106.25,232.35Z"/><path class="cls-11" d="M43.45,242a1.05,1.05,0,0,1,0-2l34.64-20a3.85,3.85,0,0,1,3.46,0l13.86,8a1.05,1.05,0,0,1,0,2L60.77,250a3.48,3.48,0,0,1-1.73.41A3.52,3.52,0,0,1,57.3,250Z"/><path class="cls-1" d="M70.29,226.5a.6.6,0,0,0-.35.5.61.61,0,0,0,.35.5l12.13,7a1.89,1.89,0,0,0,1.73,0l8.66-5a.63.63,0,0,0,.36-.5.61.61,0,0,0-.36-.5l-12.12-7a1.91,1.91,0,0,0-1.74,0Z"/><path class="cls-6" d="M58.17,233.5a.61.61,0,0,0-.36.5.63.63,0,0,0,.36.5l12.12,7a1.91,1.91,0,0,0,1.74,0l8.66-5a.63.63,0,0,0,.36-.5.61.61,0,0,0-.36-.5l-12.13-7a1.89,1.89,0,0,0-1.73,0Z"/><path class="cls-3" d="M46.05,240.5a.59.59,0,0,0-.36.5.61.61,0,0,0,.36.5l12.12,7a1.89,1.89,0,0,0,1.73,0l8.66-5a.63.63,0,0,0,.36-.5.61.61,0,0,0-.36-.5l-12.12-7a1.75,1.75,0,0,0-.87-.21,1.71,1.71,0,0,0-.86.21Z"/><path class="cls-1" d="M70.29,161.5a1.91,1.91,0,0,1-.86-1.5c0-.55.38-.78.86-.5l3.47,2a1.91,1.91,0,0,1,.86,1.5c0,.55-.38.78-.86.5Z"/><path class="cls-4" d="M79,166.5a1.91,1.91,0,0,1-.86-1.5c0-.55.38-.78.86-.5l31.18,18A1.92,1.92,0,0,1,111,184c0,.55-.39.78-.87.5Z"/><path class="cls-1" d="M94.54,181.5c.48.28.87.05.87-.5a1.92,1.92,0,0,0-.87-1.5l-3.46-2c-.48-.28-.87-.05-.87.5a1.92,1.92,0,0,0,.87,1.5Z"/><path class="cls-4" d="M85.88,176.5c.48.28.87.05.87-.5a1.92,1.92,0,0,0-.87-1.5l-15.59-9c-.48-.28-.86-.05-.86.5a1.91,1.91,0,0,0,.86,1.5Z"/><g class="cls-12"><polygon class="cls-4" points="116.19 174 64.23 144 64.23 96 116.19 126 116.19 174"/><path class="cls-1" d="M64.23,144V133.59l11.51-6.65a.62.62,0,0,1,.62.06,1.75,1.75,0,0,1,.61.65L97.5,163.21Z"/><polygon class="cls-4" points="84.15 140.09 72.53 148.79 87.99 142.57 84.15 140.09"/><path class="cls-1" d="M116.19,174V151.59l-11.51-19.94a1.75,1.75,0,0,0-.61-.65.6.6,0,0,0-.61-.06L72.53,148.79Z"/></g><g class="cls-13"><polygon class="cls-4" points="116.19 114 64.23 84 64.23 36 116.19 66 116.19 114"/><path class="cls-1" d="M110.13,102.5c.48.28.87,0,.87-.5a1.92,1.92,0,0,0-.87-1.5l-29.44-17c-.48-.28-.87,0-.87.5a1.92,1.92,0,0,0,.87,1.5Z"/><path class="cls-1" d="M73.76,81.5c.48.28.86,0,.86-.5a1.91,1.91,0,0,0-.86-1.5l-3.47-2c-.48-.28-.86,0-.86.5a1.91,1.91,0,0,0,.86,1.5Z"/><path class="cls-1" d="M92.81,91.5c0,1.66-1.16,2.33-2.6,1.5a5.76,5.76,0,0,1-2.6-4.5c0-1.66,1.17-2.33,2.6-1.5A5.73,5.73,0,0,1,92.81,91.5Z"/><path class="cls-1" d="M86.75,75a1.94,1.94,0,0,0,.86,1.5.71.71,0,0,0,.46.11l6.93-1c.25,0,.41-.25.41-.61A1.84,1.84,0,0,0,95,73.92l-6.93-9a1.52,1.52,0,0,0-.46-.42c-.47-.28-.86,0-.86.5Z"/></g><g class="cls-14"><polygon class="cls-4" points="53.84 78 1.88 48 1.88 0 53.84 30 53.84 78"/><path class="cls-1" d="M42.58,39.5c.48.28.87,0,.87-.5a1.92,1.92,0,0,0-.87-1.5L27,28.5c-.48-.28-.86-.05-.86.5A1.91,1.91,0,0,0,27,30.5Z"/><path class="cls-1" d="M32.19,39.5c.48.28.86,0,.86-.5a1.91,1.91,0,0,0-.86-1.5l-19-11c-.48-.28-.87-.05-.87.5a1.92,1.92,0,0,0,.87,1.5Z"/><path class="cls-1" d="M21.8,27.5c.47.28.86.05.86-.5a1.94,1.94,0,0,0-.86-1.5l-8.66-5c-.48-.28-.87-.05-.87.5a1.92,1.92,0,0,0,.87,1.5Z"/><path class="cls-1" d="M13.14,34.5a1.92,1.92,0,0,1-.87-1.5c0-.55.39-.78.87-.5l3.46,2a1.92,1.92,0,0,1,.87,1.5c0,.55-.39.78-.87.5Z"/><path class="cls-1" d="M21.8,39.5a1.92,1.92,0,0,1-.87-1.5c0-.55.39-.78.87-.5l20.78,12a1.92,1.92,0,0,1,.87,1.5c0,.55-.39.78-.87.5Z"/><path class="cls-1" d="M42.58,57.5c.48.28.87,0,.87-.5a1.92,1.92,0,0,0-.87-1.5l-3.46-2c-.48-.28-.87,0-.87.5a1.92,1.92,0,0,0,.87,1.5Z"/><path class="cls-1" d="M33.92,52.5c.48.28.87,0,.87-.5a1.92,1.92,0,0,0-.87-1.5l-20.78-12c-.48-.28-.87,0-.87.5a1.92,1.92,0,0,0,.87,1.5Z"/></g></svg>